<svg id="Layer_1" data-name="Layer 1" xmlns="http://www.w3.org/2000/svg" viewBox="0 0 1856.69 1062.99"><defs><style>.cls-1{fill:#dadada;}.cls-2{fill:#a61966;}.cls-3{fill:#d67a10;}.cls-4,.cls-5{fill:none;stroke:#a61966;stroke-miterlimit:10;}.cls-4{stroke-width:10px;}.cls-5{stroke-width:5px;}.cls-6{fill:#fff;}.cls-7{fill:#3c3c3b;}</style></defs><title>FSInfographicsFINAL</title><text/><text/><rect class="cls-1" x="469.24" y="45.54" width="1368" height="984.27"/><rect class="cls-2" x="17.24" y="45.81" width="776" height="980"/><path class="cls-3" d="M176.74,687.81a103.5,103.5,0,1,1,103.5-103.5,103.62,103.62,0,0,1-103.5,103.5Zm0-202.4a98.9,98.9,0,1,0,98.9,98.9,99,99,0,0,0-98.9-98.9Z"/><rect class="cls-4" x="17.24" y="45.81" width="1820" height="980"/><rect class="cls-5" x="793.24" y="45.81" width="1044" height="980"/><text/><text/><text/><path class="cls-3" d="M617.71,678.74A103.47,103.47,0,1,1,721.17,575.28,103.58,103.58,0,0,1,617.71,678.74Zm0-202.33a98.87,98.87,0,1,0,98.87,98.87,99,99,0,0,0-98.87-98.87Z"/><ellipse class="cls-2" cx="392.74" cy="570.81" rx="148.5" ry="153"/><path class="cls-6" d="M396.58,723.81c-84,0-152.34-68.34-152.34-152.33s68.34-152.33,152.34-152.33,152.33,68.34,152.33,152.33S480.57,723.81,396.58,723.81Zm0-297.89C316.31,425.92,251,491.21,251,571.48S316.31,717,396.58,717s145.56-65.3,145.56-145.56-65.3-145.56-145.56-145.56Z"/><path class="cls-3" d="M134.52,634.26a2.54,2.54,0,0,1-2.55-2.55V615.12h-14a7.67,7.67,0,0,1-7.66-7.66V550a7.67,7.67,0,0,1,7.66-7.66H211.1a7.66,7.66,0,0,1,7.65,7.66v57.44a7.66,7.66,0,0,1-7.65,7.66H159.64L136.1,633.71a2.51,2.51,0,0,1-1.58.55Zm-16.6-86.79a2.56,2.56,0,0,0-2.56,2.55v57.44a2.56,2.56,0,0,0,2.56,2.55h16.6a2.55,2.55,0,0,1,2.55,2.55v13.88l20.1-15.88a2.59,2.59,0,0,1,1.58-.55H211.1a2.55,2.55,0,0,0,2.55-2.55V550a2.55,2.55,0,0,0-2.55-2.55Z"/><path class="cls-3" d="M194.5,573H137.06a2.55,2.55,0,0,1,0-5.1H194.5a2.55,2.55,0,1,1,0,5.1Z"/><path class="cls-3" d="M194.5,588.74H137.06a2.56,2.56,0,0,1,0-5.11H194.5a2.56,2.56,0,1,1,0,5.11Z"/><path class="cls-3" d="M657.2,618h0a14.76,14.76,0,0,1-10.52-4.35l-43.34-43.35a27,27,0,0,1-30.71-35.93,2.22,2.22,0,0,1,3.65-.8l12.88,12.89,9-2.41,2.4-9-12.88-12.88a2.23,2.23,0,0,1,.8-3.66,27,27,0,0,1,35.93,30.71l43.34,43.34A14.89,14.89,0,0,1,657.2,618ZM604,565.65a2.23,2.23,0,0,1,1.57.65l44.21,44.22a10.36,10.36,0,0,0,7.38,3.05h0a10.44,10.44,0,0,0,7.39-17.82l-44.21-44.22a2.2,2.2,0,0,1-.59-2.11,22.54,22.54,0,0,0-26.32-27.69l11.12,11.12a2.22,2.22,0,0,1,.57,2.15l-3.06,11.45a2.26,2.26,0,0,1-1.57,1.57l-11.46,3.07a2.2,2.2,0,0,1-2.15-.58L575.8,539.39a22.55,22.55,0,0,0,27.7,26.33,2,2,0,0,1,.54-.07Z"/><path class="cls-3" d="M656.55,598.45a3.71,3.71,0,1,0,3.71,3.71,3.7,3.7,0,0,0-3.71-3.71Z"/><path class="cls-3" d="M584.28,616.85a2.15,2.15,0,0,1-1.54-.64,2.21,2.21,0,0,1-.64-1.67l1.31-22.12A2.14,2.14,0,0,1,584,591L650,525.08a2.17,2.17,0,0,1,1.54-.64h0a2.17,2.17,0,0,1,1.54.64l20.81,20.81a2.15,2.15,0,0,1,.64,1.54,2.19,2.19,0,0,1-.64,1.54l-65.93,65.94a2.16,2.16,0,0,1-1.42.63l-22.11,1.3Zm3.43-23.35-1.12,18.85,18.84-1.11,63.81-63.81L651.51,529.7l-63.8,63.8Z"/><path class="cls-3" d="M660.58,559.25a2.17,2.17,0,0,1-1.54-.64L640.33,539.9a2.18,2.18,0,0,1,3.08-3.08l18.71,18.71a2.18,2.18,0,0,1,0,3.08,2.14,2.14,0,0,1-1.54.64Z"/><path class="cls-3" d="M599.43,601.7a2.18,2.18,0,0,1-1.54-3.72l51.47-51.47a2.18,2.18,0,1,1,3.08,3.08L601,601.06a2.22,2.22,0,0,1-1.54.64Z"/><path class="cls-3" d="M586.73,603.84c-.29,0-.59,0-.9,0s-.54.12-.81.16l-.64,10.74,10.3-.62a11.07,11.07,0,0,0,.24-1.2,8,8,0,0,0-8.19-9.12Z"/><rect class="cls-2" x="601.52" y="560.53" width="47.29" height="20.98" transform="translate(583.21 -274.64) rotate(44.75)"/><path class="cls-6" d="M395.75,648.1a3.48,3.48,0,0,1-2.25-.83c-2.68-2.28-65.43-56.2-65.43-92.85a67.68,67.68,0,0,1,135.35,0c0,36.65-62.75,90.57-65.42,92.85a3.48,3.48,0,0,1-2.25.83Zm0-154.41A60.8,60.8,0,0,0,335,554.42c0,29.81,49.49,75.58,60.74,85.6,11.25-10,60.73-55.79,60.73-85.6a60.8,60.8,0,0,0-60.73-60.73Z"/><path class="cls-6" d="M395.75,585.65A31.23,31.23,0,1,1,427,554.42a31.27,31.27,0,0,1-31.23,31.23Zm0-55.52A24.29,24.29,0,1,0,420,554.42a24.32,24.32,0,0,0-24.29-24.29Z"/><path class="cls-6" d="M143.88,204.72H129.75V243h-3.48V204.72H112.16v-2.94h31.72Z"/><path class="cls-6" d="M153.11,217.55a12,12,0,0,1,4.28-4.25,11.2,11.2,0,0,1,5.69-1.5c3.29,0,5.73.93,7.34,2.78s2.41,4.62,2.43,8.32V243h-3.37V222.88q0-4.11-1.74-6.12t-5.48-2a8.52,8.52,0,0,0-5.56,2,11.52,11.52,0,0,0-3.59,5.31v21h-3.37v-43.5h3.37Z"/><path class="cls-6" d="M193.44,243.58a13.23,13.23,0,0,1-7.06-1.93,13.08,13.08,0,0,1-4.92-5.36,16.77,16.77,0,0,1-1.75-7.72v-1.22a18.06,18.06,0,0,1,1.71-8,13.59,13.59,0,0,1,4.77-5.56,11.79,11.79,0,0,1,6.63-2,11.06,11.06,0,0,1,8.85,3.81q3.27,3.81,3.27,10.41v1.9H183.08v.65a12.84,12.84,0,0,0,3,8.68,9.53,9.53,0,0,0,7.52,3.47,11,11,0,0,0,4.8-1,10.56,10.56,0,0,0,3.78-3.18l2.13,1.62Q200.56,243.57,193.44,243.58Zm-.62-28.89a8.48,8.48,0,0,0-6.44,2.8,13,13,0,0,0-3.19,7.54h18.38v-.37a11.29,11.29,0,0,0-2.52-7.19A7.82,7.82,0,0,0,192.82,214.69Z"/><path class="cls-6" d="M256.91,224.63a23.86,23.86,0,0,1-2,10,15,15,0,0,1-5.62,6.62,15.4,15.4,0,0,1-8.44,2.33,14.66,14.66,0,0,1-11.67-5.17q-4.44-5.17-4.45-13.95v-4.25a23.71,23.71,0,0,1,2-10,14.85,14.85,0,0,1,14.06-9,15.43,15.43,0,0,1,8.4,2.29,15.14,15.14,0,0,1,5.62,6.49,23.39,23.39,0,0,1,2.07,9.71Zm-3.49-4.47q0-7.46-3.37-11.67a12.12,12.12,0,0,0-18.39,0q-3.42,4.25-3.41,11.83v4.3q0,7.34,3.4,11.63a12.12,12.12,0,0,0,18.46.05q3.31-4.23,3.31-11.79Z"/><path class="cls-6" d="M288.46,223.24H269.17v16.83h22.17V243H265.69V201.78H291.2v2.94h-22V220.3h19.29Z"/><path class="cls-6" d="M327.88,230.15q-.7,6.53-4.66,10t-10.52,3.46a14.56,14.56,0,0,1-8.12-2.3,15,15,0,0,1-5.45-6.5,23.18,23.18,0,0,1-1.95-9.61v-5.35a23.47,23.47,0,0,1,1.92-9.75,14.84,14.84,0,0,1,5.54-6.55,15.1,15.1,0,0,1,8.31-2.31q6.63,0,10.47,3.57t4.46,9.88h-3.51q-1.31-10.5-11.42-10.5a10.79,10.79,0,0,0-8.93,4.19q-3.33,4.2-3.33,11.59V225q0,7.14,3.24,11.39a10.46,10.46,0,0,0,8.77,4.25q5.46,0,8.24-2.62t3.43-7.86Z"/><path class="cls-6" d="M336.35,243V201.78h11.52a17.91,17.91,0,0,1,9.09,2.31,16,16,0,0,1,6.28,6.61,20.82,20.82,0,0,1,2.25,9.8v3.79a20.85,20.85,0,0,1-2.24,9.8,15.92,15.92,0,0,1-6.3,6.6,18.45,18.45,0,0,1-9.33,2.32Zm3.48-38.29v35.35h7.82a13.44,13.44,0,0,0,10.45-4.33q3.93-4.32,3.93-11.69v-3.63q0-7.11-3.88-11.39a13.22,13.22,0,0,0-10.22-4.31Z"/><path class="cls-6" d="M406,235.22a4.83,4.83,0,0,0-2-4.05,15.65,15.65,0,0,0-6.1-2.39,28,28,0,0,1-6.33-2,8.4,8.4,0,0,1-3.34-2.74,6.75,6.75,0,0,1-1.09-3.9,7.28,7.28,0,0,1,3-6,12.21,12.21,0,0,1,7.76-2.37,12.6,12.6,0,0,1,8.22,2.54,8.12,8.12,0,0,1,3.1,6.61h-3.39a5.51,5.51,0,0,0-2.26-4.48,10.16,10.16,0,0,0-11-.29,4.59,4.59,0,0,0-2,3.86,4.2,4.2,0,0,0,1.69,3.56,17.81,17.81,0,0,0,6.14,2.31,28.6,28.6,0,0,1,6.69,2.23,8.79,8.79,0,0,1,3.3,2.86,7.41,7.41,0,0,1,1.07,4.05,7.31,7.31,0,0,1-3.13,6.2,13.35,13.35,0,0,1-8.17,2.33A13.79,13.79,0,0,1,389.4,241a8,8,0,0,1-3.32-6.56h3.39a5.91,5.91,0,0,0,2.51,4.63,10.2,10.2,0,0,0,6.1,1.66,9.61,9.61,0,0,0,5.72-1.56A4.67,4.67,0,0,0,406,235.22Z"/><path class="cls-6" d="M436.71,239.13q-3.06,4.45-9.77,4.45c-3.26,0-5.75-1-7.45-2.85s-2.56-4.7-2.6-8.42V212.37h3.37v19.51q0,8.75,7.08,8.75,7.37,0,9.32-6.09V212.37h3.39V243h-3.28Z"/><path class="cls-6" d="M447.5,227.41q0-7.2,3.19-11.4a10.26,10.26,0,0,1,8.65-4.21,10.67,10.67,0,0,1,9.52,5l.17-4.42h3.17v30q0,5.91-3.32,9.37a11.81,11.81,0,0,1-9,3.46,13.71,13.71,0,0,1-6.11-1.43,12,12,0,0,1-4.57-3.81l1.9-2q3.6,4.41,8.55,4.42a8.72,8.72,0,0,0,6.63-2.51,10,10,0,0,0,2.46-6.95v-3.85q-3.25,4.53-9.49,4.53a10.22,10.22,0,0,1-8.55-4.25q-3.23-4.25-3.23-11.47Zm3.43.59q0,5.87,2.35,9.25a7.62,7.62,0,0,0,6.63,3.38,9.06,9.06,0,0,0,8.86-5.61V220.78a9.62,9.62,0,0,0-3.43-4.49,9.22,9.22,0,0,0-5.38-1.54,7.69,7.69,0,0,0-6.65,3.35Q450.93,221.46,450.93,228Z"/><path class="cls-6" d="M479.67,227.41q0-7.2,3.19-11.4a10.26,10.26,0,0,1,8.65-4.21,10.66,10.66,0,0,1,9.52,5l.17-4.42h3.17v30q0,5.91-3.31,9.37a11.85,11.85,0,0,1-9,3.46,13.66,13.66,0,0,1-6.1-1.43A12,12,0,0,1,481.4,250l1.9-2q3.6,4.41,8.55,4.42a8.72,8.72,0,0,0,6.63-2.51,9.93,9.93,0,0,0,2.46-6.95v-3.85q-3.26,4.53-9.48,4.53a10.25,10.25,0,0,1-8.56-4.25q-3.22-4.25-3.23-11.47Zm3.43.59q0,5.87,2.35,9.25a7.62,7.62,0,0,0,6.63,3.38,9,9,0,0,0,8.86-5.61V220.78a9.67,9.67,0,0,0-3.42-4.49,9.26,9.26,0,0,0-5.38-1.54,7.71,7.71,0,0,0-6.66,3.35Q483.1,221.46,483.1,228Z"/><path class="cls-6" d="M525.07,243.58a13.23,13.23,0,0,1-7.06-1.93,13.08,13.08,0,0,1-4.92-5.36,16.77,16.77,0,0,1-1.75-7.72v-1.22a18.06,18.06,0,0,1,1.71-8,13.59,13.59,0,0,1,4.77-5.56,11.79,11.79,0,0,1,6.63-2,11.06,11.06,0,0,1,8.85,3.81q3.27,3.81,3.27,10.41v1.9H514.71v.65a12.84,12.84,0,0,0,3,8.68,9.53,9.53,0,0,0,7.52,3.47,11,11,0,0,0,4.8-1,10.56,10.56,0,0,0,3.78-3.18l2.13,1.62Q532.18,243.57,525.07,243.58Zm-.62-28.89a8.48,8.48,0,0,0-6.44,2.8,13,13,0,0,0-3.19,7.54H533.2v-.37a11.18,11.18,0,0,0-2.52-7.19A7.82,7.82,0,0,0,524.45,214.69Z"/><path class="cls-6" d="M561.52,235.22a4.85,4.85,0,0,0-2-4.05,15.71,15.71,0,0,0-6.11-2.39,28,28,0,0,1-6.33-2,8.47,8.47,0,0,1-3.34-2.74,6.75,6.75,0,0,1-1.09-3.9,7.28,7.28,0,0,1,3-6,12.23,12.23,0,0,1,7.76-2.37,12.61,12.61,0,0,1,8.23,2.54,8.15,8.15,0,0,1,3.1,6.61h-3.4a5.5,5.5,0,0,0-2.25-4.48,10.17,10.17,0,0,0-11.05-.29,4.58,4.58,0,0,0-2,3.86,4.19,4.19,0,0,0,1.68,3.56,18,18,0,0,0,6.15,2.31,28.65,28.65,0,0,1,6.68,2.23,8.71,8.71,0,0,1,3.3,2.86,7.85,7.85,0,0,1-2.05,10.25,13.37,13.37,0,0,1-8.17,2.33,13.77,13.77,0,0,1-8.68-2.59,8,8,0,0,1-3.33-6.56H545a5.88,5.88,0,0,0,2.51,4.63,10.18,10.18,0,0,0,6.1,1.66,9.61,9.61,0,0,0,5.72-1.56A4.69,4.69,0,0,0,561.52,235.22Z"/><path class="cls-6" d="M577.8,204.52v7.85h6.35v2.77H577.8v20.45a6.39,6.39,0,0,0,.92,3.79,3.56,3.56,0,0,0,3.08,1.25,20.66,20.66,0,0,0,2.74-.28l.15,2.75a11.05,11.05,0,0,1-3.63.48q-3.48,0-5.07-2c-1.06-1.35-1.58-3.33-1.58-6V215.14h-5.64v-2.77h5.64v-7.85Z"/><path class="cls-6" d="M610.54,204.52v7.85h6.35v2.77h-6.35v20.45a6.39,6.39,0,0,0,.92,3.79,3.56,3.56,0,0,0,3.08,1.25,20.66,20.66,0,0,0,2.74-.28l.14,2.75a11,11,0,0,1-3.62.48q-3.48,0-5.07-2a9.5,9.5,0,0,1-1.59-6V215.14h-5.63v-2.77h5.63v-7.85Z"/><path class="cls-6" d="M627.28,217.55a11.93,11.93,0,0,1,4.28-4.25,11.18,11.18,0,0,1,5.69-1.5c3.28,0,5.73.93,7.33,2.78S647,219.2,647,222.9V243h-3.37V222.88q0-4.11-1.74-6.12c-1.15-1.34-3-2-5.48-2a8.55,8.55,0,0,0-5.57,2,11.51,11.51,0,0,0-3.58,5.31v21h-3.37v-43.5h3.37Z"/><path class="cls-6" d="M675.08,243a16.69,16.69,0,0,1-.65-4.28,11.81,11.81,0,0,1-4.54,3.59,13.92,13.92,0,0,1-5.85,1.26,10.23,10.23,0,0,1-7.15-2.47,8,8,0,0,1-2.73-6.23,8.21,8.21,0,0,1,3.72-7.08q3.72-2.6,10.38-2.6h6.15v-3.49a6.69,6.69,0,0,0-2-5.16,8.35,8.35,0,0,0-5.9-1.89,9.32,9.32,0,0,0-5.87,1.81,5.39,5.39,0,0,0-2.32,4.37l-3.4,0a7.89,7.89,0,0,1,3.4-6.33,13.07,13.07,0,0,1,8.36-2.68c3.41,0,6.11.86,8.08,2.57a9.2,9.2,0,0,1,3,7.15V236a18,18,0,0,0,.93,6.65V243Zm-10.64-2.43a11.33,11.33,0,0,0,6.07-1.65,9.68,9.68,0,0,0,3.9-4.39V227.8h-6.07a15.14,15.14,0,0,0-7.92,1.86,5.56,5.56,0,0,0-2.87,4.94,5.48,5.48,0,0,0,1.92,4.28A7.21,7.21,0,0,0,664.44,240.58Z"/><path class="cls-6" d="M692.08,204.52v7.85h6.34v2.77h-6.34v20.45a6.32,6.32,0,0,0,.92,3.79,3.53,3.53,0,0,0,3.07,1.25,20.77,20.77,0,0,0,2.75-.28l.14,2.75a11.05,11.05,0,0,1-3.63.48q-3.48,0-5.07-2a9.56,9.56,0,0,1-1.58-6V215.14H683v-2.77h5.64v-7.85Z"/><path class="cls-6" d="M704.62,241a2.37,2.37,0,0,1,.64-1.68,2.25,2.25,0,0,1,1.77-.7,2.28,2.28,0,0,1,1.78.7,2.34,2.34,0,0,1,.66,1.68,2.16,2.16,0,0,1-.66,1.63,2.4,2.4,0,0,1-1.78.64,2.36,2.36,0,0,1-1.77-.64A2.18,2.18,0,0,1,704.62,241Zm.06-26.14a2.37,2.37,0,0,1,.64-1.68,2.25,2.25,0,0,1,1.77-.7,2.3,2.3,0,0,1,1.78.7,2.37,2.37,0,0,1,.65,1.68,2.19,2.19,0,0,1-.65,1.63,2.41,2.41,0,0,1-1.78.64,2.36,2.36,0,0,1-1.77-.64A2.18,2.18,0,0,1,704.68,214.83Z"/><path class="cls-7" d="M941.9,349.34l3.4,2.08a34.12,34.12,0,0,0-2.08,3.49,14.24,14.24,0,0,0-1.32,3.85l-.66,3.83h-5.69l.51-3.35A15.48,15.48,0,0,1,941.9,349.34Zm8.43,0,3.4,2.08a32.4,32.4,0,0,0-2.08,3.49,14.24,14.24,0,0,0-1.32,3.85l-.66,3.83H944l.51-3.35A15.44,15.44,0,0,1,950.33,349.34Z"/><path class="cls-7" d="M953,389.2l6.42-37,10.62,0a14.44,14.44,0,0,1,6.71,1.69,12.71,12.71,0,0,1,4.84,4.63,15.87,15.87,0,0,1,2.24,6.8,22.82,22.82,0,0,1-.06,4.52l-.17,1.35a21.17,21.17,0,0,1-6.39,13,18.07,18.07,0,0,1-12.78,4.91Zm12.8-30.8-4.29,24.68,3.09,0a10.18,10.18,0,0,0,8.24-3.76q3.12-3.77,3.57-11.35l0-.81q.08-4.2-1.6-6.43a6.09,6.09,0,0,0-5-2.33Z"/><path class="cls-7" d="M999.47,389.71a12,12,0,0,1-6.38-1.77,10.59,10.59,0,0,1-4.15-4.77,13.26,13.26,0,0,1-1.07-6.69l.07-1a17.94,17.94,0,0,1,2.34-7.36,14.12,14.12,0,0,1,5-5.17,12.4,12.4,0,0,1,6.8-1.71,9.52,9.52,0,0,1,8,3.9q2.73,3.81,2.07,9.63l-.41,3.13H995a5.87,5.87,0,0,0,1.29,4.26,4.92,4.92,0,0,0,3.81,1.65,8.81,8.81,0,0,0,6.86-3l3.27,4.06a10.12,10.12,0,0,1-4.47,3.64A14.66,14.66,0,0,1,999.47,389.71Zm2.29-22.57a5.09,5.09,0,0,0-3.52,1.24,10.9,10.9,0,0,0-2.75,4.5h9.85l.15-.67a6.9,6.9,0,0,0,0-1.92,3.68,3.68,0,0,0-1.25-2.3A3.86,3.86,0,0,0,1001.76,367.14Z"/><path class="cls-7" d="M1026.05,380.14l7.82-18.41h7.72l-13.28,27.47h-6.85l-4.7-27.47H1024Z"/><path class="cls-7" d="M1054.18,389.71a12,12,0,0,1-6.39-1.77,10.71,10.71,0,0,1-4.15-4.77,13.26,13.26,0,0,1-1.06-6.69l.07-1a17.94,17.94,0,0,1,2.34-7.36,14.12,14.12,0,0,1,5-5.17,12.38,12.38,0,0,1,6.8-1.71,9.52,9.52,0,0,1,8,3.9q2.73,3.81,2.07,9.63l-.41,3.13h-16.83a5.87,5.87,0,0,0,1.29,4.26,4.92,4.92,0,0,0,3.81,1.65,8.81,8.81,0,0,0,6.86-3l3.27,4.06a10.12,10.12,0,0,1-4.47,3.64A14.69,14.69,0,0,1,1054.18,389.71Zm2.29-22.57a5.07,5.07,0,0,0-3.52,1.24,10.9,10.9,0,0,0-2.76,4.5h9.86l.15-.67a6.52,6.52,0,0,0,0-1.92A3.67,3.67,0,0,0,1059,368,3.86,3.86,0,0,0,1056.47,367.14Z"/><path class="cls-7" d="M1077.1,389.2h-7.21l6.78-39h7.19Z"/><path class="cls-7" d="M1099.77,361.22a11,11,0,0,1,6.26,1.87,10.48,10.48,0,0,1,3.86,5,15.57,15.57,0,0,1,.88,7.07,16.71,16.71,0,0,1-4.56,10.6,12.86,12.86,0,0,1-9.81,3.95,11.06,11.06,0,0,1-6.2-1.84,10.52,10.52,0,0,1-3.86-5,15.05,15.05,0,0,1-.89-7q.66-6.81,4.62-10.82A12.63,12.63,0,0,1,1099.77,361.22Zm-7.23,17.27a6.32,6.32,0,0,0,1.14,3.85,3.8,3.8,0,0,0,3.07,1.45,5.56,5.56,0,0,0,5.18-3,15.05,15.05,0,0,0,1.75-8.22,6.88,6.88,0,0,0-1.18-3.89,3.7,3.7,0,0,0-3.08-1.51,5.57,5.57,0,0,0-5.12,3A14.86,14.86,0,0,0,1092.54,378.49Z"/><path class="cls-7" d="M1140.09,375.54a22.85,22.85,0,0,1-2.26,7.67,12.51,12.51,0,0,1-4.29,5,9.9,9.9,0,0,1-5.69,1.54,7.89,7.89,0,0,1-6.3-3l-2.51,13h-7.16l6.58-38,6.6,0-.49,2.77a8.8,8.8,0,0,1,7-3.25,7.83,7.83,0,0,1,6.27,2.93,12.74,12.74,0,0,1,2.39,7.68A31.55,31.55,0,0,1,1140.09,375.54ZM1133,375l.15-2.44a6.79,6.79,0,0,0-.9-3.92,3.26,3.26,0,0,0-2.78-1.5,5.9,5.9,0,0,0-5.15,2.65l-2.06,11.34a4,4,0,0,0,4,2.67,5.17,5.17,0,0,0,4.31-2Q1132.32,379.73,1133,375Z"/><path class="cls-7" d="M1150.8,389.2h-7.21l4.77-27.47h7.21Zm-1.6-34.45a3.54,3.54,0,0,1,1.12-2.82,3.88,3.88,0,0,1,2.81-1.12,4,4,0,0,1,2.82,1,3.58,3.58,0,0,1,1.25,2.69,3.67,3.67,0,0,1-1.06,2.74,4.26,4.26,0,0,1-5.68.26A3.52,3.52,0,0,1,1149.2,354.75Z"/><path class="cls-7" d="M1169.07,361.7l-.6,3.25a9.88,9.88,0,0,1,8-3.73,6.59,6.59,0,0,1,5.74,2.84q1.86,2.78,1.35,7.67l-2.9,17.47h-7.16l3-17.54a8.62,8.62,0,0,0,0-1.81c-.22-1.72-1.3-2.61-3.25-2.66a6.15,6.15,0,0,0-5,2.61l-3.43,19.4h-7.16l4.77-27.47Z"/><path class="cls-7" d="M1188.52,375.44a19,19,0,0,1,4.15-10.35,10.5,10.5,0,0,1,8.54-3.89,7.69,7.69,0,0,1,6.56,3.17l.93-2.67,6.58,0-4.49,26.53a13,13,0,0,1-4.68,8.69,14.52,14.52,0,0,1-9.75,3.09,13.45,13.45,0,0,1-5.43-1.23,11.46,11.46,0,0,1-4.26-3.24l3.55-4.36a7.65,7.65,0,0,0,6,3.12,7.05,7.05,0,0,0,4.78-1.46,7.84,7.84,0,0,0,2.69-4.41l.4-1.65a8.91,8.91,0,0,1-6.73,2.9,7.93,7.93,0,0,1-6.37-3,12.86,12.86,0,0,1-2.59-7.63A25.14,25.14,0,0,1,1188.52,375.44Zm7,3a6.56,6.56,0,0,0,1,3.83,3.47,3.47,0,0,0,2.9,1.51,6.39,6.39,0,0,0,5.18-2.49l2.13-11.65a4.21,4.21,0,0,0-4-2.49,5.64,5.64,0,0,0-4.65,2.21,11.68,11.68,0,0,0-2.39,6.08Q1195.53,377.31,1195.55,378.45Z"/><path class="cls-7" d="M1245.31,355l-1.19,6.76h4.57l-.94,5.38h-4.57l-2.34,13.76a3.56,3.56,0,0,0,.2,2c.24.46.82.71,1.73.74.27,0,1,0,2.18-.13l-.5,5.61a12,12,0,0,1-4.12.59,6.46,6.46,0,0,1-5.25-2.21,8,8,0,0,1-1.43-5.84l2.37-14.5h-3.89l.94-5.38H1237l1.16-6.76Z"/><path class="cls-7" d="M1259.88,364.78a9.57,9.57,0,0,1,7.44-3.56,7,7,0,0,1,6,2.93q1.92,2.84,1.44,7.73l-2.9,17.32h-7.16l2.92-17.41a8.15,8.15,0,0,0,.05-1.83c-.17-1.83-1.23-2.77-3.2-2.82a6.15,6.15,0,0,0-5.07,2.49l-3.46,19.57h-7.16l6.76-39h7.18Z"/><path class="cls-7" d="M1291.38,389.71a12,12,0,0,1-6.38-1.77,10.59,10.59,0,0,1-4.15-4.77,13.26,13.26,0,0,1-1.07-6.69l.08-1a17.78,17.78,0,0,1,2.33-7.36,14.19,14.19,0,0,1,5-5.17,12.42,12.42,0,0,1,6.8-1.71,9.52,9.52,0,0,1,8,3.9q2.73,3.81,2.07,9.63l-.41,3.13h-16.83a5.87,5.87,0,0,0,1.29,4.26,4.92,4.92,0,0,0,3.81,1.65,8.81,8.81,0,0,0,6.86-3l3.27,4.06a10.12,10.12,0,0,1-4.47,3.64A14.66,14.66,0,0,1,1291.38,389.71Zm2.29-22.57a5.09,5.09,0,0,0-3.52,1.24,10.9,10.9,0,0,0-2.75,4.5h9.85l.15-.67a6.9,6.9,0,0,0,0-1.92,3.68,3.68,0,0,0-1.25-2.3A3.86,3.86,0,0,0,1293.67,367.14Z"/><path class="cls-7" d="M1339.26,368.61a14.66,14.66,0,0,0-2.41-.25,6.93,6.93,0,0,0-6.07,2.86l-3.17,18h-7.16l4.77-27.47,6.73,0-.66,3.35c1.72-2.59,3.86-3.88,6.4-3.88a10.21,10.21,0,0,1,2.48.36Z"/><path class="cls-7" d="M1347.56,389.2h-7.21l4.77-27.47h7.21Zm-1.6-34.45a3.58,3.58,0,0,1,1.12-2.82,3.88,3.88,0,0,1,2.82-1.12,4,4,0,0,1,2.81,1,3.58,3.58,0,0,1,1.25,2.69,3.67,3.67,0,0,1-1.06,2.74,3.91,3.91,0,0,1-2.88,1.22,4,4,0,0,1-2.8-1A3.52,3.52,0,0,1,1346,354.75Z"/><path class="cls-7" d="M1355.88,375.44a19,19,0,0,1,4.15-10.35,10.51,10.51,0,0,1,8.55-3.89,7.68,7.68,0,0,1,6.55,3.17l.94-2.67,6.57,0-4.49,26.53a13,13,0,0,1-4.67,8.69,14.55,14.55,0,0,1-9.75,3.09,13.46,13.46,0,0,1-5.44-1.23,11.62,11.62,0,0,1-4.26-3.24l3.55-4.36a7.65,7.65,0,0,0,6,3.12,7,7,0,0,0,4.77-1.46,7.79,7.79,0,0,0,2.69-4.41l.41-1.65a8.93,8.93,0,0,1-6.73,2.9,7.9,7.9,0,0,1-6.37-3,12.79,12.79,0,0,1-2.59-7.63A25,25,0,0,1,1355.88,375.44Zm7,3a6.56,6.56,0,0,0,1,3.83,3.51,3.51,0,0,0,2.91,1.51,6.41,6.41,0,0,0,5.18-2.49l2.13-11.65a4.23,4.23,0,0,0-4-2.49,5.64,5.64,0,0,0-4.65,2.21,11.68,11.68,0,0,0-2.38,6.08A25.6,25.6,0,0,0,1362.92,378.45Z"/><path class="cls-7" d="M1395.36,364.78a9.57,9.57,0,0,1,7.44-3.56,7,7,0,0,1,6,2.93q1.92,2.84,1.44,7.73l-2.9,17.32h-7.16l2.92-17.41a7.6,7.6,0,0,0,.05-1.83c-.16-1.83-1.23-2.77-3.19-2.82a6.17,6.17,0,0,0-5.08,2.49l-3.46,19.57h-7.16l6.76-39h7.18Z"/><path class="cls-7" d="M1428.34,355l-1.2,6.76h4.57l-.94,5.38h-4.57l-2.33,13.76a3.47,3.47,0,0,0,.2,2c.24.46.81.71,1.73.74.27,0,1,0,2.18-.13l-.51,5.61a12,12,0,0,1-4.11.59,6.49,6.49,0,0,1-5.26-2.21,8,8,0,0,1-1.42-5.84l2.36-14.5h-3.88l.94-5.38H1420l1.17-6.76Z"/><path class="cls-7" d="M1461.62,381.46q.41-2-2.82-2.95l-2.31-.58q-8.21-2.26-8-8a7.93,7.93,0,0,1,3.44-6.34,12.88,12.88,0,0,1,8-2.4,11.54,11.54,0,0,1,7.52,2.46,8.15,8.15,0,0,1,2.92,6.43l-7.11,0q0-3.52-3.51-3.58a5.08,5.08,0,0,0-2.91.84,3.46,3.46,0,0,0-1.51,2.26c-.25,1.35.77,2.31,3.08,2.87l1,.23a20.51,20.51,0,0,1,5.36,1.91,8.22,8.22,0,0,1,2.86,2.68,6.73,6.73,0,0,1,.92,3.84,7.3,7.3,0,0,1-1.69,4.57,10.3,10.3,0,0,1-4.41,3,15.44,15.44,0,0,1-5.91,1,11.61,11.61,0,0,1-7.61-2.63,8.44,8.44,0,0,1-3.1-6.66l6.75.05c.07,2.62,1.47,3.95,4.22,4a6,6,0,0,0,3.26-.81A3.23,3.23,0,0,0,1461.62,381.46Z"/><path class="cls-7" d="M1485.81,389.71a12,12,0,0,1-6.39-1.77,10.71,10.71,0,0,1-4.15-4.77,13.37,13.37,0,0,1-1.07-6.69l.08-1a17.65,17.65,0,0,1,2.34-7.36,14.17,14.17,0,0,1,5-5.17,12.44,12.44,0,0,1,6.81-1.71,9.49,9.49,0,0,1,8,3.9q2.73,3.81,2.07,9.63l-.4,3.13h-16.84a5.92,5.92,0,0,0,1.3,4.26,4.92,4.92,0,0,0,3.81,1.65,8.79,8.79,0,0,0,6.85-3l3.28,4.06a10.12,10.12,0,0,1-4.47,3.64A14.72,14.72,0,0,1,1485.81,389.71Zm2.28-22.57a5,5,0,0,0-3.51,1.24,10.8,10.8,0,0,0-2.76,4.5h9.85l.16-.67a6.52,6.52,0,0,0,0-1.92,3.67,3.67,0,0,0-1.24-2.3A3.87,3.87,0,0,0,1488.09,367.14Z"/><path class="cls-7" d="M1515.69,355l-1.2,6.76h4.57l-.93,5.38h-4.57l-2.34,13.76a3.56,3.56,0,0,0,.2,2c.24.46.81.71,1.73.74.27,0,1,0,2.18-.13l-.51,5.61a11.93,11.93,0,0,1-4.11.59,6.46,6.46,0,0,1-5.25-2.21,8,8,0,0,1-1.43-5.84l2.37-14.5h-3.89l.94-5.38h3.88l1.17-6.76Z"/><path class="cls-7" d="M1548.76,361.22a11,11,0,0,1,6.26,1.87,10.48,10.48,0,0,1,3.86,5,15.57,15.57,0,0,1,.88,7.07,16.71,16.71,0,0,1-4.56,10.6,12.86,12.86,0,0,1-9.81,3.95,11.06,11.06,0,0,1-6.2-1.84,10.52,10.52,0,0,1-3.86-5,15.19,15.19,0,0,1-.89-7q.66-6.81,4.62-10.82A12.63,12.63,0,0,1,1548.76,361.22Zm-7.23,17.27a6.32,6.32,0,0,0,1.14,3.85,3.8,3.8,0,0,0,3.07,1.45,5.56,5.56,0,0,0,5.18-3,15.05,15.05,0,0,0,1.75-8.22,6.8,6.8,0,0,0-1.18-3.89,3.7,3.7,0,0,0-3.08-1.51,5.57,5.57,0,0,0-5.12,3C1542,372.21,1541.43,375,1541.53,378.49Z"/><path class="cls-7" d="M1564.63,389.2l3.83-22.11h-4l.94-5.36,4,0,.36-2.74a10.34,10.34,0,0,1,11-9.34,23.47,23.47,0,0,1,3.88.53l-.63,5.69a8.66,8.66,0,0,0-2.11-.31,5.29,5.29,0,0,0-3.26,1,4.41,4.41,0,0,0-1.69,3l-.38,2.25h5.3l-.94,5.36h-5.28l-3.83,22.11Z"/><path class="cls-7" d="M1611.54,381.46q.4-2-2.82-2.95l-2.31-.58q-8.21-2.26-8-8a7.88,7.88,0,0,1,3.44-6.34,12.85,12.85,0,0,1,8-2.4,11.52,11.52,0,0,1,7.52,2.46,8.12,8.12,0,0,1,2.92,6.43l-7.11,0c0-2.35-1.13-3.54-3.5-3.58a5,5,0,0,0-2.91.84,3.43,3.43,0,0,0-1.51,2.26c-.26,1.35.77,2.31,3.07,2.87l1,.23a20.42,20.42,0,0,1,5.35,1.91,8.14,8.14,0,0,1,2.86,2.68,6.65,6.65,0,0,1,.93,3.84,7.36,7.36,0,0,1-1.69,4.57,10.4,10.4,0,0,1-4.42,3,15.42,15.42,0,0,1-5.9,1,11.62,11.62,0,0,1-7.62-2.63,8.5,8.5,0,0,1-3.1-6.66l6.76.05c.06,2.62,1.47,3.95,4.21,4a6,6,0,0,0,3.26-.81A3.2,3.2,0,0,0,1611.54,381.46Z"/><path class="cls-7" d="M1634.56,378.26l-3.32,2.89-1.4,8.05h-7.16l6.76-39h7.18l-3.71,21.18,1.4-1.5,8.15-8.15h9.19l-12,11.81,7.64,15.66h-7.84Z"/><path class="cls-7" d="M1658.33,389.2h-7.22l4.78-27.47h7.21Zm-1.6-34.45a3.54,3.54,0,0,1,1.11-2.82,3.92,3.92,0,0,1,2.82-1.12,4,4,0,0,1,2.82,1,3.54,3.54,0,0,1,1.24,2.69,3.62,3.62,0,0,1-1,2.74,3.94,3.94,0,0,1-2.88,1.22,4,4,0,0,1-2.81-1A3.54,3.54,0,0,1,1656.73,354.75Z"/><path class="cls-7" d="M1672.84,389.2h-7.21l6.78-39h7.19Z"/><path class="cls-7" d="M1687.36,389.2h-7.21l6.78-39h7.19Z"/><path class="cls-7" d="M1710.23,381.46q.42-2-2.81-2.95l-2.31-.58q-8.2-2.26-8-8a7.9,7.9,0,0,1,3.44-6.34,12.86,12.86,0,0,1,8-2.4,11.49,11.49,0,0,1,7.51,2.46,8.09,8.09,0,0,1,2.92,6.43l-7.1,0q0-3.52-3.51-3.58a5.06,5.06,0,0,0-2.91.84,3.46,3.46,0,0,0-1.51,2.26c-.25,1.35.77,2.31,3.08,2.87l1,.23a20.51,20.51,0,0,1,5.36,1.91,8.22,8.22,0,0,1,2.86,2.68,6.73,6.73,0,0,1,.92,3.84,7.3,7.3,0,0,1-1.69,4.57,10.3,10.3,0,0,1-4.41,3,15.44,15.44,0,0,1-5.91,1,11.66,11.66,0,0,1-7.62-2.63,8.46,8.46,0,0,1-3.09-6.66l6.75.05c.07,2.62,1.47,3.95,4.22,4a6,6,0,0,0,3.26-.81A3.19,3.19,0,0,0,1710.23,381.46Z"/><path class="cls-7" d="M981.89,467.2a7.24,7.24,0,0,1-.28-2.49,9.29,9.29,0,0,1-7,3,8.47,8.47,0,0,1-6-2.35,7.11,7.11,0,0,1-2.22-5.67,8.21,8.21,0,0,1,3.77-6.9c2.39-1.6,5.61-2.4,9.63-2.4l3.36.05.35-1.65a5.83,5.83,0,0,0,.08-1.6,2.8,2.8,0,0,0-.9-1.86,3.13,3.13,0,0,0-2.05-.7,4.36,4.36,0,0,0-2.84.82,4,4,0,0,0-1.5,2.53l-7.18,0a8,8,0,0,1,3.61-6.39,14.09,14.09,0,0,1,8.5-2.4,10.12,10.12,0,0,1,7.31,2.78,8.14,8.14,0,0,1,2.21,6.89l-2.11,13.16-.13,1.62a8,8,0,0,0,.43,3.05l0,.48Zm-5.51-5.05a6.58,6.58,0,0,0,5.41-2.69l.88-4.75-2.48,0c-2.65.07-4.55.88-5.72,2.42a4.16,4.16,0,0,0-.78,2,2.4,2.4,0,0,0,.57,2.17A2.87,2.87,0,0,0,976.38,462.15Z"/><path class="cls-7" d="M1005.49,439.7l-.6,3.25a9.88,9.88,0,0,1,8-3.73,6.59,6.59,0,0,1,5.74,2.84q1.86,2.78,1.35,7.67l-2.9,17.47h-7.16l3-17.54a8.62,8.62,0,0,0,0-1.81c-.22-1.72-1.31-2.61-3.25-2.66a6.15,6.15,0,0,0-5,2.61l-3.43,19.4H994l4.77-27.47Z"/><path class="cls-7" d="M1037.2,439.2a7.81,7.81,0,0,1,6.2,3.07l2.69-14.07h7.18l-6.75,39h-6.4l.41-2.94a8.9,8.9,0,0,1-7.16,3.47,7.88,7.88,0,0,1-4.5-1.34,8.51,8.51,0,0,1-3-3.8,15.17,15.17,0,0,1-1.15-5.52,21.17,21.17,0,0,1,.07-3.1l.15-1.14a22,22,0,0,1,2.35-7.41,12.15,12.15,0,0,1,4.27-4.75A10,10,0,0,1,1037.2,439.2ZM1032,454a20.17,20.17,0,0,0-.13,3.25q.26,4.47,3.61,4.55a6.14,6.14,0,0,0,5.25-2.85l2-10.91a4.06,4.06,0,0,0-4-2.85,5.21,5.21,0,0,0-4.36,2Q1032.63,449.28,1032,454Z"/><path class="cls-7" d="M1078.25,439.7l-.58,3.13a10.08,10.08,0,0,1,8-3.61,7.65,7.65,0,0,1,4.21,1.17,5.43,5.43,0,0,1,2.26,3,10.57,10.57,0,0,1,8.53-4.19,6.9,6.9,0,0,1,5.7,2.59q1.92,2.52,1.61,7.26l0,.64-2.92,17.49h-7.18l2.92-17.56a13.54,13.54,0,0,0,.07-1.76c-.11-1.78-1.13-2.69-3-2.74s-3.65,1.05-5.06,3.15l-.07.58-3.2,18.33h-7.16l2.92-17.49a11.84,11.84,0,0,0,.07-1.75c-.11-1.8-1.12-2.72-3-2.77a6.07,6.07,0,0,0-4.9,2.56L1074,467.2h-7.16l4.75-27.47Z"/><path class="cls-7" d="M1127.53,467.2a7.49,7.49,0,0,1-.28-2.49,9.29,9.29,0,0,1-7,3,8.49,8.49,0,0,1-6-2.35,7.11,7.11,0,0,1-2.22-5.67,8.24,8.24,0,0,1,3.77-6.9q3.6-2.4,9.64-2.4l3.35.05.35-1.65a5.46,5.46,0,0,0,.08-1.6,2.71,2.71,0,0,0-.9-1.86,3.13,3.13,0,0,0-2-.7,4.36,4.36,0,0,0-2.84.82,4,4,0,0,0-1.5,2.53l-7.18,0a8,8,0,0,1,3.62-6.39,14,14,0,0,1,8.49-2.4,10.12,10.12,0,0,1,7.31,2.78,8.14,8.14,0,0,1,2.21,6.89l-2.11,13.16-.12,1.62a7.78,7.78,0,0,0,.43,3.05l0,.48Zm-5.51-5.05a6.56,6.56,0,0,0,5.41-2.69l.89-4.75-2.49,0q-4,.1-5.72,2.42a4.16,4.16,0,0,0-.78,2,2.4,2.4,0,0,0,.57,2.17A2.88,2.88,0,0,0,1122,462.15Z"/><path class="cls-7" d="M1151.7,456.26l-3.33,2.89-1.4,8.05h-7.16l6.76-39h7.18l-3.7,21.18,1.39-1.5,8.15-8.15h9.19l-12,11.81,7.65,15.66h-7.85Z"/><path class="cls-7" d="M1175.46,467.2h-7.21l4.77-27.47h7.21Zm-1.6-34.45a3.54,3.54,0,0,1,1.12-2.82,3.88,3.88,0,0,1,2.81-1.12,4,4,0,0,1,2.82,1,3.58,3.58,0,0,1,1.25,2.69,3.67,3.67,0,0,1-1.06,2.74,3.92,3.92,0,0,1-2.88,1.22,4,4,0,0,1-2.81-1A3.54,3.54,0,0,1,1173.86,432.75Z"/><path class="cls-7" d="M1193.73,439.7l-.61,3.25a9.9,9.9,0,0,1,8-3.73,6.59,6.59,0,0,1,5.74,2.84q1.86,2.78,1.35,7.67l-2.9,17.47h-7.16l2.95-17.54a8.62,8.62,0,0,0,.05-1.81c-.22-1.72-1.31-2.61-3.25-2.66a6.14,6.14,0,0,0-5.05,2.61l-3.43,19.4h-7.16l4.77-27.47Z"/><path class="cls-7" d="M1213.18,453.44a19,19,0,0,1,4.15-10.35,10.5,10.5,0,0,1,8.54-3.89,7.66,7.66,0,0,1,6.55,3.17l.94-2.67,6.58,0-4.49,26.53a13,13,0,0,1-4.68,8.69A14.52,14.52,0,0,1,1221,478a13.45,13.45,0,0,1-5.43-1.23,11.57,11.57,0,0,1-4.27-3.24l3.56-4.36a7.65,7.65,0,0,0,6,3.12,7.07,7.07,0,0,0,4.78-1.46,7.84,7.84,0,0,0,2.69-4.41l.4-1.65a8.91,8.91,0,0,1-6.73,2.9,7.93,7.93,0,0,1-6.37-3,12.86,12.86,0,0,1-2.59-7.63A25.14,25.14,0,0,1,1213.18,453.44Zm7,3a6.63,6.63,0,0,0,1,3.83,3.51,3.51,0,0,0,2.91,1.51,6.4,6.4,0,0,0,5.18-2.49l2.13-11.65a4.21,4.21,0,0,0-4-2.49,5.64,5.64,0,0,0-4.65,2.21,11.68,11.68,0,0,0-2.39,6.08A28,28,0,0,0,1220.21,456.45Z"/><path class="cls-7" d="M1257.37,467.2l3.84-22.11h-4l.94-5.36,4,0,.35-2.74a10.34,10.34,0,0,1,11-9.34,23.57,23.57,0,0,1,3.89.53l-.64,5.69a8.53,8.53,0,0,0-2.11-.31,5.33,5.33,0,0,0-3.26,1,4.45,4.45,0,0,0-1.69,3l-.38,2.25h5.31l-.94,5.36h-5.28l-3.84,22.11Z"/><path class="cls-7" d="M1291.67,464.36a9.49,9.49,0,0,1-7.56,3.35,7.1,7.1,0,0,1-6-2.84,10.41,10.41,0,0,1-1.57-7.37l3-17.77h7.16l-3,17.87a6.94,6.94,0,0,0,0,1.57,2.61,2.61,0,0,0,2.82,2.62,6.55,6.55,0,0,0,5.51-2.56l3.43-19.5h7.21l-4.77,27.47h-6.68Z"/><path class="cls-7" d="M1311.6,467.2h-7.21l6.78-39h7.18Z"/><path class="cls-7" d="M1326.12,467.2h-7.21l6.78-39h7.18Z"/><path class="cls-7" d="M1363.79,464.36a9.51,9.51,0,0,1-7.57,3.35,7.07,7.07,0,0,1-6-2.84,10.41,10.41,0,0,1-1.58-7.37l3-17.77h7.16l-3,17.87a7.54,7.54,0,0,0,0,1.57,2.61,2.61,0,0,0,2.82,2.62,6.57,6.57,0,0,0,5.51-2.56l3.42-19.5h7.22l-4.78,27.47h-6.68Z"/><path class="cls-7" d="M1392.07,459.46q.4-2-2.82-2.95l-2.31-.58q-8.2-2.26-8-8a7.88,7.88,0,0,1,3.44-6.34,12.85,12.85,0,0,1,8-2.4,11.52,11.52,0,0,1,7.52,2.46,8.15,8.15,0,0,1,2.92,6.43l-7.11,0c0-2.35-1.13-3.54-3.5-3.58a5,5,0,0,0-2.91.84,3.43,3.43,0,0,0-1.51,2.26c-.26,1.35.77,2.31,3.07,2.87l1,.23a20.42,20.42,0,0,1,5.35,1.91,8.14,8.14,0,0,1,2.86,2.68,6.65,6.65,0,0,1,.93,3.84,7.36,7.36,0,0,1-1.69,4.57,10.4,10.4,0,0,1-4.42,3,15.42,15.42,0,0,1-5.9,1,11.62,11.62,0,0,1-7.62-2.63,8.5,8.5,0,0,1-3.1-6.66l6.76.05c.06,2.62,1.47,3.95,4.21,4a6,6,0,0,0,3.26-.81A3.2,3.2,0,0,0,1392.07,459.46Z"/><path class="cls-7" d="M1416.26,467.71a12,12,0,0,1-6.38-1.77,10.67,10.67,0,0,1-4.16-4.77,13.26,13.26,0,0,1-1.06-6.69l.07-1a17.94,17.94,0,0,1,2.34-7.36,14.12,14.12,0,0,1,5-5.17,12.4,12.4,0,0,1,6.8-1.71,9.52,9.52,0,0,1,8,3.9q2.73,3.81,2.07,9.63l-.41,3.13h-16.83a5.87,5.87,0,0,0,1.29,4.26,4.92,4.92,0,0,0,3.81,1.65,8.81,8.81,0,0,0,6.86-3l3.27,4.06a10.12,10.12,0,0,1-4.47,3.64A14.66,14.66,0,0,1,1416.26,467.71Zm2.29-22.57a5.07,5.07,0,0,0-3.52,1.24,11,11,0,0,0-2.76,4.5h9.86l.15-.67a6.52,6.52,0,0,0,0-1.92,3.62,3.62,0,0,0-1.24-2.3A3.86,3.86,0,0,0,1418.55,445.14Z"/><path class="cls-7" d="M1461,439.22a11,11,0,0,1,6.26,1.87,10.48,10.48,0,0,1,3.86,5,15.43,15.43,0,0,1,.87,7.07,16.65,16.65,0,0,1-4.55,10.6,12.87,12.87,0,0,1-9.82,3.95,11,11,0,0,1-6.19-1.84,10.52,10.52,0,0,1-3.86-5,15.05,15.05,0,0,1-.89-7q.66-6.81,4.62-10.82A12.63,12.63,0,0,1,1461,439.22Zm-7.24,17.27a6.38,6.38,0,0,0,1.15,3.85,3.79,3.79,0,0,0,3.07,1.45,5.56,5.56,0,0,0,5.18-3,15.05,15.05,0,0,0,1.75-8.22,6.88,6.88,0,0,0-1.18-3.89,3.7,3.7,0,0,0-3.08-1.51,5.57,5.57,0,0,0-5.12,3A14.94,14.94,0,0,0,1453.8,456.49Z"/><path class="cls-7" d="M1476.91,467.2l3.83-22.11h-4l.94-5.36,4,0L1482,437a10.34,10.34,0,0,1,11-9.34,23.44,23.44,0,0,1,3.89.53l-.64,5.69a8.52,8.52,0,0,0-2.1-.31,5.34,5.34,0,0,0-3.27,1,4.44,4.44,0,0,0-1.68,3l-.39,2.25h5.31l-.94,5.36H1488l-3.83,22.11Z"/><path class="cls-7" d="M1522.42,433l-1.19,6.76h4.57l-.94,5.38h-4.57L1518,458.87a3.46,3.46,0,0,0,.21,2c.23.46.81.71,1.72.74.27,0,1,0,2.19-.13l-.51,5.61a12,12,0,0,1-4.12.59,6.46,6.46,0,0,1-5.25-2.21,8,8,0,0,1-1.42-5.84l2.36-14.5h-3.89l.94-5.38h3.89l1.17-6.76Z"/><path class="cls-7" d="M1537,442.78a9.57,9.57,0,0,1,7.44-3.56,7,7,0,0,1,6,2.93q1.9,2.84,1.43,7.73L1549,467.2h-7.17l2.92-17.41a8.19,8.19,0,0,0,.06-1.83q-.26-2.74-3.2-2.82a6.17,6.17,0,0,0-5.08,2.49l-3.45,19.57h-7.16l6.75-39h7.18Z"/><path class="cls-7" d="M1568.5,467.71a12,12,0,0,1-6.39-1.77,10.65,10.65,0,0,1-4.15-4.77,13.26,13.26,0,0,1-1.07-6.69l.08-1a17.78,17.78,0,0,1,2.33-7.36,14.19,14.19,0,0,1,5-5.17,12.44,12.44,0,0,1,6.81-1.71,9.52,9.52,0,0,1,8,3.9q2.73,3.81,2.07,9.63l-.4,3.13H1564a5.88,5.88,0,0,0,1.3,4.26,4.91,4.91,0,0,0,3.8,1.65,8.8,8.8,0,0,0,6.86-3l3.28,4.06a10.24,10.24,0,0,1-4.47,3.64A14.72,14.72,0,0,1,1568.5,467.71Zm2.28-22.57a5.09,5.09,0,0,0-3.52,1.24,10.9,10.9,0,0,0-2.75,4.5h9.85l.15-.67a6.9,6.9,0,0,0,0-1.92,3.68,3.68,0,0,0-1.25-2.3A3.84,3.84,0,0,0,1570.78,445.14Z"/><path class="cls-7" d="M1595.28,439.7l-.59,3.13a10.1,10.1,0,0,1,8-3.61,7.66,7.66,0,0,1,4.22,1.17,5.43,5.43,0,0,1,2.26,3,10.57,10.57,0,0,1,8.53-4.19,6.9,6.9,0,0,1,5.7,2.59q1.92,2.52,1.61,7.26l0,.64-2.92,17.49h-7.18l2.92-17.56a13.54,13.54,0,0,0,.07-1.76c-.12-1.78-1.13-2.69-3.05-2.74s-3.64,1.05-5,3.15l-.07.58-3.2,18.33h-7.16l2.92-17.49a13.39,13.39,0,0,0,.07-1.75c-.12-1.8-1.12-2.72-3-2.77a6.07,6.07,0,0,0-4.9,2.56L1591,467.2h-7.16l4.75-27.47Z"/><path class="cls-7" d="M1649.94,467.2h-7.22l4.78-27.47h7.21Zm-1.6-34.45a3.54,3.54,0,0,1,1.11-2.82,3.92,3.92,0,0,1,2.82-1.12,4,4,0,0,1,2.82,1,3.54,3.54,0,0,1,1.24,2.69,3.62,3.62,0,0,1-1,2.74,3.94,3.94,0,0,1-2.88,1.22,4,4,0,0,1-2.81-1A3.54,3.54,0,0,1,1648.34,432.75Z"/><path class="cls-7" d="M1668.21,439.7l-.61,3.25a9.9,9.9,0,0,1,8-3.73,6.61,6.61,0,0,1,5.74,2.84q1.85,2.78,1.34,7.67l-2.89,17.47h-7.16l2.94-17.54a8,8,0,0,0,.06-1.81c-.22-1.72-1.31-2.61-3.25-2.66a6.16,6.16,0,0,0-5.06,2.61l-3.42,19.4h-7.17l4.78-27.47Z"/><path class="cls-7" d="M1017.5,511l-1.19,6.76h4.57l-.94,5.38h-4.57L1013,536.87a3.46,3.46,0,0,0,.21,2c.23.46.81.71,1.72.74.27,0,1,0,2.19-.13l-.51,5.61a12,12,0,0,1-4.11.59,6.47,6.47,0,0,1-5.26-2.21,8,8,0,0,1-1.42-5.84l2.36-14.5h-3.89l.94-5.38h3.89l1.17-6.76Z"/><path class="cls-7" d="M1032.07,520.78a9.57,9.57,0,0,1,7.44-3.56,7,7,0,0,1,6,2.93q1.9,2.83,1.43,7.73l-2.89,17.32h-7.16l2.92-17.41a8.79,8.79,0,0,0,0-1.83q-.25-2.75-3.2-2.82a6.18,6.18,0,0,0-5.08,2.49l-3.45,19.57H1021l6.75-39h7.19Z"/><path class="cls-7" d="M1063.58,545.71a12,12,0,0,1-6.39-1.77,10.65,10.65,0,0,1-4.15-4.77,13.37,13.37,0,0,1-1.07-6.69l.08-1a17.65,17.65,0,0,1,2.34-7.36,14.09,14.09,0,0,1,5-5.17,12.44,12.44,0,0,1,6.81-1.71,9.5,9.5,0,0,1,8,3.9q2.73,3.81,2.07,9.63l-.4,3.13h-16.84a5.92,5.92,0,0,0,1.3,4.26,4.92,4.92,0,0,0,3.81,1.65,8.79,8.79,0,0,0,6.85-3l3.28,4.06a10.24,10.24,0,0,1-4.47,3.64A14.72,14.72,0,0,1,1063.58,545.71Zm2.28-22.57a5,5,0,0,0-3.51,1.24,10.8,10.8,0,0,0-2.76,4.5h9.85l.15-.67a6.54,6.54,0,0,0,0-1.92,3.67,3.67,0,0,0-1.24-2.3A3.87,3.87,0,0,0,1065.86,523.14Z"/><path class="cls-7" d="M1105.69,545.71a12,12,0,0,1-6.38-1.77,10.67,10.67,0,0,1-4.16-4.77,13.26,13.26,0,0,1-1.06-6.69l.07-1a17.94,17.94,0,0,1,2.34-7.36,14.12,14.12,0,0,1,5-5.17,12.38,12.38,0,0,1,6.8-1.71,9.52,9.52,0,0,1,8,3.9q2.73,3.81,2.07,9.63l-.41,3.13H1101.2a5.87,5.87,0,0,0,1.29,4.26,4.92,4.92,0,0,0,3.81,1.65,8.81,8.81,0,0,0,6.86-3l3.27,4.06a10.12,10.12,0,0,1-4.47,3.64A14.66,14.66,0,0,1,1105.69,545.71Zm2.29-22.57a5.07,5.07,0,0,0-3.52,1.24,11,11,0,0,0-2.76,4.5h9.86l.15-.67a6.52,6.52,0,0,0,0-1.92,3.67,3.67,0,0,0-1.24-2.3A3.86,3.86,0,0,0,1108,523.14Z"/><path class="cls-7" d="M1133.08,539.82a4.73,4.73,0,0,0,3.3-1.08,5.31,5.31,0,0,0,1.73-3l6.73,0a9.91,9.91,0,0,1-1.82,5.2,11.06,11.06,0,0,1-4.36,3.61,12.44,12.44,0,0,1-5.76,1.21,10.16,10.16,0,0,1-7.92-3.45q-2.91-3.37-2.82-9l.08-1.39,0-.28a17.13,17.13,0,0,1,4.52-10.63,12.23,12.23,0,0,1,9.47-3.77,9.93,9.93,0,0,1,7.37,3,10.72,10.72,0,0,1,2.68,7.74h-6.68a5.62,5.62,0,0,0-1-3.48,3.65,3.65,0,0,0-2.9-1.37q-5.13-.15-6.22,7.49a26.32,26.32,0,0,0-.28,4.67Q1129.53,539.74,1133.08,539.82Z"/><path class="cls-7" d="M1164.21,517.22a11,11,0,0,1,6.26,1.87,10.47,10.47,0,0,1,3.85,5,15.3,15.3,0,0,1,.88,7.07,16.71,16.71,0,0,1-4.56,10.6,12.86,12.86,0,0,1-9.81,4,11.08,11.08,0,0,1-6.2-1.84,10.52,10.52,0,0,1-3.86-5,15.19,15.19,0,0,1-.88-7q.66-6.81,4.62-10.82A12.62,12.62,0,0,1,1164.21,517.22ZM1157,534.49a6.38,6.38,0,0,0,1.14,3.85,3.81,3.81,0,0,0,3.08,1.45,5.54,5.54,0,0,0,5.17-3,15,15,0,0,0,1.76-8.22,6.88,6.88,0,0,0-1.18-3.89,3.71,3.71,0,0,0-3.09-1.51,5.58,5.58,0,0,0-5.12,3A15,15,0,0,0,1157,534.49Z"/><path class="cls-7" d="M1189.47,517.7l-.61,3.25a9.88,9.88,0,0,1,8-3.73,6.59,6.59,0,0,1,5.74,2.84q1.86,2.78,1.35,7.67L1201,545.2h-7.16l2.95-17.54a8.62,8.62,0,0,0,.05-1.81c-.22-1.72-1.3-2.61-3.25-2.66a6.15,6.15,0,0,0-5.05,2.61l-3.43,19.4H1178l4.77-27.47Z"/><path class="cls-7" d="M1223.26,517.22a11,11,0,0,1,6.26,1.87,10.47,10.47,0,0,1,3.85,5,15.3,15.3,0,0,1,.88,7.07,16.71,16.71,0,0,1-4.56,10.6,12.86,12.86,0,0,1-9.81,4,11.08,11.08,0,0,1-6.2-1.84,10.52,10.52,0,0,1-3.86-5,15.19,15.19,0,0,1-.88-7q.66-6.81,4.62-10.82A12.62,12.62,0,0,1,1223.26,517.22ZM1216,534.49a6.38,6.38,0,0,0,1.14,3.85,3.8,3.8,0,0,0,3.07,1.45,5.55,5.55,0,0,0,5.18-3,15,15,0,0,0,1.76-8.22,6.88,6.88,0,0,0-1.18-3.89,3.71,3.71,0,0,0-3.09-1.51,5.58,5.58,0,0,0-5.12,3A15,15,0,0,0,1216,534.49Z"/><path class="cls-7" d="M1248.62,517.7l-.59,3.13a10.09,10.09,0,0,1,8-3.61,7.69,7.69,0,0,1,4.22,1.17,5.47,5.47,0,0,1,2.26,3,10.57,10.57,0,0,1,8.53-4.19,6.9,6.9,0,0,1,5.7,2.59c1.28,1.68,1.81,4.1,1.61,7.26l-.05.64-2.92,17.49h-7.19l2.92-17.56a12.05,12.05,0,0,0,.08-1.76c-.12-1.78-1.13-2.69-3-2.74s-3.64,1.05-5,3.15l-.08.58-3.2,18.33h-7.16l2.92-17.49a11.92,11.92,0,0,0,.08-1.75c-.12-1.8-1.13-2.72-3-2.77a6.06,6.06,0,0,0-4.9,2.56l-3.43,19.45h-7.16l4.75-27.47Z"/><path class="cls-7" d="M1293.65,534.74l7.85-17h8l-16.07,31.61a13.7,13.7,0,0,1-4.05,5.33,8.82,8.82,0,0,1-5.37,1.7,16,16,0,0,1-3.45-.53l.53-5.59,1,0a5.35,5.35,0,0,0,5.13-2.56l1.57-2.92-4.49-27.09h7.41Z"/><path class="cls-7" d="M1329.73,545.2h-7.21l4.77-27.47h7.21Zm-1.6-34.45a3.57,3.57,0,0,1,1.11-2.82,3.92,3.92,0,0,1,2.82-1.12,4,4,0,0,1,2.82,1,3.54,3.54,0,0,1,1.24,2.69,3.62,3.62,0,0,1-1,2.74,3.94,3.94,0,0,1-2.88,1.22,4,4,0,0,1-2.81-1A3.54,3.54,0,0,1,1328.13,510.75Z"/><path class="cls-7" d="M1352.6,537.46q.4-2-2.82-3l-2.31-.58q-8.21-2.26-8-8a7.88,7.88,0,0,1,3.44-6.34,12.85,12.85,0,0,1,8-2.4,11.54,11.54,0,0,1,7.52,2.46,8.15,8.15,0,0,1,2.92,6.43l-7.11,0q0-3.52-3.51-3.58a5,5,0,0,0-2.9.84,3.43,3.43,0,0,0-1.51,2.26c-.26,1.35.77,2.31,3.07,2.87l1,.23a20.37,20.37,0,0,1,5.36,1.91,8.14,8.14,0,0,1,2.86,2.68,6.65,6.65,0,0,1,.93,3.84,7.42,7.42,0,0,1-1.69,4.57,10.4,10.4,0,0,1-4.42,3,15.42,15.42,0,0,1-5.9,1,11.62,11.62,0,0,1-7.62-2.63,8.47,8.47,0,0,1-3.1-6.66l6.75.05q.11,3.93,4.22,4a6,6,0,0,0,3.26-.81A3.2,3.2,0,0,0,1352.6,537.46Z"/><path class="cls-7" d="M1393.34,545.2a7.49,7.49,0,0,1-.28-2.49,9.28,9.28,0,0,1-7,3,8.49,8.49,0,0,1-6-2.35,7.11,7.11,0,0,1-2.22-5.67,8.24,8.24,0,0,1,3.77-6.9q3.6-2.4,9.64-2.4l3.35.05.36-1.65a5.81,5.81,0,0,0,.07-1.6,2.71,2.71,0,0,0-.9-1.86,3.12,3.12,0,0,0-2-.7,4.37,4.37,0,0,0-2.85.82,4,4,0,0,0-1.5,2.53l-7.18,0a8,8,0,0,1,3.62-6.39,14,14,0,0,1,8.49-2.4A10.12,10.12,0,0,1,1400,520a8.14,8.14,0,0,1,2.21,6.89l-2.11,13.16-.12,1.62a7.78,7.78,0,0,0,.43,3.05l0,.48Zm-5.51-5.05a6.55,6.55,0,0,0,5.41-2.69l.89-4.75-2.49,0c-2.64.07-4.55.88-5.71,2.42a4.08,4.08,0,0,0-.79,2,2.4,2.4,0,0,0,.57,2.17A2.88,2.88,0,0,0,1387.83,540.15Z"/><path class="cls-7" d="M1438.15,524.61a14.76,14.76,0,0,0-2.42-.25,6.91,6.91,0,0,0-6.06,2.86l-3.18,18h-7.16l4.77-27.47,6.73,0-.66,3.35q2.6-3.88,6.4-3.88a10.35,10.35,0,0,1,2.49.36Z"/><path class="cls-7" d="M1451.93,545.71a12,12,0,0,1-6.39-1.77,10.71,10.71,0,0,1-4.15-4.77,13.37,13.37,0,0,1-1.07-6.69l.08-1a17.65,17.65,0,0,1,2.34-7.36,14.17,14.17,0,0,1,5-5.17,12.44,12.44,0,0,1,6.81-1.71,9.49,9.49,0,0,1,8,3.9q2.73,3.81,2.07,9.63l-.4,3.13h-16.84a5.92,5.92,0,0,0,1.3,4.26,4.92,4.92,0,0,0,3.81,1.65,8.79,8.79,0,0,0,6.85-3l3.28,4.06a10.12,10.12,0,0,1-4.47,3.64A14.72,14.72,0,0,1,1451.93,545.71Zm2.28-22.57a5,5,0,0,0-3.51,1.24,10.8,10.8,0,0,0-2.76,4.5h9.85l.16-.67a6.52,6.52,0,0,0,0-1.92,3.67,3.67,0,0,0-1.24-2.3A3.87,3.87,0,0,0,1454.21,523.14Z"/><path class="cls-7" d="M1479.32,539.82a4.73,4.73,0,0,0,3.3-1.08,5.31,5.31,0,0,0,1.73-3l6.73,0a9.91,9.91,0,0,1-1.82,5.2,11.09,11.09,0,0,1-4.37,3.61,12.4,12.4,0,0,1-5.75,1.21,10.16,10.16,0,0,1-7.92-3.45q-2.92-3.37-2.82-9l.08-1.39,0-.28A17.24,17.24,0,0,1,1473,521a12.26,12.26,0,0,1,9.47-3.77,9.93,9.93,0,0,1,7.38,3,10.76,10.76,0,0,1,2.68,7.74h-6.68a5.62,5.62,0,0,0-1-3.48,3.65,3.65,0,0,0-2.9-1.37q-5.13-.15-6.22,7.49a25.4,25.4,0,0,0-.28,4.67Q1475.77,539.74,1479.32,539.82Z"/><path class="cls-7" d="M1502.29,545.2h-7.21l4.78-27.47h7.21Zm-1.6-34.45a3.58,3.58,0,0,1,1.12-2.82,3.92,3.92,0,0,1,2.82-1.12,4,4,0,0,1,2.82,1,3.57,3.57,0,0,1,1.24,2.69,3.66,3.66,0,0,1-1,2.74,4.27,4.27,0,0,1-5.69.26A3.58,3.58,0,0,1,1500.69,510.75Z"/><path class="cls-7" d="M1535.63,531.54a22.85,22.85,0,0,1-2.26,7.67,12.51,12.51,0,0,1-4.29,5,9.9,9.9,0,0,1-5.69,1.54,7.89,7.89,0,0,1-6.3-3l-2.51,13h-7.16l6.57-38,6.61,0-.49,2.77a8.78,8.78,0,0,1,7-3.25,7.83,7.83,0,0,1,6.27,2.93,12.74,12.74,0,0,1,2.39,7.68A31.55,31.55,0,0,1,1535.63,531.54Zm-7.11-.52.15-2.44a6.87,6.87,0,0,0-.9-3.92,3.27,3.27,0,0,0-2.78-1.5,5.93,5.93,0,0,0-5.16,2.65l-2,11.34a4,4,0,0,0,4,2.67,5.17,5.17,0,0,0,4.32-2Q1527.86,535.72,1528.52,531Z"/><path class="cls-7" d="M1551.82,545.71a12,12,0,0,1-6.38-1.77,10.67,10.67,0,0,1-4.16-4.77,13.37,13.37,0,0,1-1.06-6.69l.07-1a17.94,17.94,0,0,1,2.34-7.36,14.12,14.12,0,0,1,5-5.17,12.4,12.4,0,0,1,6.8-1.71,9.52,9.52,0,0,1,8,3.9q2.73,3.81,2.07,9.63l-.41,3.13h-16.83a5.87,5.87,0,0,0,1.29,4.26,4.92,4.92,0,0,0,3.81,1.65,8.81,8.81,0,0,0,6.86-3l3.27,4.06a10.12,10.12,0,0,1-4.47,3.64A14.66,14.66,0,0,1,1551.82,545.71Zm2.29-22.57a5.07,5.07,0,0,0-3.52,1.24,10.9,10.9,0,0,0-2.75,4.5h9.85l.15-.67a6.52,6.52,0,0,0,0-1.92,3.62,3.62,0,0,0-1.24-2.3A3.86,3.86,0,0,0,1554.11,523.14Z"/><path class="cls-7" d="M1582.81,545.2l3.84-22.11h-4l.94-5.36,4,0,.35-2.74a10.34,10.34,0,0,1,11-9.34,23.57,23.57,0,0,1,3.89.53l-.64,5.69a8.53,8.53,0,0,0-2.11-.31,5.33,5.33,0,0,0-3.26,1,4.45,4.45,0,0,0-1.69,3l-.38,2.25h5.31l-.94,5.36h-5.28L1590,545.2Z"/><path class="cls-7" d="M1615.82,517.22a11,11,0,0,1,6.26,1.87,10.54,10.54,0,0,1,3.86,5,15.43,15.43,0,0,1,.87,7.07,16.71,16.71,0,0,1-4.56,10.6,12.86,12.86,0,0,1-9.81,4,11.08,11.08,0,0,1-6.2-1.84,10.45,10.45,0,0,1-3.85-5,15.05,15.05,0,0,1-.89-7q.66-6.81,4.62-10.82A12.62,12.62,0,0,1,1615.82,517.22Zm-7.24,17.27a6.38,6.38,0,0,0,1.14,3.85,3.82,3.82,0,0,0,3.08,1.45,5.57,5.57,0,0,0,5.18-3,15.14,15.14,0,0,0,1.75-8.22,6.88,6.88,0,0,0-1.18-3.89,3.71,3.71,0,0,0-3.09-1.51,5.55,5.55,0,0,0-5.11,3A14.94,14.94,0,0,0,1608.58,534.49Z"/><path class="cls-7" d="M1648.57,524.61a14.66,14.66,0,0,0-2.42-.25,6.92,6.92,0,0,0-6.06,2.86l-3.18,18h-7.16l4.78-27.47,6.72,0-.66,3.35q2.6-3.88,6.4-3.88a10.35,10.35,0,0,1,2.49.36Z"/><path class="cls-7" d="M967.33,598.78a9.57,9.57,0,0,1,7.44-3.56,7,7,0,0,1,6,2.93q1.92,2.83,1.44,7.73l-2.9,17.32h-7.16l2.92-17.41a8.15,8.15,0,0,0,0-1.83c-.17-1.83-1.23-2.77-3.2-2.82a6.15,6.15,0,0,0-5.07,2.49l-3.46,19.57h-7.16l6.76-39h7.18Z"/><path class="cls-7" d="M993.35,623.2h-7.21l4.77-27.47h7.21Zm-1.6-34.45a3.54,3.54,0,0,1,1.12-2.82,3.88,3.88,0,0,1,2.81-1.12,4,4,0,0,1,2.82,1,3.58,3.58,0,0,1,1.25,2.69,3.67,3.67,0,0,1-1.06,2.74,4.26,4.26,0,0,1-5.68.26A3.52,3.52,0,0,1,991.75,588.75Z"/><path class="cls-7" d="M1001.67,609.44a19,19,0,0,1,4.15-10.35,10.51,10.51,0,0,1,8.55-3.89,7.68,7.68,0,0,1,6.55,3.17l.94-2.67,6.57,0-4.49,26.53a13,13,0,0,1-4.67,8.69,14.55,14.55,0,0,1-9.75,3.09,13.46,13.46,0,0,1-5.44-1.23,11.62,11.62,0,0,1-4.26-3.24l3.55-4.36a7.65,7.65,0,0,0,6,3.12,7,7,0,0,0,4.78-1.46,7.79,7.79,0,0,0,2.69-4.41l.41-1.65a8.93,8.93,0,0,1-6.73,2.9,7.94,7.94,0,0,1-6.38-3,12.92,12.92,0,0,1-2.59-7.63A26.64,26.64,0,0,1,1001.67,609.44Zm7,3a6.56,6.56,0,0,0,1,3.83,3.5,3.5,0,0,0,2.9,1.51,6.39,6.39,0,0,0,5.18-2.49l2.14-11.65a4.23,4.23,0,0,0-4-2.49,5.64,5.64,0,0,0-4.65,2.21,11.59,11.59,0,0,0-2.38,6.08A28.45,28.45,0,0,0,1008.7,612.45Z"/><path class="cls-7" d="M1041.15,598.78a9.57,9.57,0,0,1,7.44-3.56,7,7,0,0,1,6,2.93q1.92,2.83,1.44,7.73l-2.9,17.32H1046l2.92-17.41a7.6,7.6,0,0,0,0-1.83c-.16-1.83-1.23-2.77-3.19-2.82a6.17,6.17,0,0,0-5.08,2.49l-3.46,19.57h-7.16l6.76-39H1044Z"/><path class="cls-7" d="M1072.65,623.71a12,12,0,0,1-6.38-1.77,10.65,10.65,0,0,1-4.15-4.77,13.26,13.26,0,0,1-1.07-6.69l.08-1a17.78,17.78,0,0,1,2.33-7.36,14.19,14.19,0,0,1,5-5.17,12.44,12.44,0,0,1,6.81-1.71,9.52,9.52,0,0,1,8,3.9q2.73,3.81,2.07,9.63l-.41,3.13h-16.83a5.83,5.83,0,0,0,1.3,4.26,4.91,4.91,0,0,0,3.8,1.65,8.8,8.8,0,0,0,6.86-3l3.28,4.06a10.24,10.24,0,0,1-4.47,3.64A14.73,14.73,0,0,1,1072.65,623.71Zm2.29-22.57a5.09,5.09,0,0,0-3.52,1.24,10.9,10.9,0,0,0-2.75,4.5h9.85l.15-.67a6.9,6.9,0,0,0,0-1.92,3.68,3.68,0,0,0-1.25-2.3A3.84,3.84,0,0,0,1074.94,601.14Z"/><path class="cls-7" d="M1106.83,602.61a14.76,14.76,0,0,0-2.42-.25,6.91,6.91,0,0,0-6.06,2.86l-3.18,18H1088l4.77-27.47,6.73,0-.66,3.35q2.6-3.88,6.4-3.88a10.35,10.35,0,0,1,2.49.36Z"/><path class="cls-7" d="M1147.65,609.54a22.85,22.85,0,0,1-2.26,7.67,12.6,12.6,0,0,1-4.3,5,9.87,9.87,0,0,1-5.68,1.54,7.89,7.89,0,0,1-6.3-3l-2.51,13h-7.16l6.57-38,6.6,0-.48,2.77a8.78,8.78,0,0,1,7-3.25,7.83,7.83,0,0,1,6.27,2.93,12.74,12.74,0,0,1,2.39,7.68A31.55,31.55,0,0,1,1147.65,609.54Zm-7.11-.52.15-2.44a6.87,6.87,0,0,0-.9-3.92,3.27,3.27,0,0,0-2.78-1.5,5.92,5.92,0,0,0-5.16,2.65l-2,11.34a4,4,0,0,0,4,2.67,5.17,5.17,0,0,0,4.32-2Q1139.88,613.72,1140.54,609Z"/><path class="cls-7" d="M1169.6,602.61a14.55,14.55,0,0,0-2.41-.25,6.94,6.94,0,0,0-6.07,2.86l-3.17,18h-7.16l4.77-27.47,6.73,0-.66,3.35q2.59-3.88,6.4-3.88a10.35,10.35,0,0,1,2.49.36Z"/><path class="cls-7" d="M1185.14,595.22a11,11,0,0,1,6.26,1.87,10.54,10.54,0,0,1,3.86,5,15.43,15.43,0,0,1,.87,7.07,16.71,16.71,0,0,1-4.56,10.6,12.86,12.86,0,0,1-9.81,4,11.08,11.08,0,0,1-6.2-1.84,10.45,10.45,0,0,1-3.85-5,15.05,15.05,0,0,1-.89-7q.66-6.81,4.62-10.82A12.62,12.62,0,0,1,1185.14,595.22Zm-7.24,17.27a6.45,6.45,0,0,0,1.14,3.85,3.82,3.82,0,0,0,3.08,1.45,5.57,5.57,0,0,0,5.18-3,15.14,15.14,0,0,0,1.75-8.22,6.88,6.88,0,0,0-1.18-3.89,3.71,3.71,0,0,0-3.09-1.51,5.55,5.55,0,0,0-5.11,3A14.94,14.94,0,0,0,1177.9,612.49Z"/><path class="cls-7" d="M1212.71,595.2a7.79,7.79,0,0,1,6.19,3.07l2.69-14.07h7.19l-6.76,39h-6.39l.4-2.94a8.89,8.89,0,0,1-7.16,3.47,7.82,7.82,0,0,1-4.49-1.34,8.44,8.44,0,0,1-3-3.8,15.17,15.17,0,0,1-1.16-5.52,19.84,19.84,0,0,1,.08-3.1l.15-1.14a21.8,21.8,0,0,1,2.35-7.41,12.2,12.2,0,0,1,4.26-4.75A10,10,0,0,1,1212.71,595.2ZM1207.5,610a21.4,21.4,0,0,0-.13,3.25c.17,3,1.38,4.5,3.61,4.55a6.16,6.16,0,0,0,5.26-2.85l2-10.91a4.06,4.06,0,0,0-4-2.85,5.2,5.2,0,0,0-4.35,2C1208.72,604.58,1207.92,606.84,1207.5,610Z"/><path class="cls-7" d="M1245.63,620.36a9.49,9.49,0,0,1-7.56,3.35,7.1,7.1,0,0,1-6-2.84,10.46,10.46,0,0,1-1.57-7.37l3-17.77h7.16l-3,17.87a6.94,6.94,0,0,0,0,1.57,2.61,2.61,0,0,0,2.82,2.62,6.55,6.55,0,0,0,5.51-2.56l3.43-19.5h7.21l-4.77,27.47h-6.68Z"/><path class="cls-7" d="M1270,617.82a4.73,4.73,0,0,0,3.3-1.08,5.31,5.31,0,0,0,1.73-3l6.73,0a9.91,9.91,0,0,1-1.82,5.2,11.09,11.09,0,0,1-4.37,3.61,12.4,12.4,0,0,1-5.75,1.21,10.16,10.16,0,0,1-7.92-3.45q-2.92-3.37-2.82-9l.08-1.39,0-.28a17.24,17.24,0,0,1,4.52-10.63,12.26,12.26,0,0,1,9.47-3.77,9.93,9.93,0,0,1,7.38,3,10.76,10.76,0,0,1,2.68,7.74h-6.68a5.62,5.62,0,0,0-1-3.48,3.65,3.65,0,0,0-2.9-1.37q-5.13-.15-6.22,7.49a25.4,25.4,0,0,0-.28,4.67Q1266.48,617.74,1270,617.82Z"/><path class="cls-7" d="M1300,589l-1.19,6.76h4.57l-.94,5.38h-4.57l-2.34,13.76a3.56,3.56,0,0,0,.2,2c.24.46.82.71,1.73.74.27,0,1,0,2.18-.13l-.5,5.61a12,12,0,0,1-4.12.59,6.46,6.46,0,0,1-5.25-2.21,8,8,0,0,1-1.42-5.84l2.36-14.5h-3.89l.94-5.38h3.89l1.16-6.76Z"/><path class="cls-7" d="M1311.18,623.2H1304l4.77-27.47H1316Zm-1.6-34.45a3.54,3.54,0,0,1,1.12-2.82,3.88,3.88,0,0,1,2.81-1.12,4,4,0,0,1,2.82,1,3.58,3.58,0,0,1,1.25,2.69,3.67,3.67,0,0,1-1.06,2.74,4.26,4.26,0,0,1-5.68.26A3.52,3.52,0,0,1,1309.58,588.75Z"/><path class="cls-7" d="M1329.68,614.14l7.82-18.41h7.72l-13.28,27.47h-6.85l-4.7-27.47h7.26Z"/><path class="cls-7" d="M1352.33,623.2h-7.21l4.77-27.47h7.21Zm-1.6-34.45a3.57,3.57,0,0,1,1.11-2.82,3.92,3.92,0,0,1,2.82-1.12,4,4,0,0,1,2.82,1,3.58,3.58,0,0,1,1.25,2.69,3.67,3.67,0,0,1-1.06,2.74,3.92,3.92,0,0,1-2.88,1.22,4,4,0,0,1-2.81-1A3.54,3.54,0,0,1,1350.73,588.75Z"/><path class="cls-7" d="M1373.8,589l-1.19,6.76h4.57l-.94,5.38h-4.57l-2.34,13.76a3.46,3.46,0,0,0,.21,2c.23.46.81.71,1.72.74.27,0,1,0,2.19-.13l-.51,5.61a12,12,0,0,1-4.11.59,6.47,6.47,0,0,1-5.26-2.21,8,8,0,0,1-1.42-5.84l2.36-14.5h-3.88l.93-5.38h3.89l1.17-6.76Z"/><path class="cls-7" d="M1389.11,612.74l7.84-17h8l-16.08,31.61a13.78,13.78,0,0,1-4,5.33,8.82,8.82,0,0,1-5.37,1.7,16.06,16.06,0,0,1-3.46-.53l.54-5.59,1,0a5.34,5.34,0,0,0,5.12-2.56l1.58-2.92-4.5-27.09h7.42Z"/><path class="cls-7" d="M1404.62,632.47l-3.79-2.06,1.86-3a15.87,15.87,0,0,0,2.08-5.1l.94-5.38h6l-.73,4.67A16.84,16.84,0,0,1,1404.62,632.47Z"/><path class="cls-7" d="M1432.44,609.44a19,19,0,0,1,4.15-10.35,10.5,10.5,0,0,1,8.54-3.89,7.68,7.68,0,0,1,6.55,3.17l.94-2.67,6.58,0-4.5,26.53A12.94,12.94,0,0,1,1450,631a14.52,14.52,0,0,1-9.75,3.09,13.45,13.45,0,0,1-5.43-1.23,11.57,11.57,0,0,1-4.27-3.24l3.56-4.36a7.65,7.65,0,0,0,6,3.12,7,7,0,0,0,4.77-1.46,7.85,7.85,0,0,0,2.7-4.41l.4-1.65a8.93,8.93,0,0,1-6.73,2.9,7.92,7.92,0,0,1-6.37-3,12.86,12.86,0,0,1-2.59-7.63A25.14,25.14,0,0,1,1432.44,609.44Zm7,3a6.56,6.56,0,0,0,1,3.83,3.51,3.51,0,0,0,2.91,1.51,6.4,6.4,0,0,0,5.18-2.49l2.13-11.65a4.21,4.21,0,0,0-4-2.49,5.64,5.64,0,0,0-4.65,2.21,11.6,11.6,0,0,0-2.39,6.08A25.6,25.6,0,0,0,1439.47,612.45Z"/><path class="cls-7" d="M1479.81,602.61a14.66,14.66,0,0,0-2.41-.25,6.93,6.93,0,0,0-6.07,2.86l-3.17,18H1461l4.77-27.47,6.73,0-.66,3.35c1.72-2.59,3.86-3.88,6.4-3.88a10.35,10.35,0,0,1,2.49.36Z"/><path class="cls-7" d="M1495.35,595.22a11,11,0,0,1,6.25,1.87,10.42,10.42,0,0,1,3.86,5,15.43,15.43,0,0,1,.88,7.07,16.71,16.71,0,0,1-4.56,10.6,12.86,12.86,0,0,1-9.81,4,11.08,11.08,0,0,1-6.2-1.84,10.52,10.52,0,0,1-3.86-5,15.19,15.19,0,0,1-.89-7q.68-6.81,4.63-10.82A12.62,12.62,0,0,1,1495.35,595.22Zm-7.24,17.27a6.32,6.32,0,0,0,1.14,3.85,3.8,3.8,0,0,0,3.07,1.45,5.56,5.56,0,0,0,5.18-3,15,15,0,0,0,1.76-8.22,6.88,6.88,0,0,0-1.19-3.89,3.69,3.69,0,0,0-3.08-1.51,5.58,5.58,0,0,0-5.12,3A15,15,0,0,0,1488.11,612.49Z"/><path class="cls-7" d="M1534.09,613.2l6.52-17.47h7.14l-11.56,27.47h-6l-2-17.19-8,17.19h-6l-2-27.47h6.71l.43,17.29,7.84-17.29h5.18Z"/><path class="cls-7" d="M1562,589l-1.19,6.76h4.57l-.94,5.38h-4.57l-2.34,13.76a3.46,3.46,0,0,0,.21,2c.23.46.81.71,1.72.74.27,0,1,0,2.19-.13l-.51,5.61a12,12,0,0,1-4.12.59,6.46,6.46,0,0,1-5.25-2.21,8,8,0,0,1-1.42-5.84l2.36-14.5h-3.89l.94-5.38h3.89l1.17-6.76Z"/><path class="cls-7" d="M1576.58,598.78a9.57,9.57,0,0,1,7.44-3.56,7,7,0,0,1,6,2.93q1.9,2.83,1.43,7.73l-2.89,17.32h-7.16l2.92-17.41a8.79,8.79,0,0,0,.05-1.83q-.26-2.75-3.2-2.82a6.18,6.18,0,0,0-5.08,2.49l-3.45,19.57h-7.16l6.75-39h7.19Z"/><path class="cls-7" d="M1624.64,623.2a7.24,7.24,0,0,1-.28-2.49,9.29,9.29,0,0,1-7,3,8.47,8.47,0,0,1-6-2.35,7.11,7.11,0,0,1-2.22-5.67,8.21,8.21,0,0,1,3.77-6.9c2.39-1.6,5.61-2.4,9.63-2.4l3.36.05.35-1.65a5.83,5.83,0,0,0,.08-1.6,2.8,2.8,0,0,0-.9-1.86,3.13,3.13,0,0,0-2-.7,4.34,4.34,0,0,0-2.84.82,4,4,0,0,0-1.5,2.53l-7.19,0a8,8,0,0,1,3.62-6.39,14.09,14.09,0,0,1,8.5-2.4,10.12,10.12,0,0,1,7.31,2.78,8.14,8.14,0,0,1,2.21,6.89l-2.11,13.16-.13,1.62a8,8,0,0,0,.43,3.05l0,.48Zm-5.51-5.05a6.55,6.55,0,0,0,5.4-2.69l.89-4.75-2.48,0c-2.65.07-4.55.88-5.72,2.42a4.16,4.16,0,0,0-.78,2,2.4,2.4,0,0,0,.57,2.17A2.87,2.87,0,0,0,1619.13,618.15Z"/><path class="cls-7" d="M1648.24,595.7l-.6,3.25a9.88,9.88,0,0,1,8-3.73,6.59,6.59,0,0,1,5.74,2.84q1.86,2.78,1.35,7.67l-2.9,17.47h-7.16l2.95-17.54a8.62,8.62,0,0,0,.05-1.81c-.22-1.72-1.31-2.61-3.25-2.66a6.15,6.15,0,0,0-5.05,2.61l-3.43,19.4h-7.16l4.77-27.47Z"/><path class="cls-7" d="M1680,595.2a7.81,7.81,0,0,1,6.2,3.07l2.69-14.07H1696l-6.75,39h-6.4l.41-2.94a8.9,8.9,0,0,1-7.16,3.47,7.88,7.88,0,0,1-4.5-1.34,8.51,8.51,0,0,1-3-3.8,15.17,15.17,0,0,1-1.15-5.52,21.17,21.17,0,0,1,.07-3.1l.15-1.14a22,22,0,0,1,2.35-7.41,12.15,12.15,0,0,1,4.27-4.75A10,10,0,0,1,1680,595.2Zm-5.2,14.77a20.17,20.17,0,0,0-.13,3.25q.26,4.47,3.61,4.55a6.14,6.14,0,0,0,5.25-2.85l2-10.91a4.06,4.06,0,0,0-4-2.85,5.21,5.21,0,0,0-4.36,2Q1675.38,605.28,1674.75,610Z"/><path class="cls-7" d="M1160.93,701.2h-7.21l4.77-27.47h7.21Zm-1.6-34.45a3.58,3.58,0,0,1,1.12-2.82,3.9,3.9,0,0,1,2.82-1.12,4,4,0,0,1,2.81,1,3.56,3.56,0,0,1,1.25,2.69,3.67,3.67,0,0,1-1.06,2.74,3.91,3.91,0,0,1-2.88,1.22,4,4,0,0,1-2.8-1A3.52,3.52,0,0,1,1159.33,666.75Z"/><path class="cls-7" d="M1179.21,673.7l-.61,3.25a9.88,9.88,0,0,1,8-3.73,6.59,6.59,0,0,1,5.74,2.84c1.24,1.85,1.69,4.4,1.35,7.67l-2.9,17.47h-7.16l3-17.54a8.63,8.63,0,0,0,0-1.81c-.22-1.72-1.3-2.61-3.25-2.66a6.15,6.15,0,0,0-5,2.61l-3.43,19.4h-7.16l4.77-27.47Z"/><path class="cls-7" d="M1209.31,695.82a4.73,4.73,0,0,0,3.3-1.08,5.31,5.31,0,0,0,1.73-3l6.73,0a9.83,9.83,0,0,1-1.82,5.21,11,11,0,0,1-4.36,3.6,12.44,12.44,0,0,1-5.75,1.22,10.16,10.16,0,0,1-7.93-3.45q-2.91-3.37-2.81-9l.07-1.39,0-.28A17.13,17.13,0,0,1,1203,677a12.23,12.23,0,0,1,9.47-3.77,9.91,9.91,0,0,1,7.37,3,10.72,10.72,0,0,1,2.68,7.74h-6.68a5.62,5.62,0,0,0-1-3.48,3.63,3.63,0,0,0-2.89-1.37q-5.13-.17-6.23,7.49a25.28,25.28,0,0,0-.27,4.67Q1205.75,695.74,1209.31,695.82Z"/><path class="cls-7" d="M1232.29,701.2h-7.21l6.78-39H1239Z"/><path class="cls-7" d="M1256.25,698.36a9.49,9.49,0,0,1-7.56,3.35,7.08,7.08,0,0,1-6-2.85,10.37,10.37,0,0,1-1.57-7.36l3-17.77h7.16l-3,17.87a6.94,6.94,0,0,0,0,1.57,2.61,2.61,0,0,0,2.82,2.62,6.53,6.53,0,0,0,5.51-2.57l3.43-19.49h7.21l-4.77,27.47h-6.68Z"/><path class="cls-7" d="M1284.53,693.46q.4-2-2.82-3l-2.31-.58q-8.19-2.26-8-8a7.89,7.89,0,0,1,3.44-6.33,12.86,12.86,0,0,1,8-2.4,11.51,11.51,0,0,1,7.51,2.46,8.09,8.09,0,0,1,2.92,6.43l-7.11,0q.06-3.52-3.5-3.58a5,5,0,0,0-2.91.84,3.46,3.46,0,0,0-1.51,2.26q-.37,2,3.07,2.87l1,.23a20.15,20.15,0,0,1,5.36,1.91,8.19,8.19,0,0,1,2.85,2.68,6.65,6.65,0,0,1,.93,3.84,7.3,7.3,0,0,1-1.69,4.57,10.33,10.33,0,0,1-4.42,3,15.39,15.39,0,0,1-5.9,1,11.62,11.62,0,0,1-7.62-2.63,8.46,8.46,0,0,1-3.09-6.66l6.75.05q.11,3.93,4.21,4a6.05,6.05,0,0,0,3.27-.81A3.22,3.22,0,0,0,1284.53,693.46Z"/><path class="cls-7" d="M1303.24,701.2H1296l4.77-27.47H1308Zm-1.6-34.45a3.58,3.58,0,0,1,1.12-2.82,3.92,3.92,0,0,1,2.82-1.12,4,4,0,0,1,2.82,1,3.59,3.59,0,0,1,1.24,2.69,3.7,3.7,0,0,1-1.05,2.74,4.27,4.27,0,0,1-5.69.26A3.55,3.55,0,0,1,1301.64,666.75Z"/><path class="cls-7" d="M1321.75,692.14l7.82-18.41h7.72L1324,701.2h-6.86l-4.7-27.47h7.27Z"/><path class="cls-7" d="M1349.87,701.71a12,12,0,0,1-6.38-1.77,10.7,10.7,0,0,1-4.15-4.77,13.26,13.26,0,0,1-1.07-6.69l.08-1a17.78,17.78,0,0,1,2.33-7.36,14.19,14.19,0,0,1,5-5.17,12.44,12.44,0,0,1,6.81-1.71,9.52,9.52,0,0,1,8,3.9q2.73,3.81,2.07,9.63l-.41,3.13h-16.83a5.83,5.83,0,0,0,1.3,4.26,4.91,4.91,0,0,0,3.8,1.65,8.8,8.8,0,0,0,6.86-3l3.27,4.06a10.15,10.15,0,0,1-4.46,3.64A14.73,14.73,0,0,1,1349.87,701.71Zm2.29-22.57a5.09,5.09,0,0,0-3.52,1.24,10.92,10.92,0,0,0-2.75,4.49h9.85l.15-.66a7,7,0,0,0,0-1.93,3.68,3.68,0,0,0-1.25-2.29A3.84,3.84,0,0,0,1352.16,679.14Z"/><path class="cls-7" d="M1376.56,673.7,1376,677a9.88,9.88,0,0,1,8-3.73,6.59,6.59,0,0,1,5.74,2.84c1.24,1.85,1.69,4.4,1.35,7.67l-2.9,17.47H1381l3-17.54a8.63,8.63,0,0,0,0-1.81c-.22-1.72-1.3-2.61-3.25-2.66a6.15,6.15,0,0,0-5,2.61l-3.43,19.4h-7.16l4.77-27.47Z"/><path class="cls-7" d="M1407.68,701.71a12,12,0,0,1-6.39-1.77,10.76,10.76,0,0,1-4.15-4.77,13.26,13.26,0,0,1-1.06-6.69l.07-1a17.79,17.79,0,0,1,2.34-7.36,14.12,14.12,0,0,1,5-5.17,12.38,12.38,0,0,1,6.8-1.71,9.52,9.52,0,0,1,8,3.9q2.73,3.81,2.07,9.63l-.41,3.13h-16.83a5.87,5.87,0,0,0,1.29,4.26,4.92,4.92,0,0,0,3.81,1.65,8.78,8.78,0,0,0,6.85-3l3.28,4.06a10.12,10.12,0,0,1-4.47,3.64A14.72,14.72,0,0,1,1407.68,701.71Zm2.28-22.57a5,5,0,0,0-3.51,1.24,10.93,10.93,0,0,0-2.76,4.49h9.85l.16-.66a6.59,6.59,0,0,0,0-1.93,3.67,3.67,0,0,0-1.24-2.29A3.87,3.87,0,0,0,1410,679.14Z"/><path class="cls-7" d="M1439,693.46q.4-2-2.82-3l-2.31-.58q-8.2-2.26-8-8a7.91,7.91,0,0,1,3.44-6.33,12.88,12.88,0,0,1,8-2.4,11.54,11.54,0,0,1,7.52,2.46,8.15,8.15,0,0,1,2.92,6.43l-7.11,0q0-3.52-3.51-3.58a5.06,5.06,0,0,0-2.91.84,3.46,3.46,0,0,0-1.51,2.26c-.25,1.35.77,2.31,3.08,2.87l1,.23a20.15,20.15,0,0,1,5.36,1.91,8.22,8.22,0,0,1,2.86,2.68,6.73,6.73,0,0,1,.92,3.84,7.3,7.3,0,0,1-1.69,4.57,10.3,10.3,0,0,1-4.41,3,15.44,15.44,0,0,1-5.91,1,11.61,11.61,0,0,1-7.61-2.63,8.44,8.44,0,0,1-3.1-6.66l6.75.05c.07,2.62,1.47,3.95,4.22,4a6,6,0,0,0,3.26-.81A3.23,3.23,0,0,0,1439,693.46Z"/><path class="cls-7" d="M1466,693.46q.4-2-2.82-3l-2.31-.58q-8.21-2.26-8-8a7.86,7.86,0,0,1,3.44-6.33,12.85,12.85,0,0,1,8-2.4,11.54,11.54,0,0,1,7.52,2.46,8.15,8.15,0,0,1,2.92,6.43l-7.11,0q0-3.52-3.51-3.58a5,5,0,0,0-2.9.84,3.43,3.43,0,0,0-1.51,2.26c-.26,1.35.77,2.31,3.07,2.87l1,.23a20,20,0,0,1,5.36,1.91,8.14,8.14,0,0,1,2.86,2.68,6.65,6.65,0,0,1,.93,3.84,7.42,7.42,0,0,1-1.69,4.57,10.4,10.4,0,0,1-4.42,3,15.42,15.42,0,0,1-5.9,1,11.62,11.62,0,0,1-7.62-2.63,8.47,8.47,0,0,1-3.1-6.66l6.75.05q.11,3.93,4.22,4a6,6,0,0,0,3.26-.81A3.2,3.2,0,0,0,1466,693.46Z"/><path class="cls-7" d="M1484.68,675.63,1481,673.5a20.08,20.08,0,0,0,3.28-6.6l.84-4.7h5.71l-.58,3.76A15.66,15.66,0,0,1,1484.68,675.63Zm8.53,0-3.63-2.13a20.23,20.23,0,0,0,3.27-6.6l.84-4.7h5.71l-.58,3.76A15.66,15.66,0,0,1,1493.21,675.63Z"/></svg>