<svg id="Layer_1" data-name="Layer 1" xmlns="http://www.w3.org/2000/svg" viewBox="0 0 1856.69 1062.99"><defs><style>.cls-1{fill:#dadada;}.cls-2{fill:#a61966;}.cls-3{fill:#d67a10;}.cls-4,.cls-5{fill:none;stroke:#a61966;stroke-miterlimit:10;}.cls-4{stroke-width:10px;}.cls-5{stroke-width:5px;}.cls-6{fill:#fff;}.cls-7{fill:#333;}.cls-8{fill:#3c3c3b;}</style></defs><title>FSInfographicsFINAL</title><text/><rect class="cls-1" x="471.45" y="46.08" width="1368" height="984.27"/><rect class="cls-2" x="19.45" y="46.34" width="776" height="980"/><path class="cls-3" d="M179,688.35A103.51,103.51,0,1,1,282.44,584.84,103.63,103.63,0,0,1,179,688.35Zm0-202.41a98.91,98.91,0,1,0,98.89,98.9A99,99,0,0,0,179,485.94Z"/><rect class="cls-4" x="19.45" y="46.34" width="1820" height="980"/><rect class="cls-5" x="795.45" y="46.34" width="1044" height="980"/><text/><text/><text/><path class="cls-3" d="M619.91,679.27A103.47,103.47,0,1,1,723.38,575.81,103.57,103.57,0,0,1,619.91,679.27Zm0-202.33a98.87,98.87,0,1,0,98.87,98.87,99,99,0,0,0-98.87-98.87Z"/><ellipse class="cls-2" cx="394.95" cy="571.34" rx="148.5" ry="153"/><path class="cls-6" d="M398.78,724.34c-84,0-152.33-68.33-152.33-152.33s68.34-152.33,152.33-152.33S551.11,488,551.11,572,482.77,724.34,398.78,724.34Zm0-297.89c-80.27,0-145.56,65.3-145.56,145.56s65.29,145.56,145.56,145.56S544.34,652.28,544.34,572,479,426.45,398.78,426.45Z"/><path class="cls-6" d="M474,614.69H323.91a3.53,3.53,0,0,1-3.53-3.53V504.27a3.53,3.53,0,0,1,3.53-3.53H474a3.53,3.53,0,0,1,3.53,3.53V611.16a3.53,3.53,0,0,1-3.53,3.53Zm-146.54-7.06h143V507.8h-143v99.83Z"/><path class="cls-6" d="M399,644.7a3.53,3.53,0,0,1-3.53-3.53V614.69a3.53,3.53,0,1,1,7.06,0v26.48A3.53,3.53,0,0,1,399,644.7Z"/><path class="cls-6" d="M432.64,655.3a3.51,3.51,0,0,1-2.51-1L399,622.85l-31.21,31.4a3.53,3.53,0,1,1-5-5l33.71-33.91a3.62,3.62,0,0,1,5,0l33.69,33.91a3.54,3.54,0,0,1-2.5,6Z"/><path class="cls-6" d="M473.1,529.57H324.8a3.53,3.53,0,1,1,0-7.06H473.1a3.53,3.53,0,1,1,0,7.06Z"/><path class="cls-6" d="M360.42,593.13a3.53,3.53,0,0,1-3.53-3.53V568.41a3.53,3.53,0,0,1,7.06,0V589.6a3.53,3.53,0,0,1-3.53,3.53Z"/><path class="cls-6" d="M386.1,593.13a3.53,3.53,0,0,1-3.53-3.53V545.46a3.53,3.53,0,1,1,7.06,0V589.6a3.53,3.53,0,0,1-3.53,3.53Z"/><path class="cls-6" d="M411.8,593.13a3.53,3.53,0,0,1-3.53-3.53V575.47a3.53,3.53,0,0,1,7.06,0V589.6a3.52,3.52,0,0,1-3.53,3.53Z"/><path class="cls-6" d="M437.5,593.13A3.53,3.53,0,0,1,434,589.6V554.29a3.53,3.53,0,0,1,7.06,0V589.6a3.53,3.53,0,0,1-3.53,3.53Z"/><path class="cls-3" d="M154.07,573.21c-9.33,0-16.93-8.61-16.93-19.18s7.6-19.17,16.93-19.17S171,543.46,171,554s-7.59,19.18-16.92,19.18Zm0-34c-6.9,0-12.52,6.63-12.52,14.77s5.62,14.77,12.52,14.77,12.52-6.62,12.52-14.77-5.61-14.77-12.52-14.77Z"/><path class="cls-3" d="M182.05,621.51h-56.7a2.21,2.21,0,0,1-2.2-2l-1.24-18.3c-.41-6,4.32-13,10.32-15.27a63.88,63.88,0,0,1,42.92,0c6,2.22,10.77,9.22,10.35,15.28l-1.25,18.29a2.21,2.21,0,0,1-2.2,2Zm-54.64-4.41H180l1.1-16.23c.27-3.73-2.86-9.15-7.45-10.84a59.56,59.56,0,0,0-39.91,0c-4.55,1.68-7.69,7.11-7.44,10.84l1.11,16.23Z"/><path class="cls-3" d="M182.05,621.51h-56.7a2.21,2.21,0,0,1-2.2-2l-1.24-18.3c-.41-6,4.32-13,10.32-15.27a63.88,63.88,0,0,1,42.92,0c6,2.22,10.77,9.22,10.35,15.28l-1.25,18.29a2.21,2.21,0,0,1-2.2,2Zm-54.64-4.41H180l1.1-16.23c.27-3.73-2.86-9.15-7.45-10.84a59.56,59.56,0,0,0-39.91,0c-4.55,1.68-7.69,7.11-7.44,10.84l1.11,16.23Z"/><path class="cls-3" d="M216.36,621.51H193.78a2.21,2.21,0,0,1,0-4.41H214.3l.94-13.74c.21-3.05-2.47-7.67-6.24-9.06a50.68,50.68,0,0,0-16.16-2.94,2.2,2.2,0,1,1,.07-4.4,55.09,55.09,0,0,1,17.59,3.2c5.33,2,9.51,8.15,9.14,13.5l-1.09,15.8a2.2,2.2,0,0,1-2.19,2Z"/><path class="cls-3" d="M199,577.85c-7.55,0-13.68-6.92-13.68-15.43S191.43,547,199,547s13.68,6.93,13.68,15.44-6.14,15.43-13.68,15.43Zm0-26.46c-5.12,0-9.28,5-9.28,11s4.16,11,9.28,11,9.27-5,9.27-11-4.15-11-9.27-11Z"/><path class="cls-3" d="M675.05,617H577.18a2.39,2.39,0,0,1-2.38-2.39V536.74a2.39,2.39,0,0,1,2.38-2.39h25.53a2.39,2.39,0,1,1,0,4.77H579.57v73.09h93.09V539.12H651.17a2.39,2.39,0,0,1,0-4.77h23.88a2.39,2.39,0,0,1,2.38,2.39v77.85a2.39,2.39,0,0,1-2.38,2.39Z"/><path class="cls-3" d="M606.79,576c-5.59,0-10.14-5.07-10.14-11.3s4.55-11.32,10.14-11.32,10.11,5.08,10.11,11.32S612.36,576,606.79,576Zm0-17.85c-3,0-5.37,2.94-5.37,6.55s2.41,6.53,5.37,6.53,5.34-2.93,5.34-6.53-2.39-6.55-5.34-6.55Z"/><path class="cls-3" d="M621.69,602.37H591.88a2.38,2.38,0,0,1-2.37-2.21l-.67-9.63a9.91,9.91,0,0,1,6.23-9.27,34.84,34.84,0,0,1,23.41,0c3.73,1.37,6.52,5.53,6.24,9.28-.2,3.15-.42,6.39-.66,9.62a2.37,2.37,0,0,1-2.37,2.21Zm-27.58-4.77h25.36c.17-2.48.34-5,.49-7.38a5.22,5.22,0,0,0-3.11-4.48,30.1,30.1,0,0,0-20.15,0,5.21,5.21,0,0,0-3.1,4.47l.51,7.39Z"/><path class="cls-3" d="M645.06,533a3.58,3.58,0,1,1,0,7.15H609.3a3.58,3.58,0,0,1,0-7.15h35.76m0-4.77H609.3a8.35,8.35,0,0,0,0,16.69h35.76a8.35,8.35,0,1,0,0-16.69Z"/><path class="cls-3" d="M656.19,569.1H636.32a2.38,2.38,0,0,1,0-4.76h19.87a2.38,2.38,0,1,1,0,4.76Z"/><path class="cls-3" d="M656.19,584.2H636.32a2.39,2.39,0,0,1,0-4.77h19.87a2.39,2.39,0,1,1,0,4.77Z"/><path class="cls-6" d="M272.59,226.08H253.31V242.9h22.17v2.94H249.82V204.61h25.52v2.95h-22v15.57h19.28Z"/><path class="cls-6" d="M285.11,215.2l.12,5a11.36,11.36,0,0,1,4.24-4.17,11.72,11.72,0,0,1,5.67-1.38q7.25,0,9.2,5.94a11.59,11.59,0,0,1,4.39-4.4,12.14,12.14,0,0,1,6.06-1.54q9.85,0,10.06,10.76v20.44h-3.4V225.65c0-2.73-.61-4.77-1.77-6.09s-3.06-2-5.68-2a9,9,0,0,0-6.18,2.37,8.33,8.33,0,0,0-2.8,5.62v20.27h-3.4V225.4c0-2.63-.63-4.59-1.85-5.88s-3.09-1.94-5.62-1.94a8.54,8.54,0,0,0-5.5,1.83,10.72,10.72,0,0,0-3.4,5.42v21h-3.4V215.2Z"/><path class="cls-6" d="M358.06,230.84q0,7.16-3.17,11.37a10.09,10.09,0,0,1-8.49,4.2q-6.28,0-9.63-4.42v15.64H333.4V215.2h3.14l.17,4.34a10.87,10.87,0,0,1,9.6-4.9,10.2,10.2,0,0,1,8.63,4.16c2.08,2.77,3.12,6.63,3.12,11.55Zm-3.39-.6c0-3.91-.81-7-2.41-9.26a7.76,7.76,0,0,0-6.71-3.4,8.92,8.92,0,0,0-8.78,5.86v14.7a8.93,8.93,0,0,0,3.48,4,10,10,0,0,0,5.35,1.39,7.7,7.7,0,0,0,6.67-3.41Q354.67,236.72,354.67,230.24Z"/><path class="cls-6" d="M369.36,245.84H366v-43.5h3.39Z"/><path class="cls-6" d="M376.7,230.07a18.09,18.09,0,0,1,1.71-8,12.86,12.86,0,0,1,11.94-7.47,12.6,12.6,0,0,1,9.91,4.29q3.8,4.29,3.8,11.37v.7a18,18,0,0,1-1.72,8,12.81,12.81,0,0,1-4.82,5.49,13.29,13.29,0,0,1-7.11,1.92,12.62,12.62,0,0,1-9.9-4.29q-3.81-4.29-3.81-11.37Zm3.4.93a13.93,13.93,0,0,0,2.84,9,9.63,9.63,0,0,0,14.9,0,14.34,14.34,0,0,0,2.85-9.3v-.65a15.59,15.59,0,0,0-1.31-6.43,10.44,10.44,0,0,0-3.65-4.52,9.39,9.39,0,0,0-5.38-1.6,9.06,9.06,0,0,0-7.39,3.56,14.36,14.36,0,0,0-2.86,9.3Z"/><path class="cls-6" d="M420.77,241l9-25.77h3.65l-13.09,35.86-.68,1.58q-2.52,5.58-7.78,5.58a9.32,9.32,0,0,1-2.61-.4l0-2.8,1.76.17a6.25,6.25,0,0,0,4-1.23,9.25,9.25,0,0,0,2.62-4.24l1.51-4.13L407.54,215.2h3.71Z"/><path class="cls-6" d="M441.69,215.2l.12,5a11.38,11.38,0,0,1,4.25-4.17,11.68,11.68,0,0,1,5.66-1.38q7.25,0,9.2,5.94a11.59,11.59,0,0,1,4.39-4.4,12.16,12.16,0,0,1,6.06-1.54q9.86,0,10.06,10.76v20.44H478V225.65c0-2.73-.61-4.77-1.77-6.09s-3.05-2-5.68-2a9,9,0,0,0-6.17,2.37,8.35,8.35,0,0,0-2.81,5.62v20.27h-3.39V225.4q0-3.94-1.86-5.88t-5.62-1.94a8.56,8.56,0,0,0-5.5,1.83,10.71,10.71,0,0,0-3.39,5.42v21h-3.4V215.2Z"/><path class="cls-6" d="M501.88,246.41a13.32,13.32,0,0,1-7.07-1.92,13.15,13.15,0,0,1-4.91-5.37,16.77,16.77,0,0,1-1.76-7.72v-1.22a18,18,0,0,1,1.71-8,13.72,13.72,0,0,1,4.78-5.57,11.72,11.72,0,0,1,6.62-2,11.08,11.08,0,0,1,8.85,3.8q3.27,3.81,3.27,10.41v1.9H491.51v.65a12.82,12.82,0,0,0,3,8.68,9.51,9.51,0,0,0,7.52,3.47,11.07,11.07,0,0,0,4.8-1,10.63,10.63,0,0,0,3.78-3.17l2.12,1.61Q509,246.42,501.88,246.41Zm-.63-28.89a8.47,8.47,0,0,0-6.44,2.81,13,13,0,0,0-3.19,7.53H510v-.37a11.2,11.2,0,0,0-2.52-7.19A7.8,7.8,0,0,0,501.25,217.52Z"/><path class="cls-6" d="M523.2,215.2l.11,5.24a12.21,12.21,0,0,1,4.31-4.32,11.18,11.18,0,0,1,5.69-1.48c3.29,0,5.73.92,7.34,2.77s2.41,4.63,2.43,8.33v20.1h-3.37V225.71q0-4.11-1.74-6.12t-5.48-2a8.6,8.6,0,0,0-5.57,2,11.58,11.58,0,0,0-3.58,5.31v21H520V215.2Z"/><path class="cls-6" d="M557.1,207.36v7.84h6.34V218H557.1v20.44a6.43,6.43,0,0,0,.92,3.8,3.57,3.57,0,0,0,3.07,1.25,21.08,21.08,0,0,0,2.75-.29l.14,2.75a11,11,0,0,1-3.62.48q-3.5,0-5.07-2a9.53,9.53,0,0,1-1.59-6V218h-5.63V215.2h5.63v-7.84Z"/><path class="cls-2" d="M1046.22,539.88,1023.13,593h-12.51l23.13-50.16h-29.69v-9.56h42.16Z"/><path class="cls-2" d="M1055.57,563.61l3.45-30.35h33.46v9.88h-23.74L1067.26,556a18.84,18.84,0,0,1,9-2.25q8.54,0,13.37,5.29t4.84,14.8a21.62,21.62,0,0,1-2.44,10.36,17.2,17.2,0,0,1-7,7.1,21.87,21.87,0,0,1-10.75,2.52,23,23,0,0,1-10-2.2,17.77,17.77,0,0,1-7.33-6.17,16.82,16.82,0,0,1-2.85-9.06h11.73a8.77,8.77,0,0,0,2.61,5.8,8.26,8.26,0,0,0,5.84,2.07,7.29,7.29,0,0,0,6.2-2.89c1.45-1.93,2.17-4.65,2.17-8.18s-.83-6-2.5-7.79a9.18,9.18,0,0,0-7.1-2.71,10.31,10.31,0,0,0-6.85,2.21L1065,566Z"/><path class="cls-2" d="M1103.11,587.15a6,6,0,0,1,1.91-4.59,6.77,6.77,0,0,1,4.77-1.76,6.85,6.85,0,0,1,4.82,1.76,6,6,0,0,1,1.91,4.59,5.91,5.91,0,0,1-1.89,4.54,7.55,7.55,0,0,1-9.64,0A5.94,5.94,0,0,1,1103.11,587.15Z"/><path class="cls-2" d="M1154.13,569.11a15,15,0,0,1-10.83,4.55,16,16,0,0,1-12.67-5.43q-4.76-5.44-4.76-14.67a22.82,22.82,0,0,1,2.57-10.76,18.74,18.74,0,0,1,7.15-7.63,19.85,19.85,0,0,1,10.34-2.73,19,19,0,0,1,10.5,2.95,19.4,19.4,0,0,1,7.13,8.49,30.47,30.47,0,0,1,2.59,12.68V561q0,14.92-7.42,23.46t-21,9.1l-2.91,0v-9.88l2.63,0Q1152.87,582.92,1154.13,569.11Zm-7.91-4.51a8.32,8.32,0,0,0,4.94-1.48,10,10,0,0,0,3.14-3.57v-4.88q0-6-2.3-9.35a7.11,7.11,0,0,0-6.15-3.32,6.91,6.91,0,0,0-5.87,3.26,13.86,13.86,0,0,0-2.3,8.18,13.5,13.5,0,0,0,2.24,8A7.29,7.29,0,0,0,1146.22,564.6Z"/><path class="cls-2" d="M1174.43,544.74a11.82,11.82,0,0,1,3.57-8.92,13,13,0,0,1,9.35-3.42,13.19,13.19,0,0,1,9.44,3.38,12,12,0,0,1,3.57,9.17v2.95a11.65,11.65,0,0,1-3.57,8.9,14.72,14.72,0,0,1-18.77,0,11.93,11.93,0,0,1-3.59-9.12Zm7.88,3.16a5.55,5.55,0,0,0,1.41,4,4.88,4.88,0,0,0,3.72,1.5,4.67,4.67,0,0,0,3.65-1.52,5.87,5.87,0,0,0,1.35-4.06v-3a5.74,5.74,0,0,0-1.35-4,5.28,5.28,0,0,0-7.39,0,5.84,5.84,0,0,0-1.39,4.16Zm7.46,40.61-5.78-3.12,29.16-46.68,5.79,3.12ZM1203,578.34a11.62,11.62,0,0,1,3.61-8.92,13.11,13.11,0,0,1,9.35-3.39,13.29,13.29,0,0,1,9.41,3.34q3.6,3.35,3.59,9.21v3a11.76,11.76,0,0,1-3.52,8.88,14.81,14.81,0,0,1-18.87,0,11.86,11.86,0,0,1-3.57-9Zm7.88,3.2a5.5,5.5,0,0,0,1.47,3.85A4.82,4.82,0,0,0,1216,587q5,0,5-5.54v-3.11a5.58,5.58,0,0,0-1.4-4,5.29,5.29,0,0,0-7.38,0,5.75,5.75,0,0,0-1.39,4.08Z"/><path class="cls-7" d="M1003.18,670.49h-5.6V683h-7V648.85h12.68q6,0,9.33,2.7a9.32,9.32,0,0,1,3.28,7.62,10.56,10.56,0,0,1-1.51,5.82,10.42,10.42,0,0,1-4.59,3.72l7.39,13.94V683h-7.55Zm-5.6-5.7h5.67a5.77,5.77,0,0,0,4.1-1.35,4.81,4.81,0,0,0,1.46-3.71,5.18,5.18,0,0,0-1.37-3.8,5.72,5.72,0,0,0-4.21-1.38h-5.65Z"/><path class="cls-7" d="M1032.41,683.45a12.44,12.44,0,0,1-9.08-3.42,12.17,12.17,0,0,1-3.51-9.12v-.66a15.26,15.26,0,0,1,1.48-6.83,10.84,10.84,0,0,1,4.18-4.64,11.74,11.74,0,0,1,6.18-1.63,10.51,10.51,0,0,1,8.19,3.28q3,3.29,3,9.31v2.76h-16.15a6.31,6.31,0,0,0,2,4,6,6,0,0,0,4.18,1.5,7.32,7.32,0,0,0,6.12-2.84l3.33,3.73a10.19,10.19,0,0,1-4.13,3.36A13.56,13.56,0,0,1,1032.41,683.45Zm-.77-20.84a4.22,4.22,0,0,0-3.27,1.37,7,7,0,0,0-1.61,3.9h9.42v-.54a5,5,0,0,0-1.22-3.49A4.34,4.34,0,0,0,1031.64,662.61Z"/><path class="cls-7" d="M1057.23,678a4.5,4.5,0,0,0,3-1,3.63,3.63,0,0,0,1.21-2.75h6.36a8.77,8.77,0,0,1-1.41,4.73,9.21,9.21,0,0,1-3.79,3.32,11.82,11.82,0,0,1-5.3,1.19,11,11,0,0,1-8.58-3.46q-3.15-3.45-3.14-9.55V670q0-5.85,3.11-9.35a10.88,10.88,0,0,1,8.56-3.49,10.66,10.66,0,0,1,7.63,2.71,9.61,9.61,0,0,1,2.92,7.2h-6.36a4.64,4.64,0,0,0-1.21-3.21,4.52,4.52,0,0,0-6.67.49q-1.21,1.73-1.21,5.59v.71q0,3.92,1.2,5.63A4.1,4.1,0,0,0,1057.23,678Z"/><path class="cls-7" d="M1070.66,670.06a15,15,0,0,1,1.45-6.72,10.66,10.66,0,0,1,4.19-4.57,12.18,12.18,0,0,1,6.34-1.62,11.54,11.54,0,0,1,8.37,3.14,12.58,12.58,0,0,1,3.63,8.53l0,1.74a13.21,13.21,0,0,1-3.26,9.36,12.61,12.61,0,0,1-17.49,0q-3.27-3.51-3.27-9.56Zm6.77.49a9.49,9.49,0,0,0,1.36,5.52,4.88,4.88,0,0,0,7.74,0q1.38-1.89,1.38-6.05a9.4,9.4,0,0,0-1.38-5.49,4.5,4.5,0,0,0-3.89-1.95,4.44,4.44,0,0,0-3.85,1.94C1077.89,665.84,1077.43,667.84,1077.43,670.55Z"/><path class="cls-7" d="M1113.1,664a19.25,19.25,0,0,0-2.43-.19q-3.86,0-5,2.6V683h-6.78V657.62h6.4l.19,3a6.27,6.27,0,0,1,5.65-3.49,6.9,6.9,0,0,1,2.11.31Z"/><path class="cls-7" d="M1115.31,670.11q0-5.93,2.66-9.44a8.61,8.61,0,0,1,7.27-3.52,7.76,7.76,0,0,1,6.12,2.77V647h6.8v36H1132l-.33-2.7a8,8,0,0,1-6.51,3.17,8.63,8.63,0,0,1-7.19-3.53Q1115.31,676.4,1115.31,670.11Zm6.77.51a10,10,0,0,0,1.24,5.47,4.06,4.06,0,0,0,3.61,1.9,4.53,4.53,0,0,0,4.43-2.66v-10a4.45,4.45,0,0,0-4.38-2.65Q1122.08,662.66,1122.08,670.62Z"/><path class="cls-7" d="M1162,660.38a8.48,8.48,0,0,1,6.77-3.23q8.25,0,8.37,9.59V683h-6.77V666.92a4.69,4.69,0,0,0-.94-3.22,4,4,0,0,0-3.12-1A4.6,4.6,0,0,0,1162,665v18h-6.77V647H1162Z"/><path class="cls-7" d="M1182.17,651.06a3.34,3.34,0,0,1,1-2.51,4.38,4.38,0,0,1,5.55,0,3.59,3.59,0,0,1,0,5,3.9,3.9,0,0,1-2.76,1,3.86,3.86,0,0,1-2.75-1A3.32,3.32,0,0,1,1182.17,651.06Zm7.2,31.92h-6.8V657.62h6.8Z"/><path class="cls-7" d="M1194,670.11a14.89,14.89,0,0,1,2.78-9.4,9,9,0,0,1,7.49-3.56,7.88,7.88,0,0,1,6.49,2.86l.28-2.39h6.14v24.51a10.82,10.82,0,0,1-1.51,5.79,9.71,9.71,0,0,1-4.25,3.75A15,15,0,0,1,1205,693a13.93,13.93,0,0,1-5.44-1.11,9.65,9.65,0,0,1-4-2.87l3-4.13a7.94,7.94,0,0,0,6.14,2.84,5.82,5.82,0,0,0,4.2-1.44,5.41,5.41,0,0,0,1.5-4.09V680.8a7.87,7.87,0,0,1-6.17,2.65,9,9,0,0,1-7.39-3.58q-2.83-3.57-2.83-9.48Zm6.78.51a9.27,9.27,0,0,0,1.38,5.41,4.42,4.42,0,0,0,3.8,2,4.71,4.71,0,0,0,4.43-2.33V665a4.7,4.7,0,0,0-4.39-2.32,4.43,4.43,0,0,0-3.83,2Q1200.74,666.65,1200.74,670.62Z"/><path class="cls-7" d="M1229,660.38a8.45,8.45,0,0,1,6.77-3.23q8.25,0,8.37,9.59V683h-6.78V666.92a4.74,4.74,0,0,0-.93-3.22,4.06,4.06,0,0,0-3.12-1A4.59,4.59,0,0,0,1229,665v18h-6.78V647H1229Z"/><path class="cls-7" d="M996.78,743.45A12.45,12.45,0,0,1,987.7,740a12.2,12.2,0,0,1-3.5-9.12v-.66a15.4,15.4,0,0,1,1.47-6.83,10.86,10.86,0,0,1,4.19-4.64,11.68,11.68,0,0,1,6.17-1.63,10.54,10.54,0,0,1,8.2,3.28q3,3.29,3,9.31v2.76H991.06a6.27,6.27,0,0,0,2,4,6,6,0,0,0,4.18,1.5,7.32,7.32,0,0,0,6.12-2.84l3.32,3.73a10.16,10.16,0,0,1-4.12,3.36A13.64,13.64,0,0,1,996.78,743.45ZM996,722.61a4.25,4.25,0,0,0-3.27,1.37,7,7,0,0,0-1.6,3.9h9.42v-.54a5,5,0,0,0-1.22-3.49A4.35,4.35,0,0,0,996,722.61Z"/><path class="cls-7" d="M1017.41,717.62l.21,2.84a8.91,8.91,0,0,1,7.29-3.31c3.26,0,5.51,1.29,6.73,3.87a8.7,8.7,0,0,1,7.61-3.87q4.13,0,6.14,2.4t2,7.23V743h-6.8V726.81a4.87,4.87,0,0,0-.84-3.16,3.76,3.76,0,0,0-3-1,4.23,4.23,0,0,0-4.22,2.9l0,17.42h-6.78V726.83a4.83,4.83,0,0,0-.86-3.19,3.82,3.82,0,0,0-3-1,4.39,4.39,0,0,0-4.17,2.39V743h-6.77V717.62Z"/><path class="cls-7" d="M1075.44,730.53q0,5.87-2.66,9.39a8.53,8.53,0,0,1-7.18,3.53,7.88,7.88,0,0,1-6.21-2.67v12h-6.78V717.62h6.28l.24,2.48a8,8,0,0,1,6.42-3,8.61,8.61,0,0,1,7.29,3.47q2.6,3.46,2.6,9.56Zm-6.77-.49a9.93,9.93,0,0,0-1.26-5.46,4.08,4.08,0,0,0-3.64-1.92,4.41,4.41,0,0,0-4.38,2.44v10.38a4.5,4.5,0,0,0,4.42,2.51Q1068.67,738,1068.67,730Z"/><path class="cls-7" d="M1086.78,743H1080V707h6.79Z"/><path class="cls-7" d="M1091.31,730.06a15,15,0,0,1,1.45-6.72,10.64,10.64,0,0,1,4.18-4.57,12.2,12.2,0,0,1,6.34-1.62,11.55,11.55,0,0,1,8.38,3.14,12.57,12.57,0,0,1,3.62,8.53l0,1.74a13.25,13.25,0,0,1-3.26,9.36,12.61,12.61,0,0,1-17.49,0q-3.27-3.51-3.27-9.56Zm6.77.48a9.43,9.43,0,0,0,1.36,5.53,4.87,4.87,0,0,0,7.73,0q1.39-1.89,1.39-6.05a9.32,9.32,0,0,0-1.39-5.49,4.48,4.48,0,0,0-3.89-1.95,4.43,4.43,0,0,0-3.84,1.94Q1098.07,726.49,1098.08,730.54Z"/><path class="cls-7" d="M1129,733.39l4.69-15.77h7.26l-10.19,29.3-.56,1.33a7.74,7.74,0,0,1-7.5,5,10.84,10.84,0,0,1-3-.44v-5.14l1,0a5.57,5.57,0,0,0,2.87-.59,3.86,3.86,0,0,0,1.49-2l.79-2.08L1117,717.62h7.29Z"/><path class="cls-7" d="M1150,717.62l.21,2.84a8.91,8.91,0,0,1,7.29-3.31c3.26,0,5.51,1.29,6.72,3.87a8.72,8.72,0,0,1,7.62-3.87q4.13,0,6.14,2.4t2,7.23V743h-6.8V726.81a4.87,4.87,0,0,0-.84-3.16,3.77,3.77,0,0,0-3-1,4.23,4.23,0,0,0-4.22,2.9l0,17.42h-6.78V726.83a4.77,4.77,0,0,0-.87-3.19,3.78,3.78,0,0,0-3-1,4.39,4.39,0,0,0-4.17,2.39V743h-6.77V717.62Z"/><path class="cls-7" d="M1196.82,743.45a12.45,12.45,0,0,1-9.08-3.42,12.16,12.16,0,0,1-3.5-9.12v-.66a15.4,15.4,0,0,1,1.47-6.83,10.86,10.86,0,0,1,4.19-4.64,11.68,11.68,0,0,1,6.17-1.63,10.51,10.51,0,0,1,8.19,3.28q3,3.29,3,9.31v2.76H1191.1a6.31,6.31,0,0,0,2,4,6,6,0,0,0,4.19,1.5,7.32,7.32,0,0,0,6.12-2.84l3.32,3.73a10.16,10.16,0,0,1-4.12,3.36A13.64,13.64,0,0,1,1196.82,743.45Zm-.77-20.84a4.25,4.25,0,0,0-3.27,1.37,7.07,7.07,0,0,0-1.61,3.9h9.43v-.54a5.08,5.08,0,0,0-1.22-3.49A4.35,4.35,0,0,0,1196.05,722.61Z"/><path class="cls-7" d="M1217.33,717.62l.21,2.93a8.84,8.84,0,0,1,7.29-3.4q4,0,6,2.37t2,7.08V743h-6.78V726.76a4.42,4.42,0,0,0-.93-3.13,4.21,4.21,0,0,0-3.12-1,4.65,4.65,0,0,0-4.29,2.44V743H1211V717.62Z"/><path class="cls-7" d="M1246.09,711.38v6.24h4.33v5h-4.33v12.65a3,3,0,0,0,.54,2,2.68,2.68,0,0,0,2.06.61,11.7,11.7,0,0,0,2-.16v5.13a14.13,14.13,0,0,1-4.1.61q-7.12,0-7.27-7.2V722.59h-3.7v-5h3.7v-6.24Z"/><path class="cls-8" d="M1114.31,258h-6.59V226h6.59Z"/><path class="cls-8" d="M1126.61,234.18l.2,2.75a8.29,8.29,0,0,1,6.83-3.19q3.78,0,5.63,2.22t1.89,6.64V258h-6.35V242.75a4.07,4.07,0,0,0-.88-2.93,3.93,3.93,0,0,0-2.92-.91,4.36,4.36,0,0,0-4,2.28V258h-6.35V234.18Z"/><path class="cls-8" d="M1175.71,249.56a3.4,3.4,0,0,0-1.32-2.87,17.43,17.43,0,0,0-4.74-2.1,33.55,33.55,0,0,1-5.43-2.19q-5.45-2.94-5.45-7.93a7.77,7.77,0,0,1,1.46-4.63,9.61,9.61,0,0,1,4.2-3.17,15.63,15.63,0,0,1,6.14-1.15,14.5,14.5,0,0,1,6.11,1.24,9.67,9.67,0,0,1,4.16,3.51,9.16,9.16,0,0,1,1.49,5.14h-6.59a4.35,4.35,0,0,0-1.39-3.42,5.7,5.7,0,0,0-3.89-1.21,6.06,6.06,0,0,0-3.75,1,3.21,3.21,0,0,0-1.35,2.69,3.08,3.08,0,0,0,1.58,2.61,17.13,17.13,0,0,0,4.62,2q5.63,1.69,8.2,4.2a8.37,8.37,0,0,1,2.57,6.24,7.69,7.69,0,0,1-3.14,6.51c-2.1,1.58-4.92,2.36-8.46,2.36A16.38,16.38,0,0,1,1164,257a10.59,10.59,0,0,1-4.62-3.7,9.43,9.43,0,0,1-1.6-5.45h6.62q0,5.3,6.33,5.3a6.1,6.1,0,0,0,3.66-1A3.12,3.12,0,0,0,1175.71,249.56Z"/><path class="cls-8" d="M1197,253.28a4.2,4.2,0,0,0,2.86-1,3.4,3.4,0,0,0,1.14-2.57h6a8.27,8.27,0,0,1-1.32,4.43,8.83,8.83,0,0,1-3.55,3.12,11.23,11.23,0,0,1-5,1.1,10.31,10.31,0,0,1-8-3.24q-2.94-3.24-2.94-9v-.42a12.65,12.65,0,0,1,2.92-8.76,10.18,10.18,0,0,1,8-3.28,10,10,0,0,1,7.15,2.54A9,9,0,0,1,1207,243h-6a4.38,4.38,0,0,0-1.14-3,4.24,4.24,0,0,0-6.25.46c-.76,1.08-1.13,2.83-1.13,5.25v.66q0,3.68,1.12,5.28A3.86,3.86,0,0,0,1197,253.28Z"/><path class="cls-8" d="M1210.38,245.85a14.1,14.1,0,0,1,1.36-6.31,10,10,0,0,1,3.92-4.28,11.47,11.47,0,0,1,5.95-1.52,10.8,10.8,0,0,1,7.85,2.95,11.81,11.81,0,0,1,3.4,8l0,1.63a12.46,12.46,0,0,1-3.05,8.78,11.86,11.86,0,0,1-16.41,0q-3.06-3.3-3.06-9Zm6.35.45a8.86,8.86,0,0,0,1.27,5.18,4.57,4.57,0,0,0,7.25,0q1.3-1.77,1.3-5.66a8.75,8.75,0,0,0-1.3-5.15,4.2,4.2,0,0,0-3.64-1.83,4.15,4.15,0,0,0-3.61,1.82Q1216.73,242.49,1216.73,246.3Z"/><path class="cls-8" d="M1245.18,228.34v5.84h4.06v4.66h-4.06V250.7a2.87,2.87,0,0,0,.5,1.89,2.56,2.56,0,0,0,1.94.58,10.23,10.23,0,0,0,1.86-.16v4.81a13,13,0,0,1-3.84.57q-6.67,0-6.81-6.74V238.84h-3.47v-4.66h3.47v-5.84Z"/><path class="cls-8" d="M1260.25,258h-6.37V224.21h6.37Z"/><path class="cls-8" d="M1280,258a7.22,7.22,0,0,1-.64-2.14,7.67,7.67,0,0,1-6,2.57,8.43,8.43,0,0,1-5.79-2,6.47,6.47,0,0,1-2.29-5.09,6.73,6.73,0,0,1,2.8-5.81q2.81-2,8.1-2h2.92v-1.36a3.9,3.9,0,0,0-.85-2.64,3.32,3.32,0,0,0-2.67-1,3.77,3.77,0,0,0-2.51.77,2.63,2.63,0,0,0-.92,2.11h-6.35a6.38,6.38,0,0,1,1.28-3.82,8.48,8.48,0,0,1,3.6-2.76,13.29,13.29,0,0,1,5.23-1,10.4,10.4,0,0,1,7,2.21,7.72,7.72,0,0,1,2.58,6.21v10.3a11.23,11.23,0,0,0,1,5.12V258Zm-5.25-4.42a5.45,5.45,0,0,0,2.59-.63,4.09,4.09,0,0,0,1.76-1.68v-4.09h-2.38c-3.17,0-4.87,1.1-5.07,3.3l0,.37a2.55,2.55,0,0,0,.83,2A3.27,3.27,0,0,0,1274.77,253.54Z"/><path class="cls-8" d="M1297,234.18l.2,2.75a8.26,8.26,0,0,1,6.83-3.19q3.78,0,5.62,2.22t1.89,6.64V258h-6.35V242.75a4.07,4.07,0,0,0-.88-2.93,3.91,3.91,0,0,0-2.92-.91,4.36,4.36,0,0,0-4,2.28V258H1291V234.18Z"/><path class="cls-8" d="M1316.11,245.89c0-3.7.83-6.66,2.5-8.85a8.08,8.08,0,0,1,6.82-3.3,7.3,7.3,0,0,1,5.73,2.59V224.21h6.37V258h-5.73l-.31-2.53a7.46,7.46,0,0,1-6.11,3,8.08,8.08,0,0,1-6.73-3.3C1317,252.88,1316.11,249.82,1316.11,245.89Zm6.35.48a9.33,9.33,0,0,0,1.17,5.12,3.78,3.78,0,0,0,3.38,1.79,4.24,4.24,0,0,0,4.15-2.49v-9.4a4.18,4.18,0,0,0-4.11-2.48Q1322.46,238.91,1322.46,246.37Z"/><path class="cls-8" d="M1362.79,228.34v5.84h4.07v4.66h-4.07V250.7a2.81,2.81,0,0,0,.51,1.89,2.54,2.54,0,0,0,1.93.58,10.27,10.27,0,0,0,1.87-.16v4.81a13.08,13.08,0,0,1-3.84.57q-6.69,0-6.82-6.74V238.84H1353v-4.66h3.47v-5.84Z"/><path class="cls-8" d="M1377.36,236.77a7.92,7.92,0,0,1,6.35-3q7.74,0,7.84,9V258h-6.35V242.9a4.41,4.41,0,0,0-.88-3,3.75,3.75,0,0,0-2.92-1,4.3,4.3,0,0,0-4,2.15V258H1371V224.21h6.35Z"/><path class="cls-8" d="M1397.06,228a3.11,3.11,0,0,1,1-2.35,4.1,4.1,0,0,1,5.2,0,3.37,3.37,0,0,1,0,4.72,3.62,3.62,0,0,1-2.59.92,3.58,3.58,0,0,1-2.58-.92A3.11,3.11,0,0,1,1397.06,228Zm6.75,29.93h-6.37V234.18h6.37Z"/><path class="cls-8" d="M1422.68,251.39a2,2,0,0,0-1.15-1.84,13.33,13.33,0,0,0-3.71-1.2c-5.65-1.18-8.48-3.59-8.48-7.2a6.56,6.56,0,0,1,2.63-5.29,10.61,10.61,0,0,1,6.86-2.12,11.38,11.38,0,0,1,7.24,2.13,6.73,6.73,0,0,1,2.72,5.54h-6.35a3.08,3.08,0,0,0-.88-2.25,3.7,3.7,0,0,0-2.75-.89,3.82,3.82,0,0,0-2.48.72,2.29,2.29,0,0,0-.88,1.85,2,2,0,0,0,1,1.7,10.25,10.25,0,0,0,3.37,1.12,27.17,27.17,0,0,1,4,1.07c3.36,1.23,5,3.36,5,6.39a6.19,6.19,0,0,1-2.79,5.26,12,12,0,0,1-7.2,2,12.59,12.59,0,0,1-5.31-1.06,9,9,0,0,1-3.64-2.92,6.79,6.79,0,0,1-1.31-4h6a3.28,3.28,0,0,0,1.25,2.59,5,5,0,0,0,3.12.9,4.64,4.64,0,0,0,2.76-.69A2.16,2.16,0,0,0,1422.68,251.39Z"/><path class="cls-8" d="M1454.55,249l4.4-14.79h6.81l-9.56,27.47-.53,1.25a7.25,7.25,0,0,1-7,4.66,9.92,9.92,0,0,1-2.81-.42v-4.81l1,0a5.17,5.17,0,0,0,2.69-.55,3.59,3.59,0,0,0,1.39-1.82l.75-2-8.33-23.84h6.84Z"/><path class="cls-8" d="M1480,258.39a11.64,11.64,0,0,1-8.51-3.2,11.41,11.41,0,0,1-3.29-8.55V246a14.26,14.26,0,0,1,1.39-6.4,10.17,10.17,0,0,1,3.92-4.35,11,11,0,0,1,5.79-1.53,9.88,9.88,0,0,1,7.68,3.08q2.8,3.08,2.8,8.72v2.59h-15.14a5.84,5.84,0,0,0,1.86,3.74,5.6,5.6,0,0,0,3.92,1.41,6.84,6.84,0,0,0,5.73-2.66l3.12,3.49a9.48,9.48,0,0,1-3.86,3.15A12.63,12.63,0,0,1,1480,258.39Zm-.72-19.53a4,4,0,0,0-3.07,1.28,6.69,6.69,0,0,0-1.5,3.66h8.83v-.5a4.73,4.73,0,0,0-1.14-3.28A4.13,4.13,0,0,0,1479.25,238.86Z"/><path class="cls-8" d="M1507.89,258a7.23,7.23,0,0,1-.63-2.14,7.67,7.67,0,0,1-6,2.57,8.43,8.43,0,0,1-5.79-2,6.48,6.48,0,0,1-2.3-5.09,6.74,6.74,0,0,1,2.81-5.81q2.79-2,8.09-2H1507v-1.36a3.94,3.94,0,0,0-.84-2.64,3.34,3.34,0,0,0-2.67-1,3.81,3.81,0,0,0-2.52.77,2.62,2.62,0,0,0-.91,2.11h-6.35a6.38,6.38,0,0,1,1.28-3.82,8.42,8.42,0,0,1,3.6-2.76,13.22,13.22,0,0,1,5.23-1,10.37,10.37,0,0,1,7,2.21,7.7,7.7,0,0,1,2.59,6.21v10.3a11.38,11.38,0,0,0,.94,5.12V258Zm-5.25-4.42a5.49,5.49,0,0,0,2.6-.63,4.07,4.07,0,0,0,1.75-1.68v-4.09h-2.37q-4.77,0-5.07,3.3l0,.37a2.53,2.53,0,0,0,.84,2A3.24,3.24,0,0,0,1502.64,253.54Z"/><path class="cls-8" d="M1532.37,240.14a17,17,0,0,0-2.29-.18q-3.6,0-4.72,2.44V258H1519V234.18h6l.17,2.84a5.88,5.88,0,0,1,5.3-3.28,6.72,6.72,0,0,1,2,.29Z"/><path class="cls-8" d="M1536.49,236.84a3.21,3.21,0,0,1,1-2.46,4,4,0,0,1,5.14,0,3.2,3.2,0,0,1,1,2.46,3.16,3.16,0,0,1-1,2.43,4,4,0,0,1-5.16,0A3.13,3.13,0,0,1,1536.49,236.84Zm0,18a3.21,3.21,0,0,1,1-2.47,4,4,0,0,1,5.14,0,3.21,3.21,0,0,1,1,2.47,3.15,3.15,0,0,1-1,2.42,4,4,0,0,1-5.16,0A3.13,3.13,0,0,1,1536.49,254.84Z"/><path class="cls-8" d="M1167.68,419.48a3.22,3.22,0,0,1-.29,1.28,2.78,2.78,0,0,1-2.53,1.67l-24.22-.12-.44,59.55a2.88,2.88,0,0,1-2.81,2.95l-48.82-.24a2.88,2.88,0,0,1-2.77-3l.44-59.56-24.22-.12a2.74,2.74,0,0,1-2.5-1.69,3.09,3.09,0,0,1,.35-3.14l51.93-67.91a2.7,2.7,0,0,1,4.36,0l50.92,68.43a3.13,3.13,0,0,1,.6,1.86Zm-33,59.39.43-59.55a2.9,2.9,0,0,1,2.82-2.95l21.2.1-45.16-60.69-46,60.23,21.2.11a2.88,2.88,0,0,1,2.77,3l-.44,59.55,43.23.22Z"/><path class="cls-2" d="M1454.18,557.87h6.31q4.52,0,6.69-2.26a8.25,8.25,0,0,0,2.17-6,7.32,7.32,0,0,0-2.15-5.62,8.35,8.35,0,0,0-5.93-2,8.76,8.76,0,0,0-5.7,1.86,6,6,0,0,0-2.3,4.86h-11.85a14.57,14.57,0,0,1,2.52-8.38,16.84,16.84,0,0,1,7.06-5.81,23.6,23.6,0,0,1,10-2.09q9.48,0,14.85,4.53t5.37,12.49a12.55,12.55,0,0,1-2.5,7.55,16.29,16.29,0,0,1-6.56,5.29,14.9,14.9,0,0,1,7.53,5.41,14.72,14.72,0,0,1,2.48,8.53,15.72,15.72,0,0,1-5.81,12.76q-5.79,4.8-15.36,4.8-8.94,0-14.62-4.72a15.39,15.39,0,0,1-5.68-12.47h11.85a6.87,6.87,0,0,0,2.53,5.5,10.53,10.53,0,0,0,12.83-.1,7.72,7.72,0,0,0,2.4-5.93q0-8.94-9.84-8.94h-6.27Z"/><path class="cls-2" d="M1491.42,587.15a6,6,0,0,1,1.9-4.59,7.43,7.43,0,0,1,9.6,0,6,6,0,0,1,1.91,4.59,5.91,5.91,0,0,1-1.89,4.54,7.55,7.55,0,0,1-9.64,0A5.94,5.94,0,0,1,1491.42,587.15Z"/><path class="cls-2" d="M1555.65,593h-40.94v-8.12L1534,564.27a47.26,47.26,0,0,0,5.89-7.59,12.21,12.21,0,0,0,1.91-6.15,9.14,9.14,0,0,0-2-6.26,7.26,7.26,0,0,0-5.75-2.27,7.81,7.81,0,0,0-6.33,2.76,11,11,0,0,0-2.32,7.28h-11.9a19.54,19.54,0,0,1,2.61-10,18.39,18.39,0,0,1,7.36-7.08,22.37,22.37,0,0,1,10.79-2.56q9.23,0,14.33,4.43t5.11,12.51a20.09,20.09,0,0,1-2.3,9,50.22,50.22,0,0,1-7.87,10.71L1530,583.42h25.68Z"/><path class="cls-2" d="M1562.74,544.74a11.82,11.82,0,0,1,3.57-8.92,13,13,0,0,1,9.35-3.42,13.19,13.19,0,0,1,9.44,3.38,12,12,0,0,1,3.57,9.17v2.95a11.65,11.65,0,0,1-3.57,8.9,14.72,14.72,0,0,1-18.77,0,11.93,11.93,0,0,1-3.59-9.12Zm7.88,3.16a5.55,5.55,0,0,0,1.41,4,4.88,4.88,0,0,0,3.72,1.5,4.67,4.67,0,0,0,3.65-1.52,5.87,5.87,0,0,0,1.35-4.06v-3a5.74,5.74,0,0,0-1.35-4,5.28,5.28,0,0,0-7.39,0,5.84,5.84,0,0,0-1.39,4.16Zm7.46,40.61-5.78-3.12,29.16-46.68,5.79,3.12Zm13.21-10.17a11.62,11.62,0,0,1,3.61-8.92,13.11,13.11,0,0,1,9.35-3.39,13.29,13.29,0,0,1,9.41,3.34q3.6,3.35,3.59,9.21v3a11.76,11.76,0,0,1-3.52,8.88,14.81,14.81,0,0,1-18.87,0,11.86,11.86,0,0,1-3.57-9Zm7.88,3.2a5.5,5.5,0,0,0,1.47,3.85,4.82,4.82,0,0,0,3.69,1.6q5,0,5-5.54v-3.11a5.58,5.58,0,0,0-1.4-4,5.29,5.29,0,0,0-7.38,0,5.75,5.75,0,0,0-1.39,4.08Z"/><path class="cls-7" d="M1424.94,670.49h-5.6V683h-7V648.85H1425q6,0,9.32,2.7a9.3,9.3,0,0,1,3.29,7.62,10.48,10.48,0,0,1-1.52,5.82,10.34,10.34,0,0,1-4.58,3.72l7.39,13.94V683h-7.55Zm-5.6-5.7H1425a5.79,5.79,0,0,0,4.1-1.35,4.8,4.8,0,0,0,1.45-3.71,5.14,5.14,0,0,0-1.37-3.8,5.68,5.68,0,0,0-4.2-1.38h-5.65Z"/><path class="cls-7" d="M1454.17,683.45a12.48,12.48,0,0,1-9.09-3.42,12.2,12.2,0,0,1-3.5-9.12v-.66a15.26,15.26,0,0,1,1.48-6.83,10.84,10.84,0,0,1,4.18-4.64,11.72,11.72,0,0,1,6.18-1.63,10.51,10.51,0,0,1,8.19,3.28q3,3.29,3,9.31v2.76h-16.15a6.31,6.31,0,0,0,2,4,6,6,0,0,0,4.18,1.5,7.32,7.32,0,0,0,6.12-2.84l3.33,3.73a10.19,10.19,0,0,1-4.13,3.36A13.56,13.56,0,0,1,1454.17,683.45Zm-.78-20.84a4.25,4.25,0,0,0-3.27,1.37,7.07,7.07,0,0,0-1.6,3.9h9.42v-.54a5,5,0,0,0-1.22-3.49A4.35,4.35,0,0,0,1453.39,662.61Z"/><path class="cls-7" d="M1479,678a4.46,4.46,0,0,0,3-1,3.64,3.64,0,0,0,1.22-2.75h6.35a8.67,8.67,0,0,1-1.4,4.73,9.28,9.28,0,0,1-3.79,3.32,11.83,11.83,0,0,1-5.31,1.19,11,11,0,0,1-8.57-3.46q-3.15-3.45-3.14-9.55V670q0-5.85,3.11-9.35a10.88,10.88,0,0,1,8.56-3.49,10.66,10.66,0,0,1,7.63,2.71,9.57,9.57,0,0,1,2.91,7.2h-6.35a4.65,4.65,0,0,0-1.22-3.21,4.51,4.51,0,0,0-6.66.49q-1.21,1.73-1.21,5.59v.71q0,3.92,1.19,5.63A4.13,4.13,0,0,0,1479,678Z"/><path class="cls-7" d="M1492.42,670.06a15,15,0,0,1,1.45-6.72,10.64,10.64,0,0,1,4.18-4.57,12.2,12.2,0,0,1,6.34-1.62,11.56,11.56,0,0,1,8.38,3.14,12.57,12.57,0,0,1,3.62,8.53l0,1.74a13.25,13.25,0,0,1-3.26,9.36,12.61,12.61,0,0,1-17.49,0q-3.27-3.51-3.27-9.56Zm6.77.49a9.41,9.41,0,0,0,1.36,5.52,4.87,4.87,0,0,0,7.73,0q1.4-1.89,1.39-6.05a9.32,9.32,0,0,0-1.39-5.49,4.49,4.49,0,0,0-3.89-1.95,4.43,4.43,0,0,0-3.84,1.94Q1499.19,666.49,1499.19,670.55Z"/><path class="cls-7" d="M1534.86,664a19.25,19.25,0,0,0-2.44-.19q-3.84,0-5,2.6V683h-6.78V657.62h6.4l.19,3a6.27,6.27,0,0,1,5.65-3.49,6.9,6.9,0,0,1,2.11.31Z"/><path class="cls-7" d="M1537.06,670.11q0-5.93,2.67-9.44a8.6,8.6,0,0,1,7.27-3.52,7.76,7.76,0,0,1,6.12,2.77V647h6.8v36h-6.12l-.33-2.7a8,8,0,0,1-6.51,3.17,8.63,8.63,0,0,1-7.19-3.53Q1537.07,676.4,1537.06,670.11Zm6.78.51a10,10,0,0,0,1.24,5.47,4.06,4.06,0,0,0,3.61,1.9,4.54,4.54,0,0,0,4.43-2.66v-10a4.46,4.46,0,0,0-4.38-2.65Q1543.84,662.66,1543.84,670.62Z"/><path class="cls-7" d="M1584.27,683h-6.8V647h6.8Z"/><path class="cls-7" d="M1588.79,670.06a15.15,15.15,0,0,1,1.45-6.72,10.66,10.66,0,0,1,4.19-4.57,12.18,12.18,0,0,1,6.34-1.62,11.58,11.58,0,0,1,8.38,3.14,12.62,12.62,0,0,1,3.62,8.53l0,1.74a13.25,13.25,0,0,1-3.25,9.36,12.62,12.62,0,0,1-17.5,0q-3.27-3.51-3.27-9.56Zm6.77.49a9.49,9.49,0,0,0,1.36,5.52,4.88,4.88,0,0,0,7.74,0q1.38-1.89,1.38-6.05a9.4,9.4,0,0,0-1.38-5.49,4.49,4.49,0,0,0-3.89-1.95,4.44,4.44,0,0,0-3.85,1.94C1596,665.84,1595.56,667.84,1595.56,670.55Z"/><path class="cls-7" d="M1639,673.77l3.33-16.15h6.54L1642.44,683h-5.67L1632,667l-4.8,16h-5.65L1615,657.62h6.54l3.31,16.12,4.64-16.12h4.89Z"/><path class="cls-7" d="M1385.83,740.4a8.49,8.49,0,0,1-6.93,3.05,8,8,0,0,1-6.23-2.35q-2.14-2.34-2.19-6.86V717.62h6.78V734q0,4,3.61,4,3.44,0,4.73-2.4v-18h6.8V743H1386Z"/><path class="cls-7" d="M1403.74,717.62l.21,2.93a8.84,8.84,0,0,1,7.29-3.4q4,0,6,2.37c1.31,1.58,2,3.94,2,7.08V743h-6.78V726.76a4.42,4.42,0,0,0-.93-3.13,4.21,4.21,0,0,0-3.12-1,4.65,4.65,0,0,0-4.29,2.44V743h-6.77V717.62Z"/><path class="cls-7" d="M1436.06,743.45A12.44,12.44,0,0,1,1427,740a12.16,12.16,0,0,1-3.5-9.12v-.66a15.4,15.4,0,0,1,1.47-6.83,10.86,10.86,0,0,1,4.19-4.64,11.68,11.68,0,0,1,6.17-1.63,10.51,10.51,0,0,1,8.19,3.28q3,3.29,3,9.31v2.76h-16.15a6.31,6.31,0,0,0,2,4,6,6,0,0,0,4.19,1.5,7.3,7.3,0,0,0,6.11-2.84l3.33,3.73a10.16,10.16,0,0,1-4.12,3.36A13.64,13.64,0,0,1,1436.06,743.45Zm-.77-20.84A4.22,4.22,0,0,0,1432,724a7.07,7.07,0,0,0-1.61,3.9h9.42v-.54a5,5,0,0,0-1.21-3.49A4.36,4.36,0,0,0,1435.29,722.61Z"/><path class="cls-7" d="M1456.69,717.62l.21,2.84a8.88,8.88,0,0,1,7.29-3.31q4.89,0,6.72,3.87a8.71,8.71,0,0,1,7.62-3.87q4.13,0,6.14,2.4c1.34,1.6,2,4,2,7.23V743h-6.8V726.81a4.87,4.87,0,0,0-.84-3.16,3.77,3.77,0,0,0-3-1,4.23,4.23,0,0,0-4.22,2.9l0,17.42h-6.77V726.83a4.77,4.77,0,0,0-.87-3.19,3.79,3.79,0,0,0-3-1,4.39,4.39,0,0,0-4.17,2.39V743h-6.78V717.62Z"/><path class="cls-7" d="M1514.72,730.53q0,5.87-2.66,9.39a8.55,8.55,0,0,1-7.19,3.53,7.91,7.91,0,0,1-6.21-2.67v12h-6.77V717.62h6.28l.23,2.48a8,8,0,0,1,6.43-3,8.61,8.61,0,0,1,7.29,3.47q2.6,3.46,2.6,9.56Zm-6.78-.49a9.94,9.94,0,0,0-1.25-5.46,4.09,4.09,0,0,0-3.64-1.92,4.44,4.44,0,0,0-4.39,2.44v10.38a4.52,4.52,0,0,0,4.43,2.51Q1507.95,738,1507.94,730Z"/><path class="cls-7" d="M1526.06,743h-6.8V707h6.8Z"/><path class="cls-7" d="M1530.58,730.06a15,15,0,0,1,1.46-6.72,10.64,10.64,0,0,1,4.18-4.57,12.18,12.18,0,0,1,6.34-1.62,11.56,11.56,0,0,1,8.38,3.14,12.62,12.62,0,0,1,3.62,8.53l0,1.74a13.25,13.25,0,0,1-3.26,9.36,12.62,12.62,0,0,1-17.5,0q-3.27-3.51-3.27-9.56Zm6.78.48a9.43,9.43,0,0,0,1.36,5.53,4.87,4.87,0,0,0,7.73,0q1.38-1.89,1.38-6.05a9.4,9.4,0,0,0-1.38-5.49,4.49,4.49,0,0,0-3.89-1.95,4.41,4.41,0,0,0-3.84,1.94Q1537.36,726.49,1537.36,730.54Z"/><path class="cls-7" d="M1568.25,733.39l4.69-15.77h7.26L1570,746.92l-.57,1.33a7.72,7.72,0,0,1-7.5,5,11,11,0,0,1-3-.44v-5.14l1,0a5.59,5.59,0,0,0,2.87-.59,3.8,3.8,0,0,0,1.48-2l.8-2.08-8.88-25.43h7.29Z"/><path class="cls-7" d="M1589.23,717.62l.21,2.84a8.88,8.88,0,0,1,7.29-3.31q4.89,0,6.72,3.87a8.71,8.71,0,0,1,7.62-3.87q4.13,0,6.14,2.4c1.34,1.6,2,4,2,7.23V743h-6.8V726.81a4.81,4.81,0,0,0-.85-3.16,3.74,3.74,0,0,0-3-1,4.23,4.23,0,0,0-4.22,2.9l0,17.42h-6.77V726.83a4.77,4.77,0,0,0-.87-3.19,3.79,3.79,0,0,0-3-1,4.39,4.39,0,0,0-4.17,2.39V743h-6.78V717.62Z"/><path class="cls-7" d="M1636.1,743.45A12.44,12.44,0,0,1,1627,740a12.17,12.17,0,0,1-3.51-9.12v-.66a15.4,15.4,0,0,1,1.48-6.83,10.9,10.9,0,0,1,4.18-4.64,11.74,11.74,0,0,1,6.18-1.63,10.51,10.51,0,0,1,8.19,3.28q3,3.29,3,9.31v2.76h-16.15a6.31,6.31,0,0,0,2,4,6,6,0,0,0,4.19,1.5,7.32,7.32,0,0,0,6.11-2.84l3.33,3.73a10.16,10.16,0,0,1-4.12,3.36A13.64,13.64,0,0,1,1636.1,743.45Zm-.77-20.84a4.22,4.22,0,0,0-3.27,1.37,7.07,7.07,0,0,0-1.61,3.9h9.42v-.54a5,5,0,0,0-1.22-3.49A4.34,4.34,0,0,0,1635.33,722.61Z"/><path class="cls-7" d="M1656.61,717.62l.21,2.93a8.84,8.84,0,0,1,7.29-3.4q4,0,6,2.37t2,7.08V743h-6.77V726.76a4.37,4.37,0,0,0-.94-3.13,4.17,4.17,0,0,0-3.11-1,4.65,4.65,0,0,0-4.29,2.44V743h-6.78V717.62Z"/><path class="cls-7" d="M1685.37,711.38v6.24h4.33v5h-4.33v12.65a3.09,3.09,0,0,0,.53,2,2.71,2.71,0,0,0,2.07.61,11.7,11.7,0,0,0,2-.16v5.13a14.18,14.18,0,0,1-4.1.61q-7.12,0-7.27-7.2V722.59h-3.7v-5h3.7v-6.24Z"/><path class="cls-8" d="M1578.08,413.41a3,3,0,0,1-.6,1.85l-50.91,68.43a2.71,2.71,0,0,1-4.37,0l-51.92-67.91a3.11,3.11,0,0,1-.36-3.14,2.8,2.8,0,0,1,2.51-1.69l24.21-.12-.43-59.55a2.86,2.86,0,0,1,2.77-3l48.81-.25a2.89,2.89,0,0,1,2.82,2.95l.44,59.56,24.22-.12a2.77,2.77,0,0,1,2.52,1.66,3.07,3.07,0,0,1,.29,1.29ZM1545,354l-43.22.22.43,59.56a2.86,2.86,0,0,1-2.77,3l-21.19.1,46,60.24,45.16-60.7-21.2.11a2.89,2.89,0,0,1-2.82-2.95L1545,354Z"/></svg>