<svg id="Layer_1" data-name="Layer 1" xmlns="http://www.w3.org/2000/svg" viewBox="0 0 1856.69 1062.99"><defs><style>.cls-1{fill:#dadada;}.cls-2{fill:#a61966;}.cls-3{fill:#d67a10;}.cls-4,.cls-5{fill:none;stroke:#a61966;stroke-miterlimit:10;}.cls-4{stroke-width:10px;}.cls-5{stroke-width:5px;}.cls-6{fill:#fff;}.cls-7{fill:#3c3c3b;}</style></defs><title>FSInfographicsFINAL</title><text/><text/><rect class="cls-1" x="473.82" y="46.15" width="1368" height="984.27"/><rect class="cls-2" x="21.82" y="46.42" width="776" height="980"/><path class="cls-3" d="M181.31,688.42a103.5,103.5,0,1,1,103.5-103.5,103.62,103.62,0,0,1-103.5,103.5Zm0-202.4a98.9,98.9,0,1,0,98.9,98.9,99,99,0,0,0-98.9-98.9Z"/><rect class="cls-4" x="21.82" y="46.42" width="1820" height="980"/><rect class="cls-5" x="797.82" y="46.42" width="1044" height="980"/><text/><text/><text/><path class="cls-3" d="M622.28,679.35A103.47,103.47,0,1,1,725.75,575.89,103.58,103.58,0,0,1,622.28,679.35Zm0-202.33a98.87,98.87,0,1,0,98.87,98.87A99,99,0,0,0,622.28,477Z"/><ellipse class="cls-2" cx="397.32" cy="571.42" rx="148.5" ry="153"/><path class="cls-6" d="M401.15,724.42c-84,0-152.33-68.34-152.33-152.33s68.33-152.33,152.33-152.33,152.33,68.33,152.33,152.33S485.14,724.42,401.15,724.42Zm0-297.89c-80.27,0-145.56,65.29-145.56,145.56s65.29,145.56,145.56,145.56,145.56-65.3,145.56-145.56-65.3-145.56-145.56-145.56Z"/><path class="cls-6" d="M397.46,591.84a3.21,3.21,0,0,1-1.33-.28l-74.57-32.48a3.33,3.33,0,0,1,0-6.1l74.57-32.49a3.25,3.25,0,0,1,2.66,0L473.35,553a3.33,3.33,0,0,1,0,6.1l-74.56,32.48a3.28,3.28,0,0,1-1.33.28ZM331.22,556l66.24,28.86L463.68,556l-66.22-28.86L331.22,556Z"/><path class="cls-6" d="M397.46,622.63A101,101,0,0,1,341,605.06a3.34,3.34,0,0,1-1.47-2.77V566.8a3.33,3.33,0,0,1,6.66,0v33.7c31.8,20.6,70.79,20.6,102.6,0V566.8a3.33,3.33,0,0,1,6.66,0v35.49a3.37,3.37,0,0,1-1.47,2.77,101,101,0,0,1-56.49,17.57Z"/><path class="cls-6" d="M475.65,607.84a3.31,3.31,0,0,1-3.32-3.32V555.71a3.33,3.33,0,1,1,6.65,0v48.81a3.32,3.32,0,0,1-3.33,3.32Z"/><path class="cls-6" d="M475.65,607.84a3.31,3.31,0,0,1-3.32-3.32v-23.3a3.33,3.33,0,0,1,6.65,0v23.3a3.32,3.32,0,0,1-3.33,3.32Z"/><path class="cls-3" d="M655.57,620H594.74a7.77,7.77,0,0,1-7.75-7.76V530.61a2.18,2.18,0,0,1,4.36,0v81.61a3.4,3.4,0,0,0,3.39,3.4h60.83a3.4,3.4,0,0,0,3.39-3.4V543.29a3.4,3.4,0,0,0-3.39-3.4,2.18,2.18,0,1,1,0-4.36,7.77,7.77,0,0,1,7.76,7.76v68.93a7.77,7.77,0,0,1-7.76,7.76Z"/><path class="cls-3" d="M654.72,539.89H598.29a11.31,11.31,0,0,1,0-22.61h62.86a2.19,2.19,0,0,1,0,4.37H598.29a6.94,6.94,0,1,0,0,13.88h56.43a2.18,2.18,0,0,1,0,4.36Z"/><path class="cls-3" d="M625,587a2.07,2.07,0,0,1-.87-.19L615.36,583l-8.71,3.82a2.18,2.18,0,0,1-3.06-2V542a2.18,2.18,0,0,1,4.36,0v39.56l6.53-2.87a2.16,2.16,0,0,1,1.76,0l6.53,2.87V542a2.19,2.19,0,0,1,4.37,0v42.9A2.19,2.19,0,0,1,625,587Z"/><path class="cls-3" d="M160.1,571.23c-8.57,0-15.56-7.91-15.56-17.62s7-17.63,15.56-17.63,15.56,7.91,15.56,17.63-7,17.62-15.56,17.62Zm0-31.2c-6.34,0-11.51,6.09-11.51,13.58s5.17,13.57,11.51,13.57,11.51-6.09,11.51-13.57S166.45,540,160.1,540Z"/><path class="cls-3" d="M185.82,615.63H133.7a2,2,0,0,1-2-1.89l-1.14-16.81c-.37-5.57,4-12,9.49-14a58.71,58.71,0,0,1,39.45,0c5.56,2,9.9,8.47,9.51,14l-1.15,16.81a2,2,0,0,1-2,1.89Zm-50.23-4h48.34l1-14.92c.24-3.43-2.63-8.42-6.85-10a54.75,54.75,0,0,0-36.69,0c-4.18,1.54-7.06,6.53-6.83,10l1,14.92Z"/><path class="cls-3" d="M185.82,615.63H133.7a2,2,0,0,1-2-1.89l-1.14-16.81c-.37-5.57,4-12,9.49-14a58.71,58.71,0,0,1,39.45,0c5.56,2,9.9,8.47,9.51,14l-1.15,16.81a2,2,0,0,1-2,1.89Zm-50.23-4h48.34l1-14.92c.24-3.43-2.63-8.42-6.85-10a54.75,54.75,0,0,0-36.69,0c-4.18,1.54-7.06,6.53-6.83,10l1,14.92Z"/><path class="cls-3" d="M217.35,615.63H196.6a2,2,0,0,1,0-4h18.86l.87-12.63c.19-2.81-2.27-7.05-5.74-8.33a46.54,46.54,0,0,0-14.86-2.7,2,2,0,0,1-2-2.06,2,2,0,0,1,2.06-2A50.78,50.78,0,0,1,212,586.81c4.9,1.81,8.74,7.49,8.4,12.41l-1,14.53a2,2,0,0,1-2,1.88Z"/><path class="cls-3" d="M201.38,575.5c-6.94,0-12.58-6.36-12.58-14.18s5.64-14.19,12.58-14.19S214,553.49,214,561.32s-5.64,14.18-12.57,14.18Zm0-24.32c-4.7,0-8.53,4.54-8.53,10.14s3.83,10.13,8.53,10.13,8.53-4.54,8.53-10.13-3.83-10.14-8.53-10.14Z"/><path class="cls-6" d="M310.79,238H291.51v16.82h22.17v2.95H288V216.55h25.52v2.94h-22v15.58h19.28Z"/><path class="cls-6" d="M318.87,242.18q0-7.14,3.18-11.38a10.27,10.27,0,0,1,8.65-4.23,10.64,10.64,0,0,1,9.46,4.9V214.28h3.37v43.5h-3.17l-.14-4.08q-3.25,4.65-9.57,4.65a10.2,10.2,0,0,1-8.54-4.27q-3.24-4.26-3.24-11.51Zm3.42.59c0,3.91.79,7,2.35,9.25a7.62,7.62,0,0,0,6.63,3.38,9.12,9.12,0,0,0,8.89-5.52V235.49q-2.62-6-8.83-6a7.7,7.7,0,0,0-6.66,3.35Q322.28,236.23,322.29,242.77Z"/><path class="cls-6" d="M372.16,253.9q-3.06,4.44-9.77,4.45c-3.26,0-5.75-1-7.44-2.85s-2.57-4.71-2.61-8.43V227.14h3.37v19.51q0,8.74,7.08,8.75,7.36,0,9.32-6.09V227.14h3.4v30.64h-3.29Z"/><path class="cls-6" d="M395.64,255.49a8.94,8.94,0,0,0,5.93-2,7,7,0,0,0,2.6-5.17h3.25a9.6,9.6,0,0,1-1.75,5.11,11,11,0,0,1-4.29,3.61,13,13,0,0,1-5.74,1.31,11.83,11.83,0,0,1-9.56-4.2q-3.52-4.18-3.52-11.27v-1a19.24,19.24,0,0,1,1.58-8,12.25,12.25,0,0,1,4.55-5.38,12.49,12.49,0,0,1,6.92-1.9,11.86,11.86,0,0,1,8.32,3,10.94,10.94,0,0,1,3.49,7.9h-3.25a8.83,8.83,0,0,0-15.68-4.7q-2.53,3.31-2.53,9.29v1q0,5.87,2.53,9.15A8.51,8.51,0,0,0,395.64,255.49Z"/><path class="cls-6" d="M433.53,257.78a16.26,16.26,0,0,1-.65-4.28,11.81,11.81,0,0,1-4.54,3.59,13.92,13.92,0,0,1-5.85,1.26,10.27,10.27,0,0,1-7.15-2.47,8,8,0,0,1-2.73-6.23,8.21,8.21,0,0,1,3.72-7.08q3.72-2.61,10.38-2.6h6.14v-3.49a6.72,6.72,0,0,0-2-5.17,8.4,8.4,0,0,0-5.91-1.88,9.29,9.29,0,0,0-5.86,1.81,5.39,5.39,0,0,0-2.32,4.36l-3.4,0a7.86,7.86,0,0,1,3.4-6.33,13.06,13.06,0,0,1,8.35-2.68c3.42,0,6.12.86,8.09,2.56a9.19,9.19,0,0,1,3,7.15v14.5a18,18,0,0,0,.94,6.66v.34Zm-10.64-2.44A11.32,11.32,0,0,0,429,253.7a9.65,9.65,0,0,0,3.89-4.39v-6.74h-6.06a15.2,15.2,0,0,0-7.93,1.86,5.57,5.57,0,0,0-2.86,4.94,5.48,5.48,0,0,0,1.92,4.28A7.2,7.2,0,0,0,422.89,255.34Z"/><path class="cls-6" d="M450.53,219.29v7.85h6.34v2.77h-6.34v20.44a6.33,6.33,0,0,0,.92,3.8,3.53,3.53,0,0,0,3.07,1.25,20.77,20.77,0,0,0,2.75-.28l.14,2.75a11.05,11.05,0,0,1-3.63.48q-3.48,0-5.07-2a9.58,9.58,0,0,1-1.58-6V229.91h-5.64v-2.77h5.64v-7.85Z"/><path class="cls-6" d="M463.7,218.29a2.25,2.25,0,0,1,.62-1.62A2.21,2.21,0,0,1,466,216a2.27,2.27,0,0,1,1.71.66,2.22,2.22,0,0,1,.64,1.62,2.16,2.16,0,0,1-.64,1.6,2.3,2.3,0,0,1-1.71.65,2.24,2.24,0,0,1-1.7-.65A2.19,2.19,0,0,1,463.7,218.29Zm4,39.49h-3.4V227.14h3.4Z"/><path class="cls-6" d="M475,242a17.92,17.92,0,0,1,1.72-8,12.87,12.87,0,0,1,11.93-7.48,12.62,12.62,0,0,1,9.92,4.29q3.8,4.29,3.79,11.37v.71a18.23,18.23,0,0,1-1.71,8,12.8,12.8,0,0,1-4.83,5.48,13.3,13.3,0,0,1-7.11,1.93,12.62,12.62,0,0,1-9.9-4.29Q475,249.77,475,242.69Zm3.4.93a13.9,13.9,0,0,0,2.85,9,9.62,9.62,0,0,0,14.89,0,14.34,14.34,0,0,0,2.85-9.3V242a15.52,15.52,0,0,0-1.3-6.43,10.47,10.47,0,0,0-3.66-4.52,9.29,9.29,0,0,0-5.38-1.6,9.05,9.05,0,0,0-7.39,3.55,14.37,14.37,0,0,0-2.86,9.31Z"/><path class="cls-6" d="M512.6,227.14l.12,5.24a12.11,12.11,0,0,1,4.3-4.32,11.22,11.22,0,0,1,5.69-1.49c3.29,0,5.73.93,7.34,2.78s2.42,4.62,2.44,8.32v20.11h-3.37V237.64q0-4.09-1.75-6.11t-5.48-2a8.57,8.57,0,0,0-5.56,2,11.53,11.53,0,0,0-3.58,5.31v21h-3.37V227.14Z"/><path class="cls-7" d="M1132.63,397a3.74,3.74,0,0,0-1.46-3.18,19.14,19.14,0,0,0-5.27-2.35,36.89,36.89,0,0,1-6-2.43q-6.06-3.27-6.06-8.81a8.61,8.61,0,0,1,1.62-5.14,10.71,10.71,0,0,1,4.67-3.53,17.64,17.64,0,0,1,6.82-1.27,16,16,0,0,1,6.79,1.38,10.76,10.76,0,0,1,4.62,3.9,10.16,10.16,0,0,1,1.65,5.71h-7.32a4.79,4.79,0,0,0-1.54-3.8,6.33,6.33,0,0,0-4.32-1.35,6.83,6.83,0,0,0-4.18,1.13,3.59,3.59,0,0,0-1.48,3,3.43,3.43,0,0,0,1.74,2.91,20,20,0,0,0,5.14,2.2q6.26,1.88,9.11,4.66a9.31,9.31,0,0,1,2.85,6.93,8.55,8.55,0,0,1-3.49,7.24q-3.49,2.63-9.4,2.63a18.19,18.19,0,0,1-7.47-1.5,12,12,0,0,1-5.14-4.12,10.53,10.53,0,0,1-1.77-6.05h7.35q0,5.88,7,5.88a6.85,6.85,0,0,0,4.08-1.06A3.45,3.45,0,0,0,1132.63,397Z"/><path class="cls-7" d="M1156.31,401.11a4.6,4.6,0,0,0,3.17-1.08,3.71,3.71,0,0,0,1.27-2.85h6.62a9.08,9.08,0,0,1-1.46,4.92,9.7,9.7,0,0,1-4,3.46,12.24,12.24,0,0,1-5.53,1.24,11.47,11.47,0,0,1-8.93-3.6q-3.27-3.6-3.27-9.95v-.47q0-6.11,3.24-9.74a11.37,11.37,0,0,1,8.91-3.64,11.1,11.1,0,0,1,7.95,2.82,10,10,0,0,1,3,7.51h-6.62a4.82,4.82,0,0,0-1.27-3.35,4.71,4.71,0,0,0-6.94.51q-1.26,1.8-1.26,5.83v.74q0,4.08,1.25,5.86A4.3,4.3,0,0,0,1156.31,401.11Z"/><path class="cls-7" d="M1171.15,392.86a15.67,15.67,0,0,1,1.51-7,11.11,11.11,0,0,1,4.36-4.76,12.77,12.77,0,0,1,6.61-1.69,12,12,0,0,1,8.72,3.28,13.1,13.1,0,0,1,3.78,8.88l0,1.81a13.82,13.82,0,0,1-3.4,9.75,13.13,13.13,0,0,1-18.22,0q-3.4-3.66-3.41-10Zm7.06.5a9.92,9.92,0,0,0,1.41,5.76,5.09,5.09,0,0,0,8.06,0q1.44-2,1.44-6.3a9.79,9.79,0,0,0-1.44-5.72,4.69,4.69,0,0,0-4-2,4.63,4.63,0,0,0-4,2Q1178.21,389.14,1178.21,393.36Z"/><path class="cls-7" d="M1209.82,373.4v6.49h4.51v5.18h-4.51v13.18a3.11,3.11,0,0,0,.56,2.1,2.83,2.83,0,0,0,2.15.64,11.54,11.54,0,0,0,2.07-.17v5.34a14.58,14.58,0,0,1-4.27.64q-7.42,0-7.57-7.5V385.07h-3.86v-5.18h3.86V373.4Z"/><path class="cls-7" d="M1226.56,406.31h-7.08v-37.5h7.08Z"/><path class="cls-7" d="M1248.53,406.31a7.9,7.9,0,0,1-.71-2.37,8.55,8.55,0,0,1-6.66,2.86,9.38,9.38,0,0,1-6.44-2.25,7.22,7.22,0,0,1-2.55-5.66,7.47,7.47,0,0,1,3.12-6.45c2.07-1.5,5.07-2.25,9-2.27h3.25v-1.51a4.33,4.33,0,0,0-.94-2.93,3.72,3.72,0,0,0-3-1.1,4.17,4.17,0,0,0-2.79.85,2.9,2.9,0,0,0-1,2.35h-7a7.11,7.11,0,0,1,1.41-4.25,9.39,9.39,0,0,1,4-3.06,14.41,14.41,0,0,1,5.81-1.12,11.51,11.51,0,0,1,7.75,2.46,8.57,8.57,0,0,1,2.87,6.89v11.46a12.55,12.55,0,0,0,1.05,5.68v.42Zm-5.84-4.91a6.13,6.13,0,0,0,2.89-.69,4.7,4.7,0,0,0,2-1.87V394.3h-2.64q-5.3,0-5.64,3.66l0,.41a2.84,2.84,0,0,0,.93,2.18A3.57,3.57,0,0,0,1242.69,401.4Z"/><path class="cls-7" d="M1267.37,379.89l.22,3.05a9.23,9.23,0,0,1,7.6-3.54c2.79,0,4.88.83,6.25,2.47s2.06,4.1,2.09,7.37v17.07h-7v-16.9a4.6,4.6,0,0,0-1-3.26,4.38,4.38,0,0,0-3.24-1,4.86,4.86,0,0,0-4.47,2.54v18.63h-7.06V379.89Z"/><path class="cls-7" d="M1288.63,392.91q0-6.18,2.77-9.84a9,9,0,0,1,7.58-3.67,8.08,8.08,0,0,1,6.38,2.89V368.81h7.08v37.5h-6.38l-.34-2.81a8.28,8.28,0,0,1-6.78,3.3,9,9,0,0,1-7.49-3.68Q1288.63,399.45,1288.63,392.91Zm7.06.52a10.46,10.46,0,0,0,1.29,5.7,4.23,4.23,0,0,0,3.76,2,4.74,4.74,0,0,0,4.62-2.76V387.9a4.66,4.66,0,0,0-4.57-2.76Q1295.69,385.14,1295.69,393.43Z"/><path class="cls-7" d="M1332,373.06a3.49,3.49,0,0,1,1.06-2.62,4.59,4.59,0,0,1,5.77,0,3.47,3.47,0,0,1,1.08,2.62,3.43,3.43,0,0,1-1.09,2.63,4.5,4.5,0,0,1-5.73,0A3.43,3.43,0,0,1,1332,373.06Zm7.49,33.25h-7.08V379.89h7.08Z"/><path class="cls-7" d="M1360.47,399a2.29,2.29,0,0,0-1.28-2,14.52,14.52,0,0,0-4.12-1.33q-9.42-2-9.42-8a7.25,7.25,0,0,1,2.92-5.87,11.77,11.77,0,0,1,7.63-2.36,12.65,12.65,0,0,1,8,2.37,7.47,7.47,0,0,1,3,6.15h-7.06a3.42,3.42,0,0,0-1-2.5,4.15,4.15,0,0,0-3.06-1,4.21,4.21,0,0,0-2.76.81,2.54,2.54,0,0,0-1,2.05,2.17,2.17,0,0,0,1.11,1.89,11.41,11.41,0,0,0,3.75,1.25,31,31,0,0,1,4.44,1.18q5.6,2.06,5.59,7.11a6.88,6.88,0,0,1-3.1,5.84,13.39,13.39,0,0,1-8,2.24,13.92,13.92,0,0,1-5.89-1.19,9.86,9.86,0,0,1-4-3.24,7.54,7.54,0,0,1-1.47-4.46h6.69a3.68,3.68,0,0,0,1.39,2.88,5.5,5.5,0,0,0,3.47,1,5,5,0,0,0,3.06-.77A2.39,2.39,0,0,0,1360.47,399Z"/><path class="cls-7" d="M1400.87,386.51a19.32,19.32,0,0,0-2.54-.2c-2.67,0-4.42.91-5.25,2.71v17.29H1386V379.89h6.67l.19,3.15a6.56,6.56,0,0,1,5.89-3.64,7.38,7.38,0,0,1,2.19.32Z"/><path class="cls-7" d="M1419.69,406.31a7.62,7.62,0,0,1-.71-2.37,8.56,8.56,0,0,1-6.67,2.86,9.36,9.36,0,0,1-6.43-2.25,7.22,7.22,0,0,1-2.55-5.66,7.46,7.46,0,0,1,3.11-6.45c2.08-1.5,5.07-2.25,9-2.27h3.24v-1.51a4.33,4.33,0,0,0-.94-2.93,3.68,3.68,0,0,0-3-1.1,4.22,4.22,0,0,0-2.8.85,2.92,2.92,0,0,0-1,2.35h-7.06a7.12,7.12,0,0,1,1.42-4.25,9.36,9.36,0,0,1,4-3.06,14.47,14.47,0,0,1,5.81-1.12,11.54,11.54,0,0,1,7.76,2.46,8.57,8.57,0,0,1,2.86,6.89v11.46a12.69,12.69,0,0,0,1,5.68v.42Zm-5.84-4.91a6.12,6.12,0,0,0,2.88-.69,4.59,4.59,0,0,0,2-1.87V394.3h-2.63q-5.29,0-5.64,3.66l0,.41a2.84,2.84,0,0,0,.93,2.18A3.61,3.61,0,0,0,1413.85,401.4Z"/><path class="cls-7" d="M1438.53,379.89l.22,3.05a9.23,9.23,0,0,1,7.59-3.54c2.8,0,4.88.83,6.25,2.47s2.07,4.1,2.1,7.37v17.07h-7v-16.9a4.6,4.6,0,0,0-1-3.26,4.39,4.39,0,0,0-3.25-1,4.88,4.88,0,0,0-4.47,2.54v18.63h-7V379.89Z"/><path class="cls-7" d="M1470.48,395.71l-2.54,2.54v8.06h-7v-37.5h7v20.77l1.37-1.75,6.76-7.94h8.47l-9.54,11,10.37,15.41h-8.1Z"/><path class="cls-7" d="M1500.6,406.8a13,13,0,0,1-9.46-3.57,12.66,12.66,0,0,1-3.65-9.49v-.69a16,16,0,0,1,1.54-7.11,11.28,11.28,0,0,1,4.36-4.84,12.23,12.23,0,0,1,6.43-1.7,10.94,10.94,0,0,1,8.53,3.42q3.12,3.42,3.12,9.69v2.89h-16.82a6.53,6.53,0,0,0,2.06,4.15,6.25,6.25,0,0,0,4.36,1.56,7.61,7.61,0,0,0,6.37-3l3.47,3.89a10.66,10.66,0,0,1-4.3,3.5A14.09,14.09,0,0,1,1500.6,406.8Zm-.8-21.71a4.42,4.42,0,0,0-3.41,1.43,7.3,7.3,0,0,0-1.67,4.07h9.81V390a5.25,5.25,0,0,0-1.26-3.64A4.56,4.56,0,0,0,1499.8,385.09Z"/><path class="cls-7" d="M1515.22,392.91q0-6.18,2.78-9.84a9,9,0,0,1,7.58-3.67,8.07,8.07,0,0,1,6.37,2.89V368.81H1539v37.5h-6.37l-.35-2.81a8.28,8.28,0,0,1-6.78,3.3,9,9,0,0,1-7.49-3.68Q1515.22,399.45,1515.22,392.91Zm7.06.52a10.46,10.46,0,0,0,1.29,5.7,4.23,4.23,0,0,0,3.76,2,4.74,4.74,0,0,0,4.62-2.76V387.9a4.66,4.66,0,0,0-4.57-2.76Q1522.28,385.14,1522.28,393.43Z"/><path class="cls-2" d="M1100.83,514.31h-12.7v-49L1073,470.06V459.73l26.5-9.49h1.36Z"/><path class="cls-2" d="M1146.71,502.34a3.73,3.73,0,0,0-2.11-3.35,24,24,0,0,0-6.74-2.18q-15.45-3.24-15.46-13.13a11.91,11.91,0,0,1,4.79-9.63q4.79-3.87,12.51-3.86,8.25,0,13.19,3.88a12.23,12.23,0,0,1,4.95,10.09h-11.57a5.61,5.61,0,0,0-1.6-4.1q-1.61-1.63-5-1.63a6.9,6.9,0,0,0-4.52,1.32,4.2,4.2,0,0,0-1.61,3.37,3.56,3.56,0,0,0,1.83,3.1,18.54,18.54,0,0,0,6.14,2,49.67,49.67,0,0,1,7.29,1.95q9.17,3.36,9.17,11.65a11.32,11.32,0,0,1-5.09,9.59q-5.08,3.66-13.13,3.66a23,23,0,0,1-9.67-1.94,16.28,16.28,0,0,1-6.63-5.33,12.36,12.36,0,0,1-2.4-7.3h11a6,6,0,0,0,2.29,4.72,9,9,0,0,0,5.68,1.64,8.4,8.4,0,0,0,5-1.26A3.93,3.93,0,0,0,1146.71,502.34Z"/><path class="cls-2" d="M1179.42,460.34V471h7.41v8.48h-7.41V501.1a5.17,5.17,0,0,0,.92,3.44c.62.69,1.79,1,3.53,1a18.17,18.17,0,0,0,3.4-.28v8.77a23.94,23.94,0,0,1-7,1q-12.16,0-12.41-12.29V479.47h-6.32V471h6.32V460.34Z"/><path class="cls-2" d="M1214.94,490.09a28.16,28.16,0,0,1,2.73-12.61,19.92,19.92,0,0,1,7.84-8.57,22.91,22.91,0,0,1,11.89-3q9.61,0,15.71,5.89t6.79,16L1260,491q0,10.94-6.1,17.55t-16.4,6.62q-10.27,0-16.41-6.59t-6.13-17.93Zm12.7.91q0,6.78,2.55,10.36a9.15,9.15,0,0,0,14.5.05c1.73-2.37,2.59-6.14,2.59-11.34q0-6.65-2.59-10.3a8.44,8.44,0,0,0-7.29-3.65,8.29,8.29,0,0,0-7.21,3.63Q1227.64,483.38,1227.64,491Z"/><path class="cls-2" d="M1297.81,509.47q-4.69,5.71-13,5.72-7.65,0-11.67-4.4T1269,497.92V466.76h12.7v30.75q0,7.44,6.77,7.44,6.45,0,8.87-4.49v-33.7h12.75v47.55h-11.95Z"/><path class="cls-2" d="M1336.43,455.07v11.69h8.13v9.32h-8.13v23.73a5.72,5.72,0,0,0,1,3.78q1,1.14,3.87,1.14a19.89,19.89,0,0,0,3.74-.31V514a25.91,25.91,0,0,1-7.69,1.15q-13.36,0-13.63-13.49V476.08h-6.94v-9.32h6.94V455.07Z"/><path class="cls-2" d="M1375.13,490.09a28.16,28.16,0,0,1,2.73-12.61,19.92,19.92,0,0,1,7.84-8.57,22.91,22.91,0,0,1,11.89-3q9.63,0,15.71,5.89t6.79,16l.09,3.25q0,10.94-6.11,17.55t-16.39,6.62q-10.29,0-16.42-6.59t-6.13-17.93Zm12.7.91q0,6.78,2.55,10.36a9.15,9.15,0,0,0,14.5.05c1.73-2.37,2.6-6.14,2.6-11.34q0-6.65-2.6-10.3a8.43,8.43,0,0,0-7.29-3.65,8.29,8.29,0,0,0-7.21,3.63Q1387.83,483.38,1387.83,491Z"/><path class="cls-2" d="M1433,514.31V476.08h-7.07v-9.32H1433v-4c0-5.34,1.53-9.47,4.59-12.42s7.35-4.41,12.86-4.41a30,30,0,0,1,6.46.87l-.13,9.85a15.92,15.92,0,0,0-3.87-.4q-7.17,0-7.16,6.73v3.82h9.44v9.32h-9.44v38.23Z"/><path class="cls-2" d="M1499.65,476.69h6.77c3.22,0,5.61-.8,7.16-2.42a8.86,8.86,0,0,0,2.33-6.41,7.81,7.81,0,0,0-2.31-6,8.92,8.92,0,0,0-6.35-2.16,9.4,9.4,0,0,0-6.11,2,6.41,6.41,0,0,0-2.46,5.21H1486a15.59,15.59,0,0,1,2.71-9,18,18,0,0,1,7.55-6.21,25.16,25.16,0,0,1,10.7-2.24q10.15,0,15.91,4.85t5.76,13.38a13.45,13.45,0,0,1-2.68,8.09,17.46,17.46,0,0,1-7,5.67,14.92,14.92,0,0,1,10.72,14.94,16.84,16.84,0,0,1-6.22,13.67q-6.21,5.13-16.46,5.14-9.57,0-15.66-5.06a16.49,16.49,0,0,1-6.09-13.36h12.7a7.35,7.35,0,0,0,2.7,5.89,11.26,11.26,0,0,0,13.76-.11,8.27,8.27,0,0,0,2.57-6.35q0-9.57-10.55-9.58h-6.72Z"/><path class="cls-2" d="M1574.35,449.67v10.45h-1.23q-8.61.13-13.87,4.49a18.2,18.2,0,0,0-6.3,12.08,17.28,17.28,0,0,1,12.87-5.18,16.33,16.33,0,0,1,13.28,6q4.92,6,4.92,15.73a23.48,23.48,0,0,1-2.71,11.3,19.43,19.43,0,0,1-7.64,7.87,22.3,22.3,0,0,1-11.19,2.81q-10.1,0-16.32-7t-6.22-18.77v-4.57a41.11,41.11,0,0,1,3.93-18.39,28.84,28.84,0,0,1,11.3-12.35,33,33,0,0,1,17.07-4.41ZM1562,481.75a10.12,10.12,0,0,0-5.58,1.6,9.64,9.64,0,0,0-3.7,4.23v3.86q0,6.36,2.51,9.93a8.54,8.54,0,0,0,13.64.35,15.11,15.11,0,0,0,0-16.77A8.28,8.28,0,0,0,1562,481.75Z"/><path class="cls-7" d="M1044.3,575.34a21.37,21.37,0,0,1-1.86,9.2,13.87,13.87,0,0,1-5.31,6.11,15.67,15.67,0,0,1-15.81,0,14.11,14.11,0,0,1-5.37-6.06,20.92,20.92,0,0,1-1.93-9.07v-1.76a21.36,21.36,0,0,1,1.9-9.24,14.07,14.07,0,0,1,5.34-6.13,15.65,15.65,0,0,1,15.8,0,14.16,14.16,0,0,1,5.35,6.13,21.28,21.28,0,0,1,1.89,9.21Zm-7.42-1.61q0-5.6-2-8.5a7.07,7.07,0,0,0-11.4,0c-1.33,1.91-2,4.71-2,8.41v1.73c0,3.63.66,6.45,2,8.45a6.5,6.5,0,0,0,5.76,3,6.42,6.42,0,0,0,5.66-2.89q2-2.89,2-8.44Z"/><path class="cls-7" d="M1071.86,576.9h-14.07v9.52h16.51v5.89h-23.83V556.76h23.78v5.93h-16.46v8.48h14.07Z"/><path class="cls-7" d="M1107.35,580.47a12.62,12.62,0,0,1-4.23,9q-3.82,3.3-10.08,3.3-6.82,0-10.75-4.61t-3.92-12.63v-2.17a21.27,21.27,0,0,1,1.81-9,13.5,13.5,0,0,1,5.16-6,14.49,14.49,0,0,1,7.8-2.09q6.15,0,9.91,3.3a13.51,13.51,0,0,1,4.35,9.25h-7.32a7.42,7.42,0,0,0-1.92-5,7.12,7.12,0,0,0-5-1.55,6.22,6.22,0,0,0-5.48,2.62q-1.82,2.63-1.87,8.15v2.68c0,3.84.59,6.65,1.75,8.42a6.09,6.09,0,0,0,5.5,2.67,7.24,7.24,0,0,0,5.07-1.55,7,7,0,0,0,1.92-4.8Z"/><path class="cls-7" d="M1113,592.31V556.76H1124a16.66,16.66,0,0,1,8.38,2.11,14.75,14.75,0,0,1,5.78,6,18.58,18.58,0,0,1,2.07,8.85v1.64a18.56,18.56,0,0,1-2,8.81,14.54,14.54,0,0,1-5.75,6,16.7,16.7,0,0,1-8.37,2.15Zm7.32-29.62v23.73h3.54a8,8,0,0,0,6.57-2.8q2.28-2.8,2.32-8v-1.87q0-5.43-2.24-8.22a8,8,0,0,0-6.57-2.8Z"/><path class="cls-7" d="M1170.18,587.11a4.6,4.6,0,0,0,3.17-1.08,3.71,3.71,0,0,0,1.27-2.85h6.62a9.09,9.09,0,0,1-1.47,4.92,9.61,9.61,0,0,1-3.94,3.46,12.24,12.24,0,0,1-5.53,1.24,11.45,11.45,0,0,1-8.93-3.6q-3.28-3.6-3.28-10v-.47q0-6.1,3.25-9.74a11.37,11.37,0,0,1,8.91-3.64,11.1,11.1,0,0,1,8,2.82,10,10,0,0,1,3,7.51h-6.62a4.82,4.82,0,0,0-1.27-3.35,4.71,4.71,0,0,0-6.94.51q-1.26,1.8-1.26,5.83v.74q0,4.08,1.24,5.86A4.33,4.33,0,0,0,1170.18,587.11Z"/><path class="cls-7" d="M1185,578.86a15.67,15.67,0,0,1,1.51-7,11.05,11.05,0,0,1,4.36-4.76,12.76,12.76,0,0,1,6.6-1.69,12,12,0,0,1,8.73,3.28,13.09,13.09,0,0,1,3.77,8.88l0,1.81q0,6.07-3.39,9.75a13.14,13.14,0,0,1-18.23,0q-3.4-3.66-3.4-10Zm7,.5a9.91,9.91,0,0,0,1.42,5.76,5.09,5.09,0,0,0,8.06,0q1.44-2,1.44-6.3a9.79,9.79,0,0,0-1.44-5.72,4.7,4.7,0,0,0-4.06-2,4.61,4.61,0,0,0-4,2C1192.55,574.46,1192.07,576.54,1192.07,579.36Z"/><path class="cls-7" d="M1231.06,589.62a8.84,8.84,0,0,1-7.23,3.18,8.37,8.37,0,0,1-6.48-2.44q-2.24-2.45-2.28-7.16V565.89h7V583c0,2.75,1.26,4.13,3.76,4.13s4-.83,4.93-2.49V565.89h7.08v26.42h-6.64Z"/><path class="cls-7" d="M1250.56,565.89l.22,3.05a9.23,9.23,0,0,1,7.59-3.54c2.8,0,4.89.83,6.25,2.47s2.07,4.1,2.1,7.37v17.07h-7v-16.9a4.6,4.6,0,0,0-1-3.26,4.39,4.39,0,0,0-3.25-1,4.85,4.85,0,0,0-4.46,2.54v18.63h-7.06V565.89Z"/><path class="cls-7" d="M1281.37,559.4v6.49h4.51v5.18h-4.51v13.18a3.11,3.11,0,0,0,.56,2.1,2.83,2.83,0,0,0,2.15.64,11.54,11.54,0,0,0,2.07-.17v5.34a14.58,14.58,0,0,1-4.27.64q-7.43,0-7.57-7.5V571.07h-3.86v-5.18h3.86V559.4Z"/><path class="cls-7" d="M1305.51,572.51a19.32,19.32,0,0,0-2.54-.2c-2.67,0-4.42.91-5.25,2.71v17.29h-7.06V565.89h6.67l.19,3.15a6.56,6.56,0,0,1,5.89-3.64,7.5,7.5,0,0,1,2.2.32Z"/><path class="cls-7" d="M1309.7,559.06a3.53,3.53,0,0,1,1.06-2.62,4.6,4.6,0,0,1,5.78,0,3.5,3.5,0,0,1,1.07,2.62,3.46,3.46,0,0,1-1.08,2.63,4.51,4.51,0,0,1-5.74,0A3.43,3.43,0,0,1,1309.7,559.06Zm7.5,33.25h-7.08V565.89h7.08Z"/><path class="cls-7" d="M1336,592.8a12.94,12.94,0,0,1-9.46-3.57,12.63,12.63,0,0,1-3.65-9.49v-.69a16,16,0,0,1,1.53-7.11,11.28,11.28,0,0,1,4.36-4.84,12.27,12.27,0,0,1,6.44-1.7,11,11,0,0,1,8.53,3.42q3.11,3.42,3.11,9.69v2.89h-16.82a6.63,6.63,0,0,0,2.06,4.15,6.25,6.25,0,0,0,4.36,1.56,7.61,7.61,0,0,0,6.37-3l3.47,3.89a10.66,10.66,0,0,1-4.3,3.5A14,14,0,0,1,1336,592.8Zm-.81-21.71a4.39,4.39,0,0,0-3.4,1.43,7.37,7.37,0,0,0-1.68,4.07H1340V576a5.3,5.3,0,0,0-1.27-3.64A4.56,4.56,0,0,0,1335.21,571.09Z"/><path class="cls-7" d="M1366,585a2.29,2.29,0,0,0-1.28-2,14.43,14.43,0,0,0-4.11-1.33q-9.44-2-9.43-8a7.25,7.25,0,0,1,2.92-5.87,11.77,11.77,0,0,1,7.63-2.36,12.65,12.65,0,0,1,8,2.37,7.47,7.47,0,0,1,3,6.15h-7.06a3.42,3.42,0,0,0-1-2.5,5.15,5.15,0,0,0-5.81-.18,2.52,2.52,0,0,0-1,2,2.17,2.17,0,0,0,1.11,1.89,11.41,11.41,0,0,0,3.75,1.25,30.31,30.31,0,0,1,4.44,1.18q5.6,2.05,5.59,7.11a6.88,6.88,0,0,1-3.1,5.84,13.39,13.39,0,0,1-8,2.24,13.92,13.92,0,0,1-5.89-1.19,9.86,9.86,0,0,1-4-3.24,7.54,7.54,0,0,1-1.47-4.46h6.69a3.71,3.71,0,0,0,1.39,2.88,5.52,5.52,0,0,0,3.47,1A5,5,0,0,0,1365,587,2.36,2.36,0,0,0,1366,585Z"/><path class="cls-7" d="M1391.55,559.06a3.49,3.49,0,0,1,1.06-2.62,4.59,4.59,0,0,1,5.77,0,3.72,3.72,0,0,1,0,5.25,4.51,4.51,0,0,1-5.74,0A3.46,3.46,0,0,1,1391.55,559.06Zm7.49,33.25H1392V565.89H1399Z"/><path class="cls-7" d="M1412.19,565.89l.22,3.05a9.23,9.23,0,0,1,7.6-3.54c2.8,0,4.88.83,6.25,2.47s2.06,4.1,2.1,7.37v17.07h-7.06v-16.9a4.56,4.56,0,0,0-1-3.26,4.38,4.38,0,0,0-3.24-1,4.86,4.86,0,0,0-4.47,2.54v18.63h-7.06V565.89Z"/><path class="cls-7" d="M1456.3,559.4v6.49h4.52v5.18h-4.52v13.18a3.16,3.16,0,0,0,.56,2.1,2.84,2.84,0,0,0,2.15.64,11.74,11.74,0,0,0,2.08-.17v5.34a14.69,14.69,0,0,1-4.28.64c-4.94,0-7.47-2.5-7.56-7.5V571.07h-3.86v-5.18h3.86V559.4Z"/><path class="cls-7" d="M1477.76,592.8a12.94,12.94,0,0,1-9.46-3.57,12.63,12.63,0,0,1-3.65-9.49v-.69a15.87,15.87,0,0,1,1.54-7.11,11.2,11.2,0,0,1,4.35-4.84,12.27,12.27,0,0,1,6.44-1.7,11,11,0,0,1,8.53,3.42q3.12,3.42,3.11,9.69v2.89H1471.8a6.63,6.63,0,0,0,2.06,4.15,6.25,6.25,0,0,0,4.36,1.56,7.61,7.61,0,0,0,6.37-3l3.47,3.89a10.66,10.66,0,0,1-4.3,3.5A14,14,0,0,1,1477.76,592.8Zm-.81-21.71a4.39,4.39,0,0,0-3.4,1.43,7.37,7.37,0,0,0-1.68,4.07h9.82V576a5.26,5.26,0,0,0-1.27-3.64A4.56,4.56,0,0,0,1477,571.09Z"/><path class="cls-7" d="M1508.32,572.51a19.32,19.32,0,0,0-2.54-.2c-2.67,0-4.42.91-5.25,2.71v17.29h-7V565.89h6.66l.2,3.15a6.53,6.53,0,0,1,5.88-3.64,7.5,7.5,0,0,1,2.2.32Z"/><path class="cls-7" d="M1519.18,565.89l.22,3a9.27,9.27,0,0,1,7.59-3.45c3.4,0,5.74,1.35,7,4a9.07,9.07,0,0,1,7.93-4q4.3,0,6.4,2.51t2.1,7.53v16.87h-7.08V575.46a5,5,0,0,0-.88-3.28,3.91,3.91,0,0,0-3.1-1,4.39,4.39,0,0,0-4.39,3l0,18.14h-7.06V575.49a5,5,0,0,0-.9-3.32,3.91,3.91,0,0,0-3.08-1,4.56,4.56,0,0,0-4.34,2.49v18.68h-7.06V565.89Z"/><path class="cls-7" d="M1571,585a2.28,2.28,0,0,0-1.29-2,14.32,14.32,0,0,0-4.11-1.33q-9.42-2-9.42-8a7.27,7.27,0,0,1,2.91-5.87,11.79,11.79,0,0,1,7.63-2.36,12.66,12.66,0,0,1,8,2.37,7.46,7.46,0,0,1,3,6.15h-7a3.43,3.43,0,0,0-1-2.5,4.13,4.13,0,0,0-3-1,4.21,4.21,0,0,0-2.76.81,2.55,2.55,0,0,0-1,2,2.16,2.16,0,0,0,1.12,1.89,11.33,11.33,0,0,0,3.74,1.25,30.82,30.82,0,0,1,4.45,1.18q5.58,2.05,5.59,7.11a6.91,6.91,0,0,1-3.1,5.84,13.39,13.39,0,0,1-8,2.24,14,14,0,0,1-5.9-1.19,9.93,9.93,0,0,1-4-3.24,7.6,7.6,0,0,1-1.46-4.46h6.69a3.65,3.65,0,0,0,1.39,2.88,5.49,5.49,0,0,0,3.46,1A5.06,5.06,0,0,0,1570,587,2.39,2.39,0,0,0,1571,585Z"/><path class="cls-7" d="M1595.46,578.86a15.67,15.67,0,0,1,1.51-7,11.11,11.11,0,0,1,4.36-4.76,12.77,12.77,0,0,1,6.61-1.69,12,12,0,0,1,8.72,3.28,13.1,13.1,0,0,1,3.78,8.88l0,1.81q0,6.07-3.39,9.75a13.13,13.13,0,0,1-18.22,0q-3.4-3.66-3.41-10Zm7.06.5a9.92,9.92,0,0,0,1.41,5.76,5.09,5.09,0,0,0,8.06,0q1.44-2,1.44-6.3a9.79,9.79,0,0,0-1.44-5.72,4.69,4.69,0,0,0-4-2,4.63,4.63,0,0,0-4,2Q1602.52,575.14,1602.52,579.36Z"/><path class="cls-7" d="M1627.61,592.31V571.07h-3.93v-5.18h3.93v-2.24a9.12,9.12,0,0,1,2.55-6.9c1.7-1.64,4.08-2.45,7.14-2.45a16.78,16.78,0,0,1,3.59.48l-.07,5.47a9.42,9.42,0,0,0-2.15-.22q-4,0-4,3.74v2.12h5.25v5.18h-5.25v21.24Z"/><path class="cls-7" d="M1055.38,636.77a8.82,8.82,0,0,1,7.06-3.37q8.58,0,8.71,10v16.92h-7.05V643.58a4.89,4.89,0,0,0-1-3.35,4.16,4.16,0,0,0-3.25-1.09,4.81,4.81,0,0,0-4.49,2.39v18.78h-7.06v-37.5h7.06Z"/><path class="cls-7" d="M1077.27,627.06a3.5,3.5,0,0,1,1.07-2.62,4,4,0,0,1,2.89-1,4,4,0,0,1,2.88,1,3.74,3.74,0,0,1,0,5.25,4.51,4.51,0,0,1-5.74,0A3.47,3.47,0,0,1,1077.27,627.06Zm7.5,33.25h-7.08V633.89h7.08Z"/><path class="cls-7" d="M1090.4,646.91q0-6.09,2.9-9.79a9.37,9.37,0,0,1,7.8-3.72,8.24,8.24,0,0,1,6.76,3l.29-2.49h6.4v25.54a11.38,11.38,0,0,1-1.57,6,10.14,10.14,0,0,1-4.44,3.91,15.63,15.63,0,0,1-6.69,1.34,14.55,14.55,0,0,1-5.66-1.16,10,10,0,0,1-4.17-3l3.12-4.3a8.27,8.27,0,0,0,6.4,3,6,6,0,0,0,4.37-1.51,5.63,5.63,0,0,0,1.56-4.26V658a8.17,8.17,0,0,1-6.42,2.76,9.33,9.33,0,0,1-7.7-3.73q-2.94-3.72-2.95-9.87Zm7.06.52a9.64,9.64,0,0,0,1.44,5.64,4.59,4.59,0,0,0,4,2,4.91,4.91,0,0,0,4.61-2.42V641.56a4.9,4.9,0,0,0-4.57-2.42,4.6,4.6,0,0,0-4,2.08Q1097.46,643.31,1097.46,647.43Z"/><path class="cls-7" d="M1127.7,636.77a8.85,8.85,0,0,1,7.06-3.37q8.6,0,8.72,10v16.92h-7.06V643.58a4.89,4.89,0,0,0-1-3.35,4.15,4.15,0,0,0-3.24-1.09,4.82,4.82,0,0,0-4.5,2.39v18.78h-7v-37.5h7Z"/><path class="cls-7" d="M1163.37,647.93h-13.75v-5.69h13.75Z"/><path class="cls-7" d="M1177.33,660.31h-7.08v-37.5h7.08Z"/><path class="cls-7" d="M1196.15,660.8a12.94,12.94,0,0,1-9.46-3.57,12.63,12.63,0,0,1-3.65-9.49v-.69a15.87,15.87,0,0,1,1.54-7.11,11.2,11.2,0,0,1,4.35-4.84,12.27,12.27,0,0,1,6.44-1.7,11,11,0,0,1,8.53,3.42q3.12,3.42,3.11,9.69v2.89h-16.82a6.63,6.63,0,0,0,2.06,4.15,6.25,6.25,0,0,0,4.36,1.56,7.61,7.61,0,0,0,6.37-3l3.47,3.89a10.66,10.66,0,0,1-4.3,3.5A14,14,0,0,1,1196.15,660.8Zm-.81-21.71a4.39,4.39,0,0,0-3.4,1.43,7.37,7.37,0,0,0-1.68,4.07h9.82V644a5.26,5.26,0,0,0-1.27-3.64A4.56,4.56,0,0,0,1195.34,639.09Z"/><path class="cls-7" d="M1221.44,651.69l4.9-17.8h7.38l-8.91,26.42h-6.74l-8.91-26.42h7.37Z"/><path class="cls-7" d="M1249.83,660.8a12.94,12.94,0,0,1-9.46-3.57,12.63,12.63,0,0,1-3.65-9.49v-.69a16,16,0,0,1,1.53-7.11,11.28,11.28,0,0,1,4.36-4.84,12.26,12.26,0,0,1,6.43-1.7,11,11,0,0,1,8.54,3.42q3.11,3.42,3.11,9.69v2.89h-16.82a6.58,6.58,0,0,0,2.06,4.15,6.25,6.25,0,0,0,4.36,1.56,7.61,7.61,0,0,0,6.37-3l3.47,3.89a10.66,10.66,0,0,1-4.3,3.5A14.08,14.08,0,0,1,1249.83,660.8Zm-.81-21.71a4.42,4.42,0,0,0-3.41,1.43,7.37,7.37,0,0,0-1.67,4.07h9.82V644a5.3,5.3,0,0,0-1.27-3.64A4.56,4.56,0,0,0,1249,639.09Z"/><path class="cls-7" d="M1273,660.31h-7.08v-37.5H1273Z"/><path class="cls-7" d="M1291.85,646.86q0-6.23,2.77-9.84a9.08,9.08,0,0,1,7.61-3.62,8.13,8.13,0,0,1,6.76,3.25l.47-2.76h6.2v36.57h-7.08V658a8.14,8.14,0,0,1-6.4,2.76,9,9,0,0,1-7.52-3.67Q1291.86,653.47,1291.85,646.86Zm7.06.5a10.35,10.35,0,0,0,1.33,5.77,4.27,4.27,0,0,0,3.75,2,4.77,4.77,0,0,0,4.59-2.59V641.59a4.71,4.71,0,0,0-4.54-2.5,4.32,4.32,0,0,0-3.79,2Q1298.92,643.05,1298.91,647.36Z"/><path class="cls-7" d="M1337.87,657.62a8.84,8.84,0,0,1-7.23,3.18,8.37,8.37,0,0,1-6.48-2.44q-2.23-2.45-2.28-7.16V633.89h7V651c0,2.75,1.26,4.13,3.76,4.13s4-.83,4.94-2.49V633.89h7.08v26.42h-6.65Z"/><path class="cls-7" d="M1366.19,660.31a7.62,7.62,0,0,1-.71-2.37,8.56,8.56,0,0,1-6.67,2.86,9.36,9.36,0,0,1-6.43-2.25,7.22,7.22,0,0,1-2.55-5.66,7.46,7.46,0,0,1,3.11-6.45c2.08-1.5,5.07-2.25,9-2.27h3.24v-1.51a4.33,4.33,0,0,0-.94-2.93,3.68,3.68,0,0,0-3-1.1,4.22,4.22,0,0,0-2.8.85,2.92,2.92,0,0,0-1,2.35h-7.06a7.12,7.12,0,0,1,1.42-4.25,9.36,9.36,0,0,1,4-3.06,14.47,14.47,0,0,1,5.81-1.12,11.54,11.54,0,0,1,7.76,2.46,8.57,8.57,0,0,1,2.86,6.89v11.46a12.69,12.69,0,0,0,1,5.68v.42Zm-5.84-4.91a6.12,6.12,0,0,0,2.88-.69,4.59,4.59,0,0,0,2-1.87V648.3h-2.63q-5.29,0-5.64,3.66l0,.41a2.84,2.84,0,0,0,.93,2.18A3.61,3.61,0,0,0,1360.35,655.4Z"/><path class="cls-7" d="M1386,660.31h-7.08v-37.5H1386Z"/><path class="cls-7" d="M1392.59,627.06a3.53,3.53,0,0,1,1.06-2.62,4.6,4.6,0,0,1,5.78,0,3.5,3.5,0,0,1,1.07,2.62,3.46,3.46,0,0,1-1.08,2.63,4.51,4.51,0,0,1-5.74,0A3.43,3.43,0,0,1,1392.59,627.06Zm7.5,33.25H1393V633.89h7.08Z"/><path class="cls-7" d="M1408.68,660.31V639.07h-3.93v-5.18h3.93v-2.24a9.12,9.12,0,0,1,2.55-6.9c1.7-1.64,4.08-2.45,7.14-2.45a16.78,16.78,0,0,1,3.59.48l-.08,5.47a9.27,9.27,0,0,0-2.14-.22c-2.66,0-4,1.25-4,3.74v2.12H1421v5.18h-5.25v21.24Z"/><path class="cls-7" d="M1425.47,627.06a3.49,3.49,0,0,1,1.06-2.62,4.6,4.6,0,0,1,5.78,0,3.5,3.5,0,0,1,1.07,2.62,3.43,3.43,0,0,1-1.09,2.63,4.5,4.5,0,0,1-5.73,0A3.43,3.43,0,0,1,1425.47,627.06Zm7.49,33.25h-7.08V633.89H1433Z"/><path class="cls-7" d="M1450.61,655.11a4.6,4.6,0,0,0,3.17-1.08,3.71,3.71,0,0,0,1.27-2.85h6.62a9.08,9.08,0,0,1-1.46,4.92,9.7,9.7,0,0,1-4,3.46,12.24,12.24,0,0,1-5.53,1.24,11.47,11.47,0,0,1-8.93-3.6q-3.27-3.6-3.27-10v-.47q0-6.1,3.24-9.74a11.37,11.37,0,0,1,8.91-3.64,11.1,11.1,0,0,1,8,2.82,10,10,0,0,1,3,7.51h-6.62a4.82,4.82,0,0,0-1.27-3.35,4.71,4.71,0,0,0-6.94.51q-1.26,1.8-1.26,5.83v.74q0,4.08,1.25,5.86A4.3,4.3,0,0,0,1450.61,655.11Z"/><path class="cls-7" d="M1481.86,660.31a7.9,7.9,0,0,1-.71-2.37,8.56,8.56,0,0,1-6.67,2.86,9.37,9.37,0,0,1-6.43-2.25,7.22,7.22,0,0,1-2.55-5.66,7.49,7.49,0,0,1,3.11-6.45c2.08-1.5,5.08-2.25,9-2.27h3.25v-1.51a4.39,4.39,0,0,0-.94-2.93,3.72,3.72,0,0,0-3-1.1,4.22,4.22,0,0,0-2.8.85,2.92,2.92,0,0,0-1,2.35h-7.05a7.11,7.11,0,0,1,1.41-4.25,9.33,9.33,0,0,1,4-3.06,14.41,14.41,0,0,1,5.81-1.12,11.53,11.53,0,0,1,7.75,2.46,8.57,8.57,0,0,1,2.87,6.89v11.46a12.42,12.42,0,0,0,1,5.68v.42ZM1476,655.4a6.12,6.12,0,0,0,2.88-.69,4.67,4.67,0,0,0,2-1.87V648.3h-2.64q-5.29,0-5.64,3.66l0,.41a2.83,2.83,0,0,0,.92,2.18A3.61,3.61,0,0,0,1476,655.4Z"/><path class="cls-7" d="M1502.65,627.4v6.49h4.52v5.18h-4.52v13.18a3.16,3.16,0,0,0,.56,2.1,2.84,2.84,0,0,0,2.15.64,11.66,11.66,0,0,0,2.08-.17v5.34a14.68,14.68,0,0,1-4.27.64q-7.43,0-7.57-7.5V639.07h-3.86v-5.18h3.86V627.4Z"/><path class="cls-7" d="M1511.9,627.06a3.53,3.53,0,0,1,1.06-2.62,4.6,4.6,0,0,1,5.78,0,3.5,3.5,0,0,1,1.07,2.62,3.43,3.43,0,0,1-1.09,2.63,4.5,4.5,0,0,1-5.73,0A3.43,3.43,0,0,1,1511.9,627.06Zm7.5,33.25h-7.08V633.89h7.08Z"/><path class="cls-7" d="M1525,646.86a15.67,15.67,0,0,1,1.51-7,11.05,11.05,0,0,1,4.36-4.76,12.76,12.76,0,0,1,6.6-1.69,12,12,0,0,1,8.73,3.28,13.09,13.09,0,0,1,3.77,8.88l0,1.81q0,6.07-3.39,9.75a13.14,13.14,0,0,1-18.23,0q-3.4-3.66-3.4-10Zm7,.5a9.91,9.91,0,0,0,1.42,5.76,5.09,5.09,0,0,0,8.06,0q1.44-2,1.44-6.3a9.79,9.79,0,0,0-1.44-5.72,4.69,4.69,0,0,0-4.06-2,4.61,4.61,0,0,0-4,2C1532.49,642.46,1532,644.54,1532,647.36Z"/><path class="cls-7" d="M1561.67,633.89l.22,3.05a9.23,9.23,0,0,1,7.59-3.54c2.8,0,4.89.83,6.25,2.47s2.07,4.1,2.1,7.37v17.07h-7v-16.9a4.6,4.6,0,0,0-1-3.26,4.38,4.38,0,0,0-3.24-1,4.86,4.86,0,0,0-4.47,2.54v18.63H1555V633.89Z"/><path class="cls-7" d="M1598.34,653a2.29,2.29,0,0,0-1.28-2,14.52,14.52,0,0,0-4.12-1.33q-9.42-2-9.42-8a7.25,7.25,0,0,1,2.92-5.87,11.75,11.75,0,0,1,7.63-2.36,12.65,12.65,0,0,1,8,2.37,7.47,7.47,0,0,1,3,6.15h-7.06a3.43,3.43,0,0,0-1-2.5,4.13,4.13,0,0,0-3-1,4.21,4.21,0,0,0-2.76.81,2.54,2.54,0,0,0-1,2,2.17,2.17,0,0,0,1.11,1.89,11.42,11.42,0,0,0,3.74,1.25,30.82,30.82,0,0,1,4.45,1.18q5.58,2.05,5.59,7.11a6.91,6.91,0,0,1-3.1,5.84,13.39,13.39,0,0,1-8,2.24,14,14,0,0,1-5.9-1.19,10,10,0,0,1-4-3.24,7.6,7.6,0,0,1-1.46-4.46h6.69a3.68,3.68,0,0,0,1.39,2.88,5.5,5.5,0,0,0,3.47,1,5,5,0,0,0,3.06-.77A2.39,2.39,0,0,0,1598.34,653Z"/></svg>