<svg id="Layer_1" data-name="Layer 1" xmlns="http://www.w3.org/2000/svg" viewBox="0 0 1856.69 1062.99"><defs><style>.cls-1{fill:#dadada;}.cls-2{fill:#a61966;}.cls-3{fill:#d67a10;}.cls-4,.cls-5{fill:none;stroke:#a61966;stroke-miterlimit:10;}.cls-4{stroke-width:10px;}.cls-5{stroke-width:5px;}.cls-6{fill:#fff;}.cls-7{fill:#3c3c3b;}</style></defs><title>FSInfographicsFINAL</title><text/><text/><rect class="cls-1" x="477.29" y="46.15" width="1368" height="984.27"/><rect class="cls-2" x="25.29" y="46.42" width="776" height="980"/><path class="cls-3" d="M184.78,688.42a103.5,103.5,0,1,1,103.5-103.5,103.62,103.62,0,0,1-103.5,103.5Zm0-202.4a98.9,98.9,0,1,0,98.9,98.9,99,99,0,0,0-98.9-98.9Z"/><rect class="cls-4" x="25.29" y="46.42" width="1820" height="980"/><rect class="cls-5" x="801.29" y="46.42" width="1044" height="980"/><text/><text/><text/><path class="cls-3" d="M625.75,679.35A103.47,103.47,0,1,1,729.21,575.89,103.58,103.58,0,0,1,625.75,679.35Zm0-202.33a98.87,98.87,0,1,0,98.87,98.87A99,99,0,0,0,625.75,477Z"/><ellipse class="cls-2" cx="400.79" cy="571.42" rx="148.5" ry="153"/><path class="cls-6" d="M404.62,724.42c-84,0-152.33-68.34-152.33-152.33s68.33-152.33,152.33-152.33S557,488.09,557,572.09,488.61,724.42,404.62,724.42Zm0-297.89c-80.27,0-145.56,65.29-145.56,145.56s65.29,145.56,145.56,145.56,145.56-65.3,145.56-145.56-65.3-145.56-145.56-145.56Z"/><path class="cls-3" d="M222,620.5H137.13a7,7,0,0,1-7-7V554.27a7,7,0,0,1,7-7H222a7,7,0,0,1,7,7v59.25a7,7,0,0,1-7,7Zm-84.88-68.87a2.65,2.65,0,0,0-2.64,2.64v59.25a2.64,2.64,0,0,0,2.64,2.63H222a2.62,2.62,0,0,0,2.62-2.63V554.27a2.63,2.63,0,0,0-2.62-2.64Z"/><path class="cls-3" d="M197,551.23a2.17,2.17,0,0,1-2.17-2.17V538.24a2.64,2.64,0,0,0-2.64-2.63H167a2.64,2.64,0,0,0-2.64,2.63v10.82a2.17,2.17,0,0,1-4.34,0V538.24a7,7,0,0,1,7-7h25.21a7,7,0,0,1,7,7v10.82a2.17,2.17,0,0,1-2.17,2.17Z"/><path class="cls-3" d="M170.16,580.05h-36a2.17,2.17,0,0,1,0-4.34h36a2.17,2.17,0,1,1,0,4.34Z"/><path class="cls-3" d="M223.51,580.05h-36a2.17,2.17,0,0,1,0-4.34h36a2.17,2.17,0,1,1,0,4.34Z"/><path class="cls-3" d="M185.58,592.06h-12a2.18,2.18,0,0,1-2.18-2.17v-18a2.18,2.18,0,0,1,2.18-2.17h12a2.17,2.17,0,0,1,2.17,2.17v18a2.17,2.17,0,0,1-2.17,2.17Zm-9.84-4.34h7.67V574h-7.67v13.68Z"/><path class="cls-6" d="M376.88,557.71C362,557.71,350,544,350,527.21s12.08-30.52,26.93-30.52,26.93,13.69,26.93,30.52-12.08,30.5-26.93,30.5Zm0-54c-11,0-19.92,10.54-19.92,23.51s8.93,23.5,19.92,23.5,19.92-10.55,19.92-23.5-8.93-23.51-19.92-23.51Z"/><path class="cls-6" d="M421.41,634.57H331.18a3.51,3.51,0,0,1-3.49-3.26l-2-29.11c-.64-9.64,6.88-20.76,16.43-24.3a101.74,101.74,0,0,1,68.3,0c9.62,3.55,17.14,14.67,16.46,24.32l-2,29.1a3.51,3.51,0,0,1-3.49,3.26Zm-87-7h83.68l1.76-25.83c.41-5.94-4.56-14.56-11.86-17.25a94.77,94.77,0,0,0-63.51,0c-7.24,2.68-12.23,11.32-11.83,17.25l1.76,25.83Z"/><path class="cls-6" d="M421.41,634.57H331.18a3.51,3.51,0,0,1-3.49-3.26l-2-29.11c-.64-9.64,6.88-20.76,16.43-24.3a101.74,101.74,0,0,1,68.3,0c9.62,3.55,17.14,14.67,16.46,24.32l-2,29.1a3.51,3.51,0,0,1-3.49,3.26Zm-87-7h83.68l1.76-25.83c.41-5.94-4.56-14.56-11.86-17.25a94.77,94.77,0,0,0-63.51,0c-7.24,2.68-12.23,11.32-11.83,17.25l1.76,25.83Z"/><path class="cls-6" d="M476,634.57H440.06a3.51,3.51,0,0,1,0-7h32.66l1.5-21.86c.33-4.86-3.93-12.21-9.94-14.42a80.12,80.12,0,0,0-25.72-4.67,3.51,3.51,0,0,1,.13-7,87.65,87.65,0,0,1,28,5.09c8.49,3.13,15.13,13,14.54,21.48l-1.72,25.14a3.51,3.51,0,0,1-3.5,3.26Z"/><path class="cls-6" d="M448.34,565.1c-12,0-21.77-11-21.77-24.55S436.33,516,448.34,516s21.77,11,21.77,24.56-9.77,24.55-21.77,24.55Zm0-42.1c-8.14,0-14.76,7.87-14.76,17.55s6.62,17.55,14.76,17.55,14.76-7.87,14.76-17.55S456.48,523,448.34,523Z"/><path class="cls-3" d="M668.72,632.55H582.78a2.61,2.61,0,0,1-2.61-2.61V519.25a2.6,2.6,0,0,1,2.61-2.6h18.91a2.61,2.61,0,0,1,0,5.21H585.38V627.34h80.74V521.86H649.24a2.61,2.61,0,0,1,0-5.21h19.48a2.6,2.6,0,0,1,2.61,2.6V629.94a2.61,2.61,0,0,1-2.61,2.61Z"/><path class="cls-3" d="M643.33,528.37H608.17a8.47,8.47,0,0,1,0-16.93h35.16a8.47,8.47,0,1,1,0,16.93Zm-35.16-11.72a3.26,3.26,0,1,0,0,6.51h35.16a3.26,3.26,0,1,0,0-6.51Z"/><path class="cls-3" d="M608,548.66h-6a2.41,2.41,0,0,0-2.41,2.42v6a2.41,2.41,0,0,0,2.41,2.4h6a2.4,2.4,0,0,0,2.4-2.4v-6a2.4,2.4,0,0,0-2.4-2.42Z"/><path class="cls-3" d="M651.9,556.68H618.45a2.61,2.61,0,1,1,0-5.21H651.9a2.61,2.61,0,0,1,0,5.21Z"/><path class="cls-3" d="M608,584.4h-6a2.4,2.4,0,0,0-2.41,2.41v6a2.41,2.41,0,0,0,2.41,2.41h6a2.4,2.4,0,0,0,2.4-2.41v-6a2.4,2.4,0,0,0-2.4-2.41Z"/><path class="cls-3" d="M651.9,592.42H618.45a2.61,2.61,0,1,1,0-5.21H651.9a2.61,2.61,0,0,1,0,5.21Z"/><path class="cls-3" d="M608,566.53h-6a2.41,2.41,0,0,0-2.41,2.41v6a2.41,2.41,0,0,0,2.41,2.41h6a2.4,2.4,0,0,0,2.4-2.41v-6a2.4,2.4,0,0,0-2.4-2.41Z"/><path class="cls-3" d="M651.9,574.56H618.45a2.61,2.61,0,1,1,0-5.21H651.9a2.61,2.61,0,0,1,0,5.21Z"/><path class="cls-6" d="M180.61,231.92q-.72,6.53-4.66,10t-10.52,3.46a14.56,14.56,0,0,1-8.12-2.3,14.9,14.9,0,0,1-5.45-6.5,23.06,23.06,0,0,1-2-9.61v-5.35a23.47,23.47,0,0,1,1.92-9.75,14.84,14.84,0,0,1,5.54-6.55,15.1,15.1,0,0,1,8.31-2.31q6.63,0,10.47,3.57a15,15,0,0,1,4.46,9.88h-3.52q-1.29-10.5-11.41-10.51a10.79,10.79,0,0,0-8.93,4.2q-3.33,4.2-3.33,11.59v5q0,7.14,3.24,11.39a10.45,10.45,0,0,0,8.77,4.25q5.46,0,8.24-2.62t3.42-7.86Z"/><path class="cls-6" d="M208,240.9q-3.06,4.44-9.77,4.45-4.91,0-7.45-2.85t-2.6-8.43V214.14h3.37v19.51q0,8.74,7.08,8.75,7.37,0,9.31-6.09V214.14h3.4v30.64h-3.28Z"/><path class="cls-6" d="M234.3,217a12,12,0,0,0-2.29-.2,8.27,8.27,0,0,0-5.37,1.77,9.68,9.68,0,0,0-3.13,5.14v21h-3.37V214.14h3.31l.06,4.87a9,9,0,0,1,8.64-5.44,5.53,5.53,0,0,1,2.24.37Z"/><path class="cls-6" d="M253.81,217a11.91,11.91,0,0,0-2.29-.2,8.31,8.31,0,0,0-5.37,1.77,9.74,9.74,0,0,0-3.13,5.14v21h-3.37V214.14H243L243,219a9,9,0,0,1,8.64-5.44,5.49,5.49,0,0,1,2.24.37Z"/><path class="cls-6" d="M271,245.35a13.32,13.32,0,0,1-7.06-1.93,13,13,0,0,1-4.92-5.37,16.7,16.7,0,0,1-1.75-7.71v-1.22a18.06,18.06,0,0,1,1.71-8,13.59,13.59,0,0,1,4.77-5.56,11.79,11.79,0,0,1,6.63-2,11.06,11.06,0,0,1,8.85,3.81q3.27,3.81,3.27,10.41v1.9H260.67v.65a12.81,12.81,0,0,0,3,8.68,9.49,9.49,0,0,0,7.51,3.47,10.87,10.87,0,0,0,4.8-1,10.52,10.52,0,0,0,3.78-3.17l2.13,1.62Q278.15,245.34,271,245.35Zm-.62-28.89a8.45,8.45,0,0,0-6.44,2.8,13,13,0,0,0-3.19,7.54h18.38v-.37a11.23,11.23,0,0,0-2.52-7.2A7.81,7.81,0,0,0,270.41,216.46Z"/><path class="cls-6" d="M292.36,214.14l.11,5.24a12.13,12.13,0,0,1,4.31-4.32,11.16,11.16,0,0,1,5.69-1.49c3.28,0,5.73.93,7.33,2.78s2.42,4.62,2.44,8.32v20.11h-3.37V224.64q0-4.09-1.74-6.11c-1.15-1.34-3-2-5.48-2a8.59,8.59,0,0,0-5.57,2,11.61,11.61,0,0,0-3.58,5.31v21h-3.37V214.14Z"/><path class="cls-6" d="M326.26,206.29v7.85h6.34v2.77h-6.34v20.44a6.33,6.33,0,0,0,.92,3.8,3.54,3.54,0,0,0,3.07,1.25,20.77,20.77,0,0,0,2.75-.28l.14,2.75a11.05,11.05,0,0,1-3.63.48q-3.48,0-5.07-2a9.58,9.58,0,0,1-1.58-6V216.91h-5.64v-2.77h5.64v-7.85Z"/><path class="cls-6" d="M365.06,242.49a9,9,0,0,0,5.93-2,7,7,0,0,0,2.59-5.17h3.26a9.61,9.61,0,0,1-1.76,5.11,10.9,10.9,0,0,1-4.29,3.61,12.91,12.91,0,0,1-5.73,1.31,11.82,11.82,0,0,1-9.56-4.2Q352,237,352,229.88v-1a19.09,19.09,0,0,1,1.59-8,12.23,12.23,0,0,1,4.54-5.38,12.53,12.53,0,0,1,6.93-1.9,11.82,11.82,0,0,1,8.31,3,11,11,0,0,1,3.5,7.9h-3.26a8.31,8.31,0,0,0-2.59-5.8,9.24,9.24,0,0,0-13.08,1.1c-1.7,2.21-2.54,5.31-2.54,9.29v1c0,3.91.84,7,2.54,9.15A8.49,8.49,0,0,0,365.06,242.49Z"/><path class="cls-6" d="M387,219.32a11.91,11.91,0,0,1,4.27-4.25,11.23,11.23,0,0,1,5.69-1.5c3.29,0,5.73.93,7.34,2.78s2.42,4.62,2.43,8.32v20.11h-3.37V224.64q0-4.09-1.74-6.11t-5.48-2a8.57,8.57,0,0,0-5.56,2,11.53,11.53,0,0,0-3.58,5.31v21h-3.37v-43.5H387Z"/><path class="cls-6" d="M434.78,244.78a15.85,15.85,0,0,1-.65-4.28,11.84,11.84,0,0,1-4.55,3.59,13.91,13.91,0,0,1-5.84,1.26,10.32,10.32,0,0,1-7.16-2.47,8,8,0,0,1-2.73-6.23,8.2,8.2,0,0,1,3.73-7.08Q421.3,227,428,227h6.15v-3.49a6.72,6.72,0,0,0-2-5.17,8.4,8.4,0,0,0-5.91-1.88,9.29,9.29,0,0,0-5.86,1.81A5.39,5.39,0,0,0,418,222.6l-3.4,0a7.86,7.86,0,0,1,3.4-6.33,13,13,0,0,1,8.35-2.68,12,12,0,0,1,8.09,2.56,9.23,9.23,0,0,1,3,7.15v14.5a17.82,17.82,0,0,0,.94,6.66v.34Zm-10.65-2.44a11.35,11.35,0,0,0,6.08-1.64,9.65,9.65,0,0,0,3.89-4.39v-6.74H428a15.2,15.2,0,0,0-7.93,1.86,5.72,5.72,0,0,0-.95,9.22A7.22,7.22,0,0,0,424.13,242.34Z"/><path class="cls-6" d="M450.3,244.78h-3.4v-43.5h3.4Z"/><path class="cls-6" d="M463.3,244.78h-3.4v-43.5h3.4Z"/><path class="cls-6" d="M484.37,245.35a13.36,13.36,0,0,1-7.07-1.93,13.09,13.09,0,0,1-4.91-5.37,16.7,16.7,0,0,1-1.76-7.71v-1.22a17.92,17.92,0,0,1,1.72-8,13.59,13.59,0,0,1,4.77-5.56,11.79,11.79,0,0,1,6.63-2,11.06,11.06,0,0,1,8.85,3.81q3.27,3.81,3.27,10.41v1.9H474v.65a12.86,12.86,0,0,0,3,8.68,9.51,9.51,0,0,0,7.52,3.47,10.93,10.93,0,0,0,4.8-1,10.52,10.52,0,0,0,3.78-3.17l2.13,1.62Q491.47,245.34,484.37,245.35Zm-.62-28.89a8.48,8.48,0,0,0-6.45,2.8,13,13,0,0,0-3.18,7.54H492.5v-.37a11.34,11.34,0,0,0-2.52-7.2A7.82,7.82,0,0,0,483.75,216.46Z"/><path class="cls-6" d="M505.69,214.14l.12,5.24a12.11,12.11,0,0,1,4.3-4.32,11.22,11.22,0,0,1,5.69-1.49q4.94,0,7.34,2.78c1.6,1.85,2.42,4.62,2.44,8.32v20.11H522.2V224.64q0-4.09-1.74-6.11t-5.48-2a8.57,8.57,0,0,0-5.56,2,11.53,11.53,0,0,0-3.58,5.31v21h-3.37V214.14Z"/><path class="cls-6" d="M533,229.18q0-7.2,3.18-11.4a10.28,10.28,0,0,1,8.65-4.21,10.64,10.64,0,0,1,9.52,5l.17-4.42h3.17v30q0,5.91-3.31,9.37a11.87,11.87,0,0,1-9,3.46,13.66,13.66,0,0,1-6.1-1.43,12,12,0,0,1-4.58-3.81l1.9-2q3.6,4.41,8.55,4.42a8.69,8.69,0,0,0,6.63-2.51,10,10,0,0,0,2.47-7v-3.86q-3.27,4.55-9.49,4.54a10.22,10.22,0,0,1-8.55-4.25Q533,236.86,533,229.63Zm3.42.59c0,3.91.79,7,2.35,9.25a7.62,7.62,0,0,0,6.63,3.38,9.07,9.07,0,0,0,8.87-5.61V222.55a9.7,9.7,0,0,0-3.43-4.49,9.24,9.24,0,0,0-5.38-1.54,7.7,7.7,0,0,0-6.66,3.35Q536.4,223.23,536.39,229.77Z"/><path class="cls-6" d="M578.36,245.35a13.32,13.32,0,0,1-7.06-1.93,13.12,13.12,0,0,1-4.92-5.37,16.7,16.7,0,0,1-1.75-7.71v-1.22a18.06,18.06,0,0,1,1.71-8,13.66,13.66,0,0,1,4.77-5.56,11.79,11.79,0,0,1,6.63-2,11.06,11.06,0,0,1,8.85,3.81q3.27,3.81,3.27,10.41v1.9H568v.65a12.86,12.86,0,0,0,3,8.68,9.51,9.51,0,0,0,7.52,3.47,10.93,10.93,0,0,0,4.8-1,10.69,10.69,0,0,0,3.78-3.17l2.12,1.62Q585.48,245.34,578.36,245.35Zm-.62-28.89a8.45,8.45,0,0,0-6.44,2.8,13,13,0,0,0-3.19,7.54h18.38v-.37a11.23,11.23,0,0,0-2.52-7.2A7.8,7.8,0,0,0,577.74,216.46Z"/><path class="cls-6" d="M614.81,237a4.83,4.83,0,0,0-2-4.05,15.55,15.55,0,0,0-6.11-2.39,28.07,28.07,0,0,1-6.32-2,8.44,8.44,0,0,1-3.35-2.74,6.85,6.85,0,0,1-1.09-3.9,7.28,7.28,0,0,1,3-6,12.23,12.23,0,0,1,7.76-2.37,12.61,12.61,0,0,1,8.23,2.54,8.12,8.12,0,0,1,3.1,6.61h-3.4a5.49,5.49,0,0,0-2.25-4.48,10.16,10.16,0,0,0-11-.29,4.59,4.59,0,0,0-2,3.86,4.18,4.18,0,0,0,1.69,3.56,17.64,17.64,0,0,0,6.14,2.3,29.18,29.18,0,0,1,6.69,2.24,8.59,8.59,0,0,1,3.29,2.86,7.85,7.85,0,0,1-2,10.25,13.35,13.35,0,0,1-8.17,2.33,13.71,13.71,0,0,1-8.68-2.6,8,8,0,0,1-3.33-6.55h3.4a5.9,5.9,0,0,0,2.51,4.63,10.27,10.27,0,0,0,6.1,1.66,9.61,9.61,0,0,0,5.72-1.56A4.66,4.66,0,0,0,614.81,237Z"/><path class="cls-6" d="M639.73,205.29a2.26,2.26,0,0,1,.63-1.62,2.21,2.21,0,0,1,1.7-.66,2.27,2.27,0,0,1,1.71.66,2.22,2.22,0,0,1,.64,1.62,2.16,2.16,0,0,1-.64,1.6,2.3,2.3,0,0,1-1.71.65,2.24,2.24,0,0,1-1.7-.65A2.19,2.19,0,0,1,639.73,205.29Zm4,39.49h-3.4V214.14h3.4Z"/><path class="cls-6" d="M656.16,214.14l.11,5.24a12.13,12.13,0,0,1,4.31-4.32,11.19,11.19,0,0,1,5.69-1.49c3.29,0,5.73.93,7.34,2.78S676,221,676,224.67v20.11h-3.37V224.64q0-4.09-1.74-6.11t-5.48-2a8.59,8.59,0,0,0-5.57,2,11.69,11.69,0,0,0-3.58,5.31v21h-3.37V214.14Z"/><path class="cls-6" d="M199.13,275.89v7.85h6.34v2.77h-6.34V307a6.33,6.33,0,0,0,.92,3.8,3.54,3.54,0,0,0,3.07,1.25,20.77,20.77,0,0,0,2.75-.28l.14,2.75a11.05,11.05,0,0,1-3.63.48q-3.48,0-5.07-2a9.58,9.58,0,0,1-1.58-6V286.51h-5.64v-2.77h5.64v-7.85Z"/><path class="cls-6" d="M215.86,288.92a12,12,0,0,1,4.28-4.25,11.23,11.23,0,0,1,5.69-1.5c3.29,0,5.73.93,7.34,2.78s2.41,4.62,2.43,8.32v20.11h-3.37V294.24q0-4.1-1.74-6.11t-5.48-2a8.57,8.57,0,0,0-5.56,2,11.63,11.63,0,0,0-3.59,5.31v21h-3.37v-43.5h3.37Z"/><path class="cls-6" d="M256.19,315a13.32,13.32,0,0,1-7.06-1.93,13,13,0,0,1-4.92-5.37,16.7,16.7,0,0,1-1.75-7.71v-1.22a18.06,18.06,0,0,1,1.71-8,13.59,13.59,0,0,1,4.77-5.56,11.79,11.79,0,0,1,6.63-2,11.06,11.06,0,0,1,8.85,3.81q3.27,3.81,3.27,10.41v1.9H245.83v.65a12.81,12.81,0,0,0,3,8.68,9.49,9.49,0,0,0,7.51,3.47,10.87,10.87,0,0,0,4.8-1,10.52,10.52,0,0,0,3.78-3.17l2.13,1.62Q263.31,314.94,256.19,315Zm-.62-28.89a8.45,8.45,0,0,0-6.44,2.8,13,13,0,0,0-3.19,7.54h18.38V296a11.23,11.23,0,0,0-2.52-7.2A7.81,7.81,0,0,0,255.57,286.06Z"/><path class="cls-6" d="M292.19,314.38h-3.4v-43.5h3.4Z"/><path class="cls-6" d="M320.73,314.38a16.26,16.26,0,0,1-.65-4.28,11.81,11.81,0,0,1-4.54,3.59,13.92,13.92,0,0,1-5.85,1.26,10.27,10.27,0,0,1-7.15-2.47,8,8,0,0,1-2.73-6.23,8.21,8.21,0,0,1,3.72-7.08q3.72-2.6,10.38-2.6h6.14v-3.49a6.72,6.72,0,0,0-2-5.17,8.4,8.4,0,0,0-5.91-1.88,9.29,9.29,0,0,0-5.86,1.81,5.39,5.39,0,0,0-2.32,4.37l-3.4,0a7.86,7.86,0,0,1,3.4-6.33,13.06,13.06,0,0,1,8.35-2.68c3.42,0,6.12.86,8.09,2.56a9.19,9.19,0,0,1,3,7.15v14.5a18,18,0,0,0,.94,6.66v.34Zm-10.64-2.44a11.32,11.32,0,0,0,6.07-1.64,9.6,9.6,0,0,0,3.89-4.39v-6.74H314a15.2,15.2,0,0,0-7.93,1.86A5.57,5.57,0,0,0,303.2,306a5.48,5.48,0,0,0,1.92,4.28A7.2,7.2,0,0,0,310.09,311.94Z"/><path class="cls-6" d="M357.13,299.37q0,7.17-3.18,11.37a10.13,10.13,0,0,1-8.52,4.21q-6.4,0-9.69-4.76l-.14,4.19h-3.17v-43.5h3.37v17.3a10.64,10.64,0,0,1,9.57-5,10.22,10.22,0,0,1,8.6,4.15q3.15,4.15,3.16,11.54Zm-3.4-.59c0-4-.79-7.16-2.35-9.36a7.67,7.67,0,0,0-6.63-3.3,9.3,9.3,0,0,0-5.52,1.6,9.76,9.76,0,0,0-3.43,4.68v13.82a9.07,9.07,0,0,0,9,5.78,7.59,7.59,0,0,0,6.55-3.31Q353.73,305.38,353.73,298.78Z"/><path class="cls-6" d="M362.73,298.61a17.92,17.92,0,0,1,1.72-8,12.87,12.87,0,0,1,11.93-7.48,12.62,12.62,0,0,1,9.92,4.29q3.79,4.29,3.79,11.37v.71a18.23,18.23,0,0,1-1.71,8,12.74,12.74,0,0,1-4.83,5.48,13.3,13.3,0,0,1-7.11,1.93,12.62,12.62,0,0,1-9.9-4.29q-3.81-4.29-3.81-11.37Zm3.4.93a13.9,13.9,0,0,0,2.85,9,9.62,9.62,0,0,0,14.89,0,14.34,14.34,0,0,0,2.85-9.3v-.65a15.52,15.52,0,0,0-1.3-6.43,10.47,10.47,0,0,0-3.66-4.52,9.29,9.29,0,0,0-5.38-1.6,9.05,9.05,0,0,0-7.39,3.55,14.37,14.37,0,0,0-2.86,9.31Z"/><path class="cls-6" d="M416.8,310.5q-3.06,4.44-9.77,4.45-4.9,0-7.45-2.85T397,303.67V283.74h3.37v19.51q0,8.75,7.08,8.75,7.36,0,9.32-6.09V283.74h3.4v30.64h-3.29Z"/><path class="cls-6" d="M443.11,286.63a12.08,12.08,0,0,0-2.3-.2,8.26,8.26,0,0,0-5.36,1.77,9.62,9.62,0,0,0-3.13,5.14v21H429V283.74h3.31l.06,4.87a9,9,0,0,1,8.63-5.44,5.49,5.49,0,0,1,2.24.37Z"/><path class="cls-6" d="M465.65,283.74l.11,5a11.35,11.35,0,0,1,4.25-4.16,11.6,11.6,0,0,1,5.66-1.39q7.26,0,9.21,5.95a11.48,11.48,0,0,1,4.39-4.41,12.24,12.24,0,0,1,6.06-1.54q9.85,0,10.05,10.76v20.45H502V294.19q0-4.11-1.77-6.09t-5.67-2a9,9,0,0,0-6.18,2.36,8.36,8.36,0,0,0-2.8,5.62v20.28h-3.4V293.93q0-3.93-1.85-5.87c-1.22-1.3-3.1-1.94-5.63-1.94a8.58,8.58,0,0,0-5.49,1.82,10.75,10.75,0,0,0-3.4,5.43v21h-3.4V283.74Z"/><path class="cls-6" d="M533.31,314.38a15.85,15.85,0,0,1-.65-4.28,11.84,11.84,0,0,1-4.55,3.59,13.92,13.92,0,0,1-5.85,1.26,10.29,10.29,0,0,1-7.15-2.47,8,8,0,0,1-2.73-6.23,8.21,8.21,0,0,1,3.72-7.08q3.72-2.6,10.38-2.6h6.15v-3.49a6.73,6.73,0,0,0-2-5.17,8.39,8.39,0,0,0-5.9-1.88,9.32,9.32,0,0,0-5.87,1.81,5.42,5.42,0,0,0-2.32,4.37l-3.4,0a7.89,7.89,0,0,1,3.4-6.33,13.07,13.07,0,0,1,8.36-2.68,12,12,0,0,1,8.08,2.56,9.2,9.2,0,0,1,3,7.15v14.5a18.06,18.06,0,0,0,.93,6.66v.34Zm-10.65-2.44a11.32,11.32,0,0,0,6.07-1.64,9.62,9.62,0,0,0,3.9-4.39v-6.74h-6.06a15.18,15.18,0,0,0-7.93,1.86,5.55,5.55,0,0,0-2.86,4.94,5.47,5.47,0,0,0,1.91,4.28A7.2,7.2,0,0,0,522.66,311.94Z"/><path class="cls-6" d="M559.19,286.63a12,12,0,0,0-2.29-.2,8.27,8.27,0,0,0-5.37,1.77,9.68,9.68,0,0,0-3.13,5.14v21H545V283.74h3.31l.06,4.87a9,9,0,0,1,8.64-5.44,5.53,5.53,0,0,1,2.24.37Z"/><path class="cls-6" d="M571.82,299l-3.88,3.73v11.7h-3.4v-43.5h3.4v27.84l3.2-3.46,11.73-11.52h4.27l-13,12.91,14.14,17.73h-4Z"/><path class="cls-6" d="M604.82,315a13.33,13.33,0,0,1-7.07-1.93,13,13,0,0,1-4.91-5.37,16.58,16.58,0,0,1-1.76-7.71v-1.22a18.06,18.06,0,0,1,1.71-8,13.69,13.69,0,0,1,4.78-5.56,11.73,11.73,0,0,1,6.62-2A11.06,11.06,0,0,1,613,287q3.27,3.81,3.27,10.41v1.9H594.45v.65a12.86,12.86,0,0,0,3,8.68,9.51,9.51,0,0,0,7.52,3.47,10.93,10.93,0,0,0,4.8-1,10.52,10.52,0,0,0,3.78-3.17l2.12,1.62Q611.92,314.94,604.82,315Zm-.63-28.89a8.46,8.46,0,0,0-6.44,2.8,13,13,0,0,0-3.19,7.54h18.38V296a11.23,11.23,0,0,0-2.52-7.2A7.8,7.8,0,0,0,604.19,286.06Z"/><path class="cls-6" d="M628.18,275.89v7.85h6.34v2.77h-6.34V307a6.41,6.41,0,0,0,.92,3.8,3.54,3.54,0,0,0,3.07,1.25,20.62,20.62,0,0,0,2.75-.28l.14,2.75a11,11,0,0,1-3.62.48q-3.5,0-5.07-2a9.52,9.52,0,0,1-1.59-6V286.51h-5.63v-2.77h5.63v-7.85Z"/><path class="cls-7" d="M909.91,179.56a5.9,5.9,0,0,1,1.77-4.48,7.12,7.12,0,0,1,9.2,0,6,6,0,0,1,1.79,4.38v1.15a5.87,5.87,0,0,1-1.76,4.45,6.39,6.39,0,0,1-4.61,1.68,6.47,6.47,0,0,1-4.6-1.67,5.9,5.9,0,0,1-1.79-4.54Z"/><path class="cls-7" d="M996.45,192.08H982.32l-2.68,8h-8.57L985.62,161h7.47l14.64,39.1h-8.57Zm-12-6.53h9.77l-4.91-14.64Z"/><path class="cls-7" d="M1010.67,185.39q0-6.69,3.19-10.77a10.31,10.31,0,0,1,8.58-4.08,9.07,9.07,0,0,1,7.44,3.27l.32-2.73h7v28.09a12.37,12.37,0,0,1-1.74,6.63,11.15,11.15,0,0,1-4.87,4.3,17.23,17.23,0,0,1-7.36,1.47,15.92,15.92,0,0,1-6.23-1.27,11.1,11.1,0,0,1-4.59-3.29l3.43-4.73a9.09,9.09,0,0,0,7,3.25,6.67,6.67,0,0,0,4.81-1.65,6.21,6.21,0,0,0,1.72-4.69v-1.55a9,9,0,0,1-7.07,3,10.29,10.29,0,0,1-8.47-4.1q-3.24-4.09-3.24-10.86Zm7.77.58a10.6,10.6,0,0,0,1.58,6.2,5.06,5.06,0,0,0,4.35,2.24,5.41,5.41,0,0,0,5.08-2.66V179.51a5.4,5.4,0,0,0-5-2.66,5.07,5.07,0,0,0-4.39,2.29Q1018.44,181.42,1018.44,186Z"/><path class="cls-7" d="M1057.51,200.67a14.3,14.3,0,0,1-10.41-3.92q-4-3.92-4-10.45v-.75a17.53,17.53,0,0,1,1.7-7.83,12.39,12.39,0,0,1,4.79-5.32,13.51,13.51,0,0,1,7.08-1.86q6,0,9.38,3.76t3.43,10.66v3.17H1051a7.18,7.18,0,0,0,2.27,4.56,6.86,6.86,0,0,0,4.8,1.72,8.38,8.38,0,0,0,7-3.25l3.81,4.27a11.74,11.74,0,0,1-4.73,3.86A15.54,15.54,0,0,1,1057.51,200.67Zm-.89-23.87a4.87,4.87,0,0,0-3.75,1.56,8.17,8.17,0,0,0-1.84,4.48h10.8v-.62a5.79,5.79,0,0,0-1.4-4A5,5,0,0,0,1056.62,176.8Z"/><path class="cls-7" d="M1074.74,163.56a3.82,3.82,0,0,1,1.17-2.88,5,5,0,0,1,6.35,0,3.79,3.79,0,0,1,1.18,2.88,3.84,3.84,0,0,1-1.19,2.9,5,5,0,0,1-6.31,0A3.82,3.82,0,0,1,1074.74,163.56Zm8.25,36.57h-7.79v-29H1083Z"/><path class="cls-7" d="M1097.46,171.08l.24,3.35a10.16,10.16,0,0,1,8.35-3.89q4.62,0,6.88,2.71t2.31,8.11v18.77h-7.77V181.55a5,5,0,0,0-1.07-3.59,4.83,4.83,0,0,0-3.57-1.11,5.35,5.35,0,0,0-4.92,2.79v20.49h-7.76v-29Z"/><path class="cls-7" d="M1120.92,185.39q0-6.69,3.19-10.77a10.31,10.31,0,0,1,8.58-4.08,9,9,0,0,1,7.43,3.27l.33-2.73h7v28.09a12.37,12.37,0,0,1-1.73,6.63,11.15,11.15,0,0,1-4.87,4.3,17.23,17.23,0,0,1-7.36,1.47,15.92,15.92,0,0,1-6.23-1.27,11,11,0,0,1-4.59-3.29l3.43-4.73a9.09,9.09,0,0,0,7,3.25,6.67,6.67,0,0,0,4.81-1.65,6.21,6.21,0,0,0,1.72-4.69v-1.55a9,9,0,0,1-7.07,3,10.29,10.29,0,0,1-8.47-4.1q-3.24-4.09-3.24-10.86Zm7.76.58a10.6,10.6,0,0,0,1.59,6.2,5.06,5.06,0,0,0,4.35,2.24,5.42,5.42,0,0,0,5.08-2.66V179.51a5.4,5.4,0,0,0-5-2.66,5.07,5.07,0,0,0-4.39,2.29C1129.22,180.66,1128.68,182.94,1128.68,186Z"/><path class="cls-7" d="M1195.17,185.87q0,6.72-3.05,10.76a9.77,9.77,0,0,1-8.23,4,9.06,9.06,0,0,1-7.12-3.06V211.3H1169V171.08h7.2l.27,2.84a9.13,9.13,0,0,1,7.36-3.38,9.84,9.84,0,0,1,8.35,4q3,4,3,11Zm-7.76-.56a11.44,11.44,0,0,0-1.44-6.26,4.68,4.68,0,0,0-4.18-2.2q-3.64,0-5,2.79v11.9a5.16,5.16,0,0,0,5.08,2.87Q1187.4,194.41,1187.41,185.31Z"/><path class="cls-7" d="M1199.7,185.34a17.21,17.21,0,0,1,1.67-7.71,12.23,12.23,0,0,1,4.79-5.24,14.06,14.06,0,0,1,7.27-1.85,13.23,13.23,0,0,1,9.6,3.6,14.44,14.44,0,0,1,4.15,9.77l0,2q0,6.69-3.73,10.73a14.47,14.47,0,0,1-20,0q-3.75-4-3.75-11Zm7.76.55a10.83,10.83,0,0,0,1.56,6.33,5.6,5.6,0,0,0,8.86,0c1.06-1.45,1.59-3.75,1.59-6.93a10.71,10.71,0,0,0-1.59-6.29,5.53,5.53,0,0,0-8.86,0Q1207.46,181.23,1207.46,185.89Z"/><path class="cls-7" d="M1259.1,185.87q0,6.72-3,10.76a9.77,9.77,0,0,1-8.23,4,9,9,0,0,1-7.11-3.06V211.3h-7.77V171.08h7.2l.27,2.84a9.13,9.13,0,0,1,7.36-3.38,9.84,9.84,0,0,1,8.35,4q3,4,3,11Zm-7.76-.56a11.44,11.44,0,0,0-1.44-6.26,4.66,4.66,0,0,0-4.17-2.2q-3.66,0-5,2.79v11.9a5.16,5.16,0,0,0,5.07,2.87Q1251.35,194.41,1251.34,185.31Z"/><path class="cls-7" d="M1282.25,197.18a9.74,9.74,0,0,1-8,3.49q-4.68,0-7.13-2.69t-2.51-7.86v-19h7.76v18.79c0,3,1.37,4.54,4.13,4.54s4.44-.91,5.43-2.74V171.08h7.78v29h-7.3Z"/><path class="cls-7" d="M1304.75,200.13H1297V158.88h7.79Z"/><path class="cls-7" d="M1328.91,200.13a8.5,8.5,0,0,1-.78-2.6,9.4,9.4,0,0,1-7.33,3.14,10.3,10.3,0,0,1-7.08-2.47,7.94,7.94,0,0,1-2.8-6.23,8.22,8.22,0,0,1,3.42-7.09q3.42-2.48,9.9-2.5h3.57v-1.66a4.85,4.85,0,0,0-1-3.23,4.09,4.09,0,0,0-3.27-1.2,4.6,4.6,0,0,0-3.07.94,3.18,3.18,0,0,0-1.12,2.57h-7.76a7.78,7.78,0,0,1,1.56-4.67,10.32,10.32,0,0,1,4.4-3.37,16.16,16.16,0,0,1,6.4-1.22q5.37,0,8.52,2.7a9.42,9.42,0,0,1,3.16,7.58v12.6a14,14,0,0,0,1.15,6.26v.45Zm-6.42-5.4a6.66,6.66,0,0,0,3.17-.76,5.08,5.08,0,0,0,2.15-2.05v-5h-2.9c-3.89,0-6,1.34-6.2,4l0,.45a3.09,3.09,0,0,0,1,2.39A3.94,3.94,0,0,0,1322.49,194.73Z"/><path class="cls-7" d="M1351.79,163.93v7.15h5v5.69h-5v14.5a3.49,3.49,0,0,0,.61,2.31,3.1,3.1,0,0,0,2.37.7,11.92,11.92,0,0,0,2.28-.19V200a15.83,15.83,0,0,1-4.7.7q-8.16,0-8.32-8.24V176.77h-4.25v-5.69H1344v-7.15Z"/><path class="cls-7" d="M1362,163.56a3.82,3.82,0,0,1,1.17-2.88,5,5,0,0,1,6.35,0,3.79,3.79,0,0,1,1.18,2.88,3.84,3.84,0,0,1-1.19,2.9,5,5,0,0,1-6.31,0A3.82,3.82,0,0,1,1362,163.56Zm8.24,36.57h-7.78v-29h7.78Z"/><path class="cls-7" d="M1376.32,185.34a17.21,17.21,0,0,1,1.67-7.71,12.23,12.23,0,0,1,4.79-5.24,14.06,14.06,0,0,1,7.27-1.85,13.23,13.23,0,0,1,9.6,3.6,14.44,14.44,0,0,1,4.15,9.77l0,2q0,6.69-3.73,10.73a14.47,14.47,0,0,1-20,0q-3.75-4-3.75-11Zm7.76.55a10.83,10.83,0,0,0,1.56,6.33,5.6,5.6,0,0,0,8.86,0c1.06-1.45,1.59-3.75,1.59-6.93a10.71,10.71,0,0,0-1.59-6.29,5.53,5.53,0,0,0-8.86,0Q1384.08,181.23,1384.08,185.89Z"/><path class="cls-7" d="M1416.71,171.08l.24,3.35a10.16,10.16,0,0,1,8.35-3.89q4.62,0,6.88,2.71t2.31,8.11v18.77h-7.76V181.55a5,5,0,0,0-1.08-3.59,4.8,4.8,0,0,0-3.57-1.11,5.34,5.34,0,0,0-4.91,2.79v20.49h-7.76v-29Z"/><path class="cls-7" d="M1472.77,200.13a8.8,8.8,0,0,1-.77-2.6,9.42,9.42,0,0,1-7.34,3.14,10.3,10.3,0,0,1-7.07-2.47,8,8,0,0,1-2.81-6.23,8.22,8.22,0,0,1,3.42-7.09q3.43-2.48,9.9-2.5h3.57v-1.66a4.8,4.8,0,0,0-1-3.23,4.09,4.09,0,0,0-3.26-1.2,4.61,4.61,0,0,0-3.08.94,3.18,3.18,0,0,0-1.11,2.57h-7.76a7.84,7.84,0,0,1,1.55-4.67,10.29,10.29,0,0,1,4.41-3.37,16.14,16.14,0,0,1,6.39-1.22q5.37,0,8.53,2.7a9.45,9.45,0,0,1,3.15,7.58v12.6a13.82,13.82,0,0,0,1.16,6.26v.45Zm-6.41-5.4a6.71,6.71,0,0,0,3.17-.76,5.06,5.06,0,0,0,2.14-2.05v-5h-2.9q-5.82,0-6.2,4l0,.45a3.09,3.09,0,0,0,1,2.39A4,4,0,0,0,1466.36,194.73Z"/><path class="cls-7" d="M1493.5,171.08l.24,3.35a10.17,10.17,0,0,1,8.36-3.89c3.07,0,5.37.9,6.87,2.71s2.27,4.51,2.31,8.11v18.77h-7.76V181.55a5,5,0,0,0-1.08-3.59,4.8,4.8,0,0,0-3.57-1.11,5.34,5.34,0,0,0-4.91,2.79v20.49h-7.76v-29Z"/><path class="cls-7" d="M1516.89,185.39q0-6.79,3-10.82a9.87,9.87,0,0,1,8.33-4,8.87,8.87,0,0,1,7,3.17V158.88h7.79v41.25h-7l-.37-3.09a9.15,9.15,0,0,1-7.47,3.63,9.87,9.87,0,0,1-8.23-4Q1516.89,192.58,1516.89,185.39Zm7.76.58a11.44,11.44,0,0,0,1.42,6.26,4.63,4.63,0,0,0,4.14,2.18,5.18,5.18,0,0,0,5.07-3V179.89a5.11,5.11,0,0,0-5-3Q1524.65,176.85,1524.65,186Z"/><path class="cls-7" d="M1572.84,200.13h-7.78V158.88h7.78Z"/><path class="cls-7" d="M1579,185.34a17.21,17.21,0,0,1,1.67-7.71,12.17,12.17,0,0,1,4.79-5.24,14.06,14.06,0,0,1,7.27-1.85,13.23,13.23,0,0,1,9.6,3.6,14.44,14.44,0,0,1,4.15,9.77l0,2q0,6.69-3.73,10.73a14.47,14.47,0,0,1-20,0q-3.75-4-3.75-11Zm7.76.55a10.83,10.83,0,0,0,1.56,6.33,5.6,5.6,0,0,0,8.86,0c1.06-1.45,1.59-3.75,1.59-6.93a10.71,10.71,0,0,0-1.59-6.29,5.53,5.53,0,0,0-8.86,0Q1586.72,181.23,1586.72,185.89Z"/><path class="cls-7" d="M1637.47,189.58l3.82-18.5h7.49l-7.41,29h-6.5l-5.51-18.29-5.5,18.29h-6.47l-7.42-29h7.5l3.78,18.47,5.32-18.47h5.61Z"/><path class="cls-7" d="M1008.58,251.87q0,6.72-3.05,10.76a9.77,9.77,0,0,1-8.23,4,9.06,9.06,0,0,1-7.12-3.06V277.3h-7.76V237.08h7.2l.27,2.84a9.13,9.13,0,0,1,7.36-3.38,9.84,9.84,0,0,1,8.35,4q3,4,3,11Zm-7.76-.56a11.44,11.44,0,0,0-1.44-6.26,4.67,4.67,0,0,0-4.17-2.2c-2.44,0-4.11.93-5,2.79v11.9a5.17,5.17,0,0,0,5.08,2.87Q1000.83,260.41,1000.82,251.31Z"/><path class="cls-7" d="M1013.11,251.34a17.21,17.21,0,0,1,1.67-7.71,12.23,12.23,0,0,1,4.79-5.24,14.06,14.06,0,0,1,7.27-1.85,13.23,13.23,0,0,1,9.6,3.6,14.44,14.44,0,0,1,4.15,9.77l.05,2q0,6.69-3.73,10.73a14.47,14.47,0,0,1-20.05,0q-3.75-4-3.75-11Zm7.76.55a10.83,10.83,0,0,0,1.56,6.33,5.6,5.6,0,0,0,8.86,0c1.06-1.45,1.59-3.75,1.59-6.93a10.71,10.71,0,0,0-1.59-6.29,5.53,5.53,0,0,0-8.86,0Q1020.87,247.23,1020.87,251.89Z"/><path class="cls-7" d="M1072.51,251.87q0,6.72-3,10.76a9.77,9.77,0,0,1-8.23,4,9.05,9.05,0,0,1-7.11-3.06V277.3h-7.76V237.08h7.19l.27,2.84a9.13,9.13,0,0,1,7.36-3.38,9.84,9.84,0,0,1,8.35,4q3,4,3,11Zm-7.76-.56a11.53,11.53,0,0,0-1.43-6.26,4.68,4.68,0,0,0-4.18-2.2q-3.66,0-5,2.79v11.9a5.16,5.16,0,0,0,5.07,2.87Q1064.76,260.41,1064.75,251.31Z"/><path class="cls-7" d="M1095.66,263.18a9.74,9.74,0,0,1-8,3.49c-3.12,0-5.49-.9-7.13-2.69s-2.48-4.41-2.51-7.86v-19h7.76v18.79q0,4.54,4.13,4.54c2.64,0,4.44-.91,5.43-2.74V237.08h7.79v29h-7.31Z"/><path class="cls-7" d="M1118.16,266.13h-7.79V224.88h7.79Z"/><path class="cls-7" d="M1142.32,266.13a8.5,8.5,0,0,1-.78-2.6,9.4,9.4,0,0,1-7.33,3.14,10.3,10.3,0,0,1-7.07-2.47,7.92,7.92,0,0,1-2.81-6.23,8.22,8.22,0,0,1,3.42-7.09c2.29-1.65,5.58-2.48,9.9-2.5h3.57v-1.66a4.8,4.8,0,0,0-1-3.23,4.09,4.09,0,0,0-3.27-1.2,4.6,4.6,0,0,0-3.07.94,3.18,3.18,0,0,0-1.11,2.57H1125a7.78,7.78,0,0,1,1.56-4.67,10.29,10.29,0,0,1,4.41-3.37,16.07,16.07,0,0,1,6.39-1.22q5.37,0,8.52,2.7a9.42,9.42,0,0,1,3.16,7.58v12.6a14,14,0,0,0,1.15,6.26v.45Zm-6.42-5.4a6.66,6.66,0,0,0,3.17-.76,5,5,0,0,0,2.15-2.05v-5h-2.9q-5.82,0-6.2,4l0,.45a3.09,3.09,0,0,0,1,2.39A3.94,3.94,0,0,0,1135.9,260.73Z"/><path class="cls-7" d="M1165.2,229.93v7.15h5v5.69h-5v14.5a3.43,3.43,0,0,0,.62,2.31,3.08,3.08,0,0,0,2.36.7,11.92,11.92,0,0,0,2.28-.19V266a15.83,15.83,0,0,1-4.7.7q-8.16,0-8.32-8.24V242.77h-4.25v-5.69h4.25v-7.15Z"/><path class="cls-7" d="M1175.37,229.56a3.82,3.82,0,0,1,1.17-2.88,5,5,0,0,1,6.35,0,3.79,3.79,0,0,1,1.18,2.88,3.84,3.84,0,0,1-1.19,2.9,5,5,0,0,1-6.31,0A3.82,3.82,0,0,1,1175.37,229.56Zm8.25,36.57h-7.79v-29h7.79Z"/><path class="cls-7" d="M1189.74,251.34a17.2,17.2,0,0,1,1.66-7.71,12.23,12.23,0,0,1,4.79-5.24,14.06,14.06,0,0,1,7.27-1.85,13.23,13.23,0,0,1,9.6,3.6,14.44,14.44,0,0,1,4.15,9.77l0,2q0,6.69-3.73,10.73a14.47,14.47,0,0,1-20,0q-3.75-4-3.74-11Zm7.76.55a10.91,10.91,0,0,0,1.55,6.33,5.61,5.61,0,0,0,8.87,0c1-1.45,1.58-3.75,1.58-6.93a10.79,10.79,0,0,0-1.58-6.29,5.16,5.16,0,0,0-4.46-2.23,5.09,5.09,0,0,0-4.41,2.21Q1197.51,247.23,1197.5,251.89Z"/><path class="cls-7" d="M1230.12,237.08l.24,3.35a10.16,10.16,0,0,1,8.35-3.89c3.08,0,5.38.9,6.88,2.71s2.27,4.51,2.31,8.11v18.77h-7.76V247.55a5,5,0,0,0-1.08-3.59,4.8,4.8,0,0,0-3.57-1.11,5.34,5.34,0,0,0-4.91,2.79v20.49h-7.76v-29Z"/><path class="cls-7" d="M1268.22,251.39q0-6.69,3.18-10.77a10.31,10.31,0,0,1,8.58-4.08,9,9,0,0,1,7.44,3.27l.32-2.73h7v28.09a12.46,12.46,0,0,1-1.73,6.63,11.18,11.18,0,0,1-4.88,4.3,17.2,17.2,0,0,1-7.36,1.47,16,16,0,0,1-6.23-1.27A11.1,11.1,0,0,1,1270,273l3.44-4.73a9.08,9.08,0,0,0,7,3.25,6.65,6.65,0,0,0,4.8-1.65,6.18,6.18,0,0,0,1.72-4.69v-1.55a9,9,0,0,1-7.06,3,10.31,10.31,0,0,1-8.48-4.1q-3.23-4.1-3.23-10.86Zm7.76.58a10.6,10.6,0,0,0,1.59,6.2,5,5,0,0,0,4.34,2.24,5.4,5.4,0,0,0,5.08-2.66V245.51a5.38,5.38,0,0,0-5-2.66,5.06,5.06,0,0,0-4.39,2.29Q1276,247.42,1276,252Z"/><path class="cls-7" d="M1318,244.35a21.39,21.39,0,0,0-2.79-.21q-4.41,0-5.77,3v19h-7.77v-29H1309l.21,3.46a7.19,7.19,0,0,1,6.47-4,7.91,7.91,0,0,1,2.42.35Z"/><path class="cls-7" d="M1320.5,251.34a17.2,17.2,0,0,1,1.66-7.71,12.23,12.23,0,0,1,4.79-5.24,14.06,14.06,0,0,1,7.27-1.85,13.23,13.23,0,0,1,9.6,3.6,14.44,14.44,0,0,1,4.15,9.77l0,2q0,6.69-3.73,10.73a14.47,14.47,0,0,1-20,0q-3.73-4-3.74-11Zm7.76.55a10.83,10.83,0,0,0,1.56,6.33,5.6,5.6,0,0,0,8.86,0c1-1.45,1.58-3.75,1.58-6.93a10.79,10.79,0,0,0-1.58-6.29,5.16,5.16,0,0,0-4.46-2.23,5.06,5.06,0,0,0-4.4,2.21Q1328.26,247.23,1328.26,251.89Z"/><path class="cls-7" d="M1379,255.58l3.81-18.5h7.5l-7.42,29h-6.5l-5.5-18.29-5.51,18.29h-6.47l-7.41-29H1359l3.79,18.47,5.32-18.47h5.61Z"/><path class="cls-7" d="M1404.38,229.93v7.15h5v5.69h-5v14.5a3.49,3.49,0,0,0,.62,2.31,3.08,3.08,0,0,0,2.36.7,12.1,12.1,0,0,0,2.29-.19V266a15.88,15.88,0,0,1-4.7.7q-8.17,0-8.33-8.24V242.77h-4.24v-5.69h4.24v-7.15Z"/><path class="cls-7" d="M1422.18,240.24a9.69,9.69,0,0,1,7.76-3.7q9.46,0,9.59,11v18.61h-7.76V247.74a5.45,5.45,0,0,0-1.07-3.7,4.65,4.65,0,0,0-3.58-1.19,5.29,5.29,0,0,0-4.94,2.63v20.65h-7.76V224.88h7.76Z"/><path class="cls-7" d="M909.91,351.56a5.9,5.9,0,0,1,1.77-4.48,7.12,7.12,0,0,1,9.2,0,6,6,0,0,1,1.79,4.38v1.15a5.87,5.87,0,0,1-1.76,4.45,6.39,6.39,0,0,1-4.61,1.68,6.47,6.47,0,0,1-4.6-1.67,5.9,5.9,0,0,1-1.79-4.54Z"/><path class="cls-7" d="M997.9,355.19H982.43v10.47h18.15v6.47H974.37V333h26.16v6.53h-18.1v9.32H997.9Z"/><path class="cls-7" d="M1035.84,333v25.76q0,6.4-4,10.15t-11,3.73q-6.84,0-10.87-3.63t-4.11-10V333h8v25.81c0,2.56.62,4.43,1.84,5.6a7.09,7.09,0,0,0,5.09,1.76q6.8,0,6.9-7.15V333Z"/><path class="cls-7" d="M1070.87,372.67a14.27,14.27,0,0,1-10.4-3.92q-4-3.92-4-10.45v-.75a17.53,17.53,0,0,1,1.7-7.83,12.39,12.39,0,0,1,4.79-5.32,13.51,13.51,0,0,1,7.08-1.86q6,0,9.38,3.76t3.43,10.66v3.17h-18.51a7.18,7.18,0,0,0,2.27,4.56,6.84,6.84,0,0,0,4.8,1.72,8.38,8.38,0,0,0,7-3.25l3.81,4.27a11.74,11.74,0,0,1-4.73,3.86A15.52,15.52,0,0,1,1070.87,372.67ZM1070,348.8a4.87,4.87,0,0,0-3.75,1.56,8.17,8.17,0,0,0-1.84,4.48h10.8v-.62a5.79,5.79,0,0,0-1.4-4A5,5,0,0,0,1070,348.8Z"/><path class="cls-7" d="M1099.23,351.75l4.89-8.67h8.3l-8.28,14.23,8.62,14.82h-8.32l-5.18-9.13-5.16,9.13h-8.35l8.62-14.82-8.25-14.23h8.33Z"/><path class="cls-7" d="M1117,335.56a3.82,3.82,0,0,1,1.17-2.88,5,5,0,0,1,6.35,0,3.79,3.79,0,0,1,1.18,2.88,3.84,3.84,0,0,1-1.19,2.9,5,5,0,0,1-6.32,0A3.84,3.84,0,0,1,1117,335.56Zm8.24,36.57h-7.78V343.08h7.78Z"/><path class="cls-7" d="M1141.89,335.93v7.15h5v5.69h-5v14.5a3.49,3.49,0,0,0,.62,2.31,3.08,3.08,0,0,0,2.36.7,12.1,12.1,0,0,0,2.29-.19V372a15.88,15.88,0,0,1-4.7.7q-8.18,0-8.33-8.24V348.77h-4.24v-5.69h4.24v-7.15Z"/><path class="cls-7" d="M909.91,457.56a5.9,5.9,0,0,1,1.77-4.48,7.12,7.12,0,0,1,9.2,0,6,6,0,0,1,1.79,4.38v1.15a5.87,5.87,0,0,1-1.76,4.45,6.39,6.39,0,0,1-4.61,1.68,6.47,6.47,0,0,1-4.6-1.67,5.9,5.9,0,0,1-1.79-4.54Z"/><path class="cls-7" d="M1005.31,473.19a13.88,13.88,0,0,1-6.15,4,25.72,25.72,0,0,1-8.81,1.44,17.42,17.42,0,0,1-8.9-2.22,14.76,14.76,0,0,1-5.91-6.43,22.51,22.51,0,0,1-2.13-9.91v-2.66a23.93,23.93,0,0,1,2-10.13,14.65,14.65,0,0,1,5.69-6.56,16.45,16.45,0,0,1,8.72-2.27q6.94,0,10.87,3.32t4.65,9.66h-7.84a7.8,7.8,0,0,0-2.38-4.92A7.58,7.58,0,0,0,990,445a7.14,7.14,0,0,0-6.26,3.09c-1.43,2.06-2.16,5.12-2.17,9.19v2.49c0,4.1.77,7.2,2.33,9.3a8,8,0,0,0,6.85,3.14c3,0,5.18-.65,6.47-1.94v-6.74h-7.33v-5.93h15.39Z"/><path class="cls-7" d="M1020.45,478.13h-7.79V436.88h7.79Z"/><path class="cls-7" d="M1026.57,463.34a17.2,17.2,0,0,1,1.66-7.71,12.19,12.19,0,0,1,4.8-5.24,14,14,0,0,1,7.26-1.85,13.23,13.23,0,0,1,9.6,3.6,14.44,14.44,0,0,1,4.15,9.77l.06,2q0,6.69-3.74,10.73a14.47,14.47,0,0,1-20,0q-3.74-4-3.74-11Zm7.76.55a10.83,10.83,0,0,0,1.56,6.33,5.6,5.6,0,0,0,8.86,0c1.06-1.45,1.58-3.75,1.58-6.93a10.71,10.71,0,0,0-1.58-6.29,5.15,5.15,0,0,0-4.46-2.23,5.07,5.07,0,0,0-4.4,2.21Q1034.33,459.23,1034.33,463.89Z"/><path class="cls-7" d="M1086,463.87q0,7-3,10.89a9.85,9.85,0,0,1-8.32,3.91,9.08,9.08,0,0,1-7.55-3.63l-.35,3.09h-7V436.88h7.76v14.8a8.86,8.86,0,0,1,7.06-3.14,9.94,9.94,0,0,1,8.34,3.91q3,3.9,3,11Zm-7.77-.56q0-4.41-1.39-6.43a4.71,4.71,0,0,0-4.17-2,5.12,5.12,0,0,0-5.1,3v11.47a5.19,5.19,0,0,0,5.16,3.06,4.78,4.78,0,0,0,4.94-3.7A19,19,0,0,0,1078.23,463.31Z"/><path class="cls-7" d="M1108.55,478.13a8.5,8.5,0,0,1-.78-2.6,9.4,9.4,0,0,1-7.33,3.14,10.3,10.3,0,0,1-7.08-2.47,7.94,7.94,0,0,1-2.8-6.23,8.22,8.22,0,0,1,3.42-7.09q3.42-2.47,9.9-2.5h3.57v-1.66a4.8,4.8,0,0,0-1-3.23,4.07,4.07,0,0,0-3.26-1.2,4.58,4.58,0,0,0-3.07.94,3.15,3.15,0,0,0-1.12,2.57h-7.76a7.78,7.78,0,0,1,1.56-4.67,10.26,10.26,0,0,1,4.4-3.37,16.14,16.14,0,0,1,6.39-1.22c3.58,0,6.43.9,8.53,2.7a9.45,9.45,0,0,1,3.16,7.58v12.6a13.84,13.84,0,0,0,1.15,6.26v.45Zm-6.42-5.4a6.68,6.68,0,0,0,3.17-.76,5.08,5.08,0,0,0,2.15-2.05v-5h-2.9q-5.83,0-6.21,4l0,.45a3.09,3.09,0,0,0,1,2.39A3.94,3.94,0,0,0,1102.13,472.73Z"/><path class="cls-7" d="M1130.32,478.13h-7.78V436.88h7.78Z"/><path class="cls-7" d="M1164.37,472.41a5.09,5.09,0,0,0,3.49-1.18,4.13,4.13,0,0,0,1.39-3.14h7.28a9.94,9.94,0,0,1-1.61,5.41,10.58,10.58,0,0,1-4.34,3.81,13.47,13.47,0,0,1-6.08,1.36q-6.23,0-9.83-4t-3.6-10.94v-.52q0-6.71,3.57-10.71c2.39-2.67,5.65-4,9.81-4a12.21,12.21,0,0,1,8.74,3.1,11,11,0,0,1,3.34,8.26h-7.28a5.35,5.35,0,0,0-1.39-3.69,5.21,5.21,0,0,0-7.64.56q-1.4,2-1.39,6.42v.8q0,4.5,1.37,6.46A4.74,4.74,0,0,0,1164.37,472.41Z"/><path class="cls-7" d="M1190.09,478.13h-7.79V436.88h7.79Z"/><path class="cls-7" d="M1197.36,441.56a3.82,3.82,0,0,1,1.17-2.88,5,5,0,0,1,6.35,0,3.79,3.79,0,0,1,1.18,2.88,3.84,3.84,0,0,1-1.19,2.9,5,5,0,0,1-6.31,0A3.82,3.82,0,0,1,1197.36,441.56Zm8.25,36.57h-7.79V449.08h7.79Z"/><path class="cls-7" d="M1220.21,449.08l.24,3.24a10.23,10.23,0,0,1,8.35-3.78q5.63,0,7.71,4.43a10,10,0,0,1,8.73-4.43q4.73,0,7,2.75t2.31,8.29v18.55h-7.79V459.6a5.51,5.51,0,0,0-1-3.61,4.28,4.28,0,0,0-3.41-1.14,4.83,4.83,0,0,0-4.83,3.33l0,19.95h-7.76v-18.5a5.47,5.47,0,0,0-1-3.65,4.34,4.34,0,0,0-3.39-1.13,5,5,0,0,0-4.78,2.74v20.54h-7.76V449.08Z"/><path class="cls-7" d="M1278.32,478.13a8.5,8.5,0,0,1-.78-2.6,9.4,9.4,0,0,1-7.33,3.14,10.3,10.3,0,0,1-7.07-2.47,7.92,7.92,0,0,1-2.81-6.23,8.22,8.22,0,0,1,3.42-7.09c2.29-1.65,5.58-2.48,9.9-2.5h3.57v-1.66a4.8,4.8,0,0,0-1-3.23,4.09,4.09,0,0,0-3.27-1.2,4.6,4.6,0,0,0-3.07.94,3.18,3.18,0,0,0-1.11,2.57H1261a7.78,7.78,0,0,1,1.56-4.67,10.29,10.29,0,0,1,4.41-3.37,16.07,16.07,0,0,1,6.39-1.22q5.37,0,8.52,2.7a9.42,9.42,0,0,1,3.16,7.58v12.6a14,14,0,0,0,1.15,6.26v.45Zm-6.42-5.4a6.66,6.66,0,0,0,3.17-.76,5,5,0,0,0,2.15-2.05v-5h-2.9q-5.82,0-6.2,4l0,.45a3.09,3.09,0,0,0,1,2.39A3.94,3.94,0,0,0,1271.9,472.73Z"/><path class="cls-7" d="M1301.2,441.93v7.15h5v5.69h-5v14.5a3.43,3.43,0,0,0,.62,2.31,3.06,3.06,0,0,0,2.36.7,11.92,11.92,0,0,0,2.28-.19V478a15.83,15.83,0,0,1-4.7.7q-8.16,0-8.32-8.24V454.77h-4.25v-5.69h4.25v-7.15Z"/><path class="cls-7" d="M1324.8,478.67a14.3,14.3,0,0,1-10.41-3.92q-4-3.92-4-10.45v-.75a17.52,17.52,0,0,1,1.69-7.83,12.45,12.45,0,0,1,4.79-5.32,13.51,13.51,0,0,1,7.08-1.86q6,0,9.39,3.76t3.42,10.66v3.17h-18.5a7.17,7.17,0,0,0,2.26,4.56,6.86,6.86,0,0,0,4.8,1.72,8.38,8.38,0,0,0,7-3.25l3.81,4.27a11.67,11.67,0,0,1-4.73,3.86A15.51,15.51,0,0,1,1324.8,478.67Zm-.89-23.87a4.83,4.83,0,0,0-3.74,1.56,8,8,0,0,0-1.84,4.48h10.79v-.62a5.79,5.79,0,0,0-1.39-4A5,5,0,0,0,1323.91,454.8Z"/><path class="cls-7" d="M1370.09,478.67a14.26,14.26,0,0,1-10.4-3.92q-4-3.92-4-10.45v-.75a17.66,17.66,0,0,1,1.69-7.83,12.47,12.47,0,0,1,4.8-5.32,13.48,13.48,0,0,1,7.08-1.86q6,0,9.38,3.76T1382,463v3.17h-18.5a7.18,7.18,0,0,0,2.27,4.56,6.83,6.83,0,0,0,4.79,1.72,8.37,8.37,0,0,0,7-3.25l3.82,4.27a11.74,11.74,0,0,1-4.73,3.86A15.55,15.55,0,0,1,1370.09,478.67Zm-.88-23.87a4.87,4.87,0,0,0-3.75,1.56,8.1,8.1,0,0,0-1.84,4.48h10.8v-.62a5.79,5.79,0,0,0-1.4-4A5,5,0,0,0,1369.21,454.8Z"/><path class="cls-7" d="M1394.66,449.08l.24,3.24a10.24,10.24,0,0,1,8.36-3.78q5.61,0,7.7,4.43a10,10,0,0,1,8.73-4.43q4.72,0,7,2.75t2.31,8.29v18.55h-7.79V459.6a5.51,5.51,0,0,0-1-3.61,4.28,4.28,0,0,0-3.41-1.14,4.83,4.83,0,0,0-4.83,3.33l0,19.95h-7.77v-18.5a5.47,5.47,0,0,0-1-3.65,4.33,4.33,0,0,0-3.38-1.13,5,5,0,0,0-4.78,2.74v20.54h-7.77V449.08Z"/><path class="cls-7" d="M1449.31,478.67a14.3,14.3,0,0,1-10.41-3.92q-4-3.92-4-10.45v-.75a17.52,17.52,0,0,1,1.69-7.83,12.51,12.51,0,0,1,4.79-5.32,13.51,13.51,0,0,1,7.08-1.86q6,0,9.39,3.76t3.42,10.66v3.17h-18.5a7.14,7.14,0,0,0,2.27,4.56,6.83,6.83,0,0,0,4.79,1.72,8.37,8.37,0,0,0,7-3.25l3.81,4.27a11.67,11.67,0,0,1-4.73,3.86A15.47,15.47,0,0,1,1449.31,478.67Zm-.89-23.87a4.83,4.83,0,0,0-3.74,1.56,8.1,8.1,0,0,0-1.84,4.48h10.79v-.62a5.79,5.79,0,0,0-1.39-4A5,5,0,0,0,1448.42,454.8Z"/><path class="cls-7" d="M1482.93,456.35a21.65,21.65,0,0,0-2.8-.21c-2.93,0-4.86,1-5.77,3v19h-7.76V449.08h7.33l.22,3.46a7.17,7.17,0,0,1,6.47-4,7.85,7.85,0,0,1,2.41.35Z"/><path class="cls-7" d="M1486.47,463.39q0-6.69,3.18-10.77a10.31,10.31,0,0,1,8.58-4.08,9,9,0,0,1,7.44,3.27l.32-2.73h7v28.09a12.37,12.37,0,0,1-1.74,6.63,11.15,11.15,0,0,1-4.87,4.3,17.2,17.2,0,0,1-7.36,1.47,15.92,15.92,0,0,1-6.23-1.27,11.1,11.1,0,0,1-4.59-3.29l3.44-4.73a9.06,9.06,0,0,0,7,3.25,6.67,6.67,0,0,0,4.81-1.65,6.21,6.21,0,0,0,1.72-4.69v-1.55a9,9,0,0,1-7.06,3,10.29,10.29,0,0,1-8.48-4.1q-3.24-4.1-3.23-10.86Zm7.76.58a10.67,10.67,0,0,0,1.58,6.2,5.06,5.06,0,0,0,4.35,2.24,5.4,5.4,0,0,0,5.08-2.66V457.51a5.38,5.38,0,0,0-5-2.66,5,5,0,0,0-4.39,2.29Q1494.23,459.42,1494.23,464Z"/><path class="cls-7" d="M1533.3,478.67a14.3,14.3,0,0,1-10.41-3.92q-4-3.92-4-10.45v-.75a17.52,17.52,0,0,1,1.69-7.83,12.45,12.45,0,0,1,4.79-5.32,13.51,13.51,0,0,1,7.08-1.86q6,0,9.39,3.76t3.42,10.66v3.17h-18.5a7.17,7.17,0,0,0,2.26,4.56,6.86,6.86,0,0,0,4.8,1.72,8.38,8.38,0,0,0,7-3.25l3.81,4.27a11.67,11.67,0,0,1-4.73,3.86A15.51,15.51,0,0,1,1533.3,478.67Zm-.89-23.87a4.83,4.83,0,0,0-3.74,1.56,8,8,0,0,0-1.84,4.48h10.79v-.62a5.79,5.79,0,0,0-1.39-4A5,5,0,0,0,1532.41,454.8Z"/><path class="cls-7" d="M1557.73,449.08l.24,3.35a10.17,10.17,0,0,1,8.36-3.89c3.07,0,5.37.9,6.87,2.71s2.27,4.51,2.31,8.11v18.77h-7.76V459.55a5,5,0,0,0-1.08-3.59,4.8,4.8,0,0,0-3.57-1.11,5.34,5.34,0,0,0-4.91,2.79v20.49h-7.76V449.08Z"/><path class="cls-7" d="M1594.41,472.41a5.07,5.07,0,0,0,3.49-1.18,4.14,4.14,0,0,0,1.4-3.14h7.28a10,10,0,0,1-1.62,5.41,10.55,10.55,0,0,1-4.33,3.81,13.54,13.54,0,0,1-6.09,1.36q-6.22,0-9.83-4t-3.59-10.94v-.52q0-6.71,3.57-10.71t9.8-4a12.21,12.21,0,0,1,8.74,3.1,11,11,0,0,1,3.35,8.26h-7.28a5.36,5.36,0,0,0-1.4-3.69,5.21,5.21,0,0,0-7.64.56q-1.38,2-1.38,6.42v.8c0,3,.45,5.15,1.37,6.46A4.72,4.72,0,0,0,1594.41,472.41Z"/><path class="cls-7" d="M1622.79,467.15l5.37-18.07h8.33l-11.68,33.56-.65,1.54q-2.61,5.69-8.59,5.69a12.2,12.2,0,0,1-3.44-.51v-5.88l1.18,0a6.35,6.35,0,0,0,3.29-.67,4.44,4.44,0,0,0,1.71-2.23l.91-2.39L1609,449.08h8.35Z"/><path class="cls-7" d="M909.91,563.56a5.9,5.9,0,0,1,1.77-4.48,7.12,7.12,0,0,1,9.2,0,6,6,0,0,1,1.79,4.38v1.15a5.87,5.87,0,0,1-1.76,4.45,6.39,6.39,0,0,1-4.61,1.68,6.47,6.47,0,0,1-4.6-1.67,5.9,5.9,0,0,1-1.79-4.54Z"/><path class="cls-7" d="M988.85,569.82h-6.42v14.31h-8.06V545H988.9q6.93,0,10.69,3.09t3.76,8.73a12,12,0,0,1-1.73,6.67,11.91,11.91,0,0,1-5.25,4.26l8.46,16v.37h-8.65Zm-6.42-6.53h6.5a6.66,6.66,0,0,0,4.7-1.54,5.52,5.52,0,0,0,1.66-4.26,5.91,5.91,0,0,0-1.57-4.35,6.55,6.55,0,0,0-4.82-1.58h-6.47Z"/><path class="cls-7" d="M1027.3,581.18a9.74,9.74,0,0,1-7.95,3.49c-3.12,0-5.49-.9-7.13-2.69s-2.48-4.41-2.51-7.86v-19h7.76v18.79q0,4.54,4.14,4.54c2.63,0,4.43-.91,5.42-2.74V555.08h7.79v29h-7.31Z"/><path class="cls-7" d="M1057.94,562.35a21.65,21.65,0,0,0-2.8-.21c-2.93,0-4.86,1-5.77,3v19h-7.76v-29h7.33l.21,3.46a7.2,7.2,0,0,1,6.48-4,7.85,7.85,0,0,1,2.41.35Z"/><path class="cls-7" d="M1078.64,584.13a8.5,8.5,0,0,1-.78-2.6,9.41,9.41,0,0,1-7.33,3.14,10.3,10.3,0,0,1-7.08-2.47,8,8,0,0,1-2.81-6.23,8.23,8.23,0,0,1,3.43-7.09q3.42-2.48,9.89-2.5h3.58v-1.66a4.8,4.8,0,0,0-1-3.23,4.09,4.09,0,0,0-3.26-1.2,4.63,4.63,0,0,0-3.08.94,3.18,3.18,0,0,0-1.11,2.57h-7.76a7.78,7.78,0,0,1,1.56-4.67,10.2,10.2,0,0,1,4.4-3.37,16.14,16.14,0,0,1,6.39-1.22q5.37,0,8.53,2.7a9.45,9.45,0,0,1,3.15,7.58v12.6a14,14,0,0,0,1.16,6.26v.45Zm-6.42-5.4a6.71,6.71,0,0,0,3.17-.76,5.14,5.14,0,0,0,2.15-2.05v-5h-2.9q-5.84,0-6.21,4l0,.45a3.09,3.09,0,0,0,1,2.39A4,4,0,0,0,1072.22,578.73Z"/><path class="cls-7" d="M1100.41,584.13h-7.79V542.88h7.79Z"/><path class="cls-7" d="M1107.68,547.56a3.82,3.82,0,0,1,1.17-2.88,5,5,0,0,1,6.35,0,4.09,4.09,0,0,1,0,5.78,5,5,0,0,1-6.31,0A3.82,3.82,0,0,1,1107.68,547.56Zm8.25,36.57h-7.79v-29h7.79Z"/><path class="cls-7" d="M1132.55,547.93v7.15h5v5.69h-5v14.5a3.49,3.49,0,0,0,.61,2.31,3.1,3.1,0,0,0,2.37.7,11.92,11.92,0,0,0,2.28-.19V584a15.83,15.83,0,0,1-4.7.7q-8.16,0-8.32-8.24V560.77h-4.25v-5.69h4.25v-7.15Z"/><path class="cls-7" d="M1153.62,573.15l5.37-18.07h8.33l-11.68,33.56-.65,1.54q-2.6,5.69-8.59,5.69a12.26,12.26,0,0,1-3.44-.51v-5.88l1.18,0a6.35,6.35,0,0,0,3.29-.67,4.39,4.39,0,0,0,1.71-2.23l.91-2.39-10.18-29.13h8.36Z"/><path class="cls-7" d="M909.91,669.56a5.9,5.9,0,0,1,1.77-4.48,7.12,7.12,0,0,1,9.2,0,6,6,0,0,1,1.79,4.38v1.15a5.87,5.87,0,0,1-1.76,4.45,6.39,6.39,0,0,1-4.61,1.68,6.47,6.47,0,0,1-4.6-1.67,5.9,5.9,0,0,1-1.79-4.54Z"/><path class="cls-7" d="M1002.19,657.56h-12v32.57h-8.06V657.56H970.34V651h31.85Z"/><path class="cls-7" d="M1020.58,690.67a14.26,14.26,0,0,1-10.4-3.92q-4-3.91-4-10.45v-.75a17.53,17.53,0,0,1,1.7-7.83,12.39,12.39,0,0,1,4.79-5.32,13.51,13.51,0,0,1,7.08-1.86q6,0,9.38,3.76t3.43,10.66v3.17H1014a7.18,7.18,0,0,0,2.27,4.56,6.83,6.83,0,0,0,4.79,1.72,8.37,8.37,0,0,0,7-3.25l3.82,4.27a11.74,11.74,0,0,1-4.73,3.86A15.55,15.55,0,0,1,1020.58,690.67Zm-.88-23.87a4.87,4.87,0,0,0-3.75,1.56,8.1,8.1,0,0,0-1.84,4.48h10.8v-.62a5.79,5.79,0,0,0-1.4-4A5,5,0,0,0,1019.7,666.8Z"/><path class="cls-7" d="M1050,684.41a5.07,5.07,0,0,0,3.49-1.18,4.14,4.14,0,0,0,1.4-3.14h7.27a9.86,9.86,0,0,1-1.61,5.41,10.55,10.55,0,0,1-4.33,3.81,13.54,13.54,0,0,1-6.09,1.36q-6.22,0-9.83-4t-3.59-10.94v-.52q0-6.71,3.57-10.71t9.8-4a12.21,12.21,0,0,1,8.74,3.1,11,11,0,0,1,3.34,8.26h-7.27a5.36,5.36,0,0,0-1.4-3.69,5.21,5.21,0,0,0-7.64.56q-1.38,2-1.38,6.42v.8c0,3,.45,5.15,1.37,6.46A4.72,4.72,0,0,0,1050,684.41Z"/><path class="cls-7" d="M1075.07,664.24a9.66,9.66,0,0,1,7.76-3.7q9.45,0,9.58,11v18.61h-7.76V671.74a5.45,5.45,0,0,0-1.07-3.7,4.64,4.64,0,0,0-3.57-1.19,5.27,5.27,0,0,0-4.94,2.63v20.65h-7.77V648.88h7.77Z"/><path class="cls-7" d="M1106.35,661.08l.24,3.35a10.15,10.15,0,0,1,8.35-3.89q4.62,0,6.88,2.71t2.3,8.11v18.77h-7.76V671.55a5.08,5.08,0,0,0-1.07-3.59,4.83,4.83,0,0,0-3.57-1.11,5.34,5.34,0,0,0-4.92,2.79v20.49H1099v-29Z"/><path class="cls-7" d="M1129.73,675.34a17.21,17.21,0,0,1,1.67-7.71,12.17,12.17,0,0,1,4.79-5.24,14,14,0,0,1,7.26-1.85,13.25,13.25,0,0,1,9.61,3.6,14.39,14.39,0,0,1,4.14,9.77l.06,2q0,6.69-3.73,10.73a14.47,14.47,0,0,1-20,0q-3.75-4-3.75-11Zm7.76.55a10.83,10.83,0,0,0,1.56,6.33,5.6,5.6,0,0,0,8.86,0c1.06-1.45,1.59-3.75,1.59-6.93a10.71,10.71,0,0,0-1.59-6.29,5.53,5.53,0,0,0-8.86,0Q1137.49,671.23,1137.49,675.89Z"/><path class="cls-7" d="M1171.16,690.13h-7.78V648.88h7.78Z"/><path class="cls-7" d="M1177.28,675.34a17.21,17.21,0,0,1,1.67-7.71,12.23,12.23,0,0,1,4.79-5.24,14.06,14.06,0,0,1,7.27-1.85,13.23,13.23,0,0,1,9.6,3.6,14.44,14.44,0,0,1,4.15,9.77l0,2q0,6.69-3.73,10.73a14.47,14.47,0,0,1-20,0q-3.75-4-3.75-11Zm7.76.55a10.83,10.83,0,0,0,1.56,6.33,5.6,5.6,0,0,0,8.86,0c1.06-1.45,1.59-3.75,1.59-6.93a10.71,10.71,0,0,0-1.59-6.29,5.53,5.53,0,0,0-8.86,0Q1185,671.23,1185,675.89Z"/><path class="cls-7" d="M1209.4,675.39q0-6.69,3.18-10.77a10.31,10.31,0,0,1,8.58-4.08,9,9,0,0,1,7.44,3.27l.32-2.73h7v28.09a12.37,12.37,0,0,1-1.74,6.63,11.1,11.1,0,0,1-4.87,4.3,17.2,17.2,0,0,1-7.36,1.47,16,16,0,0,1-6.23-1.27,11.1,11.1,0,0,1-4.59-3.29l3.44-4.73a9.07,9.07,0,0,0,7,3.25,6.67,6.67,0,0,0,4.81-1.65,6.18,6.18,0,0,0,1.72-4.69v-1.55a9,9,0,0,1-7.06,3,10.29,10.29,0,0,1-8.48-4.1q-3.23-4.1-3.23-10.86Zm7.76.58a10.67,10.67,0,0,0,1.58,6.2,5.06,5.06,0,0,0,4.35,2.24,5.4,5.4,0,0,0,5.08-2.66V669.51a5.38,5.38,0,0,0-5-2.66,5.06,5.06,0,0,0-4.39,2.29Q1217.16,671.42,1217.16,676Z"/><path class="cls-7" d="M1242.8,653.56a3.82,3.82,0,0,1,1.17-2.88,5,5,0,0,1,6.35,0,3.79,3.79,0,0,1,1.18,2.88,3.84,3.84,0,0,1-1.19,2.9,5,5,0,0,1-6.31,0A3.82,3.82,0,0,1,1242.8,653.56Zm8.24,36.57h-7.78v-29H1251Z"/><path class="cls-7" d="M1270.46,684.41a5.09,5.09,0,0,0,3.49-1.18,4.13,4.13,0,0,0,1.39-3.14h7.28a9.94,9.94,0,0,1-1.61,5.41,10.58,10.58,0,0,1-4.34,3.81,13.47,13.47,0,0,1-6.08,1.36q-6.22,0-9.83-4t-3.6-10.94v-.52q0-6.71,3.57-10.71c2.39-2.67,5.65-4,9.81-4a12.23,12.23,0,0,1,8.74,3.1,11,11,0,0,1,3.34,8.26h-7.28a5.35,5.35,0,0,0-1.39-3.69,5.21,5.21,0,0,0-7.64.56q-1.39,2-1.39,6.42v.8q0,4.5,1.37,6.46A4.74,4.74,0,0,0,1270.46,684.41Z"/><path class="cls-7" d="M1304.83,690.13a8.5,8.5,0,0,1-.78-2.6,9.41,9.41,0,0,1-7.33,3.14,10.3,10.3,0,0,1-7.08-2.47,8,8,0,0,1-2.81-6.23,8.2,8.2,0,0,1,3.43-7.09q3.42-2.48,9.89-2.5h3.58v-1.66a4.8,4.8,0,0,0-1-3.23,4.09,4.09,0,0,0-3.26-1.2,4.63,4.63,0,0,0-3.08.94,3.18,3.18,0,0,0-1.11,2.57h-7.76a7.78,7.78,0,0,1,1.56-4.67,10.2,10.2,0,0,1,4.4-3.37,16.14,16.14,0,0,1,6.39-1.22q5.37,0,8.53,2.7a9.45,9.45,0,0,1,3.15,7.58v12.6a14,14,0,0,0,1.16,6.26v.45Zm-6.42-5.4a6.71,6.71,0,0,0,3.17-.76,5.14,5.14,0,0,0,2.15-2.05v-5h-2.9q-5.83,0-6.21,4l0,.45a3.09,3.09,0,0,0,1,2.39A4,4,0,0,0,1298.41,684.73Z"/><path class="cls-7" d="M1326.6,690.13h-7.79V648.88h7.79Z"/><path class="cls-7" d="M1365.4,690.13a8.5,8.5,0,0,1-.78-2.6,9.41,9.41,0,0,1-7.33,3.14,10.3,10.3,0,0,1-7.08-2.47,8,8,0,0,1-2.81-6.23,8.23,8.23,0,0,1,3.43-7.09q3.42-2.48,9.89-2.5h3.58v-1.66a4.8,4.8,0,0,0-1-3.23,4.07,4.07,0,0,0-3.26-1.2,4.63,4.63,0,0,0-3.08.94,3.18,3.18,0,0,0-1.11,2.57h-7.76a7.78,7.78,0,0,1,1.56-4.67,10.2,10.2,0,0,1,4.4-3.37,16.14,16.14,0,0,1,6.39-1.22c3.58,0,6.43.9,8.53,2.7a9.45,9.45,0,0,1,3.15,7.58v12.6a14,14,0,0,0,1.16,6.26v.45Zm-6.42-5.4a6.71,6.71,0,0,0,3.17-.76,5.08,5.08,0,0,0,2.15-2.05v-5h-2.9q-5.84,0-6.21,4l0,.45a3.09,3.09,0,0,0,1,2.39A3.94,3.94,0,0,0,1359,684.73Z"/><path class="cls-7" d="M1377.77,675.39q0-6.79,3-10.82a9.88,9.88,0,0,1,8.34-4,8.89,8.89,0,0,1,7,3.17V648.88H1404v41.25h-7l-.38-3.09a9.12,9.12,0,0,1-7.46,3.63,9.89,9.89,0,0,1-8.24-4Q1377.78,682.58,1377.77,675.39Zm7.76.58a11.44,11.44,0,0,0,1.43,6.26,4.61,4.61,0,0,0,4.13,2.18,5.2,5.2,0,0,0,5.08-3V669.89a5.12,5.12,0,0,0-5-3Q1385.53,666.85,1385.53,676Z"/><path class="cls-7" d="M1421.78,680.65l5.4-19.57h8.11l-9.8,29h-7.41l-9.8-29h8.11Z"/><path class="cls-7" d="M1456.07,690.13a8.8,8.8,0,0,1-.77-2.6,9.43,9.43,0,0,1-7.34,3.14,10.3,10.3,0,0,1-7.07-2.47,8,8,0,0,1-2.81-6.23,8.22,8.22,0,0,1,3.42-7.09q3.43-2.48,9.9-2.5H1455v-1.66a4.8,4.8,0,0,0-1-3.23,4.09,4.09,0,0,0-3.26-1.2,4.61,4.61,0,0,0-3.08.94,3.18,3.18,0,0,0-1.11,2.57h-7.76a7.84,7.84,0,0,1,1.55-4.67,10.29,10.29,0,0,1,4.41-3.37,16.11,16.11,0,0,1,6.39-1.22q5.37,0,8.53,2.7a9.45,9.45,0,0,1,3.15,7.58v12.6a13.82,13.82,0,0,0,1.16,6.26v.45Zm-6.41-5.4a6.71,6.71,0,0,0,3.17-.76,5.06,5.06,0,0,0,2.14-2.05v-5h-2.9q-5.82,0-6.2,4l0,.45a3.09,3.09,0,0,0,1,2.39A4,4,0,0,0,1449.66,684.73Z"/><path class="cls-7" d="M1476.8,661.08l.24,3.35a10.17,10.17,0,0,1,8.36-3.89c3.07,0,5.37.9,6.87,2.71s2.27,4.51,2.31,8.11v18.77h-7.76V671.55a5,5,0,0,0-1.08-3.59,4.8,4.8,0,0,0-3.57-1.11,5.34,5.34,0,0,0-4.91,2.79v20.49h-7.76v-29Z"/><path class="cls-7" d="M1513.48,684.41a5.07,5.07,0,0,0,3.49-1.18,4.14,4.14,0,0,0,1.4-3.14h7.28a10,10,0,0,1-1.61,5.41,10.65,10.65,0,0,1-4.34,3.81,13.5,13.5,0,0,1-6.08,1.36q-6.24,0-9.83-4t-3.6-10.94v-.52q0-6.71,3.57-10.71t9.8-4a12.19,12.19,0,0,1,8.74,3.1,11,11,0,0,1,3.35,8.26h-7.28a5.36,5.36,0,0,0-1.4-3.69,5.21,5.21,0,0,0-7.64.56q-1.38,2-1.38,6.42v.8q0,4.5,1.37,6.46A4.72,4.72,0,0,0,1513.48,684.41Z"/><path class="cls-7" d="M1544.39,690.67a14.3,14.3,0,0,1-10.41-3.92q-4-3.91-4-10.45v-.75a17.52,17.52,0,0,1,1.69-7.83,12.45,12.45,0,0,1,4.79-5.32,13.51,13.51,0,0,1,7.08-1.86q6,0,9.38,3.76t3.43,10.66v3.17h-18.5a7.17,7.17,0,0,0,2.26,4.56,6.86,6.86,0,0,0,4.8,1.72,8.38,8.38,0,0,0,7-3.25l3.81,4.27a11.67,11.67,0,0,1-4.73,3.86A15.51,15.51,0,0,1,1544.39,690.67Zm-.89-23.87a4.83,4.83,0,0,0-3.74,1.56,8,8,0,0,0-1.84,4.48h10.79v-.62a5.79,5.79,0,0,0-1.39-4A5,5,0,0,0,1543.5,666.8Z"/><path class="cls-7" d="M909.91,775.56a5.91,5.91,0,0,1,1.77-4.48,7.12,7.12,0,0,1,9.2,0,6,6,0,0,1,1.79,4.38v1.15a5.87,5.87,0,0,1-1.76,4.45,6.39,6.39,0,0,1-4.61,1.68,6.47,6.47,0,0,1-4.6-1.67,5.9,5.9,0,0,1-1.79-4.54Z"/><path class="cls-7" d="M974.37,796.13V757h12a18.36,18.36,0,0,1,9.23,2.32A16.25,16.25,0,0,1,1002,766a20.41,20.41,0,0,1,2.28,9.74v1.8a20.49,20.49,0,0,1-2.24,9.69,16.1,16.1,0,0,1-6.32,6.58,18.36,18.36,0,0,1-9.22,2.36Zm8.06-32.57v26.1h3.89a8.77,8.77,0,0,0,7.23-3.09q2.49-3.09,2.55-8.83v-2.07c0-4-.83-7-2.47-9s-4.06-3.07-7.23-3.07Z"/><path class="cls-7" d="M1010.49,759.56a3.82,3.82,0,0,1,1.17-2.88,5,5,0,0,1,6.35,0,4.1,4.1,0,0,1,0,5.78,5,5,0,0,1-6.31,0A3.84,3.84,0,0,1,1010.49,759.56Zm8.24,36.57h-7.79v-29h7.79Z"/><path class="cls-7" d="M1024.93,781.39q0-6.69,3.18-10.77a10.31,10.31,0,0,1,8.58-4.08,9,9,0,0,1,7.44,3.27l.32-2.73h7v28.09a12.46,12.46,0,0,1-1.73,6.63,11.18,11.18,0,0,1-4.88,4.3,17.15,17.15,0,0,1-7.35,1.47,16,16,0,0,1-6.24-1.27,11.1,11.1,0,0,1-4.59-3.29l3.44-4.73a9.08,9.08,0,0,0,7,3.25,6.63,6.63,0,0,0,4.8-1.65,6.18,6.18,0,0,0,1.72-4.69v-1.56a9,9,0,0,1-7.06,3,10.28,10.28,0,0,1-8.47-4.1q-3.24-4.1-3.24-10.86Zm7.76.58a10.6,10.6,0,0,0,1.59,6.2,5,5,0,0,0,4.35,2.24,5.37,5.37,0,0,0,5.07-2.66V775.51a5.38,5.38,0,0,0-5-2.66,5.06,5.06,0,0,0-4.39,2.29Q1032.69,777.42,1032.69,782Z"/><path class="cls-7" d="M1058.33,759.56a3.82,3.82,0,0,1,1.17-2.88,5,5,0,0,1,6.35,0,4.09,4.09,0,0,1,0,5.78,5,5,0,0,1-6.31,0A3.82,3.82,0,0,1,1058.33,759.56Zm8.25,36.57h-7.79v-29h7.79Z"/><path class="cls-7" d="M1083.2,759.93v7.15h5v5.69h-5v14.5a3.49,3.49,0,0,0,.61,2.31,3.1,3.1,0,0,0,2.37.7,11.92,11.92,0,0,0,2.28-.19V796a15.83,15.83,0,0,1-4.7.7q-8.16,0-8.32-8.24V772.77h-4.25v-5.69h4.25v-7.15Z"/><path class="cls-7" d="M1110.26,796.13a8.5,8.5,0,0,1-.78-2.6,9.4,9.4,0,0,1-7.33,3.14,10.3,10.3,0,0,1-7.07-2.47,7.92,7.92,0,0,1-2.81-6.23,8.22,8.22,0,0,1,3.42-7.09q3.43-2.48,9.9-2.5h3.57v-1.66a4.8,4.8,0,0,0-1-3.23,4.09,4.09,0,0,0-3.26-1.2,4.66,4.66,0,0,0-3.08.93,3.21,3.21,0,0,0-1.11,2.58h-7.77a7.78,7.78,0,0,1,1.56-4.67,10.37,10.37,0,0,1,4.41-3.37,16.07,16.07,0,0,1,6.39-1.22q5.37,0,8.52,2.7a9.42,9.42,0,0,1,3.16,7.58v12.6a14,14,0,0,0,1.15,6.26v.45Zm-6.42-5.4A6.66,6.66,0,0,0,1107,790a5,5,0,0,0,2.15-2.05v-5h-2.9q-5.82,0-6.2,4l0,.45a3.09,3.09,0,0,0,1,2.39A3.94,3.94,0,0,0,1103.84,790.73Z"/><path class="cls-7" d="M1132,796.13h-7.79V754.88H1132Z"/><path class="cls-7" d="M1139.31,759.56a3.82,3.82,0,0,1,1.17-2.88,5,5,0,0,1,6.35,0,3.79,3.79,0,0,1,1.18,2.88,3.84,3.84,0,0,1-1.19,2.9,5,5,0,0,1-6.31,0A3.82,3.82,0,0,1,1139.31,759.56Zm8.25,36.57h-7.79v-29h7.79Z"/><path class="cls-7" d="M1170.62,788.1a2.5,2.5,0,0,0-1.41-2.24,15.92,15.92,0,0,0-4.53-1.46q-10.37-2.17-10.36-8.81a8,8,0,0,1,3.21-6.46,12.92,12.92,0,0,1,8.39-2.59,14,14,0,0,1,8.85,2.6,8.22,8.22,0,0,1,3.31,6.77h-7.76a3.76,3.76,0,0,0-1.07-2.75,4.54,4.54,0,0,0-3.36-1.09,4.62,4.62,0,0,0-3,.89,2.78,2.78,0,0,0-1.08,2.25,2.39,2.39,0,0,0,1.22,2.08,12.46,12.46,0,0,0,4.13,1.37A33.74,33.74,0,0,1,1172,780q6.15,2.25,6.14,7.81a7.56,7.56,0,0,1-3.41,6.43,14.68,14.68,0,0,1-8.8,2.46,15.35,15.35,0,0,1-6.49-1.3,10.86,10.86,0,0,1-4.44-3.57,8.3,8.3,0,0,1-1.62-4.91h7.36a4,4,0,0,0,1.53,3.17,6,6,0,0,0,3.82,1.1,5.66,5.66,0,0,0,3.37-.84A2.64,2.64,0,0,0,1170.62,788.1Z"/><path class="cls-7" d="M1200.93,796.13a8.8,8.8,0,0,1-.77-2.6,9.42,9.42,0,0,1-7.34,3.14,10.3,10.3,0,0,1-7.07-2.47,8,8,0,0,1-2.81-6.23,8.2,8.2,0,0,1,3.43-7.09q3.42-2.48,9.89-2.5h3.57v-1.66a4.8,4.8,0,0,0-1-3.23,4.09,4.09,0,0,0-3.26-1.2,4.66,4.66,0,0,0-3.08.93,3.21,3.21,0,0,0-1.11,2.58h-7.76a7.84,7.84,0,0,1,1.55-4.67,10.37,10.37,0,0,1,4.41-3.37,16.14,16.14,0,0,1,6.39-1.22q5.37,0,8.53,2.7a9.45,9.45,0,0,1,3.15,7.58v12.6a13.82,13.82,0,0,0,1.16,6.26v.45Zm-6.41-5.4a6.71,6.71,0,0,0,3.17-.76,5.06,5.06,0,0,0,2.14-2.05v-5h-2.9q-5.82,0-6.2,4l0,.45a3.09,3.09,0,0,0,1,2.39A4,4,0,0,0,1194.52,790.73Z"/><path class="cls-7" d="M1223.81,759.93v7.15h5v5.69h-5v14.5a3.49,3.49,0,0,0,.62,2.31,3.08,3.08,0,0,0,2.36.7,11.92,11.92,0,0,0,2.28-.19V796a15.78,15.78,0,0,1-4.7.7q-8.16,0-8.32-8.24V772.77h-4.24v-5.69h4.24v-7.15Z"/><path class="cls-7" d="M1234,759.56a3.82,3.82,0,0,1,1.17-2.88,5,5,0,0,1,6.35,0,4.09,4.09,0,0,1,0,5.78,5,5,0,0,1-6.31,0A3.82,3.82,0,0,1,1234,759.56Zm8.25,36.57h-7.79v-29h7.79Z"/><path class="cls-7" d="M1248.35,781.34a17.2,17.2,0,0,1,1.66-7.71,12.19,12.19,0,0,1,4.8-5.24,14,14,0,0,1,7.26-1.85,13.23,13.23,0,0,1,9.6,3.6,14.44,14.44,0,0,1,4.15,9.77l0,2q0,6.69-3.73,10.73a14.47,14.47,0,0,1-20.05,0q-3.73-4-3.74-11Zm7.76.55a10.83,10.83,0,0,0,1.56,6.33,5.6,5.6,0,0,0,8.86,0c1-1.45,1.58-3.75,1.58-6.93a10.79,10.79,0,0,0-1.58-6.29,5.16,5.16,0,0,0-4.46-2.24,5.07,5.07,0,0,0-4.4,2.22Q1256.11,777.23,1256.11,781.89Z"/><path class="cls-7" d="M1288.73,767.08l.24,3.35a10.17,10.17,0,0,1,8.36-3.89q4.62,0,6.87,2.71t2.31,8.11v18.77h-7.76V777.55a5,5,0,0,0-1.08-3.59,4.8,4.8,0,0,0-3.57-1.11,5.34,5.34,0,0,0-4.91,2.79v20.49h-7.76v-29Z"/><path class="cls-7" d="M909.91,881.56a5.91,5.91,0,0,1,1.77-4.48,7.12,7.12,0,0,1,9.2,0,6,6,0,0,1,1.79,4.38v1.15a5.87,5.87,0,0,1-1.76,4.45,6.39,6.39,0,0,1-4.61,1.68,6.47,6.47,0,0,1-4.6-1.67,5.9,5.9,0,0,1-1.79-4.54Z"/><path class="cls-7" d="M1006.44,883.47a23.44,23.44,0,0,1-1.78,9.52,16.38,16.38,0,0,1-4.91,6.48l6.5,5.11-5.13,4.54-8.33-6.69a17.62,17.62,0,0,1-2.95.24,16.23,16.23,0,0,1-8.67-2.34,15.39,15.39,0,0,1-5.91-6.67,22.78,22.78,0,0,1-2.12-10v-1.93a23.47,23.47,0,0,1,2.08-10.17,15.59,15.59,0,0,1,5.88-6.74,17.22,17.22,0,0,1,17.37,0,15.55,15.55,0,0,1,5.89,6.74,23.55,23.55,0,0,1,2.08,10.14Zm-8.17-1.77q0-6.15-2.2-9.35a7.77,7.77,0,0,0-12.54,0c-1.47,2.1-2.21,5.19-2.23,9.25v1.91q0,6,2.2,9.29a7.72,7.72,0,0,0,12.57.12q2.17-3.18,2.2-9.28Z"/><path class="cls-7" d="M1030.17,899.18a9.71,9.71,0,0,1-8,3.49q-4.66,0-7.13-2.69c-1.64-1.79-2.47-4.41-2.51-7.86v-19h7.76v18.79q0,4.54,4.14,4.54,3.94,0,5.42-2.74V873.08h7.79v29h-7.3Z"/><path class="cls-7" d="M1061.32,902.13a8.5,8.5,0,0,1-.78-2.6,9.4,9.4,0,0,1-7.33,3.14,10.3,10.3,0,0,1-7.08-2.47,7.94,7.94,0,0,1-2.8-6.23,8.22,8.22,0,0,1,3.42-7.09q3.42-2.48,9.9-2.5h3.57v-1.66a4.8,4.8,0,0,0-1-3.23,4.06,4.06,0,0,0-3.26-1.2,4.63,4.63,0,0,0-3.07.93,3.19,3.19,0,0,0-1.12,2.58H1044a7.78,7.78,0,0,1,1.56-4.67,10.4,10.4,0,0,1,4.4-3.37,16.14,16.14,0,0,1,6.39-1.22q5.39,0,8.53,2.7a9.45,9.45,0,0,1,3.16,7.58v12.6a13.84,13.84,0,0,0,1.15,6.26v.45Zm-6.42-5.4a6.68,6.68,0,0,0,3.17-.76,5.08,5.08,0,0,0,2.15-2.05v-5h-2.9c-3.89,0-6,1.34-6.21,4l0,.45a3.09,3.09,0,0,0,1,2.39A3.94,3.94,0,0,0,1054.9,896.73Z"/><path class="cls-7" d="M1083.09,902.13h-7.78V860.88h7.78Z"/><path class="cls-7" d="M1090.37,865.56a3.82,3.82,0,0,1,1.17-2.88,5,5,0,0,1,6.35,0,4.1,4.1,0,0,1,0,5.78,5,5,0,0,1-6.31,0A3.84,3.84,0,0,1,1090.37,865.56Zm8.24,36.57h-7.79v-29h7.79Z"/><path class="cls-7" d="M1115.23,865.93v7.15h5v5.69h-5v14.5a3.49,3.49,0,0,0,.62,2.31,3.08,3.08,0,0,0,2.36.7,11.92,11.92,0,0,0,2.28-.19V902a15.78,15.78,0,0,1-4.7.7q-8.16,0-8.32-8.24V878.77h-4.24v-5.69h4.24v-7.15Z"/><path class="cls-7" d="M1136.31,891.15l5.37-18.07H1150l-11.68,33.56-.64,1.54q-2.61,5.69-8.6,5.69a12.26,12.26,0,0,1-3.44-.51v-5.88l1.19,0a6.39,6.39,0,0,0,3.29-.67,4.43,4.43,0,0,0,1.7-2.23l.91-2.39-10.17-29.13h8.35Z"/><path class="cls-7" d="M1167.42,887.34a17.21,17.21,0,0,1,1.67-7.71,12.17,12.17,0,0,1,4.79-5.24,14.06,14.06,0,0,1,7.27-1.85,13.23,13.23,0,0,1,9.6,3.6,14.44,14.44,0,0,1,4.15,9.77l0,2q0,6.69-3.73,10.73a14.47,14.47,0,0,1-20,0q-3.75-4-3.75-11Zm7.76.55a10.83,10.83,0,0,0,1.56,6.33,5.6,5.6,0,0,0,8.86,0c1.06-1.45,1.59-3.75,1.59-6.93a10.71,10.71,0,0,0-1.59-6.29,5.52,5.52,0,0,0-8.86,0Q1175.18,883.23,1175.18,887.89Z"/><path class="cls-7" d="M1202.79,902.13V878.77h-4.33v-5.69h4.33V870.6q0-4.87,2.8-7.58t7.86-2.7a18.12,18.12,0,0,1,4,.54l-.09,6a9.91,9.91,0,0,0-2.36-.24q-4.38,0-4.38,4.11v2.34h5.78v5.69h-5.78v23.36Z"/><path class="cls-7" d="M1261.21,891.58l3.82-18.5h7.49l-7.41,29h-6.5l-5.51-18.29-5.5,18.29h-6.47l-7.42-29h7.5l3.78,18.47,5.32-18.47h5.61Z"/><path class="cls-7" d="M1276.09,887.34a17.2,17.2,0,0,1,1.66-7.71,12.19,12.19,0,0,1,4.8-5.24,14,14,0,0,1,7.26-1.85,13.23,13.23,0,0,1,9.6,3.6,14.44,14.44,0,0,1,4.15,9.77l0,2q0,6.69-3.73,10.73a14.47,14.47,0,0,1-20.05,0q-3.74-4-3.74-11Zm7.76.55a10.83,10.83,0,0,0,1.56,6.33,5.6,5.6,0,0,0,8.86,0c1-1.45,1.58-3.75,1.58-6.93a10.79,10.79,0,0,0-1.58-6.29,5.16,5.16,0,0,0-4.46-2.24,5.07,5.07,0,0,0-4.4,2.22Q1283.85,883.23,1283.85,887.89Z"/><path class="cls-7" d="M1325.66,880.35a21.65,21.65,0,0,0-2.8-.21c-2.93,0-4.86,1-5.77,3v19h-7.76v-29h7.33l.21,3.46a7.2,7.2,0,0,1,6.48-4,7.85,7.85,0,0,1,2.41.35Z"/><path class="cls-7" d="M1340.88,890.48l-2.79,2.79v8.86h-7.76V860.88h7.76v22.86l1.5-1.94,7.44-8.72h9.32l-10.5,12.11,11.41,16.94h-8.91Z"/></svg>