<?xml version="1.0" encoding="utf-8"?>
<!-- Generator: Adobe Illustrator 23.0.1, SVG Export Plug-In . SVG Version: 6.00 Build 0)  -->
<svg version="1.1" id="Layer_1" xmlns="http://www.w3.org/2000/svg" xmlns:xlink="http://www.w3.org/1999/xlink" x="0px" y="0px"
	 viewBox="0 0 840 533" style="enable-background:new 0 0 840 533;" xml:space="preserve">
<style type="text/css">
	.st0{clip-path:url(#SVGID_3_);}
	.st1{clip-path:url(#SVGID_4_);fill:url(#SVGID_5_);}
	.st2{opacity:0.16;fill:url(#SVGID_6_);enable-background:new    ;}
	.st3{fill:#FAD1A0;}
	.st4{fill:#E6A35F;}
	.st5{fill:#676767;}
	.st6{fill:#4D5194;}
	.st7{fill:#FFFFFF;}
	.st8{fill:#9A9999;}
	.st9{fill:#F2F2F2;}
	.st10{fill:#343434;}
	.st11{fill:#D67A10;}
	.st12{fill:#45529F;}
	.st13{fill:#F1A85A;}
	.st14{fill:#313256;}
	.st15{fill:#EAB16C;}
	.st16{opacity:0.1;fill:#603914;enable-background:new    ;}
	.st17{fill:#754D24;}
	.st18{fill:#603914;}
	.st19{opacity:0.23;fill:#603914;enable-background:new    ;}
	.st20{fill:#CDE9F2;}
	.st21{fill:#808181;}
	.st22{fill:#DDF1FA;}
	.st23{fill:#A61966;}
	.st24{fill:#919191;}
	.st25{fill:#3D3E3E;}
	.st26{fill:#242431;}
	.st27{fill:#FBC57B;}
	.st28{fill:#FABC71;}
	.st29{opacity:0.1;fill:#412413;enable-background:new    ;}
	.st30{fill:#F6F5F8;}
	.st31{fill:#FFF8D4;}
	.st32{fill:#453344;}
	.st33{opacity:0.23;fill:#F9B03D;enable-background:new    ;}
	.st34{fill:#4C4A4C;}
	.st35{fill:#282728;}
	.st36{fill:#E7E9F7;}
	.st37{fill:#3F3F3F;}
	.st38{fill:#353435;}
	.st39{fill:#3C3C3C;}
	.st40{fill:#F7C288;}
	.st41{fill:#FDD49E;}
	.st42{opacity:0.2;fill:#F9B03D;enable-background:new    ;}
	.st43{fill:#E7E6E6;}
	.st44{fill:#8C633A;}
	.st45{fill:#F9FAFD;}
	.st46{fill:#CDCCCC;}
	.st47{fill:#A67D52;}
</style>
<g>
	<g>
		<defs>
			<polygon id="SVGID_1_" points="1,1 2,1 1,2 			"/>
		</defs>
		<defs>
			<polygon id="SVGID_2_" points="-1,-1 -2,-1 -1,-2 			"/>
		</defs>
		<clipPath id="SVGID_3_">
			<use xlink:href="#SVGID_1_"  style="overflow:visible;"/>
		</clipPath>
		<clipPath id="SVGID_4_" class="st0">
			<use xlink:href="#SVGID_2_"  style="overflow:visible;"/>
		</clipPath>
		
			<linearGradient id="SVGID_5_" gradientUnits="userSpaceOnUse" x1="489.25" y1="480.2452" x2="489.25" y2="-129.1892" gradientTransform="matrix(1 0 0 -1 0 534)">
			<stop  offset="0" style="stop-color:#FFFFFF"/>
			<stop  offset="1" style="stop-color:#000000"/>
		</linearGradient>
		<polygon class="st1" points="840.1,129.4 674.3,24.3 670.1,120.2 549.7,56.2 540,168.2 441.8,108.9 439,184.3 275.7,76.8 
			272.3,138.9 171,40.9 138.4,533 840.1,533 		"/>
	</g>
</g>
<linearGradient id="SVGID_6_" gradientUnits="userSpaceOnUse" x1="489.25" y1="480.2452" x2="489.25" y2="-129.1892" gradientTransform="matrix(1 0 0 -1 0 534)">
	<stop  offset="0" style="stop-color:#020203"/>
	<stop  offset="1" style="stop-color:#000000"/>
</linearGradient>
<polygon class="st2" points="840.1,129.4 674.3,24.3 670.1,120.2 549.7,56.2 540,168.2 441.8,108.9 439,184.3 275.7,76.8 
	272.3,138.9 171,40.9 138.4,533 840.1,533 "/>
<polygon class="st3" points="511.6,144.9 516.7,211.6 549.7,231.3 554,201.7 558.1,148.3 "/>
<path class="st4" d="M517.1,169.6c0,0,10.7,15.4,17.9,18.6c7.3,3.2,19.8,3.2,19.8,3.2l2.3-29.3L517.1,169.6z"/>
<path class="st3" d="M501.8,114.9c0,0-11.7-0.7-12,2.7c-0.3,3.4,3.2,20,7.6,21.9c4.4,1.8,5.8,2,5.8,2L501.8,114.9z"/>
<path class="st3" d="M565.6,114.7c0,0,10.4-1.7,10.8,3.5c0.3,5.2-0.6,18-4.3,20.8s-8.9,2-8.9,2L565.6,114.7z"/>
<path class="st3" d="M566.3,130.5L566.3,130.5c-0.6,9-2.3,20.8-2.8,23.7c-0.9,5.7-15.6,18.8-19.1,21.8s-10,2.5-16,2
	s-21.6-18.4-23-21.3c-0.8-1.5-3.6-13.2-4.2-22.9l0,0c-0.6-8.5-0.9-18.3-0.8-26.7c0.3-17.9,31.3-24.4,35.9-25.7
	c22.2-6.3,30.2,15.9,30.6,25.9C567.3,112.3,566.9,121.7,566.3,130.5z"/>
<path class="st5" d="M578.9,86.6C578.9,86.6,578.9,86.6,578.9,86.6c-4.9,7.7-4.5,12.8-4.8,29c-2.3,0-3.2,4.2-4.1,6.4
	c-1.6,3.8-3.8,9.1-3.8,9.1s0.9-16.5,0.9-18.6c0-2.2-5.2-8.7-5.6-12c-0.4-3.3-2.6-11.3-13.5-13c-1.8-0.3-3.1,0.4-3.8,0.8
	c-0.5,0.2-0.7,0.4-0.8,0.5l0,0l0,0c0.1-0.1-0.2-1.2-1.7-2.4c0,0-12.8-5.4-26.7,5.9c-11.6,9.4-14.5,22.6-14.5,22.6l0.9,19.3
	c0,0-2.4-8.2-4-12.4c-1.6-4.2-3-6.7-3-6.7s-0.8,0.2-1.7,0.5c-0.7-11.3-2.6-16.4-0.9-24.9c1.5-8,4.6-17.8,12.8-26.4
	c6.6-6.9,22.9-10,27.5-10.3C555.4,52.9,571.5,65.6,578.9,86.6z"/>
<path class="st6" d="M470.8,219.9c24.1-13.3,19.1,152.1,18.4,160c-4.6,56.2-20.3,118-20.3,118l-16.1-8.1c0,0,8.6-28.6,17-97.9
	C480.8,301.7,458.7,226.6,470.8,219.9z"/>
<polygon class="st7" points="453.8,490.4 453.2,494.4 468,502.3 469,498 "/>
<path class="st8" d="M543.6,89.2c0,0,1.3-9.4-10.4-12.1c-6.8-1.6-17.5,3.1-21.3,9.1c-6.4,10.2-8.7,16.7-18.1,21.4
	c8.1,14.6,16.9-15.2,27-19.8c9.4-4.2,12.6-3.3,16.5-2.1C539,86.3,543.6,89.2,543.6,89.2z"/>
<path class="st8" d="M578.9,86.7c-4.8,7.6-4.4,12.7-4.7,28.9c-2.3,0-3.2,4.2-4.1,6.4c-1.6,3.8-3.8,9.1-3.8,9.1s0.9-16.5,0.9-18.6
	c0-2.2-5.2-8.7-5.6-12c-0.4-3.3-2.6-11.3-13.5-13c-1.8-0.3-3.1,0.4-3.8,0.8c-0.5,0.2-0.7,0.4-0.8,0.5c0.3-0.5,5-8.5,17.2-1.2
	C572.4,94.5,578.2,87.6,578.9,86.7z"/>
<path class="st9" d="M554.3,194.1l60.1,25.3c0,0-32.1,76.7-36.8,140.9s11,138.9,11,138.9l-95.7-18.8c0,0,21.8-88.7-0.9-156.2
	c-17.6-52.3-21-104.4-21-104.4l44.6-24.9l19.5,26.5L554.3,194.1z"/>
<path class="st10" d="M586.1,533l1.3-34.9l-94.6-17.6c0,0-0.1,22.2-0.3,52.5H586.1z"/>
<polygon class="st10" points="534.9,221.6 524.6,233.2 530.4,240.2 519.5,306.3 529.9,330.6 538.4,302 537.6,240.7 543.9,233.9 "/>
<path class="st11" d="M504.8,200.6c0,0,3.1,112.7,35.1,144.3l-4.1,145.7c0,0-9.1,11.9-25.9,19.2c-16.8,7.3-21.4,5.4-21.4,5.4
	s1.3-77.9,0.8-97.9c-0.6-20,11.5-67.2,1.1-92.9C472.8,280.8,470.9,220,470.9,220L504.8,200.6z"/>
<path class="st11" d="M568.2,200l46.3,18.9c0,0-23.6,98.9-22.8,149.8s-0.6,150.2-0.6,150.2s-65.8,1-67.3-45.5
	c-1.5-46.6,0.7-124.3,0.7-124.3L568.2,200z"/>
<path class="st12" d="M614.4,219.5c0,0,26.3,78.8,19.2,144.4c-11.4,105.4-31.8,130.4-31.8,130.4l-16.4-12.8c0,0,21-40,27.1-116.1
	S598,249.1,598,249.1L614.4,219.5z"/>
<polygon class="st7" points="554.4,190.6 568,200.6 551.2,241 534.9,221.6 "/>
<polygon class="st7" points="534.9,221.6 518.3,240.2 504.8,200.6 515.3,193 "/>
<polygon class="st13" points="568.2,200 578.9,231.6 563.3,238.7 582.9,256.9 525.2,346.7 "/>
<path class="st13" d="M529.9,330.6c0,0-12.9-30-17.9-68.3c-4.9-37.4-7.2-61.7-7.2-61.7l-16.4,35.3l12,3.3l-12,15.1
	c0,0,11.7,32.6,20.7,47.8C518.2,317.3,529.9,330.6,529.9,330.6z"/>
<circle class="st14" cx="532.9" cy="355.7" r="2.9"/>
<circle class="st14" cx="532.9" cy="386.5" r="2.9"/>
<circle class="st14" cx="532.9" cy="418.7" r="2.9"/>
<circle class="st14" cx="532.9" cy="453.6" r="2.9"/>
<path class="st15" d="M120.9,108.2l1.8,40.4l42,36.8c0,0,5.3-11.2,5.3-12.3s5.8-36.4,5.8-36.4L120.9,108.2z"/>
<polygon class="st5" points="64.1,486.8 65.6,533 196.3,533 196.3,438.4 "/>
<path class="st16" d="M121.5,116c0,0,1.7,16.5,12.3,30.9c10.2,13.9,31.6,20.5,37.5,18.3l3.7-23L121.5,116z"/>
<path class="st15" d="M187.3,74.8c-2.5-9.5-10.4-20.8-22.6-24c-19.3-5.1-47.5,42.5-47.5,42.5s-6.9-6.7-8,0s-1.1,13.6,3.6,17.2
	s9.5,5.9,9.5,5.9s4,17.7,16.4,25.7s22.9,9.7,28.8,6.5c5.8-3.2,13.8-13.5,16.4-20.7c2.5-7.2,3.6-10.3,3.6-10.3s2.2,0.1,4.4-5.3
	c2.2-5.5,0.7-11.6,0-14.6c-0.7-2.9-2.5-0.7-1.8-6.9C190.8,84.7,187.3,74.8,187.3,74.8z"/>
<path class="st17" d="M196.4,72.5c-0.2,2.7-0.6,4.5-0.6,4.5s-4.2,19.6-3.9,20.8c0.3,1.2-2.4,3.8-2.4,3.8s0.2-11.8-0.5-15.6
	c-0.7-3.8-3.8-8.4-3.1-10.7c0.4-1.4,0.2-3.2-0.4-5.1c-1.4-4.2-5-9-9.6-11.3c-2.3-1.1-17.6,0.5-30.6,5.3c-2.8,1-9.3,7.5-11.3,9.3
	c-10.7,10.4-11,13.4-11,13.4l-2.1,13.6c0,0-3.5-7.2-4.9-8.2c-1.4-0.9-2.8-1.6-2.8-1.6s-1.4-12-2.3-16.3c-0.3-1.4-1.5-5.8-1.5-5.8
	s0.4-10.3,7.3-17.8s26.9-23.5,45.3-18S182.4,49,182.4,49s5.4-0.5,10.6,8.4C196.2,62.8,196.6,68.6,196.4,72.5z"/>
<path class="st18" d="M185.5,70.1c0,0-2.9-11.5-9.6-14.4c-6.7-2.9-23.4-3.2-31.7,1.1c-22.7,11.8-21.2,30-21.2,30s9.2-17.8,29.4-24.5
	C177.1,54.2,185.5,70.1,185.5,70.1z"/>
<path class="st19" d="M195.8,77c0,0-4.2,19.6-3.9,20.8c0.3,1.2-2.4,3.8-2.4,3.8s0.2-11.8-0.5-15.6c-0.7-3.8-3.8-8.4-3.1-10.7
	c0.4-1.4,0.2-3.2-0.4-5.1c0,0,5.3-1.9,7.6-0.5c0.9,0.5,2.1,1.7,3.4,2.9C196.2,75.2,195.8,77,195.8,77z"/>
<path class="st20" d="M122.7,148.6l-13.3,3.9c0,0,26.8,42.6,34,56.1c7.3,13.5,37.4,84.9,37.4,84.9s4.6-67.3,1.9-86.2
	s-7.8-32.5-7.8-32.5L122.7,148.6z"/>
<path class="st21" d="M111.8,156.3c-0.1-0.2-58.6,25-58.6,25S66,278.6,71.4,320.9c5.5,42.2-2.9,95.4-4,109.9s-17.8,71-17.8,71
	s20,10.2,59.9,7.3s65-26.6,68.6-31.3c3.6-4.7,5.9-14.7,5.9-14.7l7.9,18.4c0,0,28.8-139,22.2-192.7c-6.6-53.8-21-78.8-21-78.8
	s0.3-14.9-3.7-21.2c-4-6.4-14.4-13.8-14.4-13.8s11.3,39.5,8.5,63.8c-2.9,24.4-3.8,52-3.8,52s-19.8-64.2-38-92.8
	S111.8,156.3,111.8,156.3z"/>
<polygon class="st22" points="122.3,139.9 110.5,154.2 139.8,194.9 163.1,175.8 "/>
<path class="st22" d="M171.4,161.9c0,0,0.3,6.4-2.6,9.7c-2.9,3.4-5.6,4.2-5.6,4.2s3.4,2.1,8.3,6.7c4.8,4.6,7.5,8.3,7.5,8.3
	S177.7,167.5,171.4,161.9z"/>
<path class="st23" d="M151.4,185.5c0,0,11,15.3,11.8,20.3c0.7,5-0.7,26.6,0,30.4c0.7,3.9,2,12.6,2,12.6l15.7,44.7
	c0,0,0.7-42.8,1.2-52s-9.7-33.2-9.9-38.3s0.9-19.1,0.9-19.1l-9.8-8.3L151.4,185.5z"/>
<path class="st24" d="M56.9,181.3c-3.3-1.5-10.6,1.3-16.7,11.8c-6.2,10.6-9.1,35.3-11.3,46.2s-10.2,39.3-12.7,46.9
	s-3.6,20.4-3.6,22.2S6,317.9,5,321.5s1.8,15.3,3.3,18.9c1.5,3.7,7.6,13.5,16,17.5s20.4,10.5,25.5,11.8s12.7,1.2,19.7,3.8
	c6.9,2.6,34.6,10.4,34.6,10.4s-3.6-20.2-2.2-29.6c1.5-9.5,2.4-15.8,5.2-19.2c2.8-3.4,5.3-5.7,5.3-5.7s-21.5,2.3-25.5,0.1
	c-4-2.2-10.1-5.2-12.4-4.4c-2.3,0.8-4.7,2.2-6.6,0.7c-1.8-1.5-10.9-8.7-10.9-8.7s5.5,0.7,6.6-1.8s0.8-10.6,2.9-13.9s3.6-10.8,4-12.8
	s3-26.6,4.7-47.1C76.5,224.6,82,192.8,56.9,181.3z"/>
<path class="st24" d="M116.6,146.9c-0.4,0.5-6.6-2.1-13.5,5.7s-7.6,26.7-7.6,26.7l15,6.2l-8.9,9.4c0,0,53.5,72.8,57.1,77.9
	c3.6,5.1,29.4,34,28.9,33s-25.9-64.3-31.8-81.2s-43.7-72.1-43.7-72.1L116.6,146.9z"/>
<path class="st5" d="M101.7,367.6c0,0,0.4,5.1,1,8.7c0.5,3.7,1.2,7.6,1.2,7.6s6.2-2.1,7.8-7.2c1.6-5.1,2.8-13.9,2.5-13.8
	C113.7,363,101.7,367.6,101.7,367.6z"/>
<path class="st23" d="M51,202.2l93.6,29.5l9.6,143.4l-44.8-15.9l6.2-29.7l-18.6,1c0,0-10.7,1.5-14.1-2.8c-2.4-3-6.8-1.8-8.9-1.2
	s-5,0-5,0L51,202.2z"/>
<path class="st5" d="M106.8,335.2c0,0-1.3,4.6-1.4,16.5c0,5.1,0.9,10.2,2.9,9.9c2-0.3,4.3-0.9,6.8-0.9c2.5,0.1,3.2,0.1,3.2,0.1
	s-2.3,4-5,5.4s-11.6,1.4-11.6,1.4s-0.5-8.8,0.2-15.9C103,339.7,106.8,335.2,106.8,335.2z"/>
<path class="st15" d="M152.5,305.8c-3,0-8.7,3.4-10.9,3.6s-6.3,1.7-9.2,2.4c-2.9,0.7-4.9,2.7-7.3,4.5s-7.8,10.1-9.9,11.1
	c-2.2,1.1-6.6,4.7-8.2,7.6c-1.7,2.9-2,15.2-1.5,19.1s0.3,7.5,2.9,7.3c2.7-0.2,7.8-1.8,13.3,0.2s7.4,1.9,12.5,2.8s7.8,2.3,12.5,1.1
	c4.7-1.2,12-8.2,13.7-11.4c1.7-3.2,6.4-7.5,4.5-9.7s-1.1-3-1.4-7.1c-0.2-4.1,2.2-7.5,0-10s-2.4-4.2-6.1-4.5s-6.1,0-6.1,0l-0.2,4.5
	c0,0-9.5,1.6-10.4,0c-1-1.6-4.6-4.2-0.7-6.2c3.9-1.9,8.7-2.2,10.9-6S158.3,305.8,152.5,305.8z"/>
<path class="st25" d="M617.1,191.3c0,0-17.5,6.4-21.8,34.7c-4.4,28.3-9.9,179.9-12.5,199.5s-11.3,52.2-11.3,52.2l22.5-0.6
	L617.1,191.3z"/>
<polygon class="st26" points="739.6,533 739.6,507.9 613.7,364.5 590.1,519 591.5,533 "/>
<path class="st27" d="M599,481.8c-0.2,1-10.4-4.8-15.1-4s-7.6,2.1-7.6,2.1s-0.7,12.5-4.4,21.2c-3.6,8.7-5,13.5-5.2,17.1
	c-0.3,3.6,2.3,14.9,2.3,14.9h28.8L599,481.8z"/>
<path class="st10" d="M702.1,151.3c0,0,22.2,18.1,31.9,23.9c10.2,6.1,36.2,13.6,34.2,13.5c-1.9-0.2-30.8,160.2-29.8,225.7
	s6.3,110.2,6.3,110.2s-3.4-4.4-3.4-2.9s-14.3,9.7-39.2,8.7s-83.6,3.4-85-30.6c-1.5-34-2.6-92.2-2.6-92.2v-24.2
	c0,0-0.8,119.4-10,128.1c-9.2,8.7-24.3,9.2-24.3,9.2s21.8-96.1,20.4-154.3c-1.5-58.2-1.5-146.8,4.4-161.2
	c5.8-14.5,36.3-29.3,36.3-29.3L702.1,151.3z"/>
<path class="st28" d="M696.7,144.9c0,0-3.8,3-8.6,6.7c-4,3.1-8.8,6.8-12.4,9.5c-7.8,6-24,18.4-24,18.4s-6.6-18.2-6.7-18.7
	c-0.2-0.5-2.7-23.3-2.7-23.3l14.4-10l37.1-25.9c0,0-0.9,7.6-0.4,20.4C694,134.7,696.7,144.9,696.7,144.9z"/>
<path class="st29" d="M696.7,144.9c0,0-3.8,3-8.6,6.7c-6.2,1.6-14.3,3.1-20.9,2.6c-12.5-1-23.7-5.7-23.7-5.7l13.1-21.1l37.1-25.9
	c0,0-0.9,7.6-0.4,20.4C694,134.7,696.7,144.9,696.7,144.9z"/>
<path class="st27" d="M633,43.5c-8,5.9-16.2,12-17.7,19.8s-0.7,18.9,0,22.4s2.9,20.7,4.5,26.8c1.6,6,7.3,15.8,8.6,19.1
	s10.7,16.6,15.1,16.9c4.4,0.4,15.3-0.2,20.4-3.1c5.1-2.9,21.7-10.6,23.1-20.4s2.4-13.3,4.9-14.7s8.6-4,11.5-10.6s4.4-15.6,2.2-20
	s-8.4-5.6-8.9-9.6S680.3,47.9,676,45C671.6,42.1,649.2,31.5,633,43.5z"/>
<path class="st30" d="M645,160.7c0,0-14.6,59.3-17.1,70.6c-2.2,14.9-10.8,61.5-10.8,61.5s35.7-77.9,52.4-101.5
	c16.7-23.7,32.7-40,32.7-40l-5.5-6.4l-44.9,34.6L645,160.7z"/>
<path class="st23" d="M651.7,179.5l11.4,11.8c0,0-3.8,7-7.9,10.2c-4.1,3.2-5.3,4.9-5.3,4.9l-2.7,24.4l-30.1,62.1l10.5-60.1
	l11.1-28.6l-0.9-12.9c0,0,2.8-7.9,7.2-9.6C649.5,180,651.7,179.5,651.7,179.5z"/>
<path class="st31" d="M705.9,57.2c-1.3,3.9-1,21.4-1,21.4s-1.5-1.6-2.9-2.7s-7.2,2.8-9.7,7s-2.5,5.8-2.5,5.8l-3.8-0.5
	c0,0-0.5-4-1.5-10.9c-0.9-6.9-7.4-11.2-9.8-13.8c-1.2-1.3-4.3-3.3-7.5-4.9c-3.3-1.6-6.7-2.8-8.4-2.1c-3.2,1.2,8.1,6.5,8.6,6.7
	c-0.7-0.2-24.7-6-28.1-5.1c-3.5,0.9,10,5.1,10,5.1S636,63.6,631.1,62c-4.9-1.6-7.8-2.1-9.5-2.2c-1.6-0.2-4.2,4-5.2,6.9
	s-1,7.5-0.4,10.4c0.5,2.9,0.8,18.6,0.8,18.6s-1.8-12.5-4-18.7s-3.8-5.8-3.6-11.3s4.2-17.7,10.9-26.8s23.3-14,28-15.3
	s21.2-3,37.5,4.4c16.6,7.5,21.8,26,21.8,26S706.7,55,705.9,57.2z"/>
<path class="st25" d="M702.1,151.3c0-0.7-19.8,17.6-39,49s-46,92.6-46,92.6s23.5-22.2,36.6-35.3c13.1-13.1,48.4-55.7,48.4-55.7
	s-6.9-10.4-5.5-11c1.5-0.6,11.8-6.8,11.8-6.8l8.9-21L702.1,151.3z"/>
<path class="st32" d="M617.1,292.8c0,0,11.3-59.9,13-70.8c1.6-10.9,10.8-49.4,10.8-49.4L628,190.2l1.1,2.2c0,0-9.7,9.5-11.9,11.3
	c-2.1,1.8-3,11.3-4.3,20.9C611.5,234.2,617.1,292.8,617.1,292.8z"/>
<rect x="596.4" y="287.1" transform="matrix(0.9911 -0.1329 0.1329 0.9911 -43.2174 90.7955)" class="st8" width="124.3" height="164.1"/>
<polygon class="st7" points="696.7,144.9 702.1,151.3 666.9,195.2 651.7,179.5 "/>
<path class="st7" d="M645,160.7c0,0-5.9,15.1-6.3,21.2c-0.4,6.2-2.5,14.7-2.3,13.9s2.6-10.3,6.5-12.9c3.9-2.7,8.8-3.5,8.8-3.5
	L645,160.7z"/>
<path class="st27" d="M631.2,371.5c0,0-18.9-14.6-23.7-14.9c-4.7-0.4-17.8,0-17.8,0s-2.9,2.4-5.8,5c-2.9,2.6-4,4.1,0,5.2
	s9.1,0.4,9.1,0.4s-9.9,0.4-11.7,4.4s3.7,7.1,1.5,10.3c-2.2,3.2-4.5,9.4-1.9,10.5s3,6.4,3.7,8.5s3.3,3.6,4.7,7.6s2.9,8,12,7.3
	s16-0.1,22.2-4.6s16.6-8.1,16.6-8.1L631.2,371.5z"/>
<path class="st25" d="M631.2,371.5c0,0,36-8.4,40.8-9.1s21.1-8.4,24.7-8.7s13.8,0,17.8,0s9.5-5.5,14.9-8s2.5-2.3,1.8-8.1
	s-1.8-36.7-5.1-54.2s-4.4-45.5,1.5-59.7s9.1-25.8,19.3-32.4c10.2-6.5,17.8-5.6,24.7-0.4c6.9,5.2,12,40.6,9.5,53.8s1,22.7,0.7,30.3
	s3.7,45,5.9,52.5s5.5,42.1,1.8,52.7s-15.7,13.8-21.1,15.6c-5.4,1.8-29.5,8.4-37.5,8.9s-42.9,4.1-49.1,6.1c-6.2,2.1-26.2,9.7-30,9.3
	c-3.8-0.4-8.2-5.4-11.6-17.5C636.7,390.7,631.2,371.5,631.2,371.5z"/>
<polygon class="st7" points="587.6,484.1 575.6,485.6 575.6,477.7 589.1,476.1 "/>
<path class="st33" d="M705.9,57.2c-1.3,3.9-1,21.4-1,21.4s-1.5-1.6-2.9-2.7s-7.2,2.8-9.7,7s-2.5,5.8-2.5,5.8l-3.8-0.5
	c0,0-0.5-4-1.5-10.9c-0.9-6.9-7.4-11.2-9.8-13.8c-1.2-1.3-4.3-3.3-7.5-4.9l0,0c0,0,3.2-4,16,0.5c12.7,4.5,24.2-5,24.2-5
	S706.7,55,705.9,57.2z"/>
<path class="st11" d="M239.5,136.7c-7.3,11.8-20.9,34.5-20.9,49.1s8.2,34.8,8.2,34.8s28.8-1.1,35.5-24.4
	C269,173,250.6,119,239.5,136.7z"/>
<path class="st34" d="M307.8,212c0,0,5.9-1.8,12.3,6.3s8.6,36.5,8.6,36.5l-3.6,2.7L307.8,212z"/>
<path class="st35" d="M315.3,408.2c0,0-3.7,25.5-4.7,34.5s-5.6,90.4-5.6,90.4H191c0-1.1-9.7-49-7-70.1c2.7-21,13.3-46.5,13.3-46.5
	s12.4-22.6,13.1-22.6C211.2,393.9,315.3,408.2,315.3,408.2z"/>
<path class="st36" d="M282.7,378.9c0.5,0.7-4.6,27.7-4.6,27.7s10.2,3.1,18.7,4.4c8.5,1.2,18.4,0,18.4,0l3-18.9L282.7,378.9z"/>
<path class="st37" d="M333.8,342.5c1.3,0.7,3.7,9.2,6.9,12.1c3.2,2.9,8.1,6,7.7,13.8s-0.1,17.3-2.3,21.9
	c-2.2,4.6-7.3,10.9-12.3,12.1s-12,2.4-12,2.4l-1.8-51.6L333.8,342.5z"/>
<path class="st38" d="M241.2,181.3c0,0-7.8,15.1-16.8,17.7c-8.9,2.5-21.3,8-21.3,8s8.7,65.9,8.7,101.2s-24.4,120.5-24.4,120.5
	l83.3,20.9c0,0,13.1-41.3,13.7-67.8c0.5-26.6,28.6-19.7,28.6-19.7l-1.5,81.5c0,0,9.8-9.9,9.8-10.9s5.8-86.7,8.7-105
	c2.9-18.3-4-89.7-10.9-102.9c-6.9-13.3-19-15.8-19-15.8L241.2,181.3z"/>
<path class="st39" d="M240.1,175.8c0,0-2.6,2.4-7.3,7.5s-5.6,23.5-5.6,23.5s13.5,5.5,12.8,5.1s-14.4-2.1-14.4-2.1
	s41.3,72.5,54.7,88.8c13.4,16.3,20.4,18.7,20.4,18.7s-29.3-85.6-44.6-111.5C240.7,179.9,240.1,175.8,240.1,175.8z"/>
<path class="st39" d="M287.1,209.8c0,0,13.7,16.8,18.9,29.6c5.2,12.8,10.5,29.8,12.1,46.2s-1.3-37.9-1.6-42s-10.1-29.8-10.4-30
	C305.9,213.4,287.1,209.8,287.1,209.8z"/>
<path class="st40" d="M291.4,218.4c-0.7,5.1-5.9,6.2-5.9,6.2s-11.6-14.2-22.2-21.1c-10.6-6.9-17.9-22.2-17.9-22.2s0.2-3.3,0-12.2
	c-0.1-3-0.3-5.9-0.5-8.4c-0.5-4.8-1.1-8.2-1.1-8.2l20.7,11.7l17,9.6c0,0-0.7,8.4-1.3,15.8c-0.3,3.7,0,5.8,0.7,7.8s1.8,3.8,3,7.1
	C286.6,211.1,292.1,213.3,291.4,218.4z"/>
<path class="st29" d="M281,197.5c0,0.2-0.1,0.3-0.1,0.3s-5.4-2.5-17.2-11.1c-11.8-8.6-18.8-25.9-18.8-25.9s9.6,1.7,19.6,3.5l17,9.6
	c0,0-0.7,8.4-1.3,15.8C280,193.4,280.3,195.5,281,197.5z"/>
<path class="st41" d="M231.2,126.5c-4.4,0-6.6-0.7-6.7,6.4c-0.2,7.1,2.2,14.9,6.7,16.2s10,2.2,10,2.2L231.2,126.5z"/>
<path class="st41" d="M279,83.4c6.8,3.7,16.3,12.2,17.9,20.6s2,20,2.3,22.5c0.4,2.6,1.6,10.2,0.7,19.7s-4.4,18.6-10,25
	c-5.6,6.3-7.9,8.6-11.8,8.8s-6.9-0.8-16.9-5.9c-10-5.1-15.1-9.5-20.8-23.8s-6.4-18.3-2.6-24.6c3.8-6.4,3.8-6.4,3.8-6.4s3-3.8,3-7.1
	S240,97.8,250.4,93c10.4-4.7,22.4-6.2,23.6-7.8C275.3,83.6,274.9,81.1,279,83.4z"/>
<path class="st11" d="M298,111.1c0,0-0.2-1.7-1-7.1s-5.9-10.8-9.2-14.2c-3.4-3.5-10.1-7-10.1-7s-0.5,1.8-2.3,3.6
	c-1.8,1.8-16.3,6.7-20.6,8.9l0,0l0,0c0,0-0.1,0-0.1,0.1c-4.3,2.3-9.3,11.4-9.2,15.2c0.2,3.8-3.2,11.3-5.9,15.1
	c-2.7,3.8-2.1,16.6-2.1,16.6s-3.9-9.6-6.4-12.9c-2.6-3.3-5.2-1.7-5.2-1.7s-1-21.8,5.2-32.5c6.3-10.7,13.4-15.3,24.7-19.1
	c11.3-3.8,17.2,0.4,17.2,0.4s2.1-1.3,7.9,0.9c5.7,2.2,14.8,13.5,17.3,21.1C300.4,106,298,111.1,298,111.1z"/>
<path class="st42" d="M254.6,95.3c-4.3,2.3-9.3,11.4-9.2,15.2c0.2,3.8-3.2,11.3-5.9,15.1s-2.1,16.6-2.1,16.6s-3.9-9.6-6.4-12.9
	c-2.6-3.3-5.2-1.7-5.2-1.7s2.7-9.8,9.9-18C242.3,101.8,253.2,96,254.6,95.3z"/>
<path class="st36" d="M245.4,181.3c0,0,20.4,46.6,28.7,65.8c8.4,19.2,26.6,70.1,26.6,70.1l19.3-2.5c0,0,1.1-38-10.6-67.6
	c-7.6-19.3-19.4-33.5-19.4-33.5s1.5,4.5-0.7,7.4s-3.9,3.6-3.9,3.6s-6.1-11.1-13-15.1c-4.6-2.6-12.8-9.5-16.9-14.1
	C250.1,189.3,245.4,181.3,245.4,181.3z"/>
<path class="st7" d="M245.5,173.3c0,0-0.5,6.9,9.1,16.4s23.8,19.8,25.4,22.4c1.6,2.5,1.8,7.8,1.8,7.8s-2-7.2-7.1-2.1
	c-5.1,5.2-8,12.2-8,12.2s-18.2-37.8-21.2-42.5s-6.1-8-5.3-11.6C240.8,172.2,245.5,173.3,245.5,173.3z"/>
<rect x="198.8" y="259.2" transform="matrix(0.3735 -0.9276 0.9276 0.3735 -116.7643 454.671)" class="st13" width="158.8" height="109.1"/>
<path class="st7" d="M281,180.9c0,0,13.1,16.2,17.3,24.6c4.2,8.4,4.6,11.5,4.6,11.5s0.9-4.6-3.2-3.9s-9.5,0.5-9.5,0.5
	s-7.7-5.9-9.1-15.8C279.5,187.8,281,180.9,281,180.9z"/>
<path class="st36" d="M294.2,213.5c0,0,2,4.9,3.6,7.8s2.4,5.2,2.5,4.6c0.1-0.5,0.7-3.9,1.7-6.2s2.1-6.4-1.7-6.8
	C296.5,212.6,294.2,213.5,294.2,213.5z"/>
<path class="st41" d="M317.3,365.3c0,0-2.5,7.9-5.9,8.9s-24.6-4-31.4-6.1s-19.7-0.2-11.6,2.6c8.1,2.7,6.6,2.9,6.6,2.9
	s-5.4-0.4-7.5,0.6s-2.9,2.9,1.2,3.4s7.5,2.3,11.6,4.2c4.1,2,9.5,4.9,12.9,6.2c3.4,1.3,6.7,2.9,6.7,2.9s-8.5-1.2-13.2-2.8
	c-4.7-1.6-8.7-3.6-11.4-4.1c-2.7-0.5-6-0.8-7.5,0.1c-1.5,0.8-2.5,2.3,1,3.5s9.7,2.7,13,4.5s7.6,3.9,12.7,5.1s11.6,2.3,11.2,2.3
	c-0.5,0-7.2,1.6-10.7,1.2s-5.8-0.1-8.1-1.2c-2.3-1.1-5-3.3-7.3-2.7c-2.3,0.6-3.4,2.1-3.4,2.1s6.3,1.5,9,3.9s7.2,3.6,10.4,3.8
	c3.3,0.1,6.8-1.1,11.2-1.6s10.8-2.2,14.8-4.5s6.1-4.1,10.4-5.5c4.4-1.5,6.7-0.9,8.2-6.3c1.6-5.5,2.7-13.1,0-15.9s-15.8-10.8-18.1-11
	S318.7,361.8,317.3,365.3z"/>
<path class="st3" d="M291.5,324.5c0,0,2.9,0.6,6-1.6s10.5-3.8,14.2-5.7s9.5,0.1,12.3,0s10.7-0.2,12.1,1.1c1.5,1.3,1.8,3.5,4.6,4.7
	c2.8,1.2,7.3,2.7,4.7,4.5c-2.5,1.8-5.6,2.7-8.4,0.8c-2.8-1.8-4-2.7-4.7-2.4c-0.7,0.2-3.5,0.5-5.3,0.5s-3.5-0.2-3.5-0.2
	s10.9,7,13.1,9.2s5.2,4,4.4,6.9c-0.8,2.9-2.2,4.1-3.9,4.1c-1.7,0-3.8-0.7-3.8-0.7s0.8,1.6-0.8,3.8c-1.7,2.2-3.5,2.6-3.5,2.6
	s0.5,3.2-0.4,4.4c-0.8,1.2-3.5,3-3.5,3s0,3.3-2.1,4.6s-7.3-0.7-10.9-1.2s-13.1-5.2-14.8-6.9c-1.7-1.7-5-1.2-5-1.2
	s-1.5-10.1-1.8-17.3S291.5,324.5,291.5,324.5z"/>
<path class="st36" d="M323.5,399.3l0.2,1.3c0,0,4.2-1.4,7.6-2.6c3.4-1.3,9.6-3.2,10.6-5s2.2-9.1,2.3-11.9c0.1-2.8,0.3-7.7-2.3-10.6
	s-12.5-7.1-13.9-7.5c-1.4-0.3-3-0.2-2.5,0c0.4,0.2,11.5,5.7,12.9,9.3s1.5,5.4,1.4,11c-0.2,5.6-1.5,8.5-5.5,9.9
	C331.8,394,323.5,399.3,323.5,399.3z"/>
<path class="st39" d="M204.6,206.2c0,0-15-4.3-22.8,13.2s-16.5,101.5-17,128.6c-0.5,27.2,0.7,34.5,13.8,33s47.9-2.9,54.2-4.9
	c6.3-1.9,19.5,1.5,26.4-2.6c6.9-4.1,35-5.4,35-5.4s-1.8-17.5-2.7-27.7c-0.9-10.2,0.2-18.9,0.2-18.9s-19.9,5.5-24,6.6
	c-4,1.1-5.5,1.8-8.4,1.5c-2.9-0.4-14.9-0.5-19.1,0.8c-4.2,1.3-14.5,5.4-15.7,4.5s-16.1,0.6-20.1,1.5s6.4-17.7,6.2-28.2
	s1.5-31.3,1.8-36c0.4-4.7,2.2-8.4,2.2-17.1S217.7,219,204.6,206.2z"/>
<path class="st10" d="M407.8,181.8c-11.4,8.1-24.2,17.6-34.8,52.2c-10.6,34.6,3,42.6,3,42.6s51.5-11.9,57.2-39.5
	C439,209.5,432,164.7,407.8,181.8z"/>
<path class="st43" d="M345.9,432.5c0,0,9.2,2.4,13.6,3.4s5.8,1,5.8,1s-14.9-26.4-15.2-26c-0.2,0.5-2.9,5-3.4,9.9
	C346.3,425.8,345.9,432.5,345.9,432.5z"/>
<path class="st30" d="M460.4,226.5l20.5,9.2c0,0-61.8,192.9-63.8,192.9S371.8,330,371.8,310s7.6-44,12-52s20-26.6,20-26.6
	L460.4,226.5z"/>
<path class="st43" d="M399.2,247.1c0.1-0.5-0.4-17.2,6.8-24c7.2-6.8,9.8-8.9,13.4-10.8c3.5-1.9,29.8-5,35-3
	c5.2,2.1,13.9,7.9,9.1,18.6C458.7,238.5,399.2,247.1,399.2,247.1z"/>
<path class="st10" d="M357.5,454.4c0,0-1.4,12,0,33.1s6.4,45.5,6.4,45.5h117.9c0,0,9.7-51.3,4.9-75c-4.9-23.7-9-46.6-9-46.6
	L374,408.2L357.5,454.4z"/>
<path class="st44" d="M460.4,226.5c0,0-3.2,7-4.4,8.7l0,0c-1.2,1.7-6.3,10.4-9.7,15c-3.4,4.6-3.8,10.6-17.7,21.6
	c-20.8,16.5-24.7,29.6-24.7,29.6s1.5-17-2.2-30.6s0-30.3,0-30.3s13.9-8.5,15.4-14.8c0.9-3.6,0.8-10.8,0.5-16.3
	c-0.2-4.3-0.5-7.7-0.5-7.7l20.7-0.9l9.8-0.4l2.9-0.1c0,0-0.1,0.6-0.3,1.7c-0.5,2.9-1.4,9.1-0.9,15.8
	C449.8,226.9,460.4,226.5,460.4,226.5z"/>
<path class="st45" d="M393,242.5c-1.6-1-31.5,17.3-33.9,50.6c-1.2,16-5.2,51.1-6.2,55.9c-1,4.9-6.3,13.6-5.1,16.3
	c1.2,2.7,0.9,9.2-0.2,12.9c-1,3.6-0.9,10.2,0,14.6s1.3,5.6-0.7,10.7s-4.4,15.7-2.5,22c1.9,6.4,1.2,8.6,1.9,6.4s1.2-13.5,9.8-19.5
	c7.6-5.3,17.8-6.2,21.2-4.8c3.4,1.5,11.5-22.6,10.3-38.8c-0.6-7.9-11.1-38.2-10.4-67.2C377.8,270.8,393,242.5,393,242.5z"/>
<path class="st23" d="M466.7,226.5l32.7,15c0,0-12.1,22.7-16.4,42.6c-3.8,17.4,3.3,60.8,3.3,60.8s-20.4,41.9-15.6,63
	c4.7,21.1,10.9,51.3,10.9,51.3s-13.5,8.4-33.1,12c-19.7,3.6-29.1,6.6-29.1,6.6l-19.1-56L386.2,473c0,0-6-0.7-12.6-8.7
	c-6.3-7.7-6.4-10.9-4.2-18.9c2.2-8,12.4-26.9,13.5-52.8s-0.7-42.6-6.2-55.7s-11.3-25.8-6.9-46.2c4.4-20.4,22.2-51,24.4-52.4
	c2.2-1.5,15-12.5,13.5-9.8c-1.4,2.7-23.7,41.9-24.8,73.5s13.1,69.5,13.1,69.5s15.7-32.7,30.9-59.3
	C444.1,282.3,466.7,226.5,466.7,226.5z"/>
<path class="st46" d="M383,244.4l-4.4,7.8l20.6-13.8c0,0-2.9-2.3-7.1-0.7S383,244.4,383,244.4z"/>
<path class="st7" d="M417.2,213.6c0,0-15.8,6.1-25,18.5s-9.2,12.4-9.2,12.4s9.7-8.5,13.3-6.6s4.6,1.9-1.1,9.2s-12,13.3-7.4,16.5
	c4.6,3.2,10.4,8.7,12.3,15s3.8,22.8,3.8,22.8s3.4-20.6-0.2-33.5s3.4-39.1,6.6-44.9C413.3,217.3,417.2,213.6,417.2,213.6z"/>
<rect x="370.8" y="293.8" transform="matrix(0.9006 -0.4346 0.4346 0.9006 -118.195 222.6337)" class="st10" width="113.9" height="151.9"/>
<path class="st47" d="M378.6,408.2c0,0-8.7-6.1-16.3-1.7c-7.5,4.4-12.9,13.6-12.9,13.6s9.7,8,12.4,13.1c2.7,5.1,5.9,9.6,9.8,11.6
	c4,2,9.8,3.9,13.7,4.1c3.9,0.2,14.3,1,17.5,0s9.5-5.3,9.9-6.8s-1.9-3.6-4.6-4.4c-2.7-0.7-0.2-1.5,1.7-1.7c1.9-0.2,0.6-3.7-4.5-5.7
	c-5.4-2.1-19.7-11-22.4-14.4C380.3,412.6,378.6,408.2,378.6,408.2z"/>
<path class="st44" d="M365.9,386.1c-1.4,1.7-1.9,4.9,1.4,7c3.3,2.2,5.7,6.3,6.4,8.2c0.7,1.9,3.4,13.3,6.8,17.2
	c3.4,3.9,5.8,5.1,14.3,6.6s24.6-2.4,24.6-2.4l-2.3-29.9c0,0-9-10-22.5-8.9c-13.4,1.1-15.1,2.1-19,1.8
	C371.8,385.6,365.9,386.1,365.9,386.1z"/>
<path class="st45" d="M417.2,392.9c0,0,16.7,1.7,19.4,1.5c2.7-0.2,9.5-5.1,15.5-5.8s19.2-2.9,23.1-4.6s10.4-8.8,12.6-9.5
	s2.2-0.7,2.2-0.7s-2.4-2.7-2.2-8.7c0.2-6.1-2.8-29.4-2.8-29.4s-5.8-18.4-2.5-48.1s16.9-46,16.9-46s11.2,2.8,13.3,16
	c2.7,16.3,4.1,39.4,6.1,48.5c1.9,9,3.9,34.7,3.9,40.8c0,6.1,1.7,14.1,0.7,21.6s-0.2,12.4-0.2,12.4s5.1,7.5,3.4,11.9
	c-1.7,4.4-2.7,6.3-4.6,9.5c-1.9,3.2-4.4,10.9-17,14.1c-12.6,3.2-31.1,5.8-42,8s-15.8,0.7-26.9,0s-16.7-1.4-16.7-1.4L417.2,392.9z"/>
<path class="st7" d="M449.8,208.8c0,0,8.7-0.8,16.9,8.4s11,12.4,11.2,19.9c0.1,7.6,1.7,22.1,1.7,22.1s-9-4.1-14.5-9.7
	c-5.6-5.6-7.8-12.6-7.8-12.6l-3.2,1.4c0,0,8.5-14.2,8.3-18.1C461.9,212.9,449.8,208.8,449.8,208.8z"/>
<path class="st44" d="M402.4,163.4c0,0-6.3-2.1-7.1,3.5c-0.7,5.6,1.4,16.1,4,19.8c2.6,3.6,6.6,4.2,6.6,4.2L402.4,163.4z"/>
<path class="st29" d="M460.4,226.5c0,0-3.2,7-4.4,8.7l0,0c0,0-11-0.4-22.2-5.3c-11.2-4.9-16.3-20.5-16.3-20.5l20.2-8.6l9.8-0.4
	c0.8,0.5,1.6,1,2.6,1.6c-0.5,2.9-1.4,9.1-0.9,15.8C449.8,226.9,460.4,226.5,460.4,226.5z"/>
<path class="st44" d="M466.2,164.2c0,0,6.5-1.6,6.8,4.1c0.3,5.6-2.7,16-5.6,19.4s-6.9,3.6-6.9,3.6L466.2,164.2z"/>
<path class="st44" d="M432.9,218.4c-2.7,0-25.1-11.4-28.5-28.7c-1.4-7.1-2.4-15.2-2.7-23.1c-0.4-10.7,1.6-20.8,2-25.9
	c0.7-8.5,4.2-13.9,20.8-15.7c19.8-2.2,37.9-2.1,38.6,13.4c1.2,26,4.6,31.8-2.8,54.9C454.7,210.5,435.2,218.4,432.9,218.4z"/>
<path class="st10" d="M401.6,166.5c0,0,3.8-10.3,4.5-19.5c0.7-7.8,6.2-21.6,26.7-21.5s25.7,6.3,27,13.4c1.3,7.1,2.4,21.5,3.6,25.4
	c1.2,4,1.4,7.3,1.4,7.3s14.5-43.8-9.7-57.7s-46.9-0.3-53,12.6C394.2,143.3,401.6,166.5,401.6,166.5z"/>
</svg>
