<?xml version="1.0" encoding="utf-8"?>
<!-- Generator: Adobe Illustrator 23.0.6, SVG Export Plug-In . SVG Version: 6.00 Build 0)  -->
<svg version="1.1" id="Layer_1" xmlns="http://www.w3.org/2000/svg" xmlns:xlink="http://www.w3.org/1999/xlink" x="0px" y="0px"
	 viewBox="0 0 1175.8 723.3" style="enable-background:new 0 0 1175.8 723.3;" xml:space="preserve">
<style type="text/css">
	.st0{opacity:0.16;fill:url(#SVGID_1_);enable-background:new    ;}
	.st1{fill:#F7C288;}
	.st2{fill:#F9D1A0;}
	.st3{fill:#E5A25E;}
	.st4{fill:#F2F2F2;}
	.st5{fill:#666666;}
	.st6{fill:#FFFFFF;}
	.st7{fill:#999999;}
	.st8{fill:#333333;}
	.st9{fill:#D67910;}
	.st10{fill:#4551A3;}
	.st11{fill:#303256;}
	.st12{fill:#EAB16C;}
	.st13{opacity:0.1;fill:#603813;enable-background:new    ;}
	.st14{fill:#754C24;}
	.st15{fill:#603813;}
	.st16{opacity:0.23;fill:#603813;enable-background:new    ;}
	.st17{fill:#808080;}
	.st18{fill:#E6E6E6;}
	.st19{fill:#919191;}
	.st20{fill:#A51865;}
	.st21{fill:#3D3D3D;}
	.st22{fill:#242430;}
	.st23{fill:#FFC67A;}
	.st24{fill:#F9BB70;}
	.st25{opacity:0.1;fill:#42210B;enable-background:new    ;}
	.st26{fill:#F6F5F8;}
	.st27{fill:#FFF7D2;}
	.st28{fill:#CCCCCC;}
	.st29{opacity:0.23;fill:#FBB03B;enable-background:new    ;}
	.st30{fill:#4B4A4B;}
	.st31{fill:#E7E9F6;}
	.st32{fill:#353435;}
	.st33{fill:#FFD49C;}
	.st34{opacity:0.2;fill:#FBB03B;enable-background:new    ;}
	.st35{fill:#3C3B3C;}
	.st36{fill:#8C6239;}
	.st37{fill:#F8F9FC;}
	.st38{fill:#A67C52;}
	.st39{fill:#050505;}
	.st40{fill:#FBB03B;}
	.st41{fill:#4D4D4D;}
</style>
<title>FutureSkillsfinal</title>
<g>
	<g>
		
			<linearGradient id="SVGID_1_" gradientUnits="userSpaceOnUse" x1="693.83" y1="682.15" x2="693.83" y2="-155.09" gradientTransform="matrix(1 0 0 -1 0 747.0079)">
			<stop  offset="0" style="stop-color:#000000"/>
			<stop  offset="1" style="stop-color:#000000"/>
		</linearGradient>
		<polygon class="st0" points="1175.8,168.8 948.1,24.4 942.3,156.2 776.9,68.2 763.5,222.1 628.7,140.6 624.8,244.1 400.5,96.5 
			395.8,181.8 256.7,47.1 211.8,723.3 1175.8,723.3 		"/>
	</g>
	<path class="st1" d="M452.2,552.8c6.3-0.4,24.6,0.4,24.6,0.4l7.7,34.9c-3.5,16.6-10.3,32.3-19.9,46.2l-12.3-4.8l-7.7-62.3
		L452.2,552.8z"/>
	<polygon class="st2" points="742.5,190.1 749.6,281.7 794.9,308.7 800.8,268.1 806.4,194.8 	"/>
	<path class="st3" d="M750,223.9c0,0,14.6,21.1,24.6,25.5s27.2,4.3,27.2,4.3l3.2-40.2L750,223.9z"/>
	<path class="st4" d="M718.2,275.2l29.7-16.2c23.9,18.8,53.5,1.2,53.5,1.2l18.9,5.6l14.7,51l-67.2,148.6l-53.4-173.2L718.2,275.2z"
		/>
	<path class="st2" d="M729.1,148.9c0,0-16-1-16.4,3.7s4.4,27.5,10.5,30s8,2.7,8,2.7L729.1,148.9z"/>
	<path class="st2" d="M816.7,148.6c0,0,14.3-2.3,14.8,4.8s-0.8,24.7-5.8,28.6s-12.2,2.7-12.2,2.7L816.7,148.6z"/>
	<path class="st2" d="M817.7,170.3L817.7,170.3c-0.8,12.3-3.1,28.6-3.8,32.5c-1.3,7.9-21.4,25.9-26.2,30s-13.8,3.4-22,2.7
		s-29.7-25.2-31.6-29.2c-1-2.1-4.9-18.1-5.8-31.4l0,0c-0.8-11.6-1.2-25.2-1.1-36.7c0.4-24.5,43-33.5,49.3-35.3
		c30.5-8.6,41.4,21.9,42.1,35.5C819.1,145.3,818.5,158.1,817.7,170.3z"/>
	<path class="st5" d="M835,109.9l-0.1,0.1c-6.6,10.4-6.1,17.4-6.5,39.7c-3.1,0-4.5,5.7-5.7,8.8c-2.2,5.3-5.2,12.5-5.2,12.5
		s1.3-22.6,1.3-25.6s-7-11.9-7.7-16.5s-3.6-15.5-18.6-17.8c-1.8-0.2-3.7,0.2-5.3,1.1c-0.4,0.2-0.7,0.4-1.1,0.6l0,0l0,0
		c0.1-0.1-0.3-1.7-2.4-3.2c0,0-17.6-7.5-36.7,8.1c-9.7,8-16.7,18.9-20,31l1.2,26.5c0,0-3.3-11.3-5.5-17c-1.2-3.1-2.5-6.2-4.1-9.1
		c0,0-1.1,0.2-2.3,0.6c-0.9-15.5-3.5-22.5-1.3-34.1c2.1-11,6.3-24.4,17.6-36.2c9-9.5,31.4-13.8,37.8-14.1
		C802.8,63.7,824.8,81.1,835,109.9z"/>
	<polygon class="st6" points="645.2,664.7 644.4,670.2 664.7,681.1 666,675.1 	"/>
	<path class="st7" d="M786.5,113.6c0,0,1.7-12.9-14.2-16.6c-9.3-2.2-24,4.3-29.2,12.6c-8.8,14-11.9,23-24.8,29.4
		c11.1,20,30.9-6.1,37.4-19.7c3-6.3,16.9-12,22.3-10.3C780.2,109.6,786.5,113.6,786.5,113.6z"/>
	<path class="st7" d="M835,110.1c-6.6,10.4-6.1,17.4-6.5,39.7c-3.1,0-4.5,5.7-5.7,8.8c-2.2,5.3-5.2,12.5-5.2,12.5s1.3-22.6,1.3-25.6
		s-7-11.9-7.7-16.5s-3.6-15.5-18.6-17.8c-1.8-0.2-3.7,0.2-5.3,1.1c-0.4,0.2-0.7,0.4-1.1,0.6c0.4-0.6,6.8-11.6,23.7-1.7
		C826.1,120.8,834,111.3,835,110.1z"/>
	<path class="st8" d="M833.9,723.3l1.7-48l-129.9-24.2c0,0-0.2,30.5-0.4,72.2L833.9,723.3z"/>
	<path class="st9" d="M733.3,266.6c0,0,4.3,154.8,48.3,198.2l-5.7,200.1c-9.7,11.4-21.8,20.5-35.6,26.4c-23,10-62.7,3.4-62.7,3.4
		s17.1-105,16.3-132.5s0.9-91.9-13.3-127.2c-24.2-59.9,3.4-140.3,3.4-140.3L733.3,266.6z"/>
	<path class="st9" d="M820.3,265.8l63.6,25.9c0,0-32.5,135.9-31.3,205.8s-0.8,206.3-0.8,206.3s-90.3,1.4-92.4-62.5
		s0.9-170.7,0.9-170.7L820.3,265.8z"/>
	<path class="st10" d="M865.7,292.5c0,0,36.1,108.3,26.4,198.4C876.4,635.6,848.3,670,848.3,670l-22.5-17.5
		c0,0,28.9-54.9,37.2-159.5s-20-159.7-20-159.7L865.7,292.5z"/>
	<circle class="st11" cx="771.8" cy="479.6" r="4"/>
	<circle class="st11" cx="771.8" cy="522" r="4"/>
	<circle class="st11" cx="771.8" cy="566.2" r="4"/>
	<circle class="st11" cx="771.8" cy="614.1" r="4"/>
	<path class="st12" d="M192.8,139.7l2.5,55.5l57.7,50.6c0,0,7.3-15.4,7.3-17s8-50,8-50L192.8,139.7z"/>
	<polygon class="st5" points="114.8,659.8 116.8,723.3 296.3,723.3 296.3,593.3 	"/>
	<path class="st13" d="M193.7,150.3c0,0,2.3,22.7,16.8,42.4c14,19.1,43.4,28.2,51.5,25.2l5.1-31.6L193.7,150.3z"/>
	<path class="st12" d="M284.1,93.8c-3.5-13-14.3-28.5-31-32.9c-26.5-7-65.2,58.3-65.2,58.3s-9.5-9.2-11,0s-1.5,18.7,5,23.7
		c4.1,3.1,8.4,5.8,13,8.1c0,0,5.5,24.4,22.5,35.4s31.4,13.3,39.4,8.9c8-4.4,19-18.5,22.5-28.4s5-14.1,5-14.1s3,0.2,6-7.3s1-16,0-20
		s-3.5-1-2.5-9.5S284.1,93.8,284.1,93.8z"/>
	<path class="st14" d="M296.5,90.6c-0.1,2.1-0.4,4.2-0.9,6.2c0,0-5.8,26.9-5.4,28.5s-3.2,5.2-3.2,5.2s0.2-16.2-0.8-21.5
		s-5.2-11.6-4.2-14.8c0.5-2.3,0.3-4.8-0.6-7c-1.9-5.8-6.8-12.4-13.2-15.5c-3.1-1.5-24.2,0.6-42,7.2c-3.9,1.4-12.8,10.3-15.5,12.8
		c-14.7,14.2-15.1,18.4-15.1,18.4l-2.9,18.6c0,0-4.8-9.9-6.7-11.2c-1.2-0.8-2.5-1.6-3.9-2.3c0,0-1.9-16.4-3.2-22.4c-0.4-1.9-2-8-2-8
		s0.5-14.2,10-24.5s37-32.3,62.2-24.8c25.2,7.5,28,22.5,28,22.5s7.4-0.7,14.6,11.5C295.4,76.2,297.1,83.4,296.5,90.6z"/>
	<path class="st15" d="M281.5,87.3c0,0-3.9-15.7-13.2-19.7s-32.1-4.4-43.5,1.5c-31.2,16.2-29.1,41.2-29.1,41.2s12.6-24.5,40.4-33.6
		C270,65.5,281.5,87.3,281.5,87.3z"/>
	<path class="st16" d="M295.7,96.8c0,0-5.8,26.9-5.4,28.5s-3.2,5.2-3.2,5.2s0.2-16.2-0.8-21.5s-5.2-11.6-4.2-14.8
		c0.5-2.3,0.3-4.8-0.6-7c0,0,7.2-2.6,10.4-0.6c1.7,1.2,3.2,2.5,4.6,4C296.4,92.7,296.2,94.8,295.7,96.8z"/>
	<path class="st6" d="M195.3,195.2l-18.2,5.4c0,0,36.7,58.5,46.7,77.1s51.3,116.6,51.3,116.6s6.3-92.4,2.7-118.4s-5.3-22.6-5.3-22.6
		L195.3,195.2z"/>
	<path class="st17" d="M180.3,205.7c-0.1-0.2-80.5,34.4-80.5,34.4s17.5,133.8,25,191.8s-4,131-5.5,151s-24.5,97.5-24.5,97.5
		s27.5,14,82.2,10s89.2-36.5,94.2-43s8.2-20.3,8.2-20.3l10.8,25.3c0,0,39.5-190.9,30.5-264.8s-28.9-108.3-28.9-108.3
		s0.4-20.4-5.1-29.2s-19.7-18.9-19.7-18.9s15.6,54.3,11.7,87.7s-5.3,71.4-5.3,71.4s-27.1-88.2-52.1-127.5S180.3,205.7,180.3,205.7z"
		/>
	<polygon class="st4" points="194.8,183.2 178.5,202.8 218.8,258.8 250.8,232.6 	"/>
	<path class="st18" d="M262.2,213.5c0,0,0.4,8.7-3.6,13.4c-4,4.6-7.7,5.7-7.7,5.7c4.1,2.7,7.8,5.8,11.3,9.2
		c3.8,3.5,7.2,7.3,10.3,11.4C272.5,253.2,270.8,221.1,262.2,213.5z"/>
	<path class="st9" d="M234.7,245.8c0,0,15.1,21,16.1,27.8s-1,36.5,0,41.8s2.8,17.3,2.8,17.3l21.5,61.4c0,0,1-58.7,1.7-71.4
		s-13.3-45.7-13.7-52.7c-0.3-7,1.2-26.2,1.2-26.2l-13.5-11.3L234.7,245.8z"/>
	<path class="st19" d="M104.8,240.1c-4.6-2.1-14.5,1.8-23,16.2s-12.5,48.5-15.5,63.5c-3,15-14,54-17.5,64.5s-5,28-5,30.5
		s-9,13-10.5,18s2.5,21,4.5,26s10.5,18.5,22,24s28,14.5,35,16.2s17.5,1.7,27,5.2s47.5,14.2,47.5,14.2s-5-27.7-3-40.7
		s3.4-21.6,7.2-26.3c2.3-2.8,4.7-5.4,7.3-7.8c0,0-29.5,3.1-35,0.1s-13.8-7.1-17-6c-3.2,1.1-6.5,3-9,1l-15-12c0,0,7.5,0.9,9-2.5
		s1-14.5,4-19.1s5-14.9,5.5-17.6s4.1-36.6,6.5-64.7C131.8,299.6,139.3,255.8,104.8,240.1z"/>
	<path class="st19" d="M186.9,192.8c-0.6,0.7-9-2.9-18.5,7.8s-10.5,36.7-10.5,36.7l20.7,8.6l-12.2,13c0,0,73.5,100,78.5,107
		s40.4,46.7,39.7,45.3s-35.6-88.3-43.7-111.6s-60-99-60-99L186.9,192.8z"/>
	<path class="st5" d="M166.4,496.1c0,0,0.6,6.9,1.4,12s1.6,10.4,1.6,10.4s8.5-3,10.8-10s3.9-19.1,3.4-19S166.4,496.1,166.4,496.1z"
		/>
	<path class="st20" d="M96.8,268.8l128.6,40.5l13.2,197l-61.5-21.8l8.6-40.8l-25.5,1.3c0,0-14.6,2-19.4-3.9
		c-3.3-4.1-9.4-2.4-12.2-1.6c-2.8,0.8-6.9,0.1-6.9,0.1L96.8,268.8z"/>
	<path class="st5" d="M173.5,451.5c0,0-1.8,6.3-1.9,22.6c-0.1,7,1.2,14,3.9,13.6s5.9-1.3,9.4-1.2s4.4,0.2,4.4,0.2s-3.2,5.5-6.9,7.4
		s-16,2-16,2c-0.4-7.3-0.3-14.6,0.3-21.8C168.2,457.6,173.5,451.5,173.5,451.5z"/>
	<path class="st12" d="M236.2,411.1c-4.1,0-12,4.7-15,5s-8.7,2.3-12.7,3.3s-6.7,3.7-10,6.2s-10.7,13.8-13.7,15.3s-9,6.5-11.3,10.5
		s-2.7,20.9-2.1,26.2s0.4,10.3,4.1,10s10.7-2.4,18.2,0.3s10.1,2.6,17.1,3.9s10.7,3.2,17.2,1.6s16.5-11.3,18.8-15.7
		s8.8-10.3,6.2-13.3s-1.6-4.2-1.9-9.8s3-10.2,0-13.7s-3.3-5.8-8.3-6.2c-2.8-0.2-5.6-0.2-8.3,0l-0.3,6.2c0,0-13,2.2-14.3,0
		s-6.3-5.8-1-8.5s12-3.1,15-8.2S244.2,411.1,236.2,411.1z"/>
	<path class="st21" d="M869.5,253.8c0,0-24,8.8-30,47.7s-13.6,247.2-17.1,274.1s-15.6,71.7-15.6,71.7l30.9-0.9L869.5,253.8z"/>
	<polygon class="st22" points="1037.8,723.3 1037.8,688.8 864.8,491.8 832.4,704 834.3,723.3 	"/>
	<path class="st23" d="M844.6,652.9c-0.3,1.4-14.3-6.5-20.8-5.5c-3.6,0.5-7.1,1.4-10.5,2.8c0,0-1,17.2-6,29.2s-6.8,18.5-7.2,23.5
		s3.2,20.5,3.2,20.5h39.5L844.6,652.9z"/>
	<path class="st8" d="M986.3,198.8c0,0,30.5,24.8,43.8,32.8c14,8.4,49.7,18.8,47,18.5s-42.3,220.1-41,310.1
		c1.3,90,8.6,151.4,8.6,151.4s-4.7-6-4.7-4s-19.7,13.3-53.8,12s-114.8,4.7-116.8-42S865.9,551,865.9,551v-33.3c0,0-1.1,164-13.7,176
		s-33.4,12.6-33.4,12.6s30-132,28-212s-2-201.6,6-221.5s49.9-40.2,49.9-40.2L986.3,198.8z"/>
	<path class="st24" d="M978.8,190.1c0,0-5.2,4.1-11.8,9.1c-5.6,4.3-12,9.3-17,13.1c-10.8,8.2-33,25.2-33,25.2s-9-25-9.2-25.8
		s-3.8-32-3.8-32l19.8-13.7l51-35.5c0,0-1.2,10.5-0.5,28C974.8,169.2,976.3,179.7,978.8,190.1z"/>
	<path class="st25" d="M978.8,190.1c0,0-5.2,4.1-11.8,9.1c-8.6,2.2-19.7,4.3-28.7,3.6c-11.2-1.1-22.1-3.7-32.5-7.8l18-29l51-35.5
		c0,0-1.2,10.5-0.5,28C974.8,169.2,976.3,179.7,978.8,190.1z"/>
	<path class="st23" d="M891.3,50.8c-11,8.1-22.2,16.5-24.2,27.2s-1,26,0,30.8s4,28.5,6.2,36.8s10,21.8,11.8,26.2
		s14.7,22.8,20.7,23.2s21-0.2,28-4.2s29.8-14.5,31.8-28s3.2-18.2,6.8-20.2s11.8-5.5,15.8-14.5s6-21.5,3-27.5s-11.5-7.8-12.2-13.2
		s-22.5-30.5-28.5-34.5S913.6,34.3,891.3,50.8z"/>
	<path class="st26" d="M907.8,211.8c0,0-20,81.5-23.5,97c-3,20.5-14.8,84.5-14.8,84.5s49.1-107,72-139.5
		c13.6-19.4,28.6-37.8,44.9-55l-7.5-8.8l-61.8,47.5L907.8,211.8z"/>
	<path class="st20" d="M917.1,237.6l15.7,16.2c0,0-5.2,9.7-10.9,14s-7.3,6.7-7.3,6.7l-3.7,33.5l-41.3,85.4l14.4-82.5l15.3-39.3
		l-1.2-17.7c0,0,3.8-10.9,9.9-13.2C910.9,239.4,914,238.4,917.1,237.6z"/>
	<path class="st27" d="M991.5,69.6c-1.8,5.3-1.4,29.5-1.4,29.5c-1.3-1.3-2.6-2.6-4-3.8c-1.9-1.6-9.8,3.8-13.3,9.6s-3.5,8-3.5,8
		l-5.2-0.8c0,0-0.8-5.5-2-15s-10.1-15.4-13.4-18.9c-1.6-1.7-5.8-4.5-10.3-6.7s-9.3-3.8-11.5-2.9c-4.4,1.7,11.1,8.9,11.8,9.2
		c-1-0.2-33.9-8.2-38.6-7s13.8,7,13.8,7s-18.2,0.6-25-1.7c-4.2-1.5-8.6-2.5-13-3.1c-2.2-0.2-5.8,5.5-7.2,9.5s-1.3,10.2-0.6,14.2
		s1.1,25.5,1.1,25.5s-2.7-17.1-5.6-25.5c-3-8.4-5.2-8-5-15.5s5.8-24.2,15-36.7s32-19.2,38.5-21s29.1-4.1,51.5,6
		c22.8,10.2,30,35.7,30,35.7C992.7,66.6,992,68,991.5,69.6z"/>
	<path class="st21" d="M986.3,198.8c0-0.9-27.2,24.2-53.6,67.3s-63.2,127.2-63.2,127.2s32.3-30.5,50.3-48.5s66.5-76.5,66.5-76.5
		s-9.5-14.2-7.5-15.1s16.2-9.4,16.2-9.4l12.2-28.9L986.3,198.8z"/>
	<path class="st21" d="M869.5,393.3c0,0,15.6-82.3,17.8-97.3s14.8-67.9,14.8-67.9l-17.8,24.2l1.5,3c0,0-13.4,13-16.3,15.5
		s-4.2,15.5-5.9,28.8S869.5,393.3,869.5,393.3z"/>
	<path class="st28" d="M834.2,440.7l78.7-10.6c6.9-0.9,13.3,3.9,14.3,10.9l16.7,124.7c0.9,6.9-3.9,13.3-10.9,14.3l-78.7,10.6
		c-6.9,0.9-13.3-3.9-14.3-10.9L823.3,455C822.4,448,827.3,441.7,834.2,440.7z"/>
	<polygon class="st6" points="978.8,190.1 986.3,198.8 937.9,259.1 917.1,237.6 	"/>
	<path class="st6" d="M907.8,211.8c0,0-8.1,20.7-8.7,29.2s-3.4,20.1-3.1,19.1s3.6-14.1,9-17.8c3.7-2.4,7.8-4,12.1-4.8L907.8,211.8z"
		/>
	<path class="st23" d="M888.8,501.3c0,0-26-20-32.5-20.5s-24.5,0-24.5,0s-4,3.4-8,6.9s-5.5,5.6,0,7.1s12.5,0.5,12.5,0.5
		s-13.7,0.5-16.1,6s5.1,9.7,2.1,14.1s-6.2,12.9-2.6,14.4s4.1,8.7,5.1,11.6s4.5,4.9,6.5,10.4s4,11,16.5,10s22-0.2,30.5-6.3
		s22.8-11.2,22.8-11.2L888.8,501.3z"/>
	<path class="st21" d="M888.8,501.3c0,0,49.5-11.5,56-12.5s29-11.5,34-12s19,0,24.5,0s13-7.5,20.5-11c7.5-3.5,3.5-3.2,2.5-11.1
		s-2.5-50.4-7-74.4s-6-62.5,2-82c8-19.5,12.5-35.5,26.5-44.5s24.5-7.7,34-0.6s16.5,55.7,13,73.9s1.3,31.2,0.9,41.7
		s5.1,61.8,8.1,72.2s7.5,57.8,2.5,72.3s-21.6,19-29,21.5s-40.5,11.5-51.5,12.2c-11,0.8-59,5.6-67.5,8.4s-36,13.3-41.2,12.8
		s-11.2-7.4-16-24L888.8,501.3z"/>
	<polygon class="st6" points="829,656.1 812.5,658.2 812.5,647.2 831,645.1 	"/>
	<path class="st29" d="M991.5,69.6c-1.8,5.3-1.4,29.5-1.4,29.5c-1.3-1.3-2.6-2.6-4-3.8c-1.9-1.6-9.8,3.8-13.3,9.6s-3.5,8-3.5,8
		l-5.2-0.8c0,0-0.8-5.5-2-15s-10.1-15.4-13.4-18.9c-1.6-1.7-5.8-4.5-10.3-6.7l0,0c0,0,4.5-5.4,22,0.7c17.5,6.2,33.2-6.9,33.2-6.9
		C992.7,66.6,992,68,991.5,69.6z"/>
	<path class="st9" d="M355.8,178.8c-10,16.2-28.7,47.4-28.7,67.5s11.3,47.9,11.3,47.9s39.5-1.5,48.8-33.5S370.9,154.5,355.8,178.8z"
		/>
	<path class="st30" d="M449.5,282.3c0,0,14.4-4.7,24.3,13.7c6.7,12.5,4.3,260.2,4.3,260.2l-18.3,23.6L449.5,282.3z"/>
	<path class="st20" d="M459.9,551.8c0,0-5.1,35-6.4,47.3s3.4,124.2,3.4,124.2H289.2c0-1.5-13.3-67.3-9.7-96.3s18.3-63.9,18.3-63.9
		s17-31,18-31S459.9,551.8,459.9,551.8z"/>
	<path class="st31" d="M415.1,511.5c0.7,1-6.3,38-6.3,38c8.4,2.6,17,4.6,25.7,6c11.7,1.7,25.3,0,25.3,0l4.1-26L415.1,511.5z"/>
	<path class="st32" d="M363.9,240.1c0,0-16.6,20.8-28.8,24.3s-29.2,11-29.2,11s12,90.5,12,139s-33.5,165.5-33.5,165.5
		s87.3,32.3,129.2,28.7c32.8-2.8,54.8-21.8,54.8-23.2s-8.4-128.3-4.4-153.5s10.9-114,1.4-132.3s-26.1-21.8-26.1-21.8L363.9,240.1z"
		/>
	<path class="st1" d="M427,291c-1,7-18.2,10.9-18.2,10.9s-36.4-17-45.7-28.3c-13.5-16.5,0.7-33.6,0.7-33.6s0.2-4.5,0-16.8
		c-0.1-4.1-0.4-8.1-0.7-11.5c-0.7-6.7-1.5-11.2-1.5-11.2l28.4,16l23.4,13.2c0,0-1,11.5-1.7,21.7c-0.4,5.1,0.1,8,1,10.7
		c1.1,3.4,2.5,6.6,4.1,9.8C419.8,277.3,428,284.1,427,291z"/>
	<path class="st25" d="M412.8,262.3c-0.1,0.2-0.1,0.4-0.1,0.4s-7.4-3.4-23.6-15.2s-25.9-35.6-25.9-35.6s13.1,2.4,26.9,4.8l23.4,13.2
		c0,0-1,11.5-1.7,21.8C411.4,256.7,411.8,259.6,412.8,262.3z"/>
	<path class="st33" d="M344.3,164.8c-6,0-9-1-9.2,8.8s3,20.5,9.2,22.2s13.8,3,13.8,3L344.3,164.8z"/>
	<path class="st33" d="M410.1,105.6c9.3,5.1,22.4,16.8,24.6,28.2s2.7,27.4,3.2,31c1.4,8.9,1.8,18,1,27c-1.2,13-6,25.6-13.7,34.3
		S414.3,238,409,238.2s-9.4-1.1-23.2-8.1S365,217,357.2,197.4s-8.8-25.1-3.6-33.8l5.2-8.8c0,0,4.2-5.2,4.2-9.8s-6.4-19.8,7.9-26.2
		s30.7-8.5,32.5-10.8S404.3,102.4,410.1,105.6z"/>
	<path class="st9" d="M436.1,143.6c0,0-0.3-2.3-1.4-9.8s-8.1-14.8-12.7-19.6s-13.9-9.6-13.9-9.6c-0.7,1.9-1.8,3.5-3.2,4.9
		c-2.5,2.5-22.4,9.2-28.3,12.2l0,0l-0.1,0.1c-5.9,3.2-12.8,15.7-12.6,20.9s-4.4,15.5-8.1,20.8s-3,22.7-3,22.7s-5.3-13.2-8.8-17.8
		s-7.2-2.4-7.2-2.4s-1.4-29.9,7.2-44.6s18.4-21,33.9-26.3c15.5-5.3,23.6,0.5,23.6,0.5s3-1.8,10.8,1.2s20.4,18.5,23.8,29
		S436.1,143.6,436.1,143.6z"/>
	<path class="st34" d="M376.4,121.9c-5.9,3.2-12.8,15.7-12.6,20.9s-4.4,15.5-8.1,20.8s-3,22.8-3,22.8s-5.3-13.2-8.8-17.8
		s-7.2-2.4-7.2-2.4c2.8-9.1,7.5-17.5,13.6-24.7C359.5,130.9,374.6,122.9,376.4,121.9z"/>
	<path class="st7" d="M471.8,397.2l26.6,15.1c3.5,2,4.7,6.4,2.7,9.9l-33.9,59.9c-2,3.5-6.4,4.7-9.9,2.7l-26.6-15.1
		c-3.5-2-4.7-6.4-2.7-9.9l33.9-59.9C463.8,396.4,468.3,395.2,471.8,397.2z"/>
	<path class="st31" d="M430.8,284.3"/>
	<path class="st2" d="M427.1,436.8c2.9,0.4,5.9-0.4,8.2-2.2c4.2-3,14.4-5.2,19.5-7.8s13,0.2,16.8,0s14.7-0.3,16.7,1.5
		s2.5,4.8,6.3,6.5s10,3.7,6.5,6.2s-7.7,3.7-11.5,1.2s-5.5-3.7-6.5-3.3c-4,0.8-8.1,0.9-12.2,0.3c0,0,15,9.7,18,12.7s7.2,5.5,6,9.5
		s-3,5.7-5.3,5.7c-1.8-0.1-3.5-0.4-5.2-1c0,0,1.2,2.2-1.2,5.2c-1.2,1.7-2.9,2.9-4.8,3.6c0,0,0.7,4.4-0.5,6.1s-4.8,4.2-4.8,4.2
		s0,4.5-2.8,6.3s-10-1-15-1.7s-18-7.2-20.3-9.5s-6.8-1.7-6.8-1.7s-2-13.9-2.5-23.8C425.4,448.7,425.9,442.7,427.1,436.8z"/>
	<path class="st35" d="M307.8,274.3c0,0-20.7-5.9-31.3,18.1s-22.7,139.4-23.3,176.7s1,47.4,19,45.4c18-2,65.8-4,74.4-6.7
		s26.7,2.1,36.2-3.5s48-7.5,48-7.5s-2.5-24-3.7-38c-0.7-8.7-0.6-17.4,0.2-26c0,0-27.4,7.5-33,9s-7.6,2.5-11.6,2s-20.4-0.7-26.2,1.2
		s-20,7.4-21.6,6.1s-22.1,0.8-27.6,2s8.7-24.3,8.5-38.8s2-43,2.5-49.5s3-11.5,3-23.5S325.8,291.8,307.8,274.3z"/>
	<path class="st8" d="M581.9,240.8c-15.7,11.1-33.3,24.1-47.8,71.6s4.2,58.6,4.2,58.6s70.8-16.3,78.6-54.3S615.2,217.3,581.9,240.8z
		"/>
	<path class="st18" d="M496.9,585.2c0,0,12.6,3.2,18.7,4.7s8,1.3,8,1.3s-20.5-36.3-20.8-35.7s-4,6.8-4.7,13.7
		S496.9,585.2,496.9,585.2z"/>
	<path class="st26" d="M654.2,302.1l28.1,12.7c0,0-84.9,265-87.7,265s-62.3-135.5-62.3-163s10.5-60.5,16.5-71.5s27.5-36.5,27.5-36.5
		L654.2,302.1z"/>
	<path class="st18" d="M570.2,330.5c0.2-0.7-0.6-23.7,9.3-33s13.5-12.2,18.3-14.9s41-6.9,48.1-4.1s19.1,10.9,12.5,25.5
		S570.2,330.5,570.2,330.5z"/>
	<path class="st8" d="M512.8,615.3c0,0-1.9,16.5,0,45.5s8.8,62.5,8.8,62.5h162c0,0,13.3-70.5,6.7-103s-12.3-64-12.3-64l-142.4-4.5
		L512.8,615.3z"/>
	<path class="st36" d="M654.2,302.1c0,0-4.3,9.6-6,12l0,0c-1.7,2.3-8.7,14.3-13.3,20.7s-5.2,14.5-24.3,29.7
		c-28.6,22.7-34,40.7-34,40.7s2-23.3-3.1-42s0-41.7,0-41.7s19.1-11.7,21.2-20.3c1.2-4.9,1-14.8,0.7-22.5c-0.3-5.9-0.7-10.5-0.7-10.5
		l28.5-1.2l13.4-0.6l4-0.2c0,0-0.2,0.8-0.4,2.3c-1.3,7.2-1.7,14.4-1.3,21.7C639.7,302.7,654.2,302.1,654.2,302.1z"/>
	<path class="st37" d="M561.6,324.2c-2.2-1.3-43.2,23.8-46.6,69.4c-1.6,22-7.2,70.1-8.5,76.8s-8.7,18.7-7,22.3s1.2,12.7-0.2,17.7
		s-1.2,14,0,20s1.8,7.7-1,14.7s-6.1,21.5-3.4,30.3s1.7,11.8,2.7,8.8s1.6-18.5,13.4-26.8c10.5-7.3,24.4-8.6,29.1-6.6
		s15.8-31,14.2-53.3c-0.8-10.9-15.2-52.5-14.3-92.3C540.8,363,561.6,324.2,561.6,324.2z"/>
	<path class="st20" d="M662.8,302.1l45,20.7c0,0-16.6,31.2-22.5,58.5c-5.2,24,4.5,83.5,4.5,83.5s-19,53.5-12.5,82.5s13,73,13,73
		s-25.4,13-52.4,18s-40,9-40,9l-26.2-77l-19.3,70.5c0,0-43.4-21.3-40.4-32.3s34.4-42.7,35.9-78.2s-1-58.5-8.5-76.5
		s-15.5-35.5-9.5-63.5s30.5-70,33.5-72s20.6-17.2,18.6-13.5s-32.6,57.5-34.1,101s18,95.5,18,95.5s21.5-45,42.5-81.5
		C631.8,378.8,662.8,302.1,662.8,302.1z"/>
	<path class="st28" d="M547.8,326.8l-6,10.7l28.3-19c-2.9-1.9-6.6-2.3-9.8-0.9C554.7,319.8,547.8,326.8,547.8,326.8z"/>
	<path class="st6" d="M594.8,284.4c0,0-21.8,8.4-34.4,25.4l-12.6,17c0,0,13.3-11.7,18.3-9s6.3,2.7-1.5,12.7s-16.5,18.3-10.1,22.7
		s14.3,12,16.8,20.7s5.2,31.3,5.2,31.3s4.6-28.3-0.3-46s4.7-53.7,9-61.7C587.7,292.7,591,288.3,594.8,284.4z"/>
	
		<rect x="532.1" y="431.2" transform="matrix(0.9006 -0.4346 0.4346 0.9006 -166.7927 312.2511)" class="st9" width="134.5" height="179.4"/>
	<path class="st38" d="M541.8,551.8c0,0-12-8.3-22.3-2.3c-10.3,6-17.7,18.7-17.7,18.7s13.3,11,17,18c3.7,7,8,13.3,13.5,16
		s13.5,5.3,18.8,5.7s19.7,1.3,24,0s13-7.3,13.7-9.3s-2.7-5-6.3-6s-0.3-2,2.3-2.3s0.8-5-6.2-7.8c-7.5-3-27.1-15.2-30.8-19.8
		C545.3,559.2,543.3,555.6,541.8,551.8z"/>
	<path class="st36" d="M524.4,521.5c-1.9,2.3-2.5,6.7,1.9,9.7s7.8,8.7,8.8,11.3s4.7,18.3,9.3,23.7s8,7,19.7,9s33.8-3.2,33.8-3.2
		l-3.1-41.1c0,0-12.4-13.7-30.9-12.2s-20.8,2.8-26.1,2.5C533.3,521,528.8,521.1,524.4,521.5z"/>
	<path class="st37" d="M593.8,530.8c0,0,23,2.3,26.7,2s13-7,21.3-8s26.3-3.9,31.7-6.3s14.3-12,17.3-13c-0.2-4.3-0.2-8.7,0-13
		c0.3-8.3-3.8-40.4-3.8-40.4s-8-25.3-3.4-66.1s23.3-63.2,23.3-63.2s15.4,3.9,18.3,22c3.7,22.5,5.6,54.1,8.3,66.7
		c2.7,12.3,5.3,47.7,5.3,56s2.3,19.3,1,29.7c-1.3,10.3,6.7,27.3,4.3,33.3c-1.6,4.5-3.8,8.9-6.3,13c-2.7,4.3-6,15-23.3,19.3
		s-42.7,8-57.7,11s-21.7,1-37,0s-22.9-1.9-22.9-1.9L593.8,530.8z"/>
	<path class="st6" d="M639.6,277.8c0,0,12-1.1,23.2,11.6s15.1,17,15.3,27.4s2.3,30.3,2.3,30.3s-12.3-5.7-20-13.3
		c-4.8-4.9-8.4-10.8-10.7-17.3l-4.3,1.9c0,0,11.6-19.5,11.3-24.9C656.3,283.5,639.6,277.8,639.6,277.8z"/>
	<path class="st36" d="M574.5,215.5c0,0-8.7-2.9-9.7,4.8s1.9,22.2,5.5,27.2c2.2,3,5.4,5,9.1,5.7L574.5,215.5z"/>
	<path class="st25" d="M654.2,302.1c0,0-4.3,9.6-6,12l0,0c-10.5-0.7-20.8-3.2-30.5-7.3c-15.4-6.8-22.4-28.1-22.4-28.1l27.8-11.8
		l13.4-0.6c1.1,0.6,2.2,1.4,3.5,2.1c-1.3,7.2-1.7,14.4-1.3,21.7C639.7,302.7,654.2,302.1,654.2,302.1z"/>
	<path class="st36" d="M662.2,216.6c0,0,8.9-2.2,9.3,5.6s-3.7,22-7.8,26.6c-2.4,2.8-5.8,4.6-9.5,5L662.2,216.6z"/>
	<path class="st36" d="M616.4,291c-3.7,0-34.5-15.7-39.2-39.4c-2.1-10.5-3.3-21.1-3.7-31.8c-0.5-14.7,2.2-28.6,2.8-35.6
		c1-11.7,5.8-19.1,28.6-21.6c27.2-3,52.1-2.9,53.1,18.5c1.7,35.7,6.4,43.7-3.9,75.4C646.4,280.1,619.6,291,616.4,291z"/>
	<path class="st8" d="M573.5,219.8c0,0,5.2-14.1,6.2-26.8c0.9-10.8,8.5-29.7,36.7-29.6s35.2,8.6,37,18.4s3.3,29.5,5,34.9
		c1,3.3,1.6,6.6,1.9,10.1c0,0,20-60.1-13.3-79.2s-64.4-0.4-72.8,17.3C563.3,187.8,573.5,219.8,573.5,219.8z"/>
	<circle class="st39" cx="911.2" cy="445.4" r="5.2"/>
	<path class="st4" d="M747.8,259"/>
	<path class="st40" d="M671.8,187.7c-2.8-1.7-4.4-4.8-4-8.1v-4c0-26.8-20.5-48.6-45.9-48.6h-8.1c-25.3,0-45.9,21.7-45.9,48.6v4
		c0.4,3.2-1.2,6.4-4,8.1c0,0-4.8-0.5-5.8,6.8c0,0,7.2,6.8,59.7,7.3c52.5-0.5,59.7-7.3,59.7-7.3C676.6,187.2,671.8,187.7,671.8,187.7
		z"/>
	<path class="st9" d="M671.8,187.7c-2.8-1.7-4.4-4.8-4-8.1v-4c0-3.9-0.5-7.8-1.3-11.7c0.1,3.6,0.6,7.4-0.6,10.8
		c-2.7,7.4-20.7,7.2-26.3,1.8c-2.9-2.8-2.9-3.8-3.3-8.6c-0.5-5.7-1.3-16.9-1.6-22.6c-0.3-5.6-1.2-11.1-1.2-16.7
		c-3.8-1-7.6-1.5-11.5-1.5h-8.1c-3.8,0-7.6,0.5-11.3,1.5c-0.5,7.9-1.3,15.9-1.6,23.8c-0.3,7.6,0.2,16.1-3.1,24.8c-1,2.6-5.4,2.9-8,3
		c-1.9,0.1-3.8,0-5.6,0.2c-2,0.4-3.9,0.5-5.9,0.5c-3.4-0.2-4.7-3.3-5.3-6.3c-0.6-3.6-1-7.3-1-11c-0.1-3.2,0.1-6.4,0.7-9.6
		c-3.2,6.7-4.8,14.1-4.8,21.5v4c0.4,3.2-1.2,6.4-4,8.1c0,0-4.8-0.5-5.8,6.8c0,0,7.2,6.8,59.7,7.3c52.5-0.5,59.7-7.3,59.7-7.3
		C676.6,187.2,671.8,187.7,671.8,187.7z"/>
	<path class="st34" d="M567,184.4c-0.7,1.4-1.8,2.6-3.2,3.3c0,0-4.8-0.5-5.8,6.8c0,0,7.2,6.8,59.7,7.3c52.5-0.5,59.7-7.3,59.7-7.3
		c-1-7.3-5.8-6.8-5.8-6.8c-1.4-0.8-2.5-1.9-3.2-3.3C668.6,184.4,625.1,179.3,567,184.4z"/>
	<path class="st9" d="M671.8,187.7c-0.5-0.3-0.9-0.6-1.3-1c-0.3,2.8-2,5.3-4.7,6.4c-8.2,3.6-17.2,4.4-26,4.5
		c-17.4,0.3-31.3,0.8-52.1-1.3c-3.8-0.4-7.9-0.1-11.5-1.5c-2.1-0.8-5-2.2-6.1-4.4c-1.8-3.6,3.6-5.6,6.1-6.4c0.4-0.1,0.8-0.2,1.2-0.4
		c-3.4,0.2-6.8,0.5-10.3,0.8c-0.7,1.4-1.8,2.6-3.2,3.3c0,0-4.8-0.5-5.8,6.8c0,0,7.2,6.8,59.7,7.3c52.5-0.5,59.7-7.3,59.7-7.3
		C676.6,187.2,671.8,187.7,671.8,187.7z"/>
	<path class="st41" d="M528.5,444.4l53.9-26c1.9-0.9,4.3-0.1,5.2,1.8l6.6,13.8c0.9,1.9,0.1,4.3-1.8,5.2l-53.9,26
		c-1.9,0.9-4.3,0.1-5.2-1.8l-6.6-13.8C525.8,447.7,526.6,445.4,528.5,444.4z"/>
	<circle class="st20" cx="409.1" cy="316.8" r="4.4"/>
	<circle class="st20" cx="410.5" cy="337.5" r="4.4"/>
	<circle class="st6" cx="492.6" cy="418.9" r="3.7"/>
</g>
</svg>
