<svg id="Layer_1" data-name="Layer 1" xmlns="http://www.w3.org/2000/svg" xmlns:xlink="http://www.w3.org/1999/xlink" viewBox="0 0 268.74 254.62"><defs><style>.cls-1,.cls-12,.cls-4{fill:none;}.cls-2{fill:#1386c9;}.cls-3{fill:#f2f2f2;}.cls-4{stroke:#1d65af;stroke-width:3px;}.cls-5{clip-path:url(#clip-path);}.cls-6{fill:#fff;}.cls-7{fill:#4e4d4d;}.cls-8{fill:#1b1b1b;}.cls-9{fill:#e5e5e4;}.cls-10{fill:#193051;}.cls-11{fill:#b4b4b4;}.cls-12{stroke:#fff;}</style><clipPath id="clip-path" transform="translate(-262 -179.38)"><rect class="cls-1" x="262" y="179.38" width="268.74" height="254.63"/></clipPath></defs><title>playbook</title><rect class="cls-2" x="220.75" y="157.23" width="31.16" height="3.1"/><rect class="cls-2" x="250.41" y="123.5" width="3" height="36.83"/><rect class="cls-2" x="214.76" y="62.79" width="3" height="36.83"/><rect class="cls-2" x="169.96" y="33.79" width="3" height="59.11"/><rect class="cls-2" x="18.97" y="142.12" width="30.16" height="2.92"/><rect class="cls-2" x="69.77" y="52.21" width="3" height="43.08"/><rect class="cls-2" x="119.22" y="70.62" width="3" height="36.83"/><rect class="cls-3" x="105.73" y="250.53" width="63.12" height="4.09"/><path class="cls-4" d="M333.27,287.2" transform="translate(-262 -179.38)"/><path class="cls-4" d="M333.27,230.87" transform="translate(-262 -179.38)"/><path class="cls-4" d="M384.22,281.17" transform="translate(-262 -179.38)"/><path class="cls-4" d="M384.22,240.53" transform="translate(-262 -179.38)"/><g class="cls-5"><path class="cls-2" d="M478.26,258.07c11.81,0,21.38-9.09,21.38-20.31s-9.57-20.32-21.38-20.32-21.38,9.09-21.38,20.32,9.57,20.31,21.38,20.31" transform="translate(-262 -179.38)"/><path class="cls-6" d="M483.94,237.63h-2.27v-2.27h2.27Zm-4.54,0h-2.27v-2.27h2.27Zm-4.55,0h-2.27v-2.27h2.27Zm12.49-10.22H469.18a2.26,2.26,0,0,0-2.26,2.28v20.43l4.54-4.54h15.89a2.27,2.27,0,0,0,2.28-2.27V229.69a2.28,2.28,0,0,0-2.28-2.28" transform="translate(-262 -179.38)"/></g><path class="cls-4" d="M327.34,323.42" transform="translate(-262 -179.38)"/><rect class="cls-7" x="57.76" y="103.1" width="159.05" height="95.83"/><rect class="cls-8" x="52.8" y="196.74" width="168.69" height="5.73"/><g class="cls-5"><path class="cls-2" d="M282.12,292.59A19.91,19.91,0,1,0,262,272.69a20,20,0,0,0,20.12,19.9" transform="translate(-262 -179.38)"/><path class="cls-6" d="M282.11,276.58a3.9,3.9,0,1,1,3.74-3.89,3.82,3.82,0,0,1-3.74,3.89m7.94-2.81a7.4,7.4,0,0,0,0-2.17l2.26-1.84a.58.58,0,0,0,.13-.71l-2.14-3.86a.52.52,0,0,0-.65-.24L287,266.07a7.71,7.71,0,0,0-1.81-1.09l-.4-3a.55.55,0,0,0-.53-.47H280a.55.55,0,0,0-.53.47l-.4,3a7.92,7.92,0,0,0-1.81,1.09L274.58,265a.53.53,0,0,0-.65.24l-2.14,3.86a.58.58,0,0,0,.13.71l2.26,1.84a7.4,7.4,0,0,0,0,2.17l-2.26,1.84a.58.58,0,0,0-.13.71l2.14,3.86a.52.52,0,0,0,.65.24l2.66-1.12a8.34,8.34,0,0,0,1.81,1.1l.4,2.94a.55.55,0,0,0,.53.47h4.27a.55.55,0,0,0,.53-.47l.4-2.94a8.58,8.58,0,0,0,1.81-1.1l2.66,1.12a.53.53,0,0,0,.65-.24l2.13-3.86a.56.56,0,0,0-.12-.71Z" transform="translate(-262 -179.38)"/><path class="cls-2" d="M333,235.22c11.81,0,21.38-9.1,21.38-20.32s-9.57-20.32-21.38-20.32-21.37,9.1-21.37,20.32,9.57,20.32,21.37,20.32" transform="translate(-262 -179.38)"/><path class="cls-6" d="M338,216.17a11.13,11.13,0,0,0-1.23.07,5.31,5.31,0,0,1,2.49,4.37v3.17h7.61v-3.17c0-3-5.91-4.44-8.87-4.44m-10.15,0c-3,0-8.88,1.48-8.88,4.44v3.17h17.76v-3.17c0-3-5.92-4.44-8.88-4.44m0-2.54a3.81,3.81,0,1,0-3.8-3.8,3.8,3.8,0,0,0,3.8,3.8m10.15,0a3.81,3.81,0,1,0-3.81-3.8,3.8,3.8,0,0,0,3.81,3.8" transform="translate(-262 -179.38)"/><path class="cls-2" d="M383.31,255.54a20.32,20.32,0,1,0-20.11-20.32,20.22,20.22,0,0,0,20.11,20.32" transform="translate(-262 -179.38)"/><path class="cls-6" d="M389.72,241.37h-2.31v-4.92h2.31Zm-4.61,0h-2.3v-12.3h2.3Zm-4.61,0h-2.3v-8.61h2.3ZM392,224.15H375.9a2.38,2.38,0,0,0-2.3,2.46v17.22a2.38,2.38,0,0,0,2.3,2.46H392a2.38,2.38,0,0,0,2.3-2.46V226.61a2.38,2.38,0,0,0-2.3-2.46" transform="translate(-262 -179.38)"/><path class="cls-2" d="M433.66,220c11.81,0,21.38-9.1,21.38-20.32s-9.57-20.31-21.38-20.31-21.38,9.09-21.38,20.31S421.85,220,433.66,220" transform="translate(-262 -179.38)"/><path class="cls-6" d="M440.38,205.1a3.54,3.54,0,0,0-2.48,1l-9-5.44a4,4,0,0,0,.11-.92,3.91,3.91,0,0,0-.11-.91l8.89-5.39a3.68,3.68,0,0,0,2.58,1.06,3.93,3.93,0,1,0-3.79-3.92,3.91,3.91,0,0,0,.12.91l-8.9,5.39a3.66,3.66,0,0,0-2.57-1.06,3.93,3.93,0,0,0,0,7.85,3.7,3.7,0,0,0,2.57-1.06l9,5.43a4.12,4.12,0,0,0-.1.86,3.68,3.68,0,1,0,3.68-3.81" transform="translate(-262 -179.38)"/><path class="cls-2" d="M514.2,316.49a16.68,16.68,0,1,0-16.53-16.68,16.61,16.61,0,0,0,16.53,16.68" transform="translate(-262 -179.38)"/></g><path class="cls-6" d="M517.15,304.63l5.23-5.22-5.23-5.23,1.59-1.59,6.82,6.82-6.82,6.81Zm-5.9,0-5.16-5.22,5.22-5.23-1.65-1.59-6.81,6.82,6.81,6.81Z" transform="translate(-262 -179.38)"/><g class="cls-5"><path class="cls-3" d="M322.88,270.88s-14.17,0-14.17,14.18v94.22s0,14.18,14.17,14.18H475.27s14.17,0,14.17-14.18V285.06s0-14.18-14.17-14.18Z" transform="translate(-262 -179.38)"/></g><polygon class="cls-3" points="160.03 252.44 114.55 252.44 119.78 220.5 155.07 219.4 160.03 252.44"/><polygon class="cls-9" points="160.58 252.44 136.05 252.44 120.34 220.5 155.62 219.4 160.58 252.44"/><g class="cls-5"><path class="cls-3" d="M481.46,405.88H316.69c-4.41,0-8-3.31-8-7.38v-15c0-4.08,3.57-7.38,8-7.38H481.46c4.41,0,8,3.3,8,7.38v15c0,4.07-3.57,7.38-8,7.38" transform="translate(-262 -179.38)"/><path class="cls-10" d="M478.69,381.85H319.61a4.8,4.8,0,0,1-4.81-4.76V281.5a4.8,4.8,0,0,1,4.81-4.76H478.69a4.8,4.8,0,0,1,4.81,4.76v95.59a4.8,4.8,0,0,1-4.81,4.76" transform="translate(-262 -179.38)"/></g><rect class="cls-2" x="57.74" y="103.07" width="158.52" height="93.59"/><g class="cls-5"><path class="cls-11" d="M402.46,393.46a2.35,2.35,0,1,1-2.34-2.32,2.33,2.33,0,0,1,2.34,2.32" transform="translate(-262 -179.38)"/><path class="cls-6" d="M410.65,295.67a5.66,5.66,0,0,1,2.23-3.4v-.82l-1.51-.27.13-1-1.31-1.3v-1c.07-.89-.78,0-.78,0-2.76.82-2.49,2.32-2.49,2.32a2.09,2.09,0,0,1-.53,2.93c.66,1.77,1.77,1.7,1.77,1.7a2.17,2.17,0,0,1,2.49.88" transform="translate(-262 -179.38)"/><path class="cls-6" d="M373.1,312l3.34-2.65c2.95-1.64,2.17-4.16,2.17-4.16.06-1.22,2.09-1.16,2.09-1.16l-.85-1c2-2.45.59-4.43.59-4.43,1.05-.81-4.59,3.41-4.59,3.41-4.59,2-3.47,5.79-3.47,5.79,2.56,1.29,1.18,2,1.18,2-2-.41-1.83.62-1.83.62A2.46,2.46,0,0,0,373.1,312" transform="translate(-262 -179.38)"/><path class="cls-6" d="M367.73,313.59l3.21-.95c1.31,2.31-.72,4.49-.72,4.49l-.67,4.57.47,1.15a1.11,1.11,0,0,1-1.51.62l-.45-2.39.65-5a1.62,1.62,0,0,0-1-1.7Z" transform="translate(-262 -179.38)"/><path class="cls-6" d="M424.2,306.75c1.81,1.45,1.32-1.44,1.32-1.44l1.25-2.32c.64-1-.42-2-.42-2l.42-1.37c1.6-1-.21-3-.21-3l1.36-1.44h1.21v-.94l-1.46-.72a2,2,0,0,0,1.19-1.95l-.14-1.74-.84.72-2.36,3a14.86,14.86,0,0,0-2,.94c-1.73-.15-1,2.45-1,2.45l.9.65-.07,1.52-.83.36-1.39-.5.42,2.17a9,9,0,0,0,2.57,1.37Z" transform="translate(-262 -179.38)"/></g><rect class="cls-12" x="157.33" y="108.32" width="12.63" height="23.82"/><g class="cls-5"><path class="cls-6" d="M418.4,349a11.1,11.1,0,0,0-.75-2.21c-2.17-.05-5.65-2.61-5.65-2.61-3.8,3.14-6.44.44-6.44.44,2.18-.68,4.49-3.42,4.49-3.42a4.09,4.09,0,0,0,2.44,0l.62-1.16L412,339.3l-.46-2.41c-1.35-.43,1.57-1.54,1.57-1.54l5.38-9.73a8.64,8.64,0,0,0-.19-2.8,8.07,8.07,0,0,1,2.64-2.89c1.11-5.64-2.82-5.2-2.82-5.2a31.81,31.81,0,0,1-9.92,0c-2.51-1-7.42,1.54-7.42,1.54-1.25-.19-1.32-1.85-1.32-1.85.44-.75,1.6-.66,1.6-.66l1-1.44c-2.87-.29-1.85-1.74-1.85-1.74l2.5-2.79c3.34-2,3.52-4.05,3.52-4.05,3.8-.48,2.6-3.75,2.6-3.75l.83-1.84-.93-1.25c-4.16,1.12-9.91,2-9.91,2-2.28.33-6-1.55-6-1.55-1.67-.19-1.58,1.26-1.58,1.26v1.92a18.76,18.76,0,0,1-2.87,4.15,4.4,4.4,0,0,0,.65,2.21c-2,.1-1.45,1.06-1.45,1.06l1.73,1.26.28,1.15c-4.92-1-5.38,1.45-5.38,1.45v3.27c-1.85,2.27-.66,3.76-.66,3.76a1.61,1.61,0,0,0,2,.77,6.58,6.58,0,0,1-2.32,1.93c-2.23-.63-1.47-3-1.47-3l.36-2-1.49,1.55c-.6-.2-.12-2.91-.12-2.91-.43-3.4-2.19-1.24-2.19-1.24a4,4,0,0,1,0,2.22,1.52,1.52,0,0,1-1.86-1.45c-.65-.57-.83,1.26-.83,1.26-1.58,0-1,2.21-1,2.21,1.25,2.22,2.54.72,2.54.72a21.08,21.08,0,0,0,.33,2.66c1.53,3,4.45,1.3,4.45,1.3-1.43,1.73-.83,2.45-.83,2.45l1.11.2a19.4,19.4,0,0,1,1.53-2.85l1.25.2.09,1.2c-1.11-.24-2.87,3.37-2.87,3.37l.19,1.64c-2.83.48-3.53,1.54-3.53,1.54l2.41,1.26-.09,1c-2.55-1.64-3.38-.15-3.38-.15-.51,1.35,1.16,3.33,1.16,3.33l-.28,1.35-.93.29c-2.13-1.93-.56,1.35-.56,1.35h1.21l4.22-.92c2.5-1.78-.1-3.71-.1-3.71l1.44.34c.65.07,3.35-3.2,3.66-3,1.44,1-3.33,2-1.2,4.43l-1.35,1c-2.22,3.08-4.63,7-4.63,7-.77.53-3.23,1.23-4.08,2a3.84,3.84,0,0,0-1,3.32l1.76-1.25.47,1.06a1,1,0,0,0,.27,1.73c3.43-2.41-.12-2.71,1.72-3.56,2.08-1,3.66-5.21,3.66-5.21l.74-1.78c1.44.77-.55,4.39-.55,4.39,0,9.44-1.67,10.4-1.67,10.4-.79,3,2.31.68,2.31.68a17.18,17.18,0,0,1,2.37-8c-2.41-7.23.32-3.81.32-3.81.65,4.82,2.78,4.29,2.78,4.29l1.58-4.91,1,.86c-2.23,4.63-1.11,4.72-1.11,4.72,4.08,5.11,1.2,6.07,1.2,6.07a6.67,6.67,0,0,0-1.76,4c-.28,1.15-3.15,3.56-3.15,3.56-.79.77.37,1.83.37,1.83l2.32,4.05.27-1.16C388.87,364,392,365.9,392,365.9l3.15,2.79c.09-2.7,1-2.41,1-2.41a6,6,0,0,1,2.78.87c3.38-2.6,5-2.22,5-2.22,2.83-1.3,5.84-9.06,5.84-9.06,3.81-5.78,8.63-6.84,8.63-6.84" transform="translate(-262 -179.38)"/></g><rect class="cls-2" x="18.97" y="108.21" width="3" height="36.83"/></svg>